<?xml version="1.0" encoding="UTF-8"?>
<svg width="60px" height="70px" viewBox="0 0 60 70" version="1.1" xmlns="http://www.w3.org/2000/svg" xmlns:xlink="http://www.w3.org/1999/xlink">
    <title>money-back-icon</title>
    <g id="Page-1" stroke="none" stroke-width="1" fill="none" fill-rule="evenodd">
        <g id="Artboard" transform="translate(-17.000000, -8.000000)" fill="#32325D" fill-rule="nonzero">
            <g id="money-back-icon" transform="translate(17.000000, 9.000000)">
                <g id="handout" transform="translate(0.000000, 39.000000)">
                    <path d="M55.925,13.991 L32.033,16.069 C29.821,16.261 27.603,15.774 25.676,14.673 L19.091,10.91 L34.456,10.91 C36.514,10.91 38.182,9.242 38.182,7.184 C38.182,5.391 36.905,3.852 35.143,3.522 L21.347,0.935 C18.032,0.313 14.667,0 11.294,0 L0,0 L0,19.744 L22.431,29.095 C24.914,30.026 27.661,30.013 30.188,29.375 L60,17.727 L60,17.726 C60,15.527 58.116,13.8 55.925,13.991 Z" id="Path"></path>
                </g>
                <path d="M44.348,23.9391091 C44.348,18.5199439 39.3434346,16.8356321 34.9342806,15.6378992 L34.9342806,6.36698648 C36.7682015,6.42158897 38.5844123,6.74281561 40.3258059,7.32056608 L41.9254702,7.95974081 L43.2084263,4.75235049 L41.6047312,4.10799327 C39.4570898,3.36357952 37.206676,2.95794554 34.9342806,2.90565377 L34.9342806,0 L32.6309483,0 L32.6309483,2.92580793 C27.9016311,3.26785279 23.2172289,5.72435675 23.2172289,10.6828555 C23.2172289,15.8860833 28.3081693,17.4385293 32.6309483,18.5971055 L32.6309483,28.2584331 C30.2572534,28.2048533 27.913707,27.7147113 25.7174962,26.8125162 L24.172536,26.040324 L22.627,29.1308202 L24.172536,29.9035882 C24.3124635,29.973264 27.4547846,31.5113142 32.6309483,31.7186141 L32.6309483,35.7016516 L34.9342806,35.7016516 L34.9342806,31.7082491 C40.6926115,31.3610218 44.348,28.3885714 44.348,23.9391091 Z M26.6699241,10.6828555 C26.6699241,7.72710424 30.1018893,6.64281053 32.6286449,6.3952023 L32.6286449,15.0125445 C28.8949432,13.9599216 26.6722275,12.9763987 26.6722275,10.6828555 L26.6699241,10.6828555 Z M34.9342806,28.2405822 L34.9342806,19.2287944 C38.6771957,20.3125123 40.8930015,21.3945026 40.8930015,23.9391091 C40.8930015,27.2812443 37.1644822,28.0684082 34.9342806,28.2405822 Z" id="Shape" stroke="#32325D" stroke-width="2"></path>
            </g>
        </g>
    </g>
</svg>