<svg xmlns="http://www.w3.org/2000/svg" xmlns:xlink="http://www.w3.org/1999/xlink" x="0px" y="0px" viewBox="0 0 32 32" width="32" height="32"><g class="nc-icon-wrapper" fill="#5d4a8e"><path fill="#5d4a8e" d="M31,6h-1V3c0-0.553-0.448-1-1-1c-7.683,0-11.504,2.347-13.005,3.611C14.481,4.352,10.633,2,3,2 C2.448,2,2,2.447,2,3v3H1C0.448,6,0,6.447,0,7v22c0,0.553,0.448,1,1,1h30c0.552,0,1-0.447,1-1V7C32,6.447,31.552,6,31,6z M4,4.015 c7.096,0.211,10.205,2.64,11,3.389V19h2V7.398c0.776-0.743,3.841-3.173,11-3.383v18.999c-6.972,0.194-10.549,2.395-11.995,3.598 C14.571,25.403,11.017,23.206,4,23.014V4.015z"/></g></svg>
