<svg xmlns="http://www.w3.org/2000/svg" xmlns:xlink="http://www.w3.org/1999/xlink" x="0px" y="0px" viewBox="0 0 64 64" width="64" height="64"><g class="nc-icon-wrapper" fill="#5d4a8e"><path data-color="color-2" fill="#5d4a8e" d="M62,59H2c-0.553,0-1-0.447-1-1s0.447-1,1-1h60c0.553,0,1,0.447,1,1S62.553,59,62,59z"/> <path fill="#5d4a8e" d="M16,23H4c-0.553,0-1,0.447-1,1v26c0,0.553,0.447,1,1,1h12c0.553,0,1-0.447,1-1V24C17,23.447,16.553,23,16,23 z"/> <path fill="#5d4a8e" d="M38,5H26c-0.553,0-1,0.447-1,1v44c0,0.553,0.447,1,1,1h12c0.553,0,1-0.447,1-1V6C39,5.447,38.553,5,38,5z"/> <path fill="#5d4a8e" d="M60,33H48c-0.553,0-1,0.447-1,1v16c0,0.553,0.447,1,1,1h12c0.553,0,1-0.447,1-1V34 C61,33.447,60.553,33,60,33z"/></g></svg>
