<svg xmlns="http://www.w3.org/2000/svg" xmlns:xlink="http://www.w3.org/1999/xlink" x="0px" y="0px" viewBox="0 0 16 16" width="16" height="16"><g class="nc-icon-wrapper" fill="#5d4a8e"><path fill="#5d4a8e" d="M9,10.836c0-0.604-0.265-1.179-0.738-1.554C7.539,8.708,6.285,8,4.5,8S1.461,8.708,0.738,9.282 C0.265,9.657,0,10.232,0,10.836V12h9V10.836z"/> <circle fill="#5d4a8e" cx="4.5" cy="4.5" r="2.5"/> <circle data-color="color-2" fill="#5d4a8e" cx="11.5" cy="4.5" r="2.5"/> <path data-color="color-2" fill="#5d4a8e" d="M15.262,9.282C14.539,8.708,13.285,8,11.5,8c-0.561,0-1.063,0.075-1.519,0.189 C10.625,8.909,11,9.836,11,10.836V12h5v-1.164C16,10.232,15.735,9.657,15.262,9.282z"/></g></svg>
