<svg xmlns="http://www.w3.org/2000/svg" xmlns:xlink="http://www.w3.org/1999/xlink" x="0px" y="0px" viewBox="0 0 24 24" width="24" height="24"><g class="nc-icon-wrapper" fill="#555555"><path d="M9,10H2A1,1,0,0,1,1,9V2A1,1,0,0,1,2,1H9a1,1,0,0,1,1,1V9A1,1,0,0,1,9,10Z" fill="#555555"/> <path d="M9,23H2a1,1,0,0,1-1-1V15a1,1,0,0,1,1-1H9a1,1,0,0,1,1,1v7A1,1,0,0,1,9,23Z" fill="#555555"/> <rect data-color="color-2" x="13" y="2" width="10" height="2" fill="#555555"/> <rect data-color="color-2" x="13" y="7" width="10" height="2" fill="#555555"/> <rect data-color="color-2" x="13" y="15" width="10" height="2" fill="#555555"/> <rect data-color="color-2" x="13" y="20" width="10" height="2" fill="#555555"/></g></svg>
