<?xml version="1.0" encoding="UTF-8"?>
<svg width="16px" height="16px" viewBox="0 0 16 16" version="1.1" xmlns="http://www.w3.org/2000/svg" xmlns:xlink="http://www.w3.org/1999/xlink">
    <!-- Generator: Sketch 64 (93537) - https://sketch.com -->
    <title>present copy</title>
    <desc>Created with Sketch.</desc>
    <g id="Page-1" stroke="none" stroke-width="1" fill="none" fill-rule="evenodd">
        <g id="Test#1-Menu-3-Copy" transform="translate(-983.000000, -123.000000)" fill="#5D4B8E" fill-rule="nonzero">
            <g id="menu-bundles" transform="translate(948.000000, 79.000000)">
                <g id="big" transform="translate(35.000000, 44.000000)">
                    <g id="present-copy" transform="translate(0.000000, 0.000000)">
                        <path d="M15.7419355,3.09677419 L12.3584516,3.09677419 C12.8842907,2.58408422 13.0469911,1.803873 12.7698952,1.12374393 C12.4927992,0.443614858 11.8311836,-0.000756239043 11.0967742,-9.63724817e-07 C9.34012903,-9.63724817e-07 8.40464516,1.60645161 8,2.57574194 C7.59535484,1.60645161 6.65987097,-9.63724817e-07 4.90322581,-9.63724817e-07 C4.16881643,-0.000756239043 3.50720075,0.443614858 3.23010483,1.12374393 C2.95300891,1.803873 3.11570935,2.58408422 3.64154839,3.09677419 L0.258064516,3.09677419 C0.115539419,3.09677419 0,3.21231361 0,3.35483871 L0,5.41935484 C0,5.56187994 0.115539419,5.67741935 0.258064516,5.67741935 L15.7419355,5.67741935 C15.8844606,5.67741935 16,5.56187994 16,5.41935484 L16,3.35483871 C16,3.21231361 15.8844606,3.09677419 15.7419355,3.09677419 Z M11.0967742,0.516129032 C11.8093997,0.516129032 12.3870968,1.09382613 12.3870968,1.80645161 C12.3870968,2.5190771 11.8093997,3.09677419 11.0967742,3.09677419 L8.35380645,3.09677419 C8.62529032,2.33987097 9.45058065,0.516129032 11.0967742,0.516129032 Z M3.61290323,1.80645161 C3.61375642,1.09417983 4.19095403,0.516982224 4.90322581,0.516129032 C6.54554839,0.516129032 7.37290323,2.3396129 7.64541935,3.09677419 L4.90322581,3.09677419 C4.19095403,3.095921 3.61375642,2.51872339 3.61290323,1.80645161 Z" id="Shape"></path>
                        <path d="M14.4516129,6.19354839 L9.03225806,6.19354839 L9.03225806,15.2258065 L12.9032258,15.2258065 C13.7583764,15.2258065 14.4516129,14.5325699 14.4516129,13.6774194 L14.4516129,6.19354839 Z" id="Path"></path>
                        <path d="M6.96774194,6.19354839 L1.5483871,6.19354839 L1.5483871,13.6774194 C1.5483871,14.5325699 2.24162361,15.2258065 3.09677419,15.2258065 L6.96774194,15.2258065 L6.96774194,6.19354839 Z" id="Path"></path>
                    </g>
                </g>
            </g>
        </g>
    </g>
</svg>