<svg xmlns="http://www.w3.org/2000/svg" xmlns:xlink="http://www.w3.org/1999/xlink" x="0px" y="0px" viewBox="0 0 48 48" width="48" height="48"><g class="nc-icon-wrapper" fill="#5d4a8e"><rect data-color="color-2" x="10" y="32" width="8" height="8" rx="1" fill="#5d4a8e"/><rect data-color="color-2" x="10" y="22" width="8" height="8" rx="1" fill="#5d4a8e"/><rect data-color="color-2" x="20" y="32" width="8" height="8" rx="1" fill="#5d4a8e"/><rect data-color="color-2" x="20" y="22" width="8" height="8" rx="1" fill="#5d4a8e"/><rect data-color="color-2" x="30" y="22" width="8" height="8" rx="1" fill="#5d4a8e"/><path data-color="color-2" d="M12,11a1,1,0,0,1-1-1V2a1,1,0,0,1,2,0v8A1,1,0,0,1,12,11Z" fill="#5d4a8e"/><path d="M44,5H39v5a3,3,0,0,1-6,0V5H15v5a3,3,0,0,1-6,0V5H4A3,3,0,0,0,1,8V43a3,3,0,0,0,3,3H44a3,3,0,0,0,3-3V8A3,3,0,0,0,44,5Zm1,38a1,1,0,0,1-1,1H4a1,1,0,0,1-1-1V18H45Z" fill="#5d4a8e"/><path data-color="color-2" d="M36,11a1,1,0,0,0,1-1V2a1,1,0,0,0-2,0v8A1,1,0,0,0,36,11Z" fill="#5d4a8e"/></g></svg>
