<svg xmlns="http://www.w3.org/2000/svg" xmlns:xlink="http://www.w3.org/1999/xlink" x="0px" y="0px" viewBox="0 0 48 48" width="48" height="48"><g class="nc-icon-wrapper" fill="#ffffff"><path fill="#ffffff" d="M38.863,15.041C37.89,7.098,31.089,1,23,1C14.7,1,7.843,7.318,7.088,15.511C3.469,16.746,1,20.139,1,24 c0,4.963,4.038,9,9,9h13V18c0-0.553,0.448-1,1-1s1,0.447,1,1v15h13c4.962,0,9-4.037,9-9C47,19.328,43.422,15.477,38.863,15.041z"/> <path data-color="color-2" fill="#ffffff" d="M29.293,39.293L25,43.586V33h-2v10.586l-4.293-4.293c-0.391-0.391-1.023-0.391-1.414,0 s-0.391,1.023,0,1.414l5.999,5.999C23.478,46.893,23.739,47,24,47s0.522-0.107,0.708-0.294l5.999-5.999 c0.391-0.391,0.391-1.023,0-1.414S29.684,38.902,29.293,39.293z"/></g></svg>
