<svg xmlns="http://www.w3.org/2000/svg" xmlns:xlink="http://www.w3.org/1999/xlink" x="0px" y="0px" viewBox="0 0 24 24" width="24" height="24"><g class="nc-icon-wrapper" fill="#444444"><path d="M22.121,1.879a3,3,0,0,0-4.242,0L11.085,8.672a5.977,5.977,0,0,1,4.244,4.242l6.792-6.793A3,3,0,0,0,22.121,1.879Z" fill="#444444" data-color="color-2"/><path d="M12.364,11.636a4,4,0,0,0-5.657,0c-1.373,1.373-1.662,5.5-1.706,6.31A1,1,0,0,0,6,19h.054c.812-.044,4.937-.333,6.31-1.706a4,4,0,0,0,0-5.657Z" fill="#444444" data-color="color-2"/><path d="M21,10.229V21H3V3H13.744l2-2H2A1,1,0,0,0,1,2V22a1,1,0,0,0,1,1H22a1,1,0,0,0,1-1V8.228Z" fill="#444444"/></g></svg>