<svg xmlns="http://www.w3.org/2000/svg" xmlns:xlink="http://www.w3.org/1999/xlink" x="0px" y="0px" viewBox="0 0 48 48" width="48" height="48"><g class="nc-icon-wrapper" fill="#444444"><path d="M44.975,3.025a3.5,3.5,0,0,0-4.95,0L20.7,20.251A9.393,9.393,0,0,1,27.749,27.3L44.975,7.975A3.5,3.5,0,0,0,44.975,3.025Z" fill="#444444" data-color="color-2"/><path d="M18.569,22a7.383,7.383,0,0,0-5.255,2.177c-2.7,2.7-3.257,11.688-3.312,12.7A1.061,1.061,0,0,0,11.062,38a.552.552,0,0,0,.058,0c1.016-.055,10.007-.615,12.7-3.312A7.432,7.432,0,0,0,18.569,22Z" fill="#444444" data-color="color-2"/><path d="M43,13.2V43H5V5H34.805l2.22-2H4A1,1,0,0,0,3,4V44a1,1,0,0,0,1,1H44a1,1,0,0,0,1-1V10.975Z" fill="#444444"/></g></svg>