<svg xmlns="http://www.w3.org/2000/svg" xmlns:xlink="http://www.w3.org/1999/xlink" x="0px" y="0px" viewBox="0 0 32 32" width="32" height="32"><g class="nc-icon-wrapper" fill="#5d4a8e"><path fill="#5d4a8e" d="M8,28c0,1.103-0.897,2-2,2s-2-0.897-2-2V2h21v21h2V1c0-0.552-0.448-1-1-1H3C2.448,0,2,0.448,2,1v27 c0,2.206,1.794,4,4,4h21c2.206,0,4-1.794,4-4v-3H8V28z"/> <path data-color="color-2" fill="#5d4a8e" d="M20,8H9C8.448,8,8,7.552,8,7s0.448-1,1-1h11c0.552,0,1,0.448,1,1S20.552,8,20,8z"/> <path data-color="color-2" fill="#5d4a8e" d="M20,14H9c-0.552,0-1-0.448-1-1s0.448-1,1-1h11c0.552,0,1,0.448,1,1S20.552,14,20,14z"/> <path data-color="color-2" fill="#5d4a8e" d="M20,20H9c-0.552,0-1-0.448-1-1s0.448-1,1-1h11c0.552,0,1,0.448,1,1S20.552,20,20,20z"/></g></svg>
