<svg xmlns="http://www.w3.org/2000/svg" xmlns:xlink="http://www.w3.org/1999/xlink" x="0px" y="0px" viewBox="0 0 32 32" width="32" height="32"><g class="nc-icon-wrapper" fill="#5d4a8e"><path fill="#5d4a8e" d="M31.584,1.189C31.323,1,30.988,0.951,30.684,1.051L16,5.946L1.316,1.051C1.011,0.951,0.676,1,0.416,1.189 C0.154,1.377,0,1.679,0,2v23c0,0.431,0.275,0.812,0.684,0.949l15,5C15.787,30.983,15.893,31,16,31s0.213-0.017,0.316-0.051l15-5 C31.725,25.812,32,25.431,32,25V2C32,1.679,31.846,1.377,31.584,1.189z M13.632,24.932l-9.897-3.299l0.633-1.897l9.897,3.299 L13.632,24.932z M3.76,15.68l0.56-1.92l9.92,2.894l-0.56,1.92L3.76,15.68z M13.632,12.932L3.735,9.632l0.633-1.897l9.897,3.299 L13.632,12.932z M18.368,24.932l-0.633-1.897l9.897-3.299l0.633,1.897L18.368,24.932z M17.76,16.653l9.92-2.894l0.56,1.92 l-9.92,2.894L17.76,16.653z M18.368,12.932l-0.633-1.897l9.897-3.299l0.633,1.897L18.368,12.932z"/></g></svg>
