<svg xmlns="http://www.w3.org/2000/svg" xmlns:xlink="http://www.w3.org/1999/xlink" x="0px" y="0px" viewBox="0 0 64 64" width="64" height="64"><g class="nc-icon-wrapper" fill="#5d4a8e"><path d="M55,2H9A2,2,0,0,0,7,4V60a2,2,0,0,0,2,2H55a2,2,0,0,0,2-2V4A2,2,0,0,0,55,2ZM17,16a1,1,0,0,1,1-1H29a1,1,0,0,1,1,1V27a1,1,0,0,1-1,1H18a1,1,0,0,1-1-1ZM46,47H18a1,1,0,0,1,0-2H46a1,1,0,0,1,0,2Zm0-10H18a1,1,0,0,1,0-2H46a1,1,0,0,1,0,2Zm0-10H37a1,1,0,0,1,0-2h9a1,1,0,0,1,0,2Zm0-10H37a1,1,0,0,1,0-2h9a1,1,0,0,1,0,2Z" fill="#5d4a8e"/></g></svg>
