<svg xmlns="http://www.w3.org/2000/svg" xmlns:xlink="http://www.w3.org/1999/xlink" x="0px" y="0px" viewBox="0 0 48 48" width="48" height="48"><g class="nc-icon-wrapper" fill="#5d4a8e"><path data-color="color-2" fill="#5d4a8e" d="M24,35c-3.28,0-6.349-0.896-9-2.436V46c0,0.347,0.18,0.668,0.474,0.851 c0.296,0.183,0.664,0.198,0.973,0.044L24,43.118l7.553,3.776C31.694,46.965,31.847,47,32,47c0.183,0,0.365-0.05,0.526-0.149 C32.82,46.668,33,46.347,33,46V32.564C30.349,34.104,27.28,35,24,35z"/> <path fill="#5d4a8e" d="M24,1C15.163,1,8,8.163,8,17s7.163,16,16,16s16-7.163,16-16S32.837,1,24,1z M24,23c-3.314,0-6-2.686-6-6 s2.686-6,6-6s6,2.686,6,6S27.314,23,24,23z"/></g></svg>
