<svg xmlns="http://www.w3.org/2000/svg" xmlns:xlink="http://www.w3.org/1999/xlink" x="0px" y="0px" viewBox="0 0 16 16" width="16" height="16"><g class="nc-icon-wrapper" fill="#5d4a8e"><path fill="#5d4a8e" d="M6,0H1C0.4,0,0,0.4,0,1v5c0,0.6,0.4,1,1,1h5c0.6,0,1-0.4,1-1V1C7,0.4,6.6,0,6,0z"></path> <path fill="#5d4a8e" d="M6,9H1c-0.6,0-1,0.4-1,1v5c0,0.6,0.4,1,1,1h5c0.6,0,1-0.4,1-1v-5C7,9.4,6.6,9,6,9z"></path> <rect data-color="color-2" x="9" y="1" fill="#5d4a8e" width="7" height="2"></rect> <rect data-color="color-2" x="9" y="4" fill="#5d4a8e" width="7" height="2"></rect> <rect data-color="color-2" x="9" y="10" fill="#5d4a8e" width="7" height="2"></rect> <rect data-color="color-2" x="9" y="13" fill="#5d4a8e" width="7" height="2"></rect></g></svg>
