<svg xmlns="http://www.w3.org/2000/svg" xmlns:xlink="http://www.w3.org/1999/xlink" x="0px" y="0px" viewBox="0 0 24 24" width="24" height="24"><g class="nc-icon-wrapper" fill="#ffffff"><path fill="#ffffff" d="M62,12H30.5l-5.7-7.6C24.611,4.148,24.314,4,24,4H2C1.447,4,1,4.447,1,5v50c0,2.757,2.243,5,5,5h52 c2.757,0,5-2.243,5-5V13C63,12.447,62.553,12,62,12z M22.707,41.293c0.391,0.391,0.391,1.023,0,1.414C22.512,42.902,22.256,43,22,43 s-0.512-0.098-0.707-0.293l-6-6c-0.391-0.391-0.391-1.023,0-1.414l6-6c0.391-0.391,1.023-0.391,1.414,0s0.391,1.023,0,1.414 L17.414,36L22.707,41.293z M36.948,24.316l-8,24C28.809,48.735,28.419,49,28,49c-0.104,0-0.211-0.017-0.316-0.052 c-0.523-0.174-0.807-0.74-0.632-1.265l8-24c0.175-0.523,0.736-0.808,1.265-0.632C36.84,23.226,37.123,23.792,36.948,24.316z M48.707,36.707l-6,6C42.512,42.902,42.256,43,42,43s-0.512-0.098-0.707-0.293c-0.391-0.391-0.391-1.023,0-1.414L46.586,36 l-5.293-5.293c-0.391-0.391-0.391-1.023,0-1.414s1.023-0.391,1.414,0l6,6C49.098,35.684,49.098,36.316,48.707,36.707z"/></g></svg>
