<svg xmlns="http://www.w3.org/2000/svg" xmlns:xlink="http://www.w3.org/1999/xlink" x="0px" y="0px" viewBox="0 0 24 24" width="24" height="24"><g class="nc-icon-wrapper" fill="#555555"><path d="M9,1H2A1,1,0,0,0,1,2V9a1,1,0,0,0,1,1H9a1,1,0,0,0,1-1V2A1,1,0,0,0,9,1Z" fill="#555555"/> <path d="M23.729,4.846,19.154.271a.925.925,0,0,0-1.308,0L13.271,4.846a.925.925,0,0,0,0,1.308l4.575,4.575a.925.925,0,0,0,1.308,0l4.575-4.575A.925.925,0,0,0,23.729,4.846Z" fill="#555555" data-color="color-2"/> <path d="M22,14H15a1,1,0,0,0-1,1v7a1,1,0,0,0,1,1h7a1,1,0,0,0,1-1V15A1,1,0,0,0,22,14Z" fill="#555555"/> <path d="M9,14H2a1,1,0,0,0-1,1v7a1,1,0,0,0,1,1H9a1,1,0,0,0,1-1V15A1,1,0,0,0,9,14Z" fill="#555555"/></g></svg>
