<svg xmlns="http://www.w3.org/2000/svg" xmlns:xlink="http://www.w3.org/1999/xlink" x="0px" y="0px" viewBox="0 0 32 32" width="24" height="24"><g class="nc-icon-wrapper" fill="#ffffff"><path d="M12,1H2A1,1,0,0,0,1,2V12a1,1,0,0,0,1,1H12a1,1,0,0,0,1-1V2A1,1,0,0,0,12,1Z" fill="#ffffff"/> <path d="M31.746,6.387,25.613.254a.866.866,0,0,0-1.226,0L18.254,6.387a.866.866,0,0,0,0,1.226l6.133,6.133a.866.866,0,0,0,1.226,0l6.133-6.133A.866.866,0,0,0,31.746,6.387Z" fill="#ffffff" data-color="color-2"/> <path d="M30,19H20a1,1,0,0,0-1,1V30a1,1,0,0,0,1,1H30a1,1,0,0,0,1-1V20A1,1,0,0,0,30,19Z" fill="#ffffff"/> <path d="M12,19H2a1,1,0,0,0-1,1V30a1,1,0,0,0,1,1H12a1,1,0,0,0,1-1V20A1,1,0,0,0,12,19Z" fill="#ffffff"/></g></svg>
