<svg xmlns="http://www.w3.org/2000/svg" xmlns:xlink="http://www.w3.org/1999/xlink" x="0px" y="0px" viewBox="0 0 48 48" width="48" height="48"><g class="nc-icon-wrapper" fill="#5d4a8e"><path data-color="color-2" d="M45,23H39a1,1,0,0,0,0,2h6a1,1,0,0,0,0-2Z" fill="#5d4a8e"/><path data-color="color-2" d="M3,25H28v5a1,1,0,0,0,1,1h6a1,1,0,0,0,1-1V18a1,1,0,0,0-1-1H29a1,1,0,0,0-1,1v5H3a1,1,0,0,0,0,2Z" fill="#5d4a8e"/><path d="M3,10H9A1,1,0,0,0,9,8H3a1,1,0,0,0,0,2Z" fill="#5d4a8e"/><path d="M13,16h6a1,1,0,0,0,1-1V10H45a1,1,0,0,0,0-2H20V3a1,1,0,0,0-1-1H13a1,1,0,0,0-1,1V15A1,1,0,0,0,13,16Z" fill="#5d4a8e"/><path d="M9,38H3a1,1,0,0,0,0,2H9a1,1,0,0,0,0-2Z" fill="#5d4a8e"/><path d="M45,38H20V33a1,1,0,0,0-1-1H13a1,1,0,0,0-1,1V45a1,1,0,0,0,1,1h6a1,1,0,0,0,1-1V40H45a1,1,0,0,0,0-2Z" fill="#5d4a8e"/></g></svg>
