<svg xmlns="http://www.w3.org/2000/svg" xmlns:xlink="http://www.w3.org/1999/xlink" x="0px" y="0px" viewBox="0 0 32 32" width="32" height="32"><g class="nc-icon-wrapper" fill="#5d4a8e"><path d="M19,2H2A.945.945,0,0,0,1,3V7A.945.945,0,0,0,2,8H19a.945.945,0,0,0,1-1V3A.945.945,0,0,0,19,2Z" fill="#5d4a8e"/> <path d="M19,13H2a.945.945,0,0,0-1,1v4a.945.945,0,0,0,1,1H19a.945.945,0,0,0,1-1V14A.945.945,0,0,0,19,13Z" fill="#5d4a8e"/> <path d="M19,24H2a.945.945,0,0,0-1,1v4a.945.945,0,0,0,1,1H19a.945.945,0,0,0,1-1V25A.945.945,0,0,0,19,24Z" fill="#5d4a8e"/> <path data-color="color-2" d="M30,2H26a.945.945,0,0,0-1,1V29a.945.945,0,0,0,1,1h4a.945.945,0,0,0,1-1V3A.945.945,0,0,0,30,2Z" fill="#5d4a8e"/></g></svg>
