<?xml version="1.0" encoding="UTF-8"?>
<svg width="11px" height="11px" viewBox="0 0 11 11" version="1.1" xmlns="http://www.w3.org/2000/svg" xmlns:xlink="http://www.w3.org/1999/xlink">
    <title>code-editor copy</title>
    <g id="Page-1" stroke="none" stroke-width="1" fill="none" fill-rule="evenodd">
        <g id="navbar-resources-" transform="translate(-897.000000, -119.000000)" fill="#FFFFFF" fill-rule="nonzero">
            <g id="resources" transform="translate(657.000000, 68.000000)">
                <g id="useful-tools" transform="translate(233.000000, 44.000000)">
                    <g id="code-editor-copy" transform="translate(7.000000, 7.000000)">
                        <path d="M2.29166667,0 L0.458333333,0 C0.205333333,0 0,0.205333333 0,0.458333333 L0,9.625 C0,9.878 0.205333333,10.0833333 0.458333333,10.0833333 L2.29166667,10.0833333 L2.29166667,0 Z" id="Path"></path>
                        <path d="M3.20833333,0 L3.20833333,10.0833333 L10.5416667,10.0833333 C10.7946667,10.0833333 11,9.878 11,9.625 L11,0.458333333 C11,0.205333333 10.7946667,0 10.5416667,0 L3.20833333,0 Z M5.04166667,1.83333333 L6.41666667,1.83333333 L6.41666667,2.75 L5.04166667,2.75 L5.04166667,1.83333333 Z M6.41666667,8.25 L5.04166667,8.25 L5.04166667,7.33333333 L6.41666667,7.33333333 L6.41666667,8.25 Z M7.79166667,6.41666667 L5.95833333,6.41666667 L5.95833333,5.5 L7.79166667,5.5 L7.79166667,6.41666667 Z M9.16666667,4.58333333 L6.41666667,4.58333333 L6.41666667,3.66666667 L9.16666667,3.66666667 L9.16666667,4.58333333 Z" id="Shape" opacity="0.502202943"></path>
                    </g>
                </g>
            </g>
        </g>
    </g>
</svg>