<?xml version="1.0" encoding="UTF-8"?>
<svg width="11px" height="11px" viewBox="0 0 11 11" version="1.1" xmlns="http://www.w3.org/2000/svg" xmlns:xlink="http://www.w3.org/1999/xlink">
    <title>office</title>
    <g id="Page-1" stroke="none" stroke-width="1" fill="none" fill-rule="evenodd">
        <g id="navbar-resources-" transform="translate(-1129.000000, -118.000000)" fill="#FFFFFF" fill-rule="nonzero">
            <g id="resources" transform="translate(657.000000, 68.000000)">
                <g id="company" transform="translate(466.000000, 44.000000)">
                    <g id="office" transform="translate(6.000000, 6.000000)">
                        <path d="M3.20833333,4.58333333 L2.29166667,4.58333333 L2.29166667,0.458333333 C2.29166667,0.204875 2.49654167,0 2.75,0 L8.25,0 C8.50345833,0 8.70833333,0.204875 8.70833333,0.458333333 L8.70833333,3.20833333 L7.79166667,3.20833333 L7.79166667,0.916666667 L3.20833333,0.916666667 L3.20833333,4.58333333 Z" id="Path" opacity="0.6"></path>
                        <path d="M10.5416667,3.66666667 L6.41666667,3.66666667 C6.16320833,3.66666667 5.95833333,3.87154167 5.95833333,4.125 L5.95833333,10.0833333 L5.04166667,10.0833333 L5.04166667,5.95833333 C5.04166667,5.704875 4.83679167,5.5 4.58333333,5.5 L0.458333333,5.5 C0.204875,5.5 0,5.704875 0,5.95833333 L0,10.5416667 C0,10.795125 0.204875,11 0.458333333,11 L10.5416667,11 C10.795125,11 11,10.795125 11,10.5416667 L11,4.125 C11,3.87154167 10.795125,3.66666667 10.5416667,3.66666667 Z M3.20833333,9.625 L1.83333333,9.625 L1.83333333,8.70833333 L3.20833333,8.70833333 L3.20833333,9.625 Z M3.20833333,7.79166667 L1.83333333,7.79166667 L1.83333333,6.875 L3.20833333,6.875 L3.20833333,7.79166667 Z M9.16666667,9.625 L7.79166667,9.625 L7.79166667,8.70833333 L9.16666667,8.70833333 L9.16666667,9.625 Z M9.16666667,7.79166667 L7.79166667,7.79166667 L7.79166667,6.875 L9.16666667,6.875 L9.16666667,7.79166667 Z M9.16666667,5.95833333 L7.79166667,5.95833333 L7.79166667,5.04166667 L9.16666667,5.04166667 L9.16666667,5.95833333 Z" id="Shape"></path>
                    </g>
                </g>
            </g>
        </g>
    </g>
</svg>