<?xml version="1.0" encoding="UTF-8"?>
<svg width="400px" height="400px" viewBox="0 0 400 400" version="1.1" xmlns="http://www.w3.org/2000/svg" xmlns:xlink="http://www.w3.org/1999/xlink">
    <title>creative-ai-logo</title>
    <g id="creative-ai-logo" stroke="none" stroke-width="1" fill="none" fill-rule="evenodd">
        <g id="icon" transform="translate(102.000000, 103.000000)" fill="#1C1C1C" fill-rule="nonzero">
            <path d="M186.017081,0 L9.99513026,0 C4.47497223,0 0,4.47469344 0,9.99450756 L0,93.8040194 C0,99.3238335 4.47497223,103.798527 9.99513026,103.798527 L46.1097258,103.798527 L46.1097258,186.005492 C46.1064784,188.655075 47.1568111,191.19725 49.0293195,193.071936 C50.9018278,194.946622 53.4428723,196 56.092622,196 L139.907356,196 C145.427514,196 149.902486,191.525307 149.902486,186.005492 L149.902486,103.835227 L186.017081,103.835227 C188.666831,103.835228 191.207876,102.781849 193.080384,100.907162 C194.952892,99.0324762 196.003225,96.4903017 196,93.8407191 L196,9.99450756 C196.003225,7.34492486 194.952892,4.80275047 193.080384,2.92806422 C191.207876,1.053378 188.666831,0 186.017081,0 Z M11.5855426,11.5970541 L92.2072175,11.5970541 L92.2072175,92.2137061 L11.5855426,92.2137061 L11.5855426,11.5970541 Z M138.316943,184.415179 L57.6952683,184.415179 L57.6952683,103.835227 L138.316943,103.835227 L138.316943,184.415179 Z M184.414435,92.2137061 L103.79276,92.2137061 L103.79276,11.5970541 L184.414435,11.5970541 L184.414435,92.2137061 Z" id="Shape"></path>
            <path d="M84.6521131,130.690817 C82.3420585,128.491521 78.7331632,128.55518 76.4994282,130.834625 C74.2656931,133.11407 74.2138978,136.786013 76.3824198,139.129737 L95.0850295,158.145606 C96.1820695,159.265361 97.672102,159.894737 99.2260567,159.894737 C100.780011,159.894737 102.270044,159.265361 103.367084,158.145606 L122.069694,139.129737 C123.551348,137.624516 124.131178,135.429409 123.590767,133.371293 C123.050356,131.313177 121.471806,129.704728 119.44974,129.151833 C117.427674,128.598938 115.269294,129.185595 113.787639,130.690817 L99.2260567,145.518667 L84.6521131,130.690817 Z" id="Path"></path>
        </g>
        <g id="Group" transform="translate(129.500000, 149.500000)" fill="#000000">
            <rect id="Rectangle-Copy" transform="translate(23.000000, 5.500000) rotate(90.000000) translate(-23.000000, -5.500000) " x="17.5" y="-17.5" width="11" height="46" rx="5.5"></rect>
        </g>
        <g id="Group-Copy" transform="translate(224.500000, 149.500000)" fill="#000000">
            <rect id="Rectangle-Copy" transform="translate(23.000000, 5.500000) rotate(90.000000) translate(-23.000000, -5.500000) " x="17.5" y="-17.5" width="11" height="46" rx="5.5"></rect>
        </g>
    </g>
</svg>