<svg width="1024" height="1524" viewBox="0 0 1024 1524" fill="none" xmlns="http://www.w3.org/2000/svg">
<path d="M668.967 1202.9C655.157 1180.02 644.204 1174.31 610.393 1173.35C576.583 1172.4 531.819 1172.88 531.819 1172.88L531.343 1221.01C531.343 1221.01 568.487 1242.46 588.488 1253.42C589.44 1253.9 592.774 1255.8 595.155 1257.23C598.488 1258.66 602.298 1260.09 606.107 1261.05C625.632 1265.34 643.728 1262.95 656.585 1250.56C670.395 1236.26 682.777 1225.78 668.967 1202.9Z" fill="#1C1917"/>
<path d="M414.197 1160.48C413.244 1161.44 409.911 1163.82 408.006 1165.25C405.148 1167.63 402.767 1170.97 400.386 1173.83C389.434 1190.51 384.195 1207.67 391.815 1224.35C399.91 1242.46 405.149 1258.19 430.864 1253.42C456.579 1249.13 466.579 1241.03 480.389 1210.53C494.199 1180.02 510.39 1137.61 509.914 1137.61L465.627 1119.5C465.151 1119.5 431.34 1146.19 414.197 1160.48Z" fill="#1C1917"/>
<path d="M535.153 1174.78C535.153 1174.78 535.629 1223.39 528.009 1224.35C519.914 1225.3 411.338 1209.57 368.003 1207.67C324.669 1205.28 226.57 1177.16 178.473 1122.83C136.566 1075.65 143.233 1023.7 174.187 1023.7C205.14 1023.7 233.237 997.487 311.335 1034.66C389.433 1071.84 472.293 1078.03 518.961 1074.7C565.63 1070.88 696.111 1047.05 706.111 1039.43C716.112 1031.8 765.161 1010.83 833.259 1017.98C901.357 1025.13 868.974 1079.46 854.688 1100.43C834.687 1129.5 787.066 1160.48 747.065 1161.91C707.063 1163.34 535.153 1174.78 535.153 1174.78Z" fill="#57534E"/>
<path d="M454.196 327.864C431.338 336.443 402.289 449.874 402.289 449.874L401.813 449.397L398.48 465.125L394.67 485.619L402.289 609.058L476.578 646.233L646.584 691.986L693.729 759.187C693.729 759.187 798.971 866.422 799.923 874.047C800.399 881.673 686.585 919.324 675.633 920.754C649.441 924.567 843.258 877.383 780.875 802.081C754.683 769.672 715.634 672.922 638.965 608.581C594.677 571.407 607.059 466.078 591.344 399.354C571.819 315.949 559.438 290.689 539.913 290.689C522.294 290.689 497.531 311.66 454.196 327.864Z" fill="url(#paint0_linear_91156_7308)"/>
<path d="M695.156 597.619C659.441 564.734 647.535 557.109 616.106 568.07C584.676 579.032 569.437 589.517 527.055 596.19C500.863 600.956 473.72 597.143 449.433 586.658L361.811 595.236C350.858 593.807 226.091 828.294 222.758 876.907C220.853 906.933 288.951 953.163 307.523 957.452C315.142 959.359 328.952 885.486 333.238 878.813L304.666 870.235C309.904 857.366 327.047 825.911 338.476 809.23C341.81 803.987 368.954 759.187 372.763 742.029C373.24 743.459 377.525 775.868 381.335 786.353C388.478 805.417 398.002 816.379 398.002 831.63C398.002 846.881 396.098 907.886 385.145 935.052C374.192 962.218 358.001 1025.61 358.001 1025.61L638.487 1024.18C638.487 1024.18 628.487 903.596 632.297 862.132C632.297 862.132 628.011 845.451 636.106 821.145C649.916 781.11 653.726 722.012 651.345 712.48C648.012 697.705 733.729 821.621 752.777 852.6C760.873 865.469 653.726 888.345 645.154 898.354C636.107 908.839 654.202 936.959 654.202 936.959C654.202 936.959 840.4 914.082 839.447 885.962C838.495 857.843 736.586 635.271 695.156 597.619Z" fill="#A8A29E"/>
<path d="M476.579 261.14C476.579 261.14 424.673 263.047 409.434 317.855C394.195 372.664 392.291 448.92 391.814 460.835C391.338 473.227 397.053 546.623 368.956 577.126C344.67 603.339 354.67 629.075 348.479 650.045L345.622 684.837C346.098 689.127 348.956 692.463 353.241 693.893C357.051 694.846 369.909 689.127 372.29 688.173C404.672 675.305 404.672 664.82 417.053 654.335C427.054 645.756 455.15 625.739 463.722 618.113C472.293 610.011 478.008 603.339 478.484 593.33C479.913 542.811 471.341 495.627 460.388 470.844C449.435 446.061 428.006 404.12 445.626 376.477C463.245 348.834 495.628 320.715 497.533 314.043C499.437 307.37 500.39 340.732 519.914 352.647C539.439 364.562 556.106 380.767 562.297 396.971C567.535 410.316 574.202 433.193 555.63 473.227C537.058 512.785 521.819 563.781 548.01 601.432C574.202 639.084 629.442 680.071 638.49 699.135C648.49 720.106 638.966 769.672 637.061 799.698C635.157 829.723 695.635 747.748 693.73 708.667C691.825 669.586 698.492 652.905 660.872 593.33C623.251 533.755 599.441 431.286 598.489 406.503C597.536 381.72 586.583 313.09 564.202 293.072C544.677 276.391 540.391 260.187 500.866 260.187C492.294 259.71 484.675 260.187 476.579 261.14Z" fill="#1C1917"/>
<path opacity="0.07" d="M358.005 1089.95L620.872 1091.38C620.872 1091.38 589.918 1115.68 575.156 1118.07C560.393 1120.45 497.058 1152.38 473.247 1140.47C457.056 1131.41 358.005 1089.95 358.005 1089.95Z" fill="black"/>
<path opacity="0.07" d="M504.676 498.487C504.676 498.487 529.439 504.682 539.439 490.384C562.297 457.976 541.344 507.065 541.344 507.065C541.344 507.065 534.677 526.129 535.153 535.661C535.629 545.193 508.962 499.916 504.676 498.487Z" fill="black"/>
<path opacity="0.07" d="M406.576 665.297C403.719 669.109 398.957 671.969 397.052 681.501C393.243 696.752 388.957 713.91 378.48 729.638C372.289 738.693 375.623 774.914 386.099 797.315C388.957 803.987 398.481 820.668 398.005 824.481L397.528 857.366H425.625C425.625 857.366 449.911 859.749 444.673 840.209C440.387 822.574 417.529 756.804 432.768 742.506C461.817 715.816 425.148 662.437 438.959 645.279C450.864 630.505 467.531 620.02 467.531 614.777C467.531 612.871 463.245 619.066 459.912 620.973C454.197 625.262 451.34 628.598 446.102 631.458C440.863 634.794 432.768 640.513 427.53 644.803C419.434 651.475 412.767 658.148 406.576 665.297Z" fill="black"/>
<path d="M296.571 876.43C296.571 876.43 296.571 859.273 313.238 858.796C329.906 858.32 688.014 858.796 688.014 858.796C688.014 858.796 703.729 860.703 704.205 873.571C704.681 886.439 704.681 1075.65 704.681 1075.65C704.681 1075.65 704.681 1090.42 689.443 1090.9C674.204 1091.38 308.952 1091.38 308.952 1091.38C308.952 1091.38 295.142 1088.04 295.618 1074.22C295.618 1059.92 296.571 876.43 296.571 876.43Z" fill="white"/>
<path d="M501.339 990.338C510.018 990.338 517.054 983.296 517.054 974.61C517.054 965.924 510.018 958.882 501.339 958.882C492.66 958.882 485.624 965.924 485.624 974.61C485.624 983.296 492.66 990.338 501.339 990.338Z" fill="#D6D3D1"/>
<defs>
<linearGradient id="paint0_linear_91156_7308" x1="394.591" y1="605.614" x2="799.617" y2="605.614" gradientUnits="userSpaceOnUse">
<stop stop-color="#F87B58"/>
<stop offset="0.5" stop-color="#F8C548"/>
<stop offset="1" stop-color="#F89C51"/>
</linearGradient>
</defs>
</svg>
