<svg width="1024" height="1024" viewBox="0 0 1024 1024" fill="none" xmlns="http://www.w3.org/2000/svg">
<g clip-path="url(#clip0_91151_6245)">
<g clip-path="url(#clip1_91151_6245)">
<path d="M1017.3 447.567C1017.3 447.567 1073.46 664.017 861.586 778.32C811.509 805.334 701.156 748.605 611.351 754.177C441.483 764.813 312.712 828.972 228.996 790.983C135.386 748.605 100.834 707.408 86.6788 678.537C83.0257 670.939 77.8505 663.173 74.0453 655.913C49.6915 611.34 -26.7186 445.203 59.2808 336.302C132.494 243.441 276.486 243.779 348.33 250.701C374.054 253.234 399.016 261.001 422.152 273.832C467.359 298.82 549.705 342.887 584.562 352.68C650.165 371.083 660.211 367.875 782.436 309.964C904.662 252.052 992.945 254.754 1017.3 447.567Z" fill="#FAFAF9"/>
<path d="M138.278 608.132C138.278 608.132 229.605 411.773 334.631 408.227C439.657 404.682 438.134 537.726 468.12 558.156C498.106 578.585 529.918 573.013 553.206 528.609C576.494 484.204 603.131 401.643 653.209 405.357C703.286 409.071 760.213 582.299 790.199 582.299C820.185 582.299 875.437 450.099 924.906 452.125C976.049 454.151 1011.21 608.638 1011.21 608.638L932.212 608.3L138.278 608.132Z" fill="#F5F5F4"/>
<path d="M44.8208 607.963L348.026 612.184C348.026 612.184 373.293 610.495 399.169 588.547C418.804 571.832 425.653 559.844 425.653 548.025C425.653 536.207 415.76 475.425 319.105 463.606L23.2068 457.528C23.2068 457.528 20.6192 467.658 19.2493 487.75C18.7927 497.036 18.9449 506.491 19.8582 515.777C20.9237 526.583 22.4458 537.389 24.4245 548.025C30.0563 576.39 37.6669 594.962 44.8208 607.963Z" fill="#E7E5E4"/>
<path d="M313.626 526.245C345.99 526.245 372.227 518.308 372.227 508.517C372.227 498.726 345.99 490.789 313.626 490.789C281.261 490.789 255.024 498.726 255.024 508.517C255.024 518.308 281.261 526.245 313.626 526.245Z" fill="white"/>
<path d="M80.7429 553.259C89.5696 553.259 96.7251 545.322 96.7251 535.531C96.7251 525.741 89.5696 517.803 80.7429 517.803C71.9162 517.803 64.7607 525.741 64.7607 535.531C64.7607 545.322 71.9162 553.259 80.7429 553.259Z" fill="white"/>
<path d="M127.167 554.948C136.414 554.948 143.91 546.633 143.91 536.376C143.91 526.119 136.414 517.803 127.167 517.803C117.92 517.803 110.424 526.119 110.424 536.376C110.424 546.633 117.92 554.948 127.167 554.948Z" fill="white"/>
<path d="M127.167 554.948C136.414 554.948 143.91 546.633 143.91 536.376C143.91 526.119 136.414 517.803 127.167 517.803C117.92 517.803 110.424 526.119 110.424 536.376C110.424 546.633 117.92 554.948 127.167 554.948Z" fill="white"/>
<path d="M175.875 554.948C185.122 554.948 192.618 546.633 192.618 536.376C192.618 526.119 185.122 517.803 175.875 517.803C166.628 517.803 159.131 526.119 159.131 536.376C159.131 546.633 166.628 554.948 175.875 554.948Z" fill="white"/>
<path d="M556.403 474.581C569.769 474.581 580.604 462.562 580.604 447.736C580.604 432.909 569.769 420.89 556.403 420.89C543.037 420.89 532.201 432.909 532.201 447.736C532.201 462.562 543.037 474.581 556.403 474.581Z" fill="white"/>
<path d="M530.527 471.204C541.203 471.204 549.858 461.604 549.858 449.762C549.858 437.919 541.203 428.319 530.527 428.319C519.851 428.319 511.196 437.919 511.196 449.762C511.196 461.604 519.851 471.204 530.527 471.204Z" fill="white"/>
<path d="M844.539 418.358C860.006 418.358 872.545 404.449 872.545 387.292C872.545 370.134 860.006 356.225 844.539 356.225C829.071 356.225 816.532 370.134 816.532 387.292C816.532 404.449 829.071 418.358 844.539 418.358Z" fill="white"/>
<path d="M874.524 409.409C883.939 409.409 891.572 400.943 891.572 390.499C891.572 380.056 883.939 371.59 874.524 371.59C865.109 371.59 857.477 380.056 857.477 390.499C857.477 400.943 865.109 409.409 874.524 409.409Z" fill="white"/>
<path d="M815.466 412.617C824.881 412.617 832.514 404.151 832.514 393.707C832.514 383.264 824.881 374.798 815.466 374.798C806.051 374.798 798.418 383.264 798.418 393.707C798.418 404.151 806.051 412.617 815.466 412.617Z" fill="white"/>
<path d="M223.06 554.948C232.307 554.948 239.803 546.633 239.803 536.376C239.803 526.119 232.307 517.803 223.06 517.803C213.813 517.803 206.317 526.119 206.317 536.376C206.317 546.633 213.813 554.948 223.06 554.948Z" fill="white"/>
<path d="M51.5183 625.86L1008.77 626.704C1008.77 626.704 975.897 738.475 952.913 759.917C929.929 781.359 974.071 884.52 804.355 817.997C634.64 751.475 540.877 820.023 491.257 828.803C441.636 837.583 311.039 908.157 257.917 873.714C204.795 839.271 229.605 798.412 130.516 796.386C31.4264 794.36 36.7538 684.615 36.7538 684.615L51.5183 625.86Z" fill="#F5F5F4"/>
<path d="M1008.77 626.535L51.5181 625.86L44.2119 607.963L1012.88 608.301L1008.77 626.535Z" fill="white"/>
<path d="M187.595 610.158H178.615L178.462 261.845L187.595 259.65V610.158Z" fill="white"/>
<path d="M447.268 614.041H438.287V282.612L447.115 287.339L447.268 614.041Z" fill="white"/>
<path d="M701.612 618.093H692.632V350.147L701.612 346.77V618.093Z" fill="white"/>
<path d="M943.019 614.041H934.039V283.456L943.172 287.508L943.019 614.041Z" fill="white"/>
<path d="M615.885 714.837H640.685V695.927H882.276V715.85H904.039V665.03L615.885 666.043V714.837Z" fill="#E7E5E4"/>
<path d="M616.56 657.263L904.208 656.588V644.263L615.885 644.938L616.56 657.263Z" fill="#E7E5E4"/>
<path d="M615.885 639.029L903.533 638.354V626.197L615.21 626.704L615.885 639.029Z" fill="#E7E5E4"/>
<path d="M616.56 620.288L904.208 619.613V607.287L615.885 607.963L616.56 620.288Z" fill="#E7E5E4"/>
<path d="M616.56 600.872L904.208 600.196V588.04L615.885 588.546L616.56 600.872Z" fill="#E7E5E4"/>
<path d="M401.963 581.962C401.963 581.962 389.985 630.925 391.84 636.328C393.865 641.73 403.481 642.912 407.868 643.925C412.254 644.938 451.563 656.588 455.443 656.757C459.492 656.926 459.155 657.601 460.842 657.601C462.529 657.601 484.461 649.328 485.136 646.458C485.811 643.588 486.486 641.562 485.811 638.016C485.136 634.301 475.182 587.702 472.483 586.689C469.784 585.676 401.963 581.962 401.963 581.962Z" fill="#1C1917"/>
<path d="M399.938 590.741C399.938 590.741 400.782 583.143 401.963 581.962C403.144 580.78 406.518 575.883 409.724 575.715C412.929 575.546 465.229 582.806 467.253 583.312C469.278 583.819 471.808 584.832 472.652 586.689C473.495 588.546 465.06 590.741 463.373 596.482C461.686 602.222 431.824 614.547 424.57 615.392C417.315 616.236 399.938 590.741 399.938 590.741Z" fill="#292524"/>
<path d="M417.146 577.572C417.146 577.572 422.714 563.896 425.413 561.363C427.775 559 436.379 554.103 441.609 561.532C447.514 569.974 446.839 579.598 446.839 580.78C446.839 581.962 441.103 580.949 441.103 580.949C441.103 580.949 442.959 570.987 441.272 567.61C439.753 564.403 438.91 560.688 433.511 561.026C428.113 561.363 426.088 564.74 424.57 567.948C423.22 571.156 422.039 574.364 421.027 577.741C420.858 578.078 417.146 577.572 417.146 577.572Z" fill="#57534E"/>
<path d="M426.088 578.416C426.088 578.416 431.655 561.701 434.355 558.493C436.717 555.623 445.827 550.051 451.057 559.169C456.962 569.299 455.781 580.78 455.781 582.13C455.781 583.481 450.045 582.299 450.045 582.299C450.045 582.299 451.732 570.143 450.213 565.922C448.695 562.039 447.851 557.48 442.453 557.987C437.054 558.493 435.029 562.545 433.511 566.429C432.161 570.312 430.98 574.364 429.968 578.416C429.968 579.091 426.088 578.416 426.088 578.416Z" fill="#57534E"/>
<path d="M461.348 599.859C461.348 599.859 456.287 646.796 456.962 650.003C457.637 653.211 459.155 657.601 460.505 657.601C461.686 657.601 463.71 657.432 462.867 656.25C460.336 652.198 459.324 647.302 459.999 642.575C460.673 634.977 463.71 596.482 463.71 596.482L461.348 599.859Z" fill="#57534E"/>
<path d="M423.389 618.768C425.066 618.768 426.426 617.257 426.426 615.392C426.426 613.527 425.066 612.015 423.389 612.015C421.712 612.015 420.352 613.527 420.352 615.392C420.352 617.257 421.712 618.768 423.389 618.768Z" fill="white"/>
<path d="M794.547 808.036L782.569 810.737C782.569 810.737 779.701 820.192 778.351 825.257C778.183 825.595 778.014 826.439 777.845 826.946C777.677 827.79 777.508 828.634 777.508 829.647C777.845 834.206 779.532 838.089 783.581 840.115C787.968 842.479 791.511 844.505 796.234 840.115C800.958 835.725 801.802 833.024 799.777 825.426C797.584 817.997 794.547 808.036 794.547 808.036Z" fill="#1C1917"/>
<path d="M864.393 823.738C856.295 821.205 852.752 811.075 852.752 811.075L836.387 810.231C836.387 810.231 836.05 820.53 835.543 825.933C835.037 833.362 836.387 836.569 841.28 836.232C847.859 835.725 874.684 838.089 878.902 835.388C884.469 832.18 871.985 826.102 864.393 823.738Z" fill="#1C1917"/>
<path d="M769.241 577.572C769.241 577.572 763.168 586.014 761.143 608.638C759.287 631.262 763.505 674.147 765.53 682.589C767.554 690.862 775.483 768.359 777.508 774.099C779.532 779.84 782.232 810.737 782.232 810.737L795.222 811.075C795.222 811.075 799.103 770.723 799.103 760.086C799.103 749.449 804.333 648.484 803.995 641.055C803.658 633.626 805.345 635.99 805.345 635.99C805.345 635.99 816.817 672.29 820.191 678.199C823.565 684.278 829.639 695.927 829.639 695.927C829.639 695.927 830.989 733.747 832.676 755.696C834.363 777.645 836.05 812.088 836.05 812.088L853.427 811.75C853.427 811.75 857.476 754.177 857.476 742.02C857.476 729.864 861.187 700.824 861.187 697.447C861.187 694.07 849.715 634.977 849.715 634.977L841.786 577.572H769.241Z" fill="#57534E"/>
<path d="M776.496 419.033C776.496 419.033 784.088 389.486 789.992 387.46C813.274 378.85 815.636 364.161 825.59 406.032C835.544 447.904 863.043 496.192 874.853 510.543C891.049 530.128 889.699 542.791 883.794 543.973C878.058 545.155 848.703 552.922 846.341 553.597C843.979 554.272 851.065 574.702 841.28 571.831C835.881 570.312 835.375 546.168 842.123 544.986C844.991 544.48 877.552 538.064 877.383 536.207C877.215 534.349 852.077 499.4 852.077 499.4L835.881 491.802L795.729 470.022L776.496 460.398L774.471 428.319L773.122 422.072L776.496 419.033Z" fill="url(#paint0_linear_91151_6245)"/>
<path d="M771.266 458.541C771.266 458.541 771.434 460.905 766.036 468.671C762.83 473.399 771.097 470.022 764.011 482.01C752.876 500.919 746.634 521.18 745.791 533.674C745.285 541.441 752.033 539.921 754.901 542.285C756.419 543.635 761.481 541.441 762.661 539.583L765.023 535.531C765.698 534.687 771.94 525.57 772.109 524.388C772.615 520.842 776.158 505.816 777.339 500.413C778.351 495.854 786.281 485.386 792.86 463.944C794.716 457.359 792.86 454.658 793.366 451.619C794.716 441.826 781.051 441.995 779.87 445.372C779.532 446.216 769.241 487.244 768.735 492.646C768.566 494.504 772.278 510.712 774.977 515.102C777.677 519.492 781.051 522.7 781.051 526.752C781.051 530.804 779.195 546.675 776.327 553.766C773.459 560.857 769.241 577.234 769.241 577.234L842.123 576.897C842.123 576.897 839.424 545.662 840.605 534.687C840.605 534.687 843.642 499.4 845.497 495.854C847.353 492.309 866.755 524.219 871.816 532.323C873.84 535.7 846.172 541.609 843.81 544.311C841.448 547.012 846.172 554.272 846.172 554.272C846.172 554.272 894.592 548.363 894.254 540.934C893.917 533.505 866.586 476.607 856.801 465.801C847.016 454.995 844.485 455.333 836.218 458.372C827.952 461.411 824.071 463.944 813.105 465.801C805.007 467.152 796.741 465.632 789.655 461.58C785.606 459.723 771.266 458.541 771.266 458.541Z" fill="#D6D3D1"/>
<path d="M761.312 486.737C762.155 485.555 762.999 484.373 763.674 483.023C764.349 481.841 764.686 481.165 765.023 480.49C768.566 474.412 776.664 460.736 778.014 454.658C778.689 452.294 779.364 449.762 779.701 447.398C780.038 445.709 780.038 444.021 779.87 442.333C779.364 439.294 773.121 426.293 773.965 425.111C774.134 424.942 774.808 421.228 775.989 422.41C777.339 423.76 786.281 428.657 786.955 429.67C788.643 432.709 789.992 436.086 791.005 439.462C791.679 441.488 792.185 447.229 792.354 447.735C794.21 452.632 792.017 456.177 792.185 458.71C792.354 459.554 792.354 463.269 792.692 463.606C794.041 464.45 795.728 465.295 796.403 464.45C797.078 463.606 796.909 460.905 796.909 458.372C797.415 445.203 794.885 433.047 791.848 426.631C788.811 420.215 781.557 407.721 786.449 400.461C791.342 393.201 801.633 387.629 802.139 385.772C802.645 383.915 802.814 392.694 808.381 395.733C813.949 398.772 821.541 407.214 821.541 408.903C821.541 410.591 823.396 416.669 818.167 426.968C812.937 437.267 808.888 450.437 816.142 460.229C823.396 470.022 841.448 483.698 842.798 486.906C844.148 489.945 842.798 503.79 842.292 511.556C841.786 519.323 856.969 498.387 856.463 488.257C855.957 478.126 857.813 473.737 847.522 458.372C837.231 443.008 830.314 416.5 830.145 410.085C829.807 403.669 826.939 385.772 820.697 380.538C814.455 375.304 813.949 370.576 796.741 372.265C796.741 372.265 782.232 372.771 778.183 386.954C774.134 401.136 773.459 421.059 773.29 424.098C773.121 427.306 774.64 447.398 772.784 453.814C770.928 460.061 762.493 473.568 760.806 478.97" fill="#1C1917"/>
<path opacity="0.07" d="M788.98 810.737C789.149 811.075 789.149 811.244 789.149 811.581C789.318 813.608 789.149 818.673 786.956 821.881C784.256 826.102 790.667 835.219 790.667 837.583C790.667 839.946 787.631 841.972 785.606 841.297C783.582 840.622 774.809 835.725 778.183 825.089C779.533 820.868 780.376 816.984 781.22 814.621C781.726 813.439 782.063 812.257 782.401 811.075C782.569 810.568 782.569 810.062 782.569 809.387C782.401 808.711 782.401 807.867 782.401 807.023C781.894 802.971 764.686 674.991 764.011 669.926C763.505 665.537 760.975 638.522 761.143 622.652C760.975 621.301 760.975 619.95 760.975 618.6C760.975 618.262 761.143 616.742 761.143 616.067C761.312 614.547 761.312 613.197 761.481 611.677C761.143 610.495 761.312 610.495 761.481 608.638C761.649 606.781 761.481 605.599 761.649 604.417C763.337 593.612 767.386 581.455 769.241 577.91L769.747 576.052C769.747 576.052 772.953 561.701 774.471 558.662C775.821 555.961 781.388 528.778 780.882 525.739C780.376 522.7 774.64 515.102 774.64 515.102L775.484 511.05C775.484 511.05 777.339 504.972 779.195 499.906C780.714 496.023 785.269 485.555 787.293 481.165C790.33 473.905 791.848 471.035 792.523 466.139C793.029 462.424 793.367 464.113 795.054 464.788C797.416 465.632 797.584 464.45 797.584 462.256C797.753 455.164 797.416 448.073 796.741 440.982C796.066 435.41 790.33 426.462 787.799 421.059C786.281 418.189 785.269 415.15 784.256 412.111C783.244 407.383 783.244 402.149 787.799 397.591C791.68 393.707 803.32 385.603 803.32 385.603C803.32 385.603 797.922 396.577 800.115 400.292C803.658 406.032 801.971 413.292 801.971 415.825C801.971 418.358 799.103 424.773 800.958 431.189C803.995 442.67 798.765 449.086 800.621 456.853C801.802 461.58 802.477 463.1 801.296 467.321C800.115 471.542 788.305 503.283 794.885 521.855C801.296 540.428 804.333 553.428 794.041 564.571C783.582 575.715 793.198 585.676 793.367 593.443C793.873 612.859 784.425 610.664 783.919 622.652C783.413 634.639 785.944 643.419 786.281 649.666C786.787 670.433 786.45 674.485 785.437 682.589C784.425 690.693 778.858 706.058 784.931 736.449C791.005 766.839 790.161 769.541 789.655 786.593C788.305 803.984 788.98 810.737 788.98 810.737Z" fill="black"/>
<path d="M771.434 412.955C773.965 411.266 776.496 409.747 779.195 408.227C782.569 406.877 784.088 411.942 785.1 414.137C785.943 416.5 790.498 430.514 790.836 431.527C791.005 432.033 790.161 431.865 787.799 433.722C787.462 434.06 786.787 433.891 786.112 432.202C785.775 431.358 784.594 429.163 783.244 428.319C782.738 427.981 774.134 425.111 773.965 425.786C773.796 426.631 775.99 431.865 777.002 434.735C777.17 435.073 778.52 437.943 778.351 438.618C778.183 438.787 778.52 438.618 778.52 438.618C778.52 438.618 777.002 439.125 776.496 438.618C775.989 438.112 771.603 423.929 770.085 418.526C769.747 417.345 768.904 415.656 769.747 414.981L771.434 412.955Z" fill="#F5F5F4"/>
<path d="M515.841 817.828C515.841 817.828 508.924 825.257 503.863 825.595C499.476 825.764 498.97 827.452 498.97 830.491C498.97 833.53 518.034 832.855 524.108 831.673C528.494 830.829 525.457 817.997 525.457 817.997L515.841 817.828Z" fill="#1C1917"/>
<path d="M576.239 816.478L567.635 817.322C567.635 817.322 561.224 824.751 556.162 825.426C551.776 825.933 550.764 827.959 550.932 830.829C551.101 833.699 572.527 831.842 576.239 829.309C579.95 826.946 576.239 816.478 576.239 816.478Z" fill="#1C1917"/>
<path d="M559.031 518.647C557.344 537.895 555.656 537.557 550.258 544.142C547.558 547.519 543.172 551.571 542.835 555.792C542.666 556.805 543.172 557.649 543.847 558.324L549.583 562.883L551.945 564.74C552.114 564.909 552.282 565.078 552.451 565.247L572.19 597.664L572.359 597.832L584.674 621.301C585.518 622.652 584.337 627.21 583.156 628.392C577.251 634.639 563.754 641.393 565.61 647.64C572.19 668.407 566.791 663.51 563.08 660.134C561.055 658.276 558.356 649.835 557.512 645.951C556.5 642.068 574.552 624.002 572.696 621.301C571.009 618.6 557.512 599.352 555.488 596.313C555.319 595.975 555.15 595.806 554.644 595.638L541.991 589.053C540.979 588.546 539.798 588.884 539.292 589.897C539.123 590.235 538.954 590.741 539.123 591.079L558.525 703.525V703.694L561.899 733.747V733.916C562.067 737.461 563.586 754.683 563.923 758.06C564.935 764.982 566.454 768.19 567.803 774.606L575.733 814.283C575.901 815.465 576.914 818.335 575.733 818.504L569.153 818.673C568.141 818.841 567.297 816.815 566.96 815.971L552.957 773.424C551.945 770.216 547.221 760.93 545.871 753.839C544.016 744.046 542.16 732.903 541.316 728.682L537.267 705.213C537.099 704.369 537.436 703.525 538.111 703.187L548.908 696.265C549.752 695.758 550.089 694.745 549.752 693.732L537.942 665.03C537.436 664.017 536.255 663.679 535.243 664.017C534.399 664.355 534.062 665.199 534.062 666.043L537.605 700.824C537.605 700.992 537.605 701.161 537.605 701.161L535.58 726.994C535.58 727.162 535.58 727.162 535.58 727.162L529.844 761.605C529.844 761.774 529.844 761.774 529.844 761.774L525.626 816.14C525.458 817.153 525.289 819.517 524.445 819.517L517.36 819.854C516.179 819.854 515.673 817.322 515.673 816.14L515.504 788.619V788.451L514.154 769.203V769.034C513.479 765.151 513.986 756.709 514.154 750.8C514.492 742.695 515.166 738.137 515.166 736.786L515.841 714.331C515.841 714.162 515.841 714.162 515.841 713.993L512.298 689.005C512.298 688.836 512.298 688.836 512.298 688.667V584.157C512.298 582.975 511.455 582.13 510.274 582.13C509.599 582.13 509.093 582.468 508.587 582.975C503.863 589.559 498.464 595.806 492.222 601.209C486.486 605.937 482.943 606.781 481.256 606.95C480.581 606.95 479.906 606.612 479.569 606.105L449.201 563.727C448.864 563.221 448.021 562.883 447.346 562.883L442.791 563.389C442.622 563.389 442.453 563.389 442.453 563.389C435.367 562.714 431.487 560.688 429.125 559.844C428.282 559.506 427.944 558.831 428.282 558.155C428.45 557.818 428.619 557.649 428.788 557.48C432.331 554.948 436.717 553.428 441.272 553.259C446.333 553.428 451.563 554.61 456.119 557.142C456.287 557.311 456.625 557.48 456.625 557.649L481.762 589.391C482.437 590.235 483.618 590.404 484.462 589.728C484.63 589.559 484.799 589.391 484.799 589.222L494.753 575.039C494.921 574.702 495.09 574.533 495.428 574.533L524.952 557.649C525.795 557.142 526.301 556.467 526.639 555.623C527.651 552.753 528.832 549.714 524.445 541.272C521.409 535.362 518.034 511.725 535.749 499.4C539.292 496.867 537.605 501.257 540.641 501.257C552.282 501.257 556.837 514.426 556.837 514.426" fill="url(#paint1_linear_91151_6245)"/>
<path d="M525.12 557.48C525.12 562.208 528.157 570.987 538.28 570.987C544.859 570.987 546.378 564.234 546.715 561.532C546.884 559.844 549.414 562.714 550.933 563.558C565.442 572.338 572.527 598.677 572.527 598.677L556.837 600.534L554.813 639.535L577.251 705.382C577.589 706.395 577.082 707.577 576.07 707.915C575.733 708.084 575.564 708.084 575.058 708.084C566.285 706.902 542.329 704.032 537.942 707.071C526.807 714.668 498.296 711.292 498.296 708.421C498.296 704.2 511.624 634.133 511.624 634.133L503.694 588.546L501.332 586.689L492.56 577.572L501.332 563.389C504.538 559.844 509.262 557.649 513.986 556.974C516.347 556.636 518.878 556.467 521.24 556.298C523.602 556.636 525.12 556.805 525.12 557.48Z" fill="#D6D3D1"/>
<path d="M556.5 537.051C555.657 537.388 554.813 537.051 554.476 536.375C550.764 531.479 535.749 511.894 535.243 510.543C534.568 509.192 524.277 521.518 522.59 526.076C520.734 531.648 520.228 517.297 519.384 515.102C518.541 512.907 511.455 524.219 507.743 525.063C504.032 526.076 502.851 523.713 500.489 527.933C499.139 530.635 501.839 511.725 511.286 505.478C517.528 501.426 519.216 511.894 519.216 511.894C522.758 506.998 527.314 503.114 532.544 500.244C540.135 496.023 547.39 495.854 557.175 504.803C562.742 510.037 567.466 520.505 567.297 525.401C567.129 530.128 571.853 526.076 572.696 525.063C573.54 524.05 581.806 526.245 580.457 533.167C579.107 540.09 578.77 539.752 573.54 543.804C570.672 545.999 568.141 548.701 566.454 551.571V534.012C566.117 532.323 560.549 535.531 556.5 537.051Z" fill="#1C1917"/>
<path opacity="0.07" d="M535.074 548.869C535.074 548.869 541.991 553.09 545.365 548.701C547.559 545.83 541.316 554.948 542.497 558.493C543.51 562.039 535.074 548.869 535.074 548.869Z" fill="black"/>
<path opacity="0.07" d="M548.233 583.312L556.837 600.365L554.813 639.367L577.251 705.213C577.251 705.213 581.975 708.59 568.816 707.071C555.656 705.72 547.221 705.213 543.003 705.213C538.786 705.213 529.001 700.993 544.016 686.472C550.089 680.563 548.739 676.173 544.522 660.64C540.304 645.276 553.463 647.977 544.522 635.314C535.58 622.652 557.175 604.924 548.233 583.312Z" fill="black"/>
</g>
</g>
<defs>
<linearGradient id="paint0_linear_91151_6245" x1="773.055" y1="474.969" x2="887.764" y2="474.969" gradientUnits="userSpaceOnUse">
<stop stop-color="#F87B58"/>
<stop offset="0.5" stop-color="#F8C548"/>
<stop offset="1" stop-color="#F89C51"/>
</linearGradient>
<linearGradient id="paint1_linear_91151_6245" x1="428.268" y1="659.093" x2="584.714" y2="659.093" gradientUnits="userSpaceOnUse">
<stop offset="0.02" stop-color="#F87B58"/>
<stop offset="0.51" stop-color="#F8C548"/>
<stop offset="1" stop-color="#F89C51"/>
</linearGradient>
<clipPath id="clip0_91151_6245">
<rect width="1024" height="1024" fill="white"/>
</clipPath>
<clipPath id="clip1_91151_6245">
<rect width="1114" height="635" fill="white" transform="translate(-90 248)"/>
</clipPath>
</defs>
</svg>
