<svg width="1024" height="1500" viewBox="0 0 1024 1500" fill="none" xmlns="http://www.w3.org/2000/svg">
<path d="M574.026 1325.82C568.694 1303.17 566.917 1273.85 563.363 1273.41H559.364L521.156 1273.85C521.156 1273.85 513.158 1310.28 509.16 1325.38C508.715 1326.26 508.271 1328.93 507.383 1330.71C506.494 1333.37 506.494 1336.04 506.494 1338.7C507.383 1352.47 512.714 1364.46 524.71 1370.24C538.483 1376.9 548.701 1383.56 562.918 1370.24C577.58 1356.91 579.357 1348.47 574.026 1325.82Z" fill="#1C1917"/>
<path d="M453.624 1276.96L405.197 1279.63C405.197 1279.63 386.092 1312.94 358.102 1320.49C331.889 1328.04 288.349 1346.25 307.898 1356.91C322.115 1365.35 414.971 1357.8 437.63 1359.58C454.512 1360.91 459.4 1350.69 457.622 1328.04C456.29 1310.72 453.624 1276.96 453.624 1276.96Z" fill="#1C1917"/>
<path d="M395.866 674.692C395.866 674.692 363.434 940.74 361.212 958.062C358.991 975.384 372.319 1064.21 372.319 1081.09C372.319 1097.97 403.864 1279.63 403.864 1279.63L454.068 1277.41C454.068 1277.41 443.849 1010.03 445.182 997.147C446.515 984.267 501.163 829.257 501.163 829.257C501.163 829.257 505.161 870.119 505.161 883.444C505.161 896.769 520.267 1274.74 520.267 1274.74H564.251L626.452 717.775L625.563 707.115L395.866 674.692Z" fill="#78716C"/>
<path d="M543.814 160.363C543.814 160.363 495.387 179.017 484.724 183.459C474.061 187.9 467.841 201.225 467.841 201.225C467.841 201.225 462.51 198.116 462.51 206.999C462.51 215.882 466.952 236.313 470.507 242.087C476.282 250.97 481.17 260.297 486.057 269.624C490.5 278.952 488.722 298.494 484.28 301.159C479.837 303.824 398.088 377.554 398.088 377.554L330.556 585.861L339.442 651.596L353.215 716.442C353.215 716.442 350.549 721.328 355.881 726.658C361.656 731.988 386.092 772.406 386.092 772.406L394.534 712.889L366.988 624.947L357.213 550.773L422.079 418.416L646.445 458.389L670.88 602.739L625.563 725.77L617.566 785.73L655.774 752.419C657.996 750.642 662.439 741.315 664.216 736.429L686.875 672.471L703.757 570.316C703.757 570.316 562.03 314.928 554.921 299.827C551.811 293.164 555.366 276.287 557.143 268.292C558.92 260.741 562.474 250.97 566.028 248.305C571.36 242.531 574.026 234.092 575.358 226.541C575.358 221.212 577.58 200.336 572.249 205.222C571.36 206.555 567.361 200.336 565.584 191.897C562.474 178.573 553.588 168.357 543.814 160.363Z" fill="url(#paint0_linear_91153_6941)"/>
<path d="M525.598 368.67C522.044 371.78 516.713 371.335 513.158 368.226C510.493 364.229 508.271 360.232 506.494 356.234C502.94 349.128 475.394 308.266 475.394 308.266C475.394 308.266 409.639 325.143 398.976 331.806C388.314 338.912 378.539 348.684 374.985 361.12C371.431 373.556 320.782 521.459 318.116 530.786C315.45 539.669 302.566 554.326 308.786 590.303C315.006 626.723 349.216 719.996 352.771 720.884C356.325 721.772 392.756 704.006 392.756 704.006C392.756 704.006 363.878 588.082 363.878 576.534C363.878 564.986 389.646 532.119 400.309 509.911C410.528 487.703 418.525 468.161 422.079 458.389C425.634 448.618 390.979 650.708 390.979 650.708C390.979 650.708 390.091 687.572 397.199 691.126C403.864 694.235 481.17 723.993 498.941 730.655C500.718 731.544 502.94 730.211 503.828 728.435L515.38 695.567C515.38 695.123 515.824 694.679 516.268 695.123C516.713 695.123 516.713 695.567 516.713 695.567L527.375 731.099C527.82 732.876 530.041 733.764 531.818 733.764L627.34 713.333C627.34 713.333 626.007 537.449 627.784 507.69C629.117 478.82 625.563 462.831 630.895 470.826C636.67 479.265 660.662 558.768 660.662 572.093C660.662 585.417 633.56 702.229 633.56 702.229L669.103 722.216C669.103 722.216 717.531 593.856 719.752 576.978C722.418 560.1 723.306 551.217 715.309 534.34C707.312 517.462 663.327 363.785 663.327 363.785C663.327 363.785 658.884 345.13 626.452 335.359C594.019 325.588 570.027 311.375 564.251 311.819C558.476 312.263 540.704 346.019 532.707 356.234C529.153 360.676 530.041 362.452 525.598 368.67Z" fill="#292524"/>
<path d="M543.37 160.807C543.37 160.807 489.167 180.794 478.06 188.788C469.618 195.007 467.841 200.781 467.841 200.781C467.841 200.781 462.065 198.116 462.509 206.555C462.954 214.993 455.845 193.674 454.068 186.568C452.735 179.905 452.291 160.807 466.952 146.594C481.614 132.381 498.052 122.165 511.381 123.054C524.71 123.942 536.261 127.939 546.924 138.155C557.587 148.37 560.253 147.926 562.474 148.815C564.696 149.703 575.803 161.695 577.136 174.576C578.468 187.456 574.47 206.555 574.47 206.555C574.47 206.555 571.804 203.89 569.138 205.666C566.473 207.887 565.584 193.23 556.254 175.908C550.034 163.472 543.37 160.807 543.37 160.807Z" fill="#1C1917"/>
<path opacity="0.07" d="M509.16 802.164C502.94 820.374 478.948 855.462 462.954 876.782C446.959 898.101 398.532 942.516 401.642 997.147C404.752 1051.33 437.629 1191.24 437.629 1204.12C437.629 1216.56 425.189 1276.08 415.859 1294.29C406.529 1312.5 402.086 1345.36 406.974 1345.36C415.415 1344.92 424.745 1344.03 433.186 1341.81C441.184 1340.03 449.181 1338.26 456.734 1335.59C459.844 1334.26 460.732 1323.6 460.732 1323.6C461.177 1319.16 460.288 1314.72 459.399 1310.72C457.178 1304.06 455.401 1296.95 454.512 1290.29C452.735 1239.21 447.848 1120.62 449.181 1112.63C450.958 1097.08 438.518 1018.91 450.069 980.714C461.177 941.628 509.16 802.164 509.16 802.164Z" fill="black"/>
<path opacity="0.07" d="M392.312 704.894L383.871 768.852C383.871 768.852 392.312 782.177 394.534 771.073C397.199 759.969 414.527 739.094 403.419 723.993C393.201 708.892 392.312 704.894 392.312 704.894Z" fill="black"/>
<path opacity="0.07" d="M626.451 722.661L623.786 753.307L620.231 782.621C620.231 782.621 607.791 791.504 608.236 779.956C608.68 768.408 587.799 751.086 603.349 739.538C618.899 727.99 626.451 722.661 626.451 722.661Z" fill="black"/>
<path opacity="0.07" d="M474.95 309.154C477.171 308.71 464.731 311.819 475.838 308.266C494.943 302.047 486.945 266.071 486.945 266.071C486.945 266.071 488.723 279.396 506.938 284.726C525.154 290.055 529.597 286.058 502.495 298.938C475.394 311.819 489.611 315.816 491.388 332.25" fill="black"/>
<path opacity="0.07" d="M420.747 471.714L390.535 655.149C390.535 655.149 390.979 688.017 396.755 692.458C402.531 696.9 422.079 700.453 426.078 703.562C430.521 706.671 477.171 722.216 464.731 696.011C462.065 690.237 398.976 655.149 426.967 617.84C454.957 580.976 450.07 529.898 436.741 493.922C428.744 473.046 424.745 450.839 426.078 428.631L420.747 471.714Z" fill="black"/>
<defs>
<linearGradient id="paint0_linear_91153_6941" x1="330.509" y1="472.839" x2="704.089" y2="472.839" gradientUnits="userSpaceOnUse">
<stop stop-color="#F87B58"/>
<stop offset="0.41" stop-color="#F89453"/>
<stop offset="0.71" stop-color="#F8C548"/>
<stop offset="1" stop-color="#F89C51"/>
</linearGradient>
</defs>
</svg>
