<svg width="1024" height="1500" viewBox="0 0 1024 1500" fill="none" xmlns="http://www.w3.org/2000/svg">
<path d="M233.031 582.829L265.081 779.681L384.57 760.262L391.586 567.604L233.031 582.829Z" fill="#F5F5F4"/>
<mask id="mask0_91155_7128" style="mask-type:luminance" maskUnits="userSpaceOnUse" x="358" y="151" width="410" height="663">
<path d="M732.156 620.092L684.397 749.908L676.114 813.199L716.325 777.942C718.555 776.059 722.993 766.053 725.366 760.774L749.419 693.246L767.152 585.571C767.152 585.571 740.154 536.787 708.369 479.512L732.156 620.092ZM708.369 479.512L706.446 468.155L701.619 467.296L708.369 479.573M546.439 152.372C538.913 151.562 531.313 151.755 523.838 152.945C521.547 153.355 514.695 167.781 509.786 178.115C503.548 191.231 502.28 212.308 502.28 225.793C502.28 242.695 519.134 261.583 539.955 274.904C549.18 280.838 543.432 311.737 538.605 314.704C533.778 317.671 444.929 383.378 444.929 383.378L435.663 435.333L383.384 724.554L365.406 746.327C362.308 749.133 360.217 752.878 359.454 756.988C358.267 763.475 357.96 774.259 365.078 776.673C380.337 781.871 406.721 785.923 410.976 781.462C442.801 748.128 410.505 770.575 404.206 764.559L418.257 729.118L397.967 706.343L416.969 697.953L469.943 425.797L701.619 467.316C660.385 392.77 614.222 309.056 610.09 300.36C606.546 293.308 605.667 285.213 607.615 277.564C609.436 269.379 617.147 250.962 619.887 247.115C623.446 241.959 625.389 232.198 626.576 226.653C627.762 221.107 627.619 222.846 622.669 227.696C621.319 229.006 617.065 229.231 615.142 220.575C613.22 211.919 587.653 199.764 575.156 189.185C575.156 189.185 561.861 185.768 548.566 181.205" fill="white"/>
</mask>
<g mask="url(#mask0_91155_7128)">
<path d="M768.052 97H103.008V813.813H768.052V97Z" fill="url(#paint0_linear_91155_7128)"/>
</g>
<mask id="mask1_91155_7128" style="mask-type:luminance" maskUnits="userSpaceOnUse" x="520" y="108" width="144" height="147">
<path d="M616.328 113.411C620.828 116.767 633.775 128.902 638.582 132.728C643.818 136.984 646.968 142.796 651.59 150.367C653.983 154.275 657.726 165.305 659.424 169.643C669.139 194.526 659.567 205.371 652.02 223.01C641.588 247.32 617.903 251.065 616.042 254.564C597.286 248.425 595.118 250.737 586.855 253.357C576.342 246.358 571.74 236.802 566.115 231.891C569.572 226.959 571.126 185.215 551.798 205.658C559.427 197.616 538.994 172.59 534.699 169.479C530.403 166.369 525.781 162.87 526.17 161.11C528.419 151.042 511.852 152.7 526.497 141.998C538.258 133.424 542.737 113.82 558.138 112.265C567.69 111.304 579.88 110.219 589.514 108.787C596.407 107.743 601.929 111.058 607.82 111.754C610.961 112.091 613.991 113.11 616.697 114.741" fill="white"/>
</mask>
<g mask="url(#mask1_91155_7128)">
<path d="M514.618 100.478L496.402 251.071L659.921 270.868L678.136 120.275L514.618 100.478Z" fill="#1C1917"/>
</g>
<mask id="mask2_91155_7128" style="mask-type:luminance" maskUnits="userSpaceOnUse" x="405" y="697" width="281" height="639">
<path d="M405.985 996.71C403.94 1014.66 417.582 1108.56 417.582 1126.49C417.582 1144.41 451.105 1335.68 451.105 1335.68L504.08 1333.28C504.08 1333.28 493.526 1051.57 494.569 1037.86C495.612 1024.15 553.638 860.612 553.638 860.612C553.638 860.612 557.852 903.87 557.852 917.58C557.852 931.291 573.908 1329.6 573.908 1329.6H620.092L685.727 742.869L684.479 731.573L442.269 697.953C442.269 697.953 408.112 978.785 405.985 996.71Z" fill="white"/>
</mask>
<g mask="url(#mask2_91155_7128)">
<path d="M684.643 696.234H404.124V1333.41H684.643V696.234Z" fill="#78716C"/>
</g>
<mask id="mask3_91155_7128" style="mask-type:luminance" maskUnits="userSpaceOnUse" x="377" y="317" width="409" height="436">
<path d="M469.861 328.312C442.004 345.685 428.361 366.803 423.064 384.237C409.36 429.255 417.153 422.993 403.49 479.512C386.268 550.702 390.911 594.759 388.825 619.928C386.432 648.985 370.416 729.997 382.382 731.839C388.518 732.78 387.516 735.727 414.616 733.026C421.591 732.351 436.89 673.029 436.89 673.029C436.89 673.029 435.949 711.601 443.476 715.367C450.124 718.682 527.847 741.354 546.643 748.537C548.689 749.335 579.594 752.629 587.837 752.629L685.727 739.022C685.727 739.022 684.356 553.485 686.054 522.484C687.752 492.137 684.009 475.215 689.327 483.441C695.34 492.608 720.927 575.994 720.927 590.114C720.927 604.233 692.64 727.562 692.64 727.562L730.254 748.271C730.254 748.271 781.019 612.807 783.842 594.922C786.665 577.038 787.605 567.645 779.158 549.781C770.711 531.917 724.609 370.097 724.609 370.097C724.609 370.097 714.382 355.159 686.054 339.996C666.501 332.916 626.944 309.916 596.897 320.597C573.351 323.771 549.543 324.532 525.842 322.869C512.086 320.282 498 319.95 484.138 321.887" fill="white"/>
</mask>
<g mask="url(#mask3_91155_7128)">
<path d="M787.012 181.02H165.534V760.712H787.012V181.02Z" fill="#292524"/>
</g>
<path d="M433.147 1360.85C454.235 1356.75 451.555 1332.32 451.555 1332.32L503.487 1330.42C507.433 1342.53 509.778 1355.1 510.461 1367.82C510.911 1381.25 515.534 1399.5 502.28 1402.04C486.449 1405.05 397.844 1400.44 389.52 1390.01C378.68 1376.42 404.615 1367.21 424.291 1363.4" fill="#1C1917"/>
<path d="M551.184 1359.15C572.272 1355.06 573.683 1329.6 573.683 1329.6L619.908 1328.62C622.357 1340.17 623.808 1351.91 624.244 1363.71C624.673 1377.14 629.848 1395.2 618.415 1397.8C602.706 1401.36 515.8 1398.74 507.475 1388.31C496.635 1374.72 522.59 1365.51 542.246 1361.71" fill="#1C1917"/>
<g opacity="0.07">
<mask id="mask4_91155_7128" style="mask-type:luminance" maskUnits="userSpaceOnUse" x="449" y="828" width="115" height="574">
<path d="M563.333 828.976H449.612V1401.67H563.333V828.976Z" fill="white"/>
</mask>
<g mask="url(#mask4_91155_7128)">
<path d="M561.718 831.207C555.173 850.34 529.688 887.439 513.366 909.518C497.044 931.598 445.644 978.785 448.917 1036.18C452.19 1093.58 486.94 1240.81 486.94 1254.09C486.94 1267.37 473.932 1330.03 464.155 1349.16C454.378 1368.3 456.178 1388.31 461.066 1388.31C463.112 1388.31 471.395 1391.27 482.42 1388.31C490.867 1386.04 502.157 1395.2 506.964 1392.99C510.318 1391.42 511.055 1380.59 511.055 1380.59C511.379 1375.94 510.838 1371.27 509.459 1366.82C508.355 1363.98 504.223 1349.39 504.06 1345.17C502.014 1291.23 497.433 1166.45 498.333 1157.73C500.03 1141.36 487.083 1059.08 498.905 1018.59C510.727 978.089 561.8 831.289 561.8 831.289" fill="black"/>
</g>
</g>
<g opacity="0.07">
<mask id="mask5_91155_7128" style="mask-type:luminance" maskUnits="userSpaceOnUse" x="562" y="443" width="170" height="326">
<path d="M596.951 443.562L562.622 753.169L697.015 768.084L731.344 458.477L596.951 443.562Z" fill="white"/>
</mask>
<g mask="url(#mask5_91155_7128)">
<path d="M684.643 501.018L684.173 692.162C684.173 692.162 688.959 732.678 682.311 737.18C675.664 741.682 648.358 745.058 640.116 745.058C634.491 745.058 558.977 753.878 585.873 740.434C597.92 734.397 673.353 692.039 649.279 650.397C625.205 608.755 636.271 555.47 653.983 519.537C671.696 483.604 685.011 459.336 685.011 459.336L684.643 501.018Z" fill="black"/>
</g>
</g>
<path opacity="0.07" d="M537.112 273.083C541.901 274.157 546.918 273.429 551.205 271.036C553.475 269.706 561.759 263.793 565.829 260.539C574.583 253.541 556.154 276.132 552.718 289.064C548.893 303.388 544.721 279.856 541.632 276.541C540.417 275.05 538.869 273.865 537.112 273.083Z" fill="black"/>
<path opacity="0.07" d="M654.249 813.793C654.249 813.793 636.577 884.983 620.889 905.876C603.974 928.385 622.628 1031.48 606.94 1076.84C592.111 1119.71 612.176 1212.92 608.679 1242.59C605.815 1266.9 605.201 1319.43 592.459 1348.65C588.123 1358.6 578.857 1365.92 578.857 1370.65C578.857 1396.82 614.119 1379.94 614.119 1379.94L615.96 1356.73L640.136 1151.9L684.643 745.529L654.249 813.793Z" fill="black"/>
<path opacity="0.1" d="M462.191 567.052C462.191 567.052 479.679 519.21 480.497 494.307C481.315 469.403 484.301 563.88 484.301 563.88C484.301 563.88 469.595 559.419 462.191 567.032" fill="black"/>
<path d="M502.75 762.615L484.342 563.901C484.342 563.901 462.232 560.545 462.232 567.052C462.232 578.02 454.194 609.124 449.96 627.029C446.156 643.399 439.733 660.874 429.2 697.462C425.62 710.005 415.496 731.164 415.496 731.164L404.185 764.559C404.185 764.559 401.26 768.018 421.755 763.045C421.755 763.045 424.352 762.083 424.802 764.641L502.75 762.615Z" fill="#F5F5F4"/>
<defs>
<linearGradient id="paint0_linear_91155_7128" x1="99.0068" y1="455.417" x2="763.399" y2="455.417" gradientUnits="userSpaceOnUse">
<stop stop-color="#F87B58"/>
<stop offset="0.63" stop-color="#F89453"/>
<stop offset="0.81" stop-color="#F8C548"/>
<stop offset="0.94" stop-color="#F89952"/>
<stop offset="1" stop-color="#F89C51"/>
</linearGradient>
</defs>
</svg>
