<svg width="1024" height="1024" viewBox="0 0 1024 1024" fill="none" xmlns="http://www.w3.org/2000/svg">
<g clip-path="url(#clip0_91175_9842)">
<path d="M71.7928 597.886C71.7928 597.886 -84.2639 460.967 112.454 396.267C210.556 364.021 233.614 347.434 309.893 285.001C419.009 195.576 561.992 143.96 747.901 301.588C933.81 459.215 1074.12 508.049 951.722 602.522C814.092 708.74 897.884 763.343 880.591 793.323C875.958 801.256 846.929 767.258 782.901 802.286C637.035 882.13 562.816 760.665 455.552 790.954C354.363 819.595 302.378 756.338 269.437 781.063C220.335 817.946 189.556 817.431 171.13 807.747C155.689 799.608 146.63 782.815 147.351 765.198C148.174 745.211 148.277 707.71 140.248 680.409C128.101 639.199 98.3513 618.182 71.7928 597.886Z" fill="#F5F5F4"/>
<path d="M73.5428 599.534C73.5428 599.534 -84.058 459.73 114.616 393.589C213.644 360.621 236.908 343.725 313.907 279.85C424.053 188.57 568.374 135.718 755.931 296.746C943.487 457.773 1089.76 514.127 961.604 604.274C872.87 666.706 902.929 636.211 875.341 657.64C816.665 702.971 683.255 617.77 574.962 648.78C472.846 677.936 373.509 634.357 329.142 631.369C311.54 630.236 240.614 629.927 204.894 628.072C184.924 627.042 162.894 635.799 135.101 629.205C93.3072 619.212 100.41 620.242 73.5428 599.534Z" fill="#FAFAF9"/>
<path d="M242.879 339.604L191.718 374.117C190.997 374.529 189.865 367.214 189.144 367.523L154.35 380.917L153.939 631.163L371.656 628.484L370.009 289.328L303.716 289.843L242.879 339.604Z" fill="#E7E5E4"/>
<path d="M225.997 347.743L172.674 373.911L172.571 380.917L350.142 379.886L349.421 315.908L272.834 314.878L255.746 327.962C252.761 330.229 249.055 332.701 244.423 335.792C236.702 340.84 232.07 344.24 225.997 347.743Z" fill="#F5F5F4"/>
<path d="M172.674 391.322V454.476L350.451 454.167V391.322H172.674Z" fill="#F5F5F4"/>
<path d="M173.188 465.809V528.963L350.863 528.551L350.965 465.809H173.188Z" fill="#F5F5F4"/>
<path d="M174.115 541.326V604.48L351.892 604.17V541.326H174.115Z" fill="#F5F5F4"/>
<path d="M234.541 501.661L242.879 490.741L273.864 518.351L266.04 529.581L234.541 501.661Z" fill="white"/>
<path d="M173.085 478.069L193.159 478.172L193.262 529.066L173.188 528.86L173.085 478.069Z" fill="white"/>
<path d="M216.938 486.723L225.173 482.087L246.07 523.914L237.938 529.478L216.938 486.723Z" fill="#F5F5F4"/>
<path d="M207.261 472.505H217.041L217.247 529.272L207.261 528.963V472.505Z" fill="white"/>
<path d="M193.262 489.813L207.467 490.122L207.262 529.169L193.056 528.86L193.262 489.813Z" fill="#F5F5F4"/>
<path d="M271.084 477.966L291.055 478.069L291.26 528.963L271.084 528.654V477.966Z" fill="white"/>
<path d="M305.26 472.402H314.937L315.245 529.066L305.157 528.86L305.26 472.402Z" fill="white"/>
<path d="M291.26 489.71L305.466 489.916L305.157 528.963L290.952 528.757L291.26 489.71Z" fill="#F5F5F4"/>
<path d="M174.115 546.58L189.453 546.683L189.556 604.995L174.218 604.686L174.115 546.58Z" fill="white"/>
<path d="M189.453 555.337L199.85 555.234L199.541 604.789L189.247 604.686L189.453 555.337Z" fill="#F5F5F4"/>
<path d="M199.85 565.536L213.953 565.742L213.644 604.789L199.438 604.583L199.85 565.536Z" fill="white"/>
<path d="M286.319 372.366V379.68L343.142 380.092V372.366H286.319Z" fill="#F5F5F4"/>
<path d="M286.216 366.596L286.422 372.469L323.481 372.675L323.172 366.39L286.216 366.596Z" fill="white"/>
<path d="M172.777 403.582L192.85 403.685L192.953 454.579L172.777 454.27V403.582Z" fill="white"/>
<path d="M328.936 411.721L320.495 407.085L298.775 448.913L307.319 454.373L328.936 411.721Z" fill="#F5F5F4"/>
<path d="M340.877 397.503H350.657L350.863 454.167L340.877 453.961V397.503Z" fill="white"/>
<path d="M327.495 415.121L341.701 415.327L341.495 454.373L327.289 454.167L327.495 415.121Z" fill="#F5F5F4"/>
<path d="M231.864 447.058V454.373L288.687 454.785V447.058H231.864Z" fill="#F5F5F4"/>
<path d="M240.717 441.083L241.026 446.955L278.084 447.161L277.775 440.877L240.717 441.083Z" fill="white"/>
<path d="M780.43 703.589C780.43 703.589 763.342 723.782 777.342 724.297C791.342 724.812 820.062 741.09 825.518 726.564C830.974 712.037 841.988 704.722 835.297 703.074C828.606 701.426 822.532 694.626 808.43 695.759C794.327 696.893 780.43 703.589 780.43 703.589Z" fill="#F5F5F4"/>
<path d="M776.004 605.407C776.004 605.407 767.975 606.231 767.975 616.224C767.975 626.218 773.122 712.14 792.68 713.891C805.342 715.025 818.827 714.922 825.518 714.304C828.4 713.994 831.18 705.34 831.694 701.838C834.268 684.736 837.562 643.114 838.282 618.903C838.385 613.958 835.091 607.467 833.341 605.819C823.562 596.856 776.004 605.407 776.004 605.407Z" fill="#D6D3D1"/>
<path d="M870.605 439.125C867.517 436.241 863.194 440.156 864.841 444.174C866.385 448.088 867.517 454.785 861.238 461.997C851.562 473.226 816.665 511.139 817.077 535.556C817.489 559.973 809.871 566.773 817.077 576.045C824.283 585.317 853.312 585.008 860.929 565.227C868.547 545.447 887.796 537.514 887.385 509.285C886.973 481.056 883.679 468.693 880.179 459.009C878.12 452.931 874.62 442.937 870.605 439.125Z" fill="#E7E5E4"/>
<path d="M817.797 601.801C817.797 601.801 820.886 557.603 855.37 538.338C876.988 526.284 878.429 484.456 873.282 474.978" stroke="white" stroke-width="0.862334" stroke-linecap="round" stroke-linejoin="round"/>
<path d="M822.224 620.345C822.224 620.345 833.135 663.822 821.297 698.335L822.224 620.345Z" fill="#E7E5E4"/>
<path d="M847.032 429.544C843.738 426.762 839.106 430.471 840.856 434.386C842.503 438.095 843.635 444.586 837.047 451.488C826.65 462.203 789.386 498.467 789.695 521.854C790.004 545.24 789.695 558.84 797.415 567.7C805.136 576.56 823.15 569.451 831.282 550.598C839.415 531.744 865.458 523.708 865.047 496.613C864.635 469.621 861.032 457.773 857.326 448.501C855.062 442.628 851.356 433.15 847.032 429.544Z" fill="#E7E5E4"/>
<path d="M803.386 602.728C803.386 602.728 791.239 542.665 820.783 506.503C832.621 492.08 850.12 463.13 850.018 449.119" stroke="white" stroke-width="0.862334" stroke-linecap="round" stroke-linejoin="round"/>
<path d="M754.901 439.125C757.886 436.241 762.21 440.156 760.666 444.174C759.122 448.088 758.092 454.785 764.269 461.997C773.842 473.226 808.43 511.139 808.121 535.556C807.812 559.973 808.121 574.19 800.915 583.566C793.71 592.941 777.136 585.42 769.622 565.639C762.107 545.859 738.019 537.514 738.328 509.285C738.637 481.056 742.034 468.693 745.431 459.009C747.49 452.931 750.887 442.937 754.901 439.125Z" fill="#E7E5E4"/>
<path d="M793.709 603.758C793.709 603.758 807.606 549.155 780.224 513.097C769.313 498.673 751.71 477.244 751.916 463.336" stroke="white" stroke-width="0.862334" stroke-linecap="round" stroke-linejoin="round"/>
<path d="M732.666 534.32C732.666 534.32 704.049 534.938 688.608 500.219C673.167 465.5 707.961 458.391 733.49 477.038C759.019 495.686 748.622 503.413 779.092 520.618C809.562 537.823 802.974 571.924 793.504 580.99C784.033 590.056 766.122 604.17 754.181 567.288C742.24 530.405 732.666 534.32 732.666 534.32Z" fill="#F5F5F4"/>
<path d="M788.254 604.17C788.254 604.17 790.312 517.218 704.152 493.316" stroke="white" stroke-width="0.862334" stroke-linecap="round" stroke-linejoin="round"/>
<path d="M776.004 605.407C776.004 605.407 811.106 599.74 824.797 602.728C838.488 605.716 800.606 609.219 800.606 609.219C800.606 609.219 782.489 610.043 776.004 605.407Z" fill="#E7E5E4"/>
<path d="M350.451 614.576C350.451 614.576 310.922 583.36 304.231 552.761C297.54 522.163 312.054 500.94 333.157 497.643C354.26 494.346 367.127 484.25 441.141 509.388C515.154 534.526 600.389 489.916 600.389 489.916C600.389 489.916 669.976 457.876 704.358 465.706C743.475 474.566 751.813 498.261 741.21 540.604C730.607 582.947 694.578 614.988 694.578 614.988L350.451 614.576Z" fill="#E7E5E4"/>
<path d="M332.539 611.279C332.539 611.279 326.363 611.279 325.333 617.461C324.304 623.642 326.363 643.217 329.451 649.398C332.539 655.58 347.054 655.271 347.054 655.271L700.034 654.549C700.034 654.549 711.769 654.652 714.446 645.277C716.608 637.756 719.696 630.236 720.004 624.981C720.313 618.8 715.887 613.443 709.813 612.618C706.005 612.103 702.093 611.897 698.284 611.897C671.417 611.897 332.539 611.279 332.539 611.279Z" fill="#E7E5E4"/>
<path d="M316.069 707.092L339.745 655.58H358.274L333.569 707.092H316.069Z" fill="white"/>
<path d="M680.476 655.58L702.093 708.122L717.534 707.092L696.946 655.58H680.476Z" fill="white"/>
<path d="M356.524 611.897C356.524 611.897 323.995 586.759 322.451 576.354C320.495 562.755 332.745 542.562 380.303 551.525C427.861 560.488 511.757 584.699 557.257 572.336C602.756 559.973 659.991 508.049 664.108 505.267C668.226 502.485 716.916 478.584 727.931 515.054C738.945 551.525 694.475 611.485 694.475 611.485L356.524 611.897Z" fill="#F5F5F4"/>
<path d="M514.743 193L516.081 262.748L517.728 262.438L519.169 193H514.743Z" fill="#E7E5E4"/>
<path d="M479.434 319.926C479.434 319.926 466.464 261.717 517.831 261.099C566.418 260.584 553.963 322.914 553.963 322.914L479.434 319.926Z" fill="#E7E5E4"/>
<path d="M478.92 319.926C478.92 319.926 520.199 302 553.963 322.708C553.963 322.708 518.449 341.561 478.92 319.926Z" fill="white"/>
<path d="M498.89 271.505C498.89 271.505 480.876 278.201 484.581 308.799L498.89 271.505Z" fill="white"/>
<path d="M478.92 319.926L442.479 451.076L591.536 449.634L553.963 322.708L478.92 319.926Z" fill="url(#paint0_linear_91175_9842)"/>
</g>
<defs>
<linearGradient id="paint0_linear_91175_9842" x1="516.756" y1="249.231" x2="517.065" y2="477.698" gradientUnits="userSpaceOnUse">
<stop stop-color="white"/>
<stop offset="1" stop-color="white" stop-opacity="0"/>
</linearGradient>
<clipPath id="clip0_91175_9842">
<rect width="997" height="637" fill="white" transform="translate(13 193)"/>
</clipPath>
</defs>
</svg>
