<svg width="1024" height="1024" viewBox="0 0 1024 1024" fill="none" xmlns="http://www.w3.org/2000/svg">
<rect width="1024" height="1024" fill="white"/>
<g clip-path="url(#clip0_91126_4864)">
<path d="M361.566 708L880.965 686.557L957.998 325.289L430.756 329.561L351.965 707.785" fill="url(#paint0_linear_91126_4864)"/>
<path d="M661.639 560.963C679.028 560.963 693.125 546.062 693.125 527.681C693.125 509.299 679.028 494.398 661.639 494.398C644.249 494.398 630.152 509.299 630.152 527.681C630.152 546.062 644.249 560.963 661.639 560.963Z" fill="#A8A29E"/>
<path d="M356.989 681.242L73.4636 680.944C72.6351 680.939 71.8298 681.217 71.1813 681.732C70.5329 682.247 70.0804 682.968 69.8988 683.775L66.0852 700.781C65.9686 701.308 65.9721 701.855 66.0954 702.381C66.2186 702.907 66.4586 703.399 66.7976 703.82C67.1365 704.241 67.5658 704.581 68.0538 704.815C68.5417 705.048 69.0759 705.169 69.6169 705.169L352.082 707.752C352.897 707.762 353.691 707.498 354.338 707.002C354.985 706.507 355.445 705.808 355.646 705.02L360.521 685.729C360.655 685.195 360.665 684.637 360.55 684.098C360.435 683.559 360.198 683.054 359.857 682.621C359.516 682.188 359.08 681.838 358.583 681.599C358.086 681.36 357.541 681.238 356.989 681.242Z" fill="url(#paint1_linear_91126_4864)"/>
<path d="M422.068 319.659L949.326 316C949.701 315.997 950.072 316.079 950.411 316.24C950.749 316.4 951.048 316.635 951.283 316.927L958.031 325.289L432.845 329.528C432.267 329.534 431.71 329.741 431.268 330.112C430.827 330.484 430.528 330.997 430.424 331.565L361.997 705.864C361.89 706.448 361.577 706.975 361.115 707.349C360.652 707.723 360.071 707.918 359.476 707.901L354.817 707.768C354.461 707.759 354.111 707.673 353.791 707.517C353.471 707.361 353.188 707.138 352.961 706.864C352.735 706.589 352.57 706.269 352.479 705.925C352.387 705.581 352.37 705.221 352.43 704.871L417.74 323.369C417.895 322.334 418.418 321.391 419.213 320.71C420.007 320.029 421.021 319.656 422.068 319.659Z" fill="url(#paint2_linear_91126_4864)"/>
</g>
<defs>
<linearGradient id="paint0_linear_91126_4864" x1="66.0025" y1="516.636" x2="957.981" y2="516.636" gradientUnits="userSpaceOnUse">
<stop stop-color="#44403C"/>
<stop offset="1" stop-color="#1C1917"/>
</linearGradient>
<linearGradient id="paint1_linear_91126_4864" x1="66.0024" y1="694.356" x2="360.637" y2="694.356" gradientUnits="userSpaceOnUse">
<stop stop-color="#44403C"/>
<stop offset="1" stop-color="#1C1917"/>
</linearGradient>
<linearGradient id="paint2_linear_91126_4864" x1="352.397" y1="511.984" x2="957.998" y2="511.984" gradientUnits="userSpaceOnUse">
<stop stop-color="#44403C"/>
<stop offset="1" stop-color="#1C1917"/>
</linearGradient>
<clipPath id="clip0_91126_4864">
<rect width="892" height="392" fill="white" transform="translate(66 316)"/>
</clipPath>
</defs>
</svg>
