<svg width="1024" height="1024" viewBox="0 0 1024 1024" fill="none" xmlns="http://www.w3.org/2000/svg">
<rect width="1024" height="1024" fill="white"/>
<g clip-path="url(#clip0_91144_5393)">
<path d="M759.492 325.616C770.654 311.59 776.606 297.753 772.787 294.709C768.967 291.666 756.823 300.569 745.661 314.595C734.499 328.621 728.546 342.459 732.366 345.502C736.185 348.545 748.33 339.642 759.492 325.616Z" fill="#78716C"/>
<path d="M771.212 294.188L671.195 293.146C672.251 316.618 678.878 348.892 683.349 377.263C689.331 415.229 680.417 428.476 681.883 449.336C681.883 449.336 688.495 486.994 689.36 500.329C692.747 552.818 698.963 586.646 695.049 620.357C694.873 623.614 694.917 628.822 691.325 632.519C685.358 638.651 671.21 644.9 638.428 645.326C572.865 646.206 405.496 671.056 418.148 568.676C430.801 466.295 486.424 425.527 486.424 425.527L344.36 422.593C344.36 422.593 357.834 489.194 257.216 508.074C156.598 526.955 90.3017 609.414 88.0293 664.103H812.277C812.277 664.103 785.887 504.084 730.777 442.427C675.667 380.77 771.212 294.188 771.212 294.188Z" fill="#292524"/>
<path d="M257.186 748C313.857 748 359.798 702.031 359.798 645.326C359.798 588.62 313.857 542.651 257.186 542.651C200.515 542.651 154.575 588.62 154.575 645.326C154.575 702.031 200.515 748 257.186 748Z" fill="#292524"/>
<path d="M257.333 702.978C287.769 702.978 312.443 678.29 312.443 647.834C312.443 617.379 287.769 592.69 257.333 592.69C226.896 592.69 202.223 617.379 202.223 647.834C202.223 678.29 226.896 702.978 257.333 702.978Z" fill="white"/>
<path d="M833.359 748C890.03 748 935.971 702.031 935.971 645.326C935.971 588.62 890.03 542.651 833.359 542.651C776.688 542.651 730.748 588.62 730.748 645.326C730.748 702.031 776.688 748 833.359 748Z" fill="#292524"/>
<path d="M833.506 702.978C863.942 702.978 888.616 678.29 888.616 647.834C888.616 617.379 863.942 592.69 833.506 592.69C803.069 592.69 778.396 617.379 778.396 647.834C778.396 678.29 803.069 702.978 833.506 702.978Z" fill="white"/>
<path d="M284.603 437.219H513.62C513.62 437.219 519.294 399.782 503.358 398.652C487.421 397.522 333.291 398.652 333.291 398.652C333.291 398.652 300.48 400.911 284.603 437.219Z" fill="#292524"/>
<path d="M671.195 311.293C681.211 311.293 689.331 303.169 689.331 293.147C689.331 283.125 681.211 275 671.195 275C661.179 275 653.06 283.125 653.06 293.147C653.06 303.169 661.179 311.293 671.195 311.293Z" fill="#E7E5E4"/>
<path d="M358.405 664.015L401.215 664.103C401.215 664.103 442.148 581.087 394.691 525.165C381.614 509.762 362.437 501.693 342.205 500.461C281.377 496.823 238.802 508.618 196.872 527.894C162.097 544.293 132.349 569.718 110.724 601.522C89.1435 633.986 88.0293 664.103 88.0293 664.103L358.405 664.015Z" fill="url(#paint0_linear_91144_5393)"/>
<path d="M731.305 656.167L909.2 576.172C909.2 576.172 866.947 520.559 790.168 551.747C783.027 555.075 776.23 559.099 769.878 563.761C753.325 576.553 720.163 606.876 731.305 656.167Z" fill="url(#paint1_linear_91144_5393)"/>
<path d="M336.414 684.89C336.414 684.89 337.719 710.812 290.628 722.137L336.414 684.89Z" fill="url(#paint2_linear_91144_5393)"/>
<path d="M922.278 650.959C922.278 650.959 931.294 675.296 889.774 700.235L922.278 650.959Z" fill="url(#paint3_linear_91144_5393)"/>
</g>
<defs>
<linearGradient id="paint0_linear_91144_5393" x1="88.0293" y1="581.952" x2="417.621" y2="581.952" gradientUnits="userSpaceOnUse">
<stop stop-color="white"/>
<stop offset="1" stop-color="white" stop-opacity="0"/>
</linearGradient>
<linearGradient id="paint1_linear_91144_5393" x1="729.062" y1="599.204" x2="909.2" y2="599.204" gradientUnits="userSpaceOnUse">
<stop stop-color="white"/>
<stop offset="1" stop-color="white" stop-opacity="0"/>
</linearGradient>
<linearGradient id="paint2_linear_91144_5393" x1="358.58" y1="707.597" x2="281.773" y2="703.979" gradientUnits="userSpaceOnUse">
<stop stop-color="white" stop-opacity="0"/>
<stop offset="1" stop-color="white"/>
</linearGradient>
<linearGradient id="paint3_linear_91144_5393" x1="950.208" y1="664" x2="876.06" y2="683.478" gradientUnits="userSpaceOnUse">
<stop stop-color="white" stop-opacity="0"/>
<stop offset="1" stop-color="white"/>
</linearGradient>
<clipPath id="clip0_91144_5393">
<rect width="848" height="473" fill="white" transform="translate(88 275)"/>
</clipPath>
</defs>
</svg>
