<svg width="1024" height="1500" viewBox="0 0 1024 1500" fill="none" xmlns="http://www.w3.org/2000/svg">
<g clip-path="url(#clip0_91155_7254)">
<path d="M550.103 269.618L646.586 251.125C646.586 251.125 654.619 210.929 652.207 203.708C649.795 196.488 647.53 180.808 633.875 175.98C620.221 171.153 601.826 132.698 556.039 163.26C510.252 193.822 534.771 230.24 534.771 230.24L550.103 269.618Z" fill="#1C1917"/>
<path d="M618.06 188.953C618.06 188.953 570.05 207.508 559.122 212.042C548.194 216.576 542.343 229.779 542.343 229.779C542.343 229.779 536.973 226.588 536.973 235.698C536.973 244.808 541.441 265.336 544.692 270.563C550.282 279.423 555.372 288.589 559.94 298.018C564.387 307.421 562.772 326.942 558.22 329.671C553.669 332.4 472.582 405.362 472.582 405.362L405.149 335.359L324.376 255.596L290.188 184.335C290.188 184.335 257.594 130.936 253.273 124.638C219.714 75.1435 211.89 98.4217 210.086 117.523C209.562 123.085 211.303 144.306 214.785 148.693L372.24 348.1L407.896 360.695L472.477 405.257L496.157 445.369L720.29 485.67L749.423 602.586L776.69 448.098L785.478 416.969C785.583 416.595 785.805 416.263 786.111 416.023C786.417 415.784 786.792 415.648 787.181 415.636C787.569 415.624 787.952 415.737 788.272 415.958C788.592 416.179 788.833 416.497 788.96 416.864L793.973 431.243C791.729 436.259 796.07 429.459 793.973 431.243L804.229 439.492C807.733 442.316 810.349 446.091 811.762 450.365C813.176 454.639 813.328 459.23 812.2 463.589L777.781 596.919C777.781 596.919 636.182 341.761 629.009 326.648C625.779 319.869 629.219 303.559 631.106 295.163C632.826 287.46 636.581 277.846 640.23 275.096C643.88 272.347 650.235 259.606 650.235 254.106C650.235 248.607 651.305 231.269 646.607 235.866C645.327 237.125 639.077 227.281 637.252 219.074C634.25 207.232 627.521 196.672 618.06 188.953Z" fill="url(#paint0_linear_91155_7254)"/>
<path d="M470.044 702.541C470.044 702.541 437.681 968.613 435.688 985.615C433.695 1002.62 446.679 1091.57 446.679 1108.58C446.679 1125.58 478.413 1306.77 478.413 1306.77L528.584 1304.5C528.584 1304.5 518.6 1037.59 519.586 1024.59C520.571 1011.6 575.524 856.672 575.524 856.672C575.524 856.672 579.531 897.666 579.531 910.659C579.531 923.652 594.737 1301.08 594.737 1301.08H638.469L700.658 745.214L699.462 734.509L470.044 702.541Z" fill="#78716C"/>
<path d="M599.54 397.07C598.821 398.05 597.872 398.839 596.778 399.367C595.683 399.896 594.476 400.149 593.262 400.103C592.048 400.058 590.863 399.715 589.811 399.106C588.76 398.497 587.873 397.64 587.228 396.609C584.663 392.761 582.351 388.75 580.307 384.602C576.741 377.486 549.265 336.765 549.265 336.765C549.265 336.765 495.423 332.882 483.657 327.719C471.533 322.408 460.312 325.494 446.469 321.317C434.052 317.58 401.038 298.689 392.669 294.638C370.73 283.975 357.705 270.856 324.46 231.667C300.508 203.373 292.265 180.367 288.196 177.093C273.786 165.401 238.402 189.036 238.402 189.036C238.402 189.036 300.78 308.198 321.608 327.803C344.449 349.234 389.188 379.145 423.607 387.016C450.223 393.124 478.14 447.216 480.678 457.354C487.872 486.992 464.947 679.851 464.947 679.851C464.947 679.851 464.066 716.395 471.24 719.963C477.532 723.112 554.907 752.75 572.714 759.571C573.187 759.751 573.691 759.833 574.197 759.813C574.702 759.794 575.199 759.673 575.657 759.457C576.114 759.242 576.524 758.937 576.862 758.56C577.2 758.183 577.458 757.742 577.622 757.263L588.99 724.644C589.034 724.503 589.122 724.38 589.241 724.292C589.36 724.205 589.503 724.158 589.651 724.158C589.798 724.158 589.942 724.205 590.061 724.292C590.18 724.38 590.268 724.503 590.312 724.644L601.176 760.327C601.477 761.179 602.076 761.894 602.863 762.337C603.65 762.781 604.571 762.925 605.455 762.741L700.658 742.234C700.658 742.234 699.337 566.44 700.973 537.075C702.567 508.298 698.875 492.282 704.056 500.048C709.74 508.759 722.409 597.884 728.848 609.596C734.028 619.063 749.361 623.534 761.505 625.633C766.206 626.463 771.044 626.028 775.522 624.372C780 622.716 783.957 619.899 786.989 616.208L800.182 600.109C803.894 595.575 802.279 572.444 801.776 566.524C800.203 547.066 800.371 519.38 802.426 506.24C805.111 489.301 761.862 511.992 761.862 493.247C761.862 462.434 737.489 392.599 737.489 392.599C737.489 392.599 733.022 373.876 700.973 364.074C668.924 354.271 644.782 340.124 638.7 340.187C632.995 340.187 615.061 374.296 607.049 384.098C603.504 388.569 604.134 390.626 599.54 397.07Z" fill="#1C1917"/>
<path d="M633.351 1300.49L595.282 1300.87C595.282 1300.87 587.438 1337.26 583.348 1352.44C583.075 1353.41 582.278 1355.88 581.733 1357.67C581.141 1360.28 580.888 1362.95 580.978 1365.62C581.754 1379.41 586.892 1391.08 599.141 1397.32C612.628 1404.16 623.031 1410.46 637.378 1397.32C651.724 1384.18 653.633 1375.91 648.117 1353.09C642.601 1330.27 640.839 1301.39 637.441 1300.62" fill="#1C1917"/>
<path d="M432.772 1347.57C460.857 1339.76 479.65 1306.53 479.65 1306.53L527.682 1304.04C527.682 1304.04 530.178 1337.62 531.562 1354.88C533.366 1377.59 528.856 1387.72 511.615 1386.51C488.963 1384.89 396.507 1392.17 382.014 1384.07C363.137 1373.58 406.47 1354.88 432.772 1347.57Z" fill="#1C1917"/>
<path opacity="0.07" d="M583.18 829.616C576.993 847.751 552.851 882.889 537.393 903.816C521.935 924.744 473.253 969.453 476.336 1023.82C479.42 1078.18 512.349 1217.75 512.349 1230.3C512.349 1242.85 500.037 1302.19 490.725 1320.37C481.412 1338.54 477.028 1371.56 481.664 1371.56C490.449 1371.3 499.185 1370.14 507.735 1368.1C515.726 1366 526.738 1363.9 531.226 1361.8C534.394 1360.33 535.065 1350.07 535.065 1350.07C535.378 1345.67 534.873 1341.25 533.576 1337.03C532.527 1334.33 528.605 1320.49 528.458 1316.51C526.507 1265.39 522.165 1147.18 523.046 1138.91C524.64 1123.42 512.37 1045.44 523.571 1007C534.771 968.571 583.18 829.616 583.18 829.616Z" fill="black"/>
<path opacity="0.07" d="M466.814 732.557L458.592 796.325C458.592 796.325 466.982 809.486 469.079 798.424C471.176 787.363 488.879 766.309 478.203 751.343C467.527 736.377 466.814 732.557 466.814 732.557Z" fill="black"/>
<path opacity="0.07" d="M700.049 750.441L697.176 780.835L693.421 810.221C693.421 810.221 681.298 819.016 681.487 807.618C681.676 796.22 661.058 778.841 676.726 767.254C692.394 755.667 700.049 750.441 700.049 750.441Z" fill="black"/>
<path opacity="0.07" d="M549.034 337.374C551.131 336.912 538.547 340.355 549.6 336.702C568.477 330.405 560.633 294.722 560.633 294.722C560.633 294.722 562.583 308.093 580.516 313.466C598.093 318.714 603.295 314.831 576.322 327.572C549.789 340.166 563.464 344.511 565.268 360.883" fill="black"/>
<path opacity="0.07" d="M481.958 487.055L464.947 683.188C464.947 683.188 465.157 715.786 471.24 720.698C477.322 725.609 496.409 728.758 500.814 731.906C505.218 735.055 551.739 750.462 539.595 724.455C536.869 718.662 473.945 683.356 502.03 646.623C530.115 609.89 525.102 558.569 511.615 522.886C498.129 487.202 481.748 433.908 481.748 433.908L481.958 487.055Z" fill="black"/>
<path opacity="0.07" d="M764.294 498.831C764.294 498.831 778.725 503.848 791.037 498.705C809.452 491.023 797.602 556.701 801.272 578.195C804.062 594.357 786.821 629.915 761.421 625.696C736.021 621.477 727.568 618.895 722.219 585.269C718.15 559.535 757.582 552.125 757.582 527.63C757.582 503.134 764.294 498.831 764.294 498.831Z" fill="black"/>
<path opacity="0.07" d="M700.469 551.6C700.469 551.6 707.831 481.829 700.469 457.375C693.107 432.922 686.626 427.989 686.626 427.989L700.469 551.6Z" fill="black"/>
</g>
<defs>
<linearGradient id="paint0_linear_91155_7254" x1="210.003" y1="348.772" x2="812.997" y2="348.772" gradientUnits="userSpaceOnUse">
<stop stop-color="#F87B58"/>
<stop offset="0.41" stop-color="#F89453"/>
<stop offset="0.71" stop-color="#F8C548"/>
<stop offset="1" stop-color="#F89C51"/>
</linearGradient>
<clipPath id="clip0_91155_7254">
<rect width="603" height="1310" fill="white" transform="translate(210 95)"/>
</clipPath>
</defs>
</svg>
