<svg width="1024" height="1524" viewBox="0 0 1024 1524" fill="none" xmlns="http://www.w3.org/2000/svg">
<g clip-path="url(#clip0_91156_7465)">
<path d="M359.333 1367.72L496.769 808.304L525.195 1045.35V1367.72H567.834C567.834 1367.72 622.909 865.896 623.121 822.974C623.334 775.755 608.855 653.198 608.855 653.198L420.03 639.935C420.03 639.935 370.55 811.859 369.489 914.786C368.747 986.039 314.096 1355.88 314.096 1355.88L359.333 1367.72Z" fill="#57534E"/>
<path d="M695.857 532.498C695.857 532.498 721.631 531.092 729.189 532.498C736.746 533.904 755.52 545.55 742.447 551.916C729.374 558.283 689.148 555.922 689.148 555.922L695.857 532.498Z" fill="url(#paint0_linear_91156_7465)"/>
<path d="M782.992 497.615C782.992 497.615 808.66 495.201 816.271 496.315C823.881 497.429 854.057 489.152 838.73 510.348C830.139 522.206 783.045 521.94 783.045 521.94L782.992 497.615Z" fill="url(#paint1_linear_91156_7465)"/>
<path d="M443.71 321.791C444.915 321.108 446.277 320.751 447.661 320.756H466.939C473.358 321.054 479.743 321.87 486.031 323.197C486.992 323.387 487.969 323.485 488.948 323.488C499.687 323.488 500.987 323.488 503.002 323.488C515.279 323.488 515.703 320.65 521.564 320.597C533.47 320.597 539.409 320.464 544.819 320.862C553.126 321.139 561.362 322.495 569.32 324.894C582.578 329.563 597.136 339.166 610.262 358.107C633.305 391.293 624.74 382.857 637.627 408.854C646.378 426.442 651.84 489.259 696.733 494.803C717.628 497.456 717.098 498.596 742.792 499.843C765.862 500.957 777.529 497.456 787.42 497.456C804.364 497.456 783.973 522.02 783.973 522.02C767.267 523.24 697.979 540.404 689.069 531.994C679.099 522.577 625.695 507.032 621.638 501.673C603.712 477.931 603.261 476.181 599.92 470.344C599.636 469.912 599.421 469.438 599.284 468.939C596.632 461.962 592.098 455.463 592.973 476.287C593.185 481.327 612.542 496.554 621.611 501.673C623.573 502.788 695.54 532.233 695.858 532.604C696.865 533.745 701.585 556.983 689.043 556.028C677.72 555.153 595.094 536.69 595.253 539.236C595.89 550.802 603.633 613.513 608.856 653.304C548.239 651.554 481.179 643.675 420.031 640.041C420.031 640.041 444.718 560.458 423.213 497.774C406.508 448.91 384.923 355.772 443.71 321.791Z" fill="#A8A29E"/>
<path d="M466.939 320.756L469.591 290.753L524.03 198.915L555.85 178.967C555.85 178.967 558.952 253.801 536.811 281.442C536.811 281.442 518.461 288.313 519.496 296.855C520.53 305.397 521.352 320.729 521.352 320.729C522.28 320.464 516.685 321.738 508.968 323.382C507.192 323.78 496.267 323.992 495.074 323.966L487.437 323.435C486.323 323.435 484.573 322.984 484.096 322.905C475.77 321.605 467.284 320.756 466.939 320.756Z" fill="url(#paint2_linear_91156_7465)"/>
<path d="M469.06 296.271C469.06 296.271 520.794 265.234 520.688 249.901C520.582 234.568 524.427 222.286 538.746 210.747C558.395 194.83 563.354 164.748 548.902 152.094C534.45 139.441 491.626 118.988 452.806 135.249C452.806 135.249 444.665 105.724 416.584 104.027C400.674 103.072 348.834 124.665 347.375 183.609C346.447 220.88 324.571 282.556 311.472 308.049C284.955 359.407 346.553 302.028 367.316 266.534C395.291 218.784 429.338 156.763 429.338 156.763C429.338 156.763 408.125 185.943 405.898 206.157C403.564 227.353 402.397 251.97 469.06 296.271Z" fill="#1C1917"/>
<path d="M398.686 1394.88C373.362 1387.53 360.289 1358.78 360.289 1358.78L314.097 1355.86C314.097 1355.86 310.862 1385.6 309.643 1401.78C307.999 1423.21 312.056 1432.79 327.621 1431.62C348.039 1430.08 431.381 1436.93 444.453 1429.31C461.477 1419.36 422.392 1401.78 398.686 1394.83" fill="#1C1917"/>
<path d="M612.012 1392.47C586.688 1385.12 569.426 1353.44 569.426 1353.44H525.408C525.408 1353.44 524.189 1383.18 522.969 1399.36C521.325 1420.77 525.382 1430.35 540.921 1429.21C561.365 1427.67 644.707 1434.51 657.78 1426.9C674.777 1416.95 635.718 1399.36 612.012 1392.41" fill="#1C1917"/>
<path opacity="0.07" d="M496.769 808.411L360.288 1358.78L314.096 1355.86C314.096 1355.86 373.228 1252.96 376.41 1152.58C380.785 1014.64 426.792 987.71 431.114 911.178C435.436 834.646 496.769 808.411 496.769 808.411Z" fill="black"/>
<path opacity="0.07" d="M420.03 639.908C420.03 639.908 449.198 575.42 428.409 504.618C407.355 433.206 389.642 393.415 431.061 333.728C449.225 307.598 414.594 452.545 473.753 478.992C506.978 493.848 475.901 562.315 505.043 589.32C522.379 605.163 534.47 625.921 539.7 648.821L420.03 639.908Z" fill="black"/>
</g>
<defs>
<linearGradient id="paint0_linear_91156_7465" x1="689.042" y1="544.117" x2="746.902" y2="544.117" gradientUnits="userSpaceOnUse">
<stop stop-color="#F87B58"/>
<stop offset="0.5" stop-color="#F8C548"/>
<stop offset="1" stop-color="#F89C51"/>
</linearGradient>
<linearGradient id="paint1_linear_91156_7465" x1="785.433" y1="509.874" x2="846.236" y2="507.442" gradientUnits="userSpaceOnUse">
<stop stop-color="#F87B58"/>
<stop offset="0.5" stop-color="#F8C548"/>
<stop offset="1" stop-color="#F89C51"/>
</linearGradient>
<linearGradient id="paint2_linear_91156_7465" x1="466.939" y1="251.519" x2="556.089" y2="251.519" gradientUnits="userSpaceOnUse">
<stop stop-color="#F87B58"/>
<stop offset="0.5" stop-color="#F8C548"/>
<stop offset="1" stop-color="#F89C51"/>
</linearGradient>
<clipPath id="clip0_91156_7465">
<rect width="538" height="1329" fill="white" transform="translate(305 104)"/>
</clipPath>
</defs>
</svg>
