<svg width="1024" height="1024" viewBox="0 0 1024 1024" fill="none" xmlns="http://www.w3.org/2000/svg">
<g clip-path="url(#clip0_91176_10590)">
<path d="M86.3659 281.539L61.4619 306.424L84.6964 329.642L109.6 304.756L86.3659 281.539Z" fill="#F5F5F4"/>
<path d="M113.76 311.169L88.8564 336.054L112.091 359.272L136.995 334.386L113.76 311.169Z" fill="#F5F5F4"/>
<path d="M119.669 252.18L94.7646 277.065L117.999 300.282L142.903 275.397L119.669 252.18Z" fill="#F5F5F4"/>
<path d="M906.838 676.741L881.934 701.627L905.168 724.844L930.072 699.958L906.838 676.741Z" fill="#F5F5F4"/>
<path d="M934.247 706.365L909.343 731.251L932.577 754.468L957.481 729.583L934.247 706.365Z" fill="#F5F5F4"/>
<path d="M904.728 735.859L879.824 760.744L903.059 783.962L927.963 759.076L904.728 735.859Z" fill="#F5F5F4"/>
<path d="M517.607 168.479H277.561V292.346H517.607V168.479Z" fill="#F5F5F4"/>
<path d="M224.436 632.488H133.927V833.034H224.436V632.488Z" fill="#F5F5F4"/>
<path d="M177.213 650.183C177.213 650.183 98.5097 522.384 94.5745 488.96C90.6393 455.535 86.7041 443.738 86.7041 443.738C86.7041 443.738 110.315 439.806 118.186 457.501C126.056 475.197 149.667 453.569 157.537 500.756C157.537 500.756 159.505 524.35 177.213 516.486C194.922 508.621 177.213 650.183 177.213 650.183Z" fill="#F5F5F4"/>
<path d="M187.052 669.844C187.052 669.844 130.778 565.639 112.283 524.35C98.5098 493.678 86.7043 443.738 86.7043 443.738C86.7043 443.738 62.8964 452.389 65.0608 471.264C67.0284 488.96 49.32 494.858 53.2552 516.486C57.5839 539.883 91.4265 544.208 70.9635 565.639C58.5677 578.616 67.8154 600.636 76.8663 614.792C82.5723 623.837 111.102 632.095 104.413 628.555C89.0654 620.691 187.052 669.844 187.052 669.844Z" fill="#F5F5F4"/>
<path d="M151.408 582.595C153.382 581.687 145.404 560.16 133.588 534.514C121.773 508.867 110.594 488.813 108.62 489.721C106.645 490.63 114.623 512.156 126.439 537.803C138.255 563.449 149.433 583.504 151.408 582.595Z" fill="#F5F5F4"/>
<path d="M203.973 733.744C203.973 733.744 84.1463 643.302 68.4055 613.613C52.6648 583.924 44.5977 574.29 44.5977 574.29C44.5977 574.29 65.2574 562.1 79.0305 575.666C92.8037 589.233 106.97 560.527 131.369 601.619C131.369 601.619 134.123 630.522 151.831 624.623C169.933 618.528 203.973 733.744 203.973 733.744Z" fill="#F5F5F4"/>
<path d="M220.304 748.49C220.304 748.49 129.991 671.811 97.7229 640.156C73.7183 616.562 44.5979 574.29 44.5979 574.29C44.5979 574.29 25.709 591.002 34.3664 607.714C42.6303 623.444 28.2668 635.437 39.8756 654.115C52.2715 674.367 85.5238 666.109 74.3085 693.438C67.4219 709.954 84.1465 727.256 97.7229 737.086C106.38 743.378 135.894 740.625 128.417 739.839C111.103 738.266 220.304 748.49 220.304 748.49Z" fill="#E7E5E4"/>
<path d="M143.399 703.953C144.907 702.389 129.644 685.234 109.307 665.635C88.9704 646.036 71.261 631.415 69.7523 632.978C68.2436 634.541 83.5068 651.697 103.844 671.296C124.18 690.895 141.89 705.516 143.399 703.953Z" fill="#F5F5F4"/>
<path d="M828.487 493.088C828.487 493.088 921.947 341.106 928.047 300.604C934.146 260.101 939.065 245.945 939.065 245.945C939.065 245.945 913.093 240.046 903.452 261.281C893.811 282.515 868.822 255.186 857.804 312.204C857.804 312.204 854.459 340.909 835.177 330.489C815.894 320.068 828.487 493.088 828.487 493.088Z" fill="#F5F5F4"/>
<path d="M816.682 516.486C816.682 516.486 884.17 392.226 906.797 342.875C923.522 306.305 939.066 245.945 939.066 245.945C939.066 245.945 965.038 257.545 961.693 280.352C958.545 301.783 978.024 309.844 972.515 335.994C966.612 364.306 928.834 368.042 950.478 394.978C963.464 411.297 952.249 437.84 941.427 454.552C934.541 465.169 902.665 474.017 910.142 470.085C927.457 461.237 816.682 516.486 816.682 516.486Z" fill="#F5F5F4"/>
<path d="M882.596 354.279C868.233 384.951 858.395 410.707 860.559 411.887C862.724 413.067 876.103 389.276 890.467 358.605C904.83 327.933 914.668 302.176 912.504 300.8C910.339 299.424 896.96 323.607 882.596 354.279Z" fill="#F5F5F4"/>
<path d="M794.645 593.558C794.645 593.558 931.983 488.96 950.871 453.373C969.76 417.785 979.205 406.578 979.205 406.578C979.205 406.578 956.971 390.849 941.033 406.775C925.096 422.701 910.929 387.114 881.612 436.07C881.612 436.07 877.283 471.068 857.804 463.007C837.932 454.945 794.645 593.558 794.645 593.558Z" fill="#E7E5E4"/>
<path d="M775.952 610.86C775.952 610.86 879.841 521.597 917.225 484.437C944.968 456.912 979.401 406.775 979.401 406.775C979.401 406.775 999.471 428.009 989.042 448.064C979.008 466.939 994.355 482.078 980.779 504.295C966.022 528.282 929.621 516.879 940.836 550.696C947.526 571.144 928.244 591.395 912.7 602.799C902.862 610.074 870.2 605.355 878.66 604.765C897.353 603.192 775.952 610.86 775.952 610.86Z" fill="#F5F5F4"/>
<path d="M913.88 507.048C891.45 531.035 874.528 551.876 876.102 553.842C877.677 555.808 897.353 537.916 919.783 513.93C942.214 489.943 959.135 469.102 957.561 467.136C955.987 465.169 936.311 483.061 913.88 507.048Z" fill="white"/>
<path d="M391.681 632.488H240.177V833.034H391.681V632.488Z" fill="#F5F5F4"/>
<path d="M722.237 634.454H570.732V835H722.237V634.454Z" fill="#F5F5F4"/>
<path d="M629.761 168.479H531.381V294.312H629.761V168.479Z" fill="#F5F5F4"/>
<path d="M858.001 272.684H171.311V777.982H858.001V272.684Z" fill="#F5F5F4"/>
<path d="M858.001 272.684H189.02V777.982H858.001V272.684Z" fill="#E7E5E4"/>
<path d="M850.13 280.549H194.922V315.939H850.13V280.549Z" fill="white"/>
<path d="M850.13 313.973H194.922V770.117H850.13V313.973Z" fill="#F5F5F4"/>
<path d="M383.811 331.668H303.14V422.111H383.811V331.668Z" fill="#F5F5F4"/>
<path d="M474.32 331.668H393.648V422.111H474.32V331.668Z" fill="#F5F5F4"/>
<path d="M562.862 331.668H482.19V422.111H562.862V331.668Z" fill="#F5F5F4"/>
<path d="M653.372 331.668H572.7V422.111H653.372V331.668Z" fill="white"/>
<path d="M741.913 331.668H661.241V422.111H741.913V331.668Z" fill="white"/>
<path d="M832.422 331.668H751.751V422.111H832.422V331.668Z" fill="white"/>
<path d="M383.811 435.874H303.14V526.316H383.811V435.874Z" fill="white"/>
<path d="M474.32 435.874H393.648V526.316H474.32V435.874Z" fill="white"/>
<path d="M562.862 435.874H482.19V526.316H562.862V435.874Z" fill="#E7E5E4"/>
<path d="M653.372 435.874H572.7V526.316H653.372V435.874Z" fill="white"/>
<path d="M741.913 435.874H661.241V526.316H741.913V435.874Z" fill="white"/>
<path d="M832.422 435.874H751.751V526.316H832.422V435.874Z" fill="white"/>
<path d="M383.811 536.147H303.14V626.589H383.811V536.147Z" fill="white"/>
<path d="M474.32 536.147H393.648V626.589H474.32V536.147Z" fill="white"/>
<path d="M562.862 536.147H482.19V626.589H562.862V536.147Z" fill="#E7E5E4"/>
<path d="M653.372 536.147H572.7V626.589H653.372V536.147Z" fill="white"/>
<path d="M741.913 536.147H661.241V626.589H741.913V536.147Z" fill="#E7E5E4"/>
<path d="M832.422 536.147H751.751V626.589H832.422V536.147Z" fill="white"/>
<path d="M385.779 638.386H305.107V728.828H385.779V638.386Z" fill="#E7E5E4"/>
<path d="M476.288 638.386H395.616V728.828H476.288V638.386Z" fill="#E7E5E4"/>
<path d="M564.83 638.386H484.158V728.828H564.83V638.386Z" fill="white"/>
<path d="M655.339 638.386H574.668V728.828H655.339V638.386Z" fill="white"/>
<path d="M743.88 638.386H663.209V728.828H743.88V638.386Z" fill="#F5F5F4"/>
<path d="M834.39 638.386H753.719V728.828H834.39V638.386Z" fill="white"/>
<path d="M213.614 306.109C217.417 306.109 220.501 303.028 220.501 299.227C220.501 295.427 217.417 292.346 213.614 292.346C209.811 292.346 206.728 295.427 206.728 299.227C206.728 303.028 209.811 306.109 213.614 306.109Z" fill="#F5F5F4"/>
<path d="M235.258 306.109C239.061 306.109 242.144 303.028 242.144 299.227C242.144 295.427 239.061 292.346 235.258 292.346C231.454 292.346 228.371 295.427 228.371 299.227C228.371 303.028 231.454 306.109 235.258 306.109Z" fill="#F5F5F4"/>
<path d="M256.901 306.109C260.705 306.109 263.788 303.028 263.788 299.227C263.788 295.427 260.705 292.346 256.901 292.346C253.098 292.346 250.015 295.427 250.015 299.227C250.015 303.028 253.098 306.109 256.901 306.109Z" fill="#F5F5F4"/>
<path d="M223.452 433.908H278.544C283.463 433.908 287.399 437.84 287.399 442.755C287.399 447.671 283.463 451.603 278.544 451.603H223.452C218.533 451.603 214.598 447.671 214.598 442.755C214.598 438.037 218.533 433.908 223.452 433.908Z" fill="white"/>
<path d="M223.452 536.147H278.544C283.463 536.147 287.399 540.079 287.399 544.994C287.399 549.91 283.463 553.842 278.544 553.842H223.452C218.533 553.842 214.598 549.91 214.598 544.994C214.598 540.276 218.533 536.147 223.452 536.147Z" fill="white"/>
<path d="M223.452 638.386H278.544C283.463 638.386 287.399 642.318 287.399 647.234C287.399 652.149 283.463 656.081 278.544 656.081H223.452C218.533 656.081 214.598 652.149 214.598 647.234C214.598 642.515 218.533 638.386 223.452 638.386Z" fill="white"/>
<path d="M317.896 441.772H349.378C353.116 441.772 356.264 444.918 356.264 448.654C356.264 452.389 353.116 455.535 349.378 455.535H317.896C314.158 455.535 311.01 452.389 311.01 448.654C311.01 444.918 314.158 441.772 317.896 441.772Z" fill="#F5F5F4"/>
<path d="M315.929 467.332H329.702C332.457 467.332 334.621 469.495 334.621 472.247C334.621 475 332.457 477.163 329.702 477.163H315.929C313.174 477.163 311.01 475 311.01 472.247C311.01 469.691 313.174 467.332 315.929 467.332Z" fill="#F5F5F4"/>
<path d="M409.39 441.772H440.872C444.216 441.772 446.774 444.328 446.774 447.671C446.774 451.013 444.216 453.569 440.872 453.569H409.39C406.045 453.569 403.487 451.013 403.487 447.671C403.487 444.525 406.045 441.772 409.39 441.772Z" fill="#F5F5F4"/>
<path d="M676.982 652.149H708.463C711.808 652.149 714.366 654.705 714.366 658.047C714.366 661.39 711.808 663.946 708.463 663.946H676.982C673.637 663.946 671.079 661.39 671.079 658.047C671.079 654.902 673.637 652.149 676.982 652.149Z" fill="white"/>
<path d="M765.524 545.978H797.005C800.35 545.978 802.908 548.534 802.908 551.876C802.908 555.218 800.35 557.774 797.005 557.774H765.524C762.179 557.774 759.621 555.218 759.621 551.876C759.621 548.73 762.179 545.978 765.524 545.978Z" fill="#F5F5F4"/>
<path d="M763.556 443.738H795.038C798.383 443.738 800.94 446.294 800.94 449.637C800.94 452.979 798.383 455.535 795.038 455.535H763.556C760.211 455.535 757.653 452.979 757.653 449.637C757.653 446.491 760.211 443.738 763.556 443.738Z" fill="#F5F5F4"/>
<path d="M675.015 443.738H706.497C709.841 443.738 712.399 446.294 712.399 449.637C712.399 452.979 709.841 455.535 706.497 455.535H675.015C671.67 455.535 669.112 452.979 669.112 449.637C669.112 446.491 671.67 443.738 675.015 443.738Z" fill="#F5F5F4"/>
<path d="M411.358 477.163C415.704 477.163 419.228 473.642 419.228 469.298C419.228 464.955 415.704 461.434 411.358 461.434C407.011 461.434 403.487 464.955 403.487 469.298C403.487 473.642 407.011 477.163 411.358 477.163Z" fill="#F5F5F4"/>
<path d="M590.408 463.4C594.755 463.4 598.279 459.879 598.279 455.535C598.279 451.192 594.755 447.671 590.408 447.671C586.062 447.671 582.538 451.192 582.538 455.535C582.538 459.879 586.062 463.4 590.408 463.4Z" fill="#F5F5F4"/>
<path d="M617.954 463.4C622.301 463.4 625.825 459.879 625.825 455.535C625.825 451.192 622.301 447.671 617.954 447.671C613.608 447.671 610.084 451.192 610.084 455.535C610.084 459.879 613.608 463.4 617.954 463.4Z" fill="#F5F5F4"/>
<path d="M617.954 561.707C622.301 561.707 625.825 558.186 625.825 553.842C625.825 549.499 622.301 545.978 617.954 545.978C613.608 545.978 610.084 549.499 610.084 553.842C610.084 558.186 613.608 561.707 617.954 561.707Z" fill="#F5F5F4"/>
<path d="M590.408 561.707C594.755 561.707 598.279 558.186 598.279 553.842C598.279 549.499 594.755 545.978 590.408 545.978C586.062 545.978 582.538 549.499 582.538 553.842C582.538 558.186 586.062 561.707 590.408 561.707Z" fill="#F5F5F4"/>
<path d="M615.987 661.98C620.333 661.98 623.857 658.459 623.857 654.115C623.857 649.772 620.333 646.251 615.987 646.251C611.64 646.251 608.116 649.772 608.116 654.115C608.116 658.459 611.64 661.98 615.987 661.98Z" fill="#F5F5F4"/>
<path d="M588.441 661.98C592.787 661.98 596.311 658.459 596.311 654.115C596.311 649.772 592.787 646.251 588.441 646.251C584.094 646.251 580.57 649.772 580.57 654.115C580.57 658.459 584.094 661.98 588.441 661.98Z" fill="#F5F5F4"/>
<path d="M348.394 663.946C352.74 663.946 356.264 660.425 356.264 656.081C356.264 651.738 352.74 648.217 348.394 648.217C344.047 648.217 340.523 651.738 340.523 656.081C340.523 660.425 344.047 663.946 348.394 663.946Z" fill="#F5F5F4"/>
<path d="M320.848 663.946C325.195 663.946 328.718 660.425 328.718 656.081C328.718 651.738 325.195 648.217 320.848 648.217C316.501 648.217 312.978 651.738 312.978 656.081C312.978 660.425 316.501 663.946 320.848 663.946Z" fill="#F5F5F4"/>
<path d="M590.408 357.228C594.755 357.228 598.279 353.707 598.279 349.364C598.279 345.02 594.755 341.499 590.408 341.499C586.062 341.499 582.538 345.02 582.538 349.364C582.538 353.707 586.062 357.228 590.408 357.228Z" fill="#F5F5F4"/>
<path d="M497.931 357.228C502.278 357.228 505.801 353.707 505.801 349.364C505.801 345.02 502.278 341.499 497.931 341.499C493.584 341.499 490.061 345.02 490.061 349.364C490.061 353.707 493.584 357.228 497.931 357.228Z" fill="white"/>
<path d="M525.478 357.228C529.824 357.228 533.348 353.707 533.348 349.364C533.348 345.02 529.824 341.499 525.478 341.499C521.131 341.499 517.607 345.02 517.607 349.364C517.607 353.707 521.131 357.228 525.478 357.228Z" fill="white"/>
<path d="M409.39 357.228C413.737 357.228 417.26 353.707 417.26 349.364C417.26 345.02 413.737 341.499 409.39 341.499C405.043 341.499 401.52 345.02 401.52 349.364C401.52 353.707 405.043 357.228 409.39 357.228Z" fill="white"/>
<path d="M436.936 357.228C441.282 357.228 444.806 353.707 444.806 349.364C444.806 345.02 441.282 341.499 436.936 341.499C432.589 341.499 429.065 345.02 429.065 349.364C429.065 353.707 432.589 357.228 436.936 357.228Z" fill="white"/>
<path d="M320.848 357.228C325.195 357.228 328.718 353.707 328.718 349.364C328.718 345.02 325.195 341.499 320.848 341.499C316.501 341.499 312.978 345.02 312.978 349.364C312.978 353.707 316.501 357.228 320.848 357.228Z" fill="white"/>
<path d="M348.394 357.228C352.74 357.228 356.264 353.707 356.264 349.364C356.264 345.02 352.74 341.499 348.394 341.499C344.047 341.499 340.523 345.02 340.523 349.364C340.523 353.707 344.047 357.228 348.394 357.228Z" fill="white"/>
</g>
<defs>
<clipPath id="clip0_91176_10590">
<rect width="960" height="852" fill="white" transform="translate(32 115)"/>
</clipPath>
</defs>
</svg>
