<svg width="1024" height="1024" viewBox="0 0 1024 1024" fill="none" xmlns="http://www.w3.org/2000/svg">
<g clip-path="url(#clip0_91151_6465)">
<path d="M71.7926 597.886C71.7926 597.886 -84.2641 460.967 112.454 396.267C210.555 364.021 233.614 347.434 309.892 285.001C419.008 195.576 561.992 143.96 747.901 301.588C933.81 459.215 1074.12 508.049 951.722 602.522C814.091 708.74 897.884 763.343 880.59 793.323C875.958 801.256 846.929 767.258 782.901 802.286C637.035 882.13 562.815 760.665 455.552 790.954C354.362 819.595 302.378 756.338 269.437 781.063C220.335 817.946 189.556 817.431 171.129 807.747C155.689 799.608 146.63 782.815 147.35 765.198C148.174 745.211 148.277 707.71 140.248 680.409C128.101 639.199 98.3511 618.182 71.7926 597.886Z" fill="#F5F5F4"/>
<path d="M73.5428 599.534C73.5428 599.534 -84.058 459.73 114.616 393.589C213.644 360.621 236.908 343.725 313.907 279.85C424.053 188.57 568.374 135.718 755.931 296.746C943.487 457.773 1089.76 514.127 961.604 604.274C872.87 666.706 902.929 636.211 875.341 657.64C816.665 702.971 683.255 617.77 574.962 648.78C472.846 677.936 373.509 634.357 329.142 631.369C311.54 630.236 240.614 629.927 204.894 628.072C184.924 627.042 162.894 635.799 135.101 629.205C93.3072 619.212 100.41 620.242 73.5428 599.534Z" fill="#FAFAF9"/>
<path d="M242.878 339.604L191.717 374.117C190.997 374.529 189.864 367.214 189.144 367.523L154.35 380.917L153.938 631.163L371.656 628.484L370.009 289.328L303.716 289.843L242.878 339.604Z" fill="#E7E5E4"/>
<path d="M225.997 347.743L172.674 373.911L172.571 380.917L350.142 379.886L349.421 315.908L272.834 314.878L255.746 327.962C252.761 330.229 249.055 332.701 244.423 335.792C236.702 340.84 232.07 344.24 225.997 347.743Z" fill="#F5F5F4"/>
<path d="M172.673 391.322V454.476L350.45 454.167V391.322H172.673Z" fill="#F5F5F4"/>
<path d="M173.188 465.809V528.963L350.863 528.551L350.965 465.809H173.188Z" fill="#F5F5F4"/>
<path d="M174.115 541.326V604.48L351.892 604.17V541.326H174.115Z" fill="#F5F5F4"/>
<path d="M234.541 501.661L242.879 490.741L273.864 518.351L266.04 529.581L234.541 501.661Z" fill="white"/>
<path d="M173.085 478.069L193.159 478.172L193.262 529.066L173.188 528.86L173.085 478.069Z" fill="white"/>
<path d="M216.938 486.723L225.173 482.086L246.069 523.914L237.937 529.478L216.938 486.723Z" fill="#F5F5F4"/>
<path d="M207.261 472.505H217.041L217.246 529.272L207.261 528.963V472.505Z" fill="white"/>
<path d="M193.262 489.813L207.467 490.122L207.261 529.169L193.056 528.86L193.262 489.813Z" fill="#F5F5F4"/>
<path d="M271.084 477.966L291.054 478.069L291.26 528.963L271.084 528.654V477.966Z" fill="white"/>
<path d="M305.26 472.402H314.937L315.245 529.066L305.157 528.86L305.26 472.402Z" fill="white"/>
<path d="M291.26 489.71L305.466 489.916L305.157 528.963L290.951 528.757L291.26 489.71Z" fill="#F5F5F4"/>
<path d="M174.115 546.58L189.453 546.683L189.556 604.995L174.218 604.686L174.115 546.58Z" fill="white"/>
<path d="M189.453 555.337L199.85 555.234L199.541 604.789L189.247 604.686L189.453 555.337Z" fill="#F5F5F4"/>
<path d="M199.85 565.536L213.952 565.742L213.644 604.789L199.438 604.583L199.85 565.536Z" fill="white"/>
<path d="M286.319 372.365V379.68L343.142 380.092V372.365H286.319Z" fill="#F5F5F4"/>
<path d="M286.216 366.596L286.422 372.469L323.481 372.675L323.172 366.39L286.216 366.596Z" fill="white"/>
<path d="M172.776 403.582L192.85 403.685L192.953 454.579L172.776 454.27V403.582Z" fill="white"/>
<path d="M328.936 411.721L320.495 407.085L298.775 448.913L307.319 454.373L328.936 411.721Z" fill="#F5F5F4"/>
<path d="M340.877 397.503H350.656L350.862 454.167L340.877 453.961V397.503Z" fill="white"/>
<path d="M327.495 415.121L341.701 415.327L341.495 454.373L327.289 454.167L327.495 415.121Z" fill="#F5F5F4"/>
<path d="M231.864 447.058V454.373L288.686 454.785V447.058H231.864Z" fill="#F5F5F4"/>
<path d="M240.717 441.083L241.026 446.955L278.084 447.161L277.775 440.877L240.717 441.083Z" fill="white"/>
<path d="M780.43 703.589C780.43 703.589 763.342 723.782 777.341 724.297C791.341 724.812 820.061 741.09 825.517 726.563C830.973 712.037 841.988 704.722 835.297 703.074C828.605 701.425 822.532 694.626 808.429 695.759C794.327 696.892 780.43 703.589 780.43 703.589Z" fill="#F5F5F4"/>
<path d="M776.003 605.407C776.003 605.407 767.974 606.231 767.974 616.224C767.974 626.218 773.121 712.14 792.68 713.891C805.341 715.025 818.826 714.922 825.517 714.303C828.4 713.994 831.179 705.34 831.694 701.838C834.267 684.735 837.561 643.114 838.282 618.903C838.385 613.958 835.091 607.467 833.341 605.819C823.562 596.856 776.003 605.407 776.003 605.407Z" fill="#D6D3D1"/>
<path d="M870.605 439.125C867.517 436.241 863.193 440.156 864.84 444.174C866.385 448.088 867.517 454.785 861.238 461.997C851.561 473.226 816.665 511.139 817.076 535.556C817.488 559.973 809.871 566.773 817.076 576.045C824.282 585.317 853.311 585.008 860.929 565.227C868.546 545.447 887.796 537.514 887.384 509.285C886.973 481.056 883.678 468.693 880.179 459.009C878.12 452.931 874.62 442.937 870.605 439.125Z" fill="#E7E5E4"/>
<path d="M817.797 601.801C817.797 601.801 820.885 557.603 855.37 538.338C876.987 526.284 878.428 484.456 873.281 474.978" stroke="white" stroke-width="0.862334" stroke-linecap="round" stroke-linejoin="round"/>
<path d="M822.223 620.345C822.223 620.345 833.135 663.822 821.297 698.335L822.223 620.345Z" fill="#E7E5E4"/>
<path d="M847.032 429.544C843.738 426.762 839.105 430.471 840.855 434.386C842.502 438.095 843.635 444.586 837.047 451.488C826.65 462.203 789.385 498.467 789.694 521.854C790.003 545.24 789.694 558.84 797.415 567.7C805.135 576.56 823.15 569.451 831.282 550.598C839.414 531.744 865.458 523.708 865.046 496.613C864.634 469.621 861.032 457.773 857.326 448.501C855.061 442.628 851.355 433.15 847.032 429.544Z" fill="#E7E5E4"/>
<path d="M803.385 602.728C803.385 602.728 791.239 542.665 820.782 506.503C832.62 492.08 850.12 463.13 850.017 449.119" stroke="white" stroke-width="0.862334" stroke-linecap="round" stroke-linejoin="round"/>
<path d="M754.901 439.125C757.886 436.241 762.209 440.156 760.665 444.174C759.121 448.088 758.092 454.785 764.268 461.997C773.841 473.226 808.429 511.139 808.12 535.556C807.812 559.973 808.12 574.19 800.915 583.566C793.709 592.941 777.135 585.42 769.621 565.639C762.106 545.859 738.018 537.514 738.327 509.285C738.636 481.056 742.033 468.693 745.43 459.009C747.489 452.931 750.886 442.937 754.901 439.125Z" fill="#E7E5E4"/>
<path d="M793.709 603.758C793.709 603.758 807.606 549.155 780.224 513.097C769.312 498.673 751.709 477.244 751.915 463.336" stroke="white" stroke-width="0.862334" stroke-linecap="round" stroke-linejoin="round"/>
<path d="M732.666 534.32C732.666 534.32 704.048 534.938 688.607 500.219C673.166 465.5 707.96 458.391 733.489 477.038C759.018 495.686 748.621 503.413 779.091 520.618C809.562 537.823 802.974 571.924 793.503 580.99C784.033 590.056 766.121 604.17 754.18 567.288C742.239 530.405 732.666 534.32 732.666 534.32Z" fill="#F5F5F4"/>
<path d="M788.253 604.17C788.253 604.17 790.312 517.218 704.151 493.316" stroke="white" stroke-width="0.862334" stroke-linecap="round" stroke-linejoin="round"/>
<path d="M776.003 605.407C776.003 605.407 811.106 599.74 824.797 602.728C838.488 605.716 800.606 609.219 800.606 609.219C800.606 609.219 782.489 610.043 776.003 605.407Z" fill="#E7E5E4"/>
<path d="M350.451 614.576C350.451 614.576 310.922 583.36 304.231 552.761C297.54 522.163 312.054 500.94 333.157 497.643C354.259 494.346 367.127 484.25 441.14 509.388C515.154 534.526 600.388 489.916 600.388 489.916C600.388 489.916 669.976 457.876 704.357 465.706C743.475 474.566 751.813 498.261 741.21 540.604C730.607 582.947 694.578 614.988 694.578 614.988L350.451 614.576Z" fill="#E7E5E4"/>
<path d="M332.539 611.279C332.539 611.279 326.363 611.279 325.333 617.461C324.304 623.642 326.363 643.217 329.451 649.398C332.539 655.58 347.054 655.271 347.054 655.271L700.034 654.549C700.034 654.549 711.769 654.652 714.446 645.277C716.607 637.756 719.695 630.236 720.004 624.981C720.313 618.8 715.887 613.443 709.813 612.618C706.004 612.103 702.093 611.897 698.284 611.897C671.417 611.897 332.539 611.279 332.539 611.279Z" fill="#E7E5E4"/>
<path d="M316.069 707.092L339.745 655.58H358.274L333.569 707.092H316.069Z" fill="white"/>
<path d="M680.476 655.58L702.093 708.122L717.534 707.092L696.946 655.58H680.476Z" fill="white"/>
<path d="M356.524 611.897C356.524 611.897 323.995 586.759 322.451 576.354C320.495 562.755 332.745 542.562 380.303 551.525C427.861 560.488 511.757 584.699 557.257 572.336C602.756 559.973 659.99 508.049 664.108 505.267C668.226 502.485 716.916 478.584 727.931 515.054C738.945 551.525 694.475 611.485 694.475 611.485L356.524 611.897Z" fill="#F5F5F4"/>
<path d="M514.742 193L516.08 262.748L517.727 262.438L519.169 193H514.742Z" fill="#E7E5E4"/>
<path d="M479.434 319.926C479.434 319.926 466.464 261.717 517.831 261.099C566.418 260.584 553.962 322.914 553.962 322.914L479.434 319.926Z" fill="#E7E5E4"/>
<path d="M478.919 319.926C478.919 319.926 520.198 302 553.963 322.708C553.963 322.708 518.448 341.561 478.919 319.926Z" fill="white"/>
<path d="M498.89 271.505C498.89 271.505 480.875 278.201 484.581 308.799L498.89 271.505Z" fill="white"/>
<path d="M478.919 319.926L442.479 451.076L591.535 449.634L553.962 322.708L478.919 319.926Z" fill="url(#paint0_linear_91151_6465)"/>
<path d="M732.769 668.355C732.769 668.355 721.343 709.874 723.195 714.51C725.048 719.146 734.313 720.073 738.431 721C742.548 721.927 779.915 731.715 783.724 731.921C787.533 732.127 787.224 732.642 788.871 732.642C790.518 732.642 811.312 725.636 812.032 723.164C812.753 720.691 813.371 719.043 812.753 715.952C812.135 712.861 802.665 673.3 800.091 672.476C797.518 671.651 732.769 668.355 732.769 668.355Z" fill="#44403C"/>
<path d="M730.813 675.772C730.813 675.772 731.637 669.282 732.769 668.355C733.901 667.427 737.092 663.203 740.181 662.997C743.269 662.791 792.989 669.076 794.842 669.488C796.694 669.9 799.165 670.827 799.989 672.373C800.812 673.918 792.783 675.772 791.239 680.718C789.695 685.663 761.283 696.068 754.283 696.789C747.283 697.511 730.813 675.772 730.813 675.772Z" fill="#292524"/>
<path d="M747.078 664.646C747.078 664.646 752.431 653.004 755.004 650.841C757.269 648.883 765.401 644.659 770.342 650.944C775.901 658.052 775.386 666.294 775.386 667.324C775.386 668.355 769.93 667.427 769.93 667.427C769.93 667.427 771.68 658.979 770.136 656.095C768.695 653.416 767.871 650.222 762.724 650.531C757.578 650.841 755.725 653.725 754.181 656.404C752.842 659.082 751.813 661.864 750.886 664.749C750.681 665.058 747.078 664.646 747.078 664.646Z" fill="#292524"/>
<path d="M755.622 665.367C755.622 665.367 760.974 651.15 763.548 648.471C765.813 646.101 774.46 641.362 779.401 648.986C784.959 657.64 783.827 667.324 783.827 668.458C783.827 669.591 778.371 668.664 778.371 668.664C778.371 668.664 780.018 658.361 778.474 654.755C777.033 651.459 776.21 647.544 771.165 647.956C766.121 648.368 764.166 651.768 762.621 655.168C761.283 658.464 760.254 661.864 759.327 665.367C759.327 665.882 755.622 665.367 755.622 665.367Z" fill="#292524"/>
<path d="M789.077 683.602C789.077 683.602 784.342 723.473 784.959 726.151C785.577 728.83 787.121 732.642 788.253 732.642C789.386 732.642 791.239 732.436 790.518 731.509C788.15 728.109 787.121 723.885 787.739 719.867C788.459 713.376 791.239 680.718 791.239 680.718L789.077 683.602Z" fill="#292524"/>
<path d="M753.048 699.674C754.64 699.674 755.93 698.383 755.93 696.789C755.93 695.196 754.64 693.905 753.048 693.905C751.456 693.905 750.166 695.196 750.166 696.789C750.166 698.383 751.456 699.674 753.048 699.674Z" fill="white"/>
<path d="M555.713 621.994C552.727 617.048 550.36 615.812 543.051 615.606C535.742 615.4 526.066 615.503 526.066 615.503L525.963 625.909C525.963 625.909 533.992 630.545 538.316 632.914C538.522 633.017 539.242 633.429 539.757 633.738C540.477 634.047 541.301 634.357 542.124 634.563C546.345 635.49 550.257 634.975 553.036 632.296C556.021 629.205 558.698 626.939 555.713 621.994Z" fill="#1C1917"/>
<path d="M500.64 612.824C500.434 613.031 499.713 613.546 499.302 613.855C498.684 614.37 498.169 615.091 497.655 615.709C495.287 619.315 494.155 623.024 495.802 626.63C497.552 630.545 498.684 633.944 504.243 632.914C509.801 631.987 511.963 630.236 514.948 623.642C517.934 617.048 521.434 607.879 521.331 607.879L511.757 603.964C511.654 603.964 504.346 609.734 500.64 612.824Z" fill="#1C1917"/>
<path d="M526.786 615.915C526.786 615.915 526.889 626.424 525.242 626.63C523.492 626.836 500.022 623.436 490.654 623.024C481.287 622.509 460.081 616.43 449.684 604.686C440.626 594.486 442.067 583.256 448.758 583.256C455.449 583.256 461.523 577.59 478.405 585.626C495.287 593.662 513.198 595.001 523.286 594.28C533.374 593.456 561.58 588.305 563.742 586.656C565.903 585.008 576.506 580.475 591.227 582.02C605.947 583.566 598.947 595.31 595.859 599.843C591.535 606.128 581.241 612.824 572.595 613.134C563.948 613.443 526.786 615.915 526.786 615.915Z" fill="#57534E"/>
<path d="M509.286 432.841C504.345 434.695 498.066 459.215 498.066 459.215L497.963 459.112L497.242 462.512L496.419 466.942L498.066 493.625L514.125 501.661L550.874 511.552L561.065 526.078C561.065 526.078 583.815 549.258 584.021 550.907C584.124 552.555 559.521 560.694 557.153 561.003C551.492 561.827 593.388 551.628 579.903 535.35C574.241 528.344 565.8 507.431 549.227 493.522C539.654 485.486 542.33 462.718 538.933 448.295C534.713 430.265 532.036 424.805 527.816 424.805C524.007 424.805 518.654 429.338 509.286 432.841Z" fill="url(#paint1_linear_91151_6465)"/>
<path d="M561.374 491.153C553.654 484.044 551.08 482.396 544.286 484.765C537.492 487.135 534.198 489.401 525.036 490.844C519.375 491.874 513.507 491.05 508.257 488.783L489.316 490.638C486.949 490.328 459.979 541.016 459.258 551.525C458.846 558.016 473.567 568.009 477.581 568.936C479.228 569.348 482.214 553.379 483.14 551.937L476.964 550.083C478.096 547.301 481.802 540.501 484.272 536.895C484.993 535.762 490.86 526.078 491.684 522.369C491.787 522.678 492.713 529.684 493.537 531.95C495.081 536.071 497.14 538.441 497.14 541.738C497.14 545.034 496.728 558.222 494.36 564.094C491.993 569.966 488.493 583.669 488.493 583.669L549.124 583.36C549.124 583.36 546.963 557.294 547.786 548.331C547.786 548.331 546.86 544.725 548.61 539.471C551.595 530.817 552.418 518.042 551.904 515.982C551.183 512.788 569.712 539.574 573.83 546.271C575.58 549.052 552.418 553.998 550.566 556.161C548.61 558.428 552.521 564.506 552.521 564.506C552.521 564.506 592.771 559.561 592.565 553.482C592.359 547.404 570.33 499.292 561.374 491.153Z" fill="#A8A29E"/>
<path d="M514.125 418.417C514.125 418.417 502.904 418.83 499.61 430.677C496.316 442.525 495.905 459.009 495.802 461.585C495.699 464.263 496.934 480.129 490.86 486.723C485.611 492.389 487.772 497.952 486.434 502.485L485.816 510.006C485.919 510.933 486.537 511.655 487.463 511.964C488.287 512.17 491.066 510.933 491.581 510.727C498.581 507.946 498.581 505.679 501.257 503.413C503.419 501.558 509.493 497.231 511.345 495.583C513.198 493.831 514.434 492.389 514.537 490.225C514.845 479.305 512.993 469.105 510.625 463.748C508.257 458.391 503.625 449.325 507.434 443.349C511.243 437.374 518.242 431.295 518.654 429.853C519.066 428.411 519.272 435.622 523.492 438.198C527.713 440.774 531.316 444.277 532.654 447.779C533.786 450.664 535.227 455.609 531.213 464.263C527.198 472.814 523.904 483.838 529.566 491.977C535.227 500.116 547.169 508.976 549.124 513.097C551.286 517.63 549.227 528.344 548.816 534.835C548.404 541.326 561.477 523.605 561.065 515.157C560.654 506.709 562.095 503.103 553.963 490.225C545.83 477.347 540.683 455.197 540.477 449.84C540.272 444.483 537.904 429.647 533.066 425.32C528.845 421.714 527.919 418.211 519.375 418.211C517.522 418.108 515.875 418.211 514.125 418.417Z" fill="#1C1917"/>
<path opacity="0.07" d="M488.493 597.577L545.315 597.886C545.315 597.886 538.624 603.14 535.433 603.655C532.242 604.17 518.551 611.073 513.404 608.497C509.904 606.54 488.493 597.577 488.493 597.577Z" fill="black"/>
<path opacity="0.07" d="M520.198 469.724C520.198 469.724 525.551 471.063 527.713 467.972C532.654 460.966 528.125 471.578 528.125 471.578C528.125 471.578 526.683 475.699 526.786 477.759C526.889 479.82 521.125 470.033 520.198 469.724Z" fill="black"/>
<path opacity="0.07" d="M498.993 505.782C498.375 506.606 497.346 507.224 496.934 509.285C496.11 512.582 495.184 516.291 492.919 519.69C491.581 521.648 492.302 529.478 494.566 534.32C495.184 535.762 497.243 539.368 497.14 540.192L497.037 547.301H503.11C503.11 547.301 508.36 547.816 507.228 543.592C506.301 539.78 501.36 525.563 504.654 522.472C510.934 516.703 503.007 505.164 505.993 501.455C508.566 498.261 512.169 495.995 512.169 494.862C512.169 494.449 511.243 495.789 510.522 496.201C509.287 497.128 508.669 497.849 507.537 498.467C506.404 499.189 504.654 500.425 503.522 501.352C501.772 502.794 500.331 504.237 498.993 505.782Z" fill="black"/>
<path d="M475.213 551.422C475.213 551.422 475.213 547.713 478.816 547.61C482.419 547.507 559.83 547.61 559.83 547.61C559.83 547.61 563.227 548.022 563.33 550.804C563.433 553.585 563.433 594.486 563.433 594.486C563.433 594.486 563.433 597.68 560.139 597.783C556.845 597.886 477.89 597.886 477.89 597.886C477.89 597.886 474.905 597.165 475.007 594.177C475.007 591.086 475.213 551.422 475.213 551.422Z" fill="white"/>
<path d="M519.478 576.045C521.354 576.045 522.875 574.523 522.875 572.645C522.875 570.767 521.354 569.245 519.478 569.245C517.601 569.245 516.081 570.767 516.081 572.645C516.081 574.523 517.601 576.045 519.478 576.045Z" fill="#D6D3D1"/>
</g>
<defs>
<linearGradient id="paint0_linear_91151_6465" x1="516.756" y1="249.231" x2="517.065" y2="477.698" gradientUnits="userSpaceOnUse">
<stop stop-color="white"/>
<stop offset="1" stop-color="white" stop-opacity="0"/>
</linearGradient>
<linearGradient id="paint1_linear_91151_6465" x1="496.402" y1="492.881" x2="583.955" y2="492.881" gradientUnits="userSpaceOnUse">
<stop stop-color="#F87B58"/>
<stop offset="0.5" stop-color="#F8C548"/>
<stop offset="1" stop-color="#F89C51"/>
</linearGradient>
<clipPath id="clip0_91151_6465">
<rect width="997" height="637" fill="white" transform="translate(13 193)"/>
</clipPath>
</defs>
</svg>
