<svg width="1024" height="1024" viewBox="0 0 1024 1024" fill="none" xmlns="http://www.w3.org/2000/svg">
<rect width="1024" height="1024" fill="white"/>
<g clip-path="url(#clip0_91128_4983)">
<path d="M628.306 581.244H472.439C470.995 581.244 469.824 582.415 469.824 583.86C469.824 585.304 470.995 586.475 472.439 586.475H628.306C629.75 586.475 630.921 585.304 630.921 583.86C630.921 582.415 629.75 581.244 628.306 581.244Z" fill="#F4F4F4"/>
<path d="M628.306 590.659H472.439C470.995 590.659 469.824 591.83 469.824 593.275C469.824 594.719 470.995 595.89 472.439 595.89H628.306C629.75 595.89 630.921 594.719 630.921 593.275C630.921 591.83 629.75 590.659 628.306 590.659Z" fill="#F4F4F4"/>
<path d="M628.306 600.075H472.439C470.995 600.075 469.824 601.246 469.824 602.691C469.824 604.135 470.995 605.306 472.439 605.306H628.306C629.75 605.306 630.921 604.135 630.921 602.691C630.921 601.246 629.75 600.075 628.306 600.075Z" fill="#F4F4F4"/>
<path d="M650.273 630.413H508.006C506.562 630.413 505.391 631.584 505.391 633.028C505.391 634.473 506.562 635.644 508.006 635.644H650.273C651.718 635.644 652.888 634.473 652.888 633.028C652.888 631.584 651.718 630.413 650.273 630.413Z" fill="#F4F4F4"/>
<path d="M650.273 639.828H508.006C506.562 639.828 505.391 640.999 505.391 642.443C505.391 643.888 506.562 645.059 508.006 645.059H650.273C651.718 645.059 652.888 643.888 652.888 642.443C652.888 640.999 651.718 639.828 650.273 639.828Z" fill="#F4F4F4"/>
<path d="M650.273 649.243H508.006C506.562 649.243 505.391 650.414 505.391 651.859C505.391 653.303 506.562 654.474 508.006 654.474H650.273C651.718 654.474 652.888 653.303 652.888 651.859C652.888 650.414 651.718 649.243 650.273 649.243Z" fill="#F4F4F4"/>
<path d="M263.045 571.211C263.045 571.211 241.778 572.875 241.778 593.798C241.778 614.721 263.746 615.767 263.746 615.767L634.059 616.813V610.536H468.778C468.778 610.536 463.548 611.582 464.594 603.213V581.244C464.537 579.991 464.98 578.767 465.826 577.841C466.671 576.915 467.85 576.363 469.102 576.306H469.573C476.99 576.222 631.967 578.105 631.967 578.105V569.736L263.045 571.211Z" fill="url(#paint0_linear_91128_4983)"/>
<path d="M278.653 615.851C278.653 615.851 255.639 618.288 255.639 641.512C255.639 661.389 271.769 665.94 276.383 666.84C277.072 666.972 277.773 667.038 278.475 667.038L656.476 667.478L656.152 659.715L509.575 659.297C509.575 659.297 500.16 659.182 501.207 649.986V630.329C501.207 630.329 500.16 623.09 508.529 623.09C515.852 623.09 653.934 624.628 653.934 624.628V614.721L278.653 615.851Z" fill="url(#paint1_linear_91128_4983)"/>
<path d="M492.106 581.244H504.659C508.256 583.759 510.85 587.464 511.981 591.706C514.073 599.029 511.981 601.121 516.166 609.49C518.634 614.417 521.532 617.681 523.488 620.998C523.896 621.699 524.43 626.469 524.534 627.275L525.58 639.828L520.35 636.69L515.12 641.921C515.12 641.921 515.12 625.182 513.027 622.044C510.935 618.905 502.682 607.398 503.613 599.029C504.659 589.613 501.52 586.475 492.106 581.244Z" fill="#EF4444"/>
<path d="M724.378 351.093H695.778C688.845 351.093 683.225 356.713 683.225 363.647V661.798C683.225 668.731 688.845 674.352 695.778 674.352H724.378C731.31 674.352 736.931 668.731 736.931 661.798V363.647C736.931 356.713 731.31 351.093 724.378 351.093Z" fill="url(#paint2_linear_91128_4983)"/>
<path d="M129.157 349H100.557C93.6243 349 88.0042 354.621 88.0042 361.554V659.705C88.0042 666.639 93.6243 672.259 100.557 672.259H129.157C136.09 672.259 141.71 666.639 141.71 659.705V361.554C141.71 354.621 136.09 349 129.157 349Z" fill="url(#paint3_linear_91128_4983)"/>
<path d="M816.76 467.506L796.195 479.379C790.191 482.846 788.134 490.524 791.6 496.528L891.02 668.739C894.486 674.743 902.164 676.8 908.168 673.334L928.732 661.46C934.736 657.993 936.793 650.315 933.327 644.311L833.907 472.101C830.441 466.096 822.764 464.039 816.76 467.506Z" fill="url(#paint4_linear_91128_4983)"/>
<path d="M777.372 397.123H748.772C741.839 397.123 736.219 402.744 736.219 409.677V661.798C736.219 668.731 741.839 674.352 748.772 674.352H777.372C784.305 674.352 789.925 668.731 789.925 661.798V409.677C789.925 402.744 784.305 397.123 777.372 397.123Z" fill="url(#paint5_linear_91128_4983)"/>
<path d="M183.198 360.508H154.598C147.665 360.508 142.045 366.128 142.045 373.062V659.706C142.045 666.639 147.665 672.259 154.598 672.259H183.198C190.131 672.259 195.751 666.639 195.751 659.706V373.062C195.751 366.128 190.131 360.508 183.198 360.508Z" fill="url(#paint6_linear_91128_4983)"/>
</g>
<defs>
<linearGradient id="paint0_linear_91128_4983" x1="241.778" y1="593.275" x2="634.059" y2="593.275" gradientUnits="userSpaceOnUse">
<stop stop-color="#57534E"/>
<stop offset="1" stop-color="#1C1917"/>
</linearGradient>
<linearGradient id="paint1_linear_91128_4983" x1="255.67" y1="641.094" x2="656.508" y2="641.094" gradientUnits="userSpaceOnUse">
<stop stop-color="#EF4444"/>
<stop offset="1" stop-color="#FCA5A5"/>
</linearGradient>
<linearGradient id="paint2_linear_91128_4983" x1="627.96" y1="615.182" x2="846.723" y2="342.245" gradientUnits="userSpaceOnUse">
<stop stop-color="#57534E"/>
<stop offset="1" stop-color="#1C1917"/>
</linearGradient>
<linearGradient id="paint3_linear_91128_4983" x1="32.7397" y1="613.089" x2="251.502" y2="340.152" gradientUnits="userSpaceOnUse">
<stop stop-color="#57534E"/>
<stop offset="1" stop-color="#1C1917"/>
</linearGradient>
<linearGradient id="paint4_linear_91128_4983" x1="838.257" y1="667.709" x2="852.306" y2="407.785" gradientUnits="userSpaceOnUse">
<stop stop-color="#57534E"/>
<stop offset="1" stop-color="#1C1917"/>
</linearGradient>
<linearGradient id="paint5_linear_91128_4983" x1="691.656" y1="624.848" x2="881.911" y2="387.478" gradientUnits="userSpaceOnUse">
<stop stop-color="#EF4444"/>
<stop offset="1" stop-color="#FCA5A5"/>
</linearGradient>
<linearGradient id="paint6_linear_91128_4983" x1="89.4583" y1="615.506" x2="301.096" y2="351.461" gradientUnits="userSpaceOnUse">
<stop stop-color="#EF4444"/>
<stop offset="1" stop-color="#FCA5A5"/>
</linearGradient>
<clipPath id="clip0_91128_4983">
<rect width="847" height="326" fill="white" transform="translate(88 349)"/>
</clipPath>
</defs>
</svg>
