<svg width="1024" height="1024" viewBox="0 0 1024 1024" fill="none" xmlns="http://www.w3.org/2000/svg">
<rect width="1024" height="1024" fill="white"/>
<g clip-path="url(#clip0_91137_5267)">
<path d="M690.35 413.635L451.285 214.508C448.53 212.213 444.435 212.585 442.139 215.338L185.51 523.051C183.214 525.805 183.586 529.897 186.341 532.191L425.406 731.318C428.161 733.613 432.255 733.241 434.551 730.488L691.181 422.775C693.477 420.022 693.105 415.929 690.35 413.635Z" fill="#F5F5F4"/>
<path d="M418.439 715.127L677.263 407.966C678.148 406.904 679.395 406.205 680.764 406.005C682.133 405.805 683.528 406.116 684.681 406.881C698.315 416.119 740.674 447.989 747.63 496.026C752.252 527.574 758.746 543.948 695.727 604.179C695.126 604.745 694.655 605.436 694.348 606.202C694.041 606.968 693.905 607.792 693.949 608.617C693.993 609.441 694.216 610.246 694.603 610.975C694.99 611.705 695.531 612.341 696.189 612.84L796.992 687.575C814.709 700.55 827.746 718.91 834.152 739.907C844.828 775.681 844.712 823.048 759.971 806.674C745.134 803.704 731.58 796.217 721.17 785.242L631.552 691.732C631.017 691.169 630.37 690.724 629.654 690.423C628.938 690.122 628.167 689.973 627.391 689.983C626.614 689.994 625.848 690.165 625.14 690.486C624.433 690.807 623.799 691.27 623.279 691.847L580.92 738.568L580.643 738.868C570.937 748.106 551.04 766.697 525.019 768.429C494.977 770.415 449.474 768.429 418.046 721.94C417.364 720.915 417.034 719.696 417.105 718.468C417.175 717.239 417.644 716.067 418.439 715.127Z" fill="url(#paint0_linear_91137_5267)"/>
<path d="M218.382 483.555L385.254 283.624L521.067 394.479C525.504 398.105 536.874 409.19 538.884 414.571C543.506 426.927 550 442.747 534.263 458.451C512.494 480.322 484.716 476.927 471.868 467.389C461.029 459.283 399.235 415.426 380.147 401.892C375.007 398.132 368.857 396 362.491 395.772C352.821 395.436 343.405 398.902 336.262 405.426C316.827 422.816 322.096 450.299 340.283 471.661C358.47 493.024 356.344 519.768 343.495 531.546C330.647 543.325 311.397 556.119 281.447 535.819C251.497 515.518 218.382 483.555 218.382 483.555Z" fill="url(#paint1_linear_91137_5267)"/>
</g>
<defs>
<linearGradient id="paint0_linear_91137_5267" x1="417.098" y1="607.944" x2="838.981" y2="607.944" gradientUnits="userSpaceOnUse">
<stop stop-color="#78716C"/>
<stop offset="1" stop-color="#1C1917"/>
</linearGradient>
<linearGradient id="paint1_linear_91137_5267" x1="417.099" y1="607.944" x2="838.982" y2="607.944" gradientUnits="userSpaceOnUse">
<stop stop-color="#78716C"/>
<stop offset="1" stop-color="#0C0A09"/>
</linearGradient>
<clipPath id="clip0_91137_5267">
<rect width="655" height="597" fill="white" transform="translate(184 213)"/>
</clipPath>
</defs>
</svg>
