<svg width="1024" height="1524" viewBox="0 0 1024 1524" fill="none" xmlns="http://www.w3.org/2000/svg">
<g clip-path="url(#clip0_91156_7413)">
<mask id="mask0_91156_7413" style="mask-type:luminance" maskUnits="userSpaceOnUse" x="-1995" y="-747" width="4867" height="2739">
<path d="M2871.31 -746.437H-1994.78V1991.04H2871.31V-746.437Z" fill="white"/>
</mask>
<g mask="url(#mask0_91156_7413)">
<mask id="mask1_91156_7413" style="mask-type:luminance" maskUnits="userSpaceOnUse" x="-1995" y="-747" width="4867" height="2739">
<path d="M2871.31 -746.437H-1994.78V1991.04H2871.31V-746.437Z" fill="white"/>
</mask>
<g mask="url(#mask1_91156_7413)">
<mask id="mask2_91156_7413" style="mask-type:luminance" maskUnits="userSpaceOnUse" x="-2304" y="-593" width="4842" height="2624">
<path d="M2537.5 -592.504H-2303.24V2030.91H2537.5V-592.504Z" fill="white"/>
</mask>
<g mask="url(#mask2_91156_7413)">
<path d="M677.411 1336.55L634.326 1335.62C634.326 1335.62 635.669 1370.49 631.792 1384.51C631.564 1385.4 630.803 1387.68 630.296 1389.33C629.771 1391.73 629.541 1394.19 629.612 1396.65C630.322 1409.32 635.086 1420.17 646.39 1425.93C658.834 1432.24 668.465 1438.04 681.694 1425.93C694.924 1413.81 697.154 1406.06 691.629 1385.09C686.104 1364.13 677.284 1336.55 677.284 1336.55" fill="#1C1917"/>
<path d="M409.777 1375.16C434.538 1368.11 448.781 1337.85 448.781 1337.85H494.401C494.401 1337.85 495.592 1366.29 496.808 1381.72C498.405 1402.2 494.426 1411.35 479.245 1410.24C459.274 1408.79 377.868 1415.31 365.019 1408.06C348.393 1398.53 386.587 1381.72 409.751 1375.11" fill="#1C1917"/>
</g>
<mask id="mask3_91156_7413" style="mask-type:luminance" maskUnits="userSpaceOnUse" x="389" y="659" width="289" height="680">
<path d="M580.749 659.485C580.749 659.485 606.473 727.592 611.922 790.427C617.371 853.262 635.745 955.309 637.545 1016.02C639.015 1066.13 670.898 1233.14 671.937 1252.27C672.849 1269 677.639 1338.12 677.639 1338.12H633.49C633.49 1338.12 595.093 1166.07 582.548 1136.69C570.864 1109.24 515.69 887.329 516.653 866.823C517.124 854.085 515.48 841.357 511.787 829.157C511.787 829.157 503.246 907.733 495.111 932.193C489.079 950.341 485.48 1010.19 485.48 1010.19C485.48 1010.19 494.223 1067.24 496.327 1101.43C501.624 1187.61 494.452 1337.82 494.452 1337.82H448.832C448.832 1337.82 443.231 1234.51 432.206 1194.76C415.276 1133.93 389.121 1005.67 389.121 996.346C389.121 987.906 397.105 818.537 397.003 793.57C397.003 782.849 397.231 759.453 397.51 747.033C397.619 742.094 398.111 737.17 398.98 732.307L410.917 665.441L580.749 659.485Z" fill="white"/>
</mask>
<g mask="url(#mask3_91156_7413)">
<path d="M740.999 1351L347.809 1353.03L341.904 658.876L735.094 656.849L740.999 1351Z" fill="#57534E"/>
</g>
<mask id="mask4_91156_7413" style="mask-type:luminance" maskUnits="userSpaceOnUse" x="297" y="166" width="268" height="622">
<path d="M520.101 166.106C507.429 168.209 489.966 182.15 461.099 192.796C444.524 198.905 423.59 280.775 423.59 280.775L423.286 280.446L431.244 287.797C429.597 289.444 431.979 293.576 431.979 295.908L430.509 305.109L418.09 306.756L438.366 426.546L419.155 508.949L386.207 575.079L383.673 645.24C383.673 645.24 355.186 691.676 355.794 696.998C356.403 702.321 333.415 726.274 318.716 735.272C309.288 746.78 283.741 792.404 306.044 786.777C327.079 781.48 347.481 751.57 349.129 746.983C365.856 700.344 373.611 694.869 375.157 690.89C398.702 630.539 415.86 573.787 413.655 526.819C412.869 510.546 549.449 563.369 504.59 508.898C471.896 469.18 587.719 360.112 560.195 244.048C546.889 187.98 538.475 168.488 525.981 166.055L520.101 166.106Z" fill="white"/>
</mask>
<g mask="url(#mask4_91156_7413)">
<path d="M719.812 166.055H209V827.383H719.812V166.055Z" fill="url(#paint0_linear_91156_7413)"/>
</g>
<path d="M318.715 735.272L370.772 591.935L378.958 549.631C381.447 536.787 382.298 523.68 381.492 510.622C380.551 492.936 381.264 475.2 383.621 457.647C387.702 425.329 393.886 403.759 402.3 395.623C415.251 383.127 455.523 366.981 476.356 374.914C522.862 392.657 544.785 368.603 558.927 373.292C573.069 377.981 619.753 386.168 629.232 451.868C638.711 517.567 651.509 564.383 653.36 594.571C654.449 612.466 660.963 653.402 631.564 651.07C602.164 648.738 521.164 600.68 484.39 585.446C447.615 570.213 445.284 557.134 446.374 546.691C447.463 536.248 501.447 546.691 523.699 559.668C545.951 572.646 594.004 590.085 597.526 583.114C601.049 576.144 595.6 556.906 588.783 532.978C582.903 512.422 582.7 500.458 579.785 494.045C573.982 481.194 569.901 534.6 569.901 549.251C570.079 555.338 570.637 561.407 571.574 567.425C571.574 567.425 572.385 575.485 573.196 580.656C577.58 608.309 586.35 673.882 586.35 673.882L408.56 675.048L427.34 596.472C426.833 597.41 427.593 548.845 424.096 557.818C417.38 575.105 408.56 622.428 383.241 677.811L349.128 747.109L318.715 735.272Z" fill="#A8A29E"/>
<path opacity="0.1" d="M408.688 674.87C408.688 674.87 430.407 621.971 427.138 590.465C423.767 558.148 428.329 522.028 430.154 510.521C431.573 501.573 436.718 530.139 438.264 543.015C441.432 569.452 438.391 546.665 450.1 574.142C461.809 601.618 452.229 614.291 446.476 624.836C437.909 640.424 450.1 674.262 450.1 674.262L408.688 674.87Z" fill="black"/>
<path d="M480.918 550.898L484.517 585.269L426.225 564.129C426.225 564.129 396.015 542.686 438.289 543.015C452.85 543.135 467.277 545.803 480.918 550.898Z" fill="url(#paint1_linear_91156_7413)"/>
<mask id="mask5_91156_7413" style="mask-type:luminance" maskUnits="userSpaceOnUse" x="383" y="153" width="267" height="394">
<path d="M482.742 154.066C482.742 154.066 442.572 155.511 431.091 194.976C419.61 234.441 417.912 289.393 417.506 298.037C417.101 307.111 421.739 369.008 416.721 386.143C412.286 401.351 399.208 429.461 391.377 448.927C388.301 456.631 386.034 464.633 384.61 472.804L383.697 479.521C384.243 481.267 385.147 482.879 386.352 484.255C387.557 485.63 389.036 486.739 390.694 487.51C392.353 488.281 394.154 488.696 395.982 488.731C397.81 488.765 399.626 488.417 401.311 487.708C405.314 485.911 409.2 483.862 412.944 481.574C425.186 474.224 442.724 457.799 452.76 448.497C465.28 436.913 468.524 426.419 477.217 416.914C484.111 409.31 483.705 400.87 483.959 393.747C485.226 357.095 480.715 335.804 462.391 312.763C449.998 297.2 435.704 253.781 449.339 233.706C462.974 213.631 497.138 197.08 498.557 192.061C499.976 187.042 501.092 207.117 515.791 219.943C528.767 231.45 537.182 239.46 542.225 251.196C544.202 255.809 543.518 278.317 534.115 307.567C524.281 338.11 517.21 372.101 537.308 399.374C557.406 426.647 607.639 464.82 611.187 473.438C614.735 482.056 611.187 520.305 609.869 541.875C608.551 563.445 650.673 505.046 649.228 477.037C647.784 449.029 652.827 436.862 624.112 393.798C595.397 350.733 576.744 276.821 575.958 258.876C575.173 240.93 566.632 191.427 549.398 177.056C534.673 164.788 531.505 153.027 500.813 153.027C494.75 153.078 488.694 153.433 482.666 154.091" fill="white"/>
</mask>
<g mask="url(#mask5_91156_7413)">
<path d="M652.802 153.001H383.646V563.369H652.802V153.001Z" fill="#1C1917"/>
</g>
</g>
</g>
<path opacity="0.1" d="M511.761 829.183C508.34 843.124 510.9 869.586 503.068 894.375C491.484 931.9 485.547 970.939 485.454 1010.21C485.733 1028.26 490.219 1033.18 490.523 1049.6C493.057 1200.09 494.451 1337.95 494.451 1337.95H448.832C448.832 1337.95 480.917 1265.3 455.573 1149.16C432.13 1041.44 415.301 1023.67 444.625 971.887C476.001 916.503 436.362 913.588 468.6 876.303C485.986 856.203 511.761 829.183 511.761 829.183Z" fill="black"/>
<path opacity="0.1" d="M570.307 534.98C566.777 538.303 564.065 542.399 562.386 546.947C560.706 551.494 560.103 556.369 560.625 561.189C561.664 575.155 547.953 573.863 547.953 573.863L573.525 580.301C573.525 580.301 567.823 545.854 570.307 534.98Z" fill="black"/>
<path opacity="0.1" d="M474.988 332.762C474.988 332.762 486.165 343.433 502.867 333.522C526.741 319.379 526.969 319.734 514.804 333.953C496.227 355.676 484.036 372.861 484.036 372.861C484.036 372.861 480.665 342.445 474.988 332.762Z" fill="black"/>
</g>
<defs>
<linearGradient id="paint0_linear_91156_7413" x1="210.904" y1="498.034" x2="742.334" y2="498.034" gradientUnits="userSpaceOnUse">
<stop offset="0.165" stop-color="#F87B58"/>
<stop offset="0.71" stop-color="#F8C548"/>
<stop offset="1" stop-color="#F89C51"/>
</linearGradient>
<linearGradient id="paint1_linear_91156_7413" x1="-257.229" y1="-54.0992" x2="274.201" y2="-54.0992" gradientUnits="userSpaceOnUse">
<stop stop-color="#F8C548"/>
<stop offset="0.215" stop-color="#F87B58"/>
<stop offset="1" stop-color="#F89C51"/>
</linearGradient>
<clipPath id="clip0_91156_7413">
<rect width="532" height="1280" fill="white" transform="translate(209 153)"/>
</clipPath>
</defs>
</svg>
