<svg width="1024" height="1024" viewBox="0 0 1024 1024" fill="none" xmlns="http://www.w3.org/2000/svg">
<g clip-path="url(#clip0_91176_10403)">
<path d="M82.565 707.562C82.565 707.562 16.587 809.268 173.586 821.692C330.584 834.02 372.676 818.611 399.452 815.529C426.228 812.447 504.246 755.333 636.299 826.315C725.682 874.375 820.555 818.61 864.573 784.612C908.59 750.614 935.367 713.63 914.369 707.466C893.372 701.302 82.565 707.562 82.565 707.562Z" fill="#F5F5F4"/>
<path d="M79.8682 710.548C79.8682 710.548 -13.7531 572.436 41.5336 518.886C97.4945 464.662 23.811 396.859 48.5648 317.786C69.3695 250.945 197.088 141.246 314.21 192.002C475.929 262.021 475.158 277.431 574.751 260.191C674.344 242.951 789.734 149.143 845.791 267.126C879.021 337.049 970.33 352.362 992.676 417.469C1015.02 482.577 981.407 563.961 962.914 581.778C897.514 644.959 919.86 713.148 919.86 713.148L79.8682 710.548Z" fill="#FAFAF9"/>
<path d="M526.111 393.295C541.484 393.295 553.947 380.833 553.947 365.461C553.947 350.088 541.484 337.626 526.111 337.626C510.737 337.626 498.275 350.088 498.275 365.461C498.275 380.833 510.737 393.295 526.111 393.295Z" fill="white"/>
<path d="M556.451 389.443C567.835 389.443 577.063 380.215 577.063 368.832C577.063 357.449 567.835 348.221 556.451 348.221C545.067 348.221 535.839 357.449 535.839 368.832C535.839 380.215 545.067 389.443 556.451 389.443Z" fill="white"/>
<path d="M756.022 380.485C770.119 380.485 781.546 369.059 781.546 354.963C781.546 340.867 770.119 329.44 756.022 329.44C741.925 329.44 730.498 340.867 730.498 354.963C730.498 369.059 741.925 380.485 756.022 380.485Z" fill="white"/>
<path d="M727.512 376.537C737.938 376.537 746.391 368.085 746.391 357.659C746.391 347.234 737.938 338.782 727.512 338.782C717.086 338.782 708.634 347.234 708.634 357.659C708.634 368.085 717.086 376.537 727.512 376.537Z" fill="white"/>
<path d="M789.541 378.944C799.967 378.944 808.419 370.493 808.419 360.067C808.419 349.642 799.967 341.19 789.541 341.19C779.115 341.19 770.663 349.642 770.663 360.067C770.663 370.493 779.115 378.944 789.541 378.944Z" fill="white"/>
<path d="M138.237 395.125C152.334 395.125 163.761 383.698 163.761 369.602C163.761 355.506 152.334 344.079 138.237 344.079C124.14 344.079 112.713 355.506 112.713 369.602C112.713 383.698 124.14 395.125 138.237 395.125Z" fill="white"/>
<path d="M110.498 385.397C120.924 385.397 129.376 376.946 129.376 366.52C129.376 356.095 120.924 347.643 110.498 347.643C100.071 347.643 91.6191 356.095 91.6191 366.52C91.6191 376.946 100.071 385.397 110.498 385.397Z" fill="white"/>
<path d="M146.135 320.964L147.098 707.948H454.354L453.39 321.928L146.135 320.964Z" fill="#F5F5F4"/>
<path d="M132.651 285.233L463.022 286.196L463.985 321.928H132.651V285.233Z" fill="#D6D3D1"/>
<path d="M463.022 393.199H132.651V403.793H463.022V393.199Z" fill="#D6D3D1"/>
<path d="M452.427 402.83H147.098V413.424H452.427V402.83Z" fill="#D6D3D1"/>
<path d="M451.464 319.038H146.135V329.633H451.464V319.038Z" fill="#D6D3D1"/>
<path d="M464.948 707.081H134.577V717.675H464.948V707.081Z" fill="#D6D3D1"/>
<path d="M176.957 342.153L166.362 353.711V370.084L175.994 379.715L423.532 380.678L433.164 372.01V353.711L421.605 342.153H176.957Z" fill="#D6D3D1"/>
<path d="M146.135 437.502H165.399V450.023H147.098L146.135 437.502Z" fill="#E7E5E4"/>
<path d="M146.135 562.708H157.693V575.229H147.098L146.135 562.708Z" fill="#E7E5E4"/>
<path d="M280.981 544.409H250.159V555.967H280.981V544.409Z" fill="#E7E5E4"/>
<path d="M262.68 563.672H231.858V575.229H262.68V563.672Z" fill="#E7E5E4"/>
<path d="M247.751 492.689H216.929V504.247H247.751V492.689Z" fill="#E7E5E4"/>
<path d="M318.545 564.635H287.723V576.192H318.545V564.635Z" fill="#E7E5E4"/>
<path d="M263.932 426.138H233.111V437.695H263.932V426.138Z" fill="#E7E5E4"/>
<path d="M437.016 557.893H406.195V569.45H437.016V557.893Z" fill="#E7E5E4"/>
<path d="M441.832 416.314H411.01V427.871H441.832V416.314Z" fill="#E7E5E4"/>
<path d="M377.78 596.322H433.741C435.571 596.322 437.016 597.766 437.016 599.596V706.792C437.016 708.622 435.571 710.066 433.741 710.066H377.78C375.95 710.066 374.506 708.622 374.506 706.792V599.692C374.506 597.863 375.95 596.322 377.78 596.322Z" fill="#D6D3D1"/>
<path d="M383.752 609.131H427.866C429.696 609.131 431.141 610.576 431.141 612.406V624.06C431.141 625.889 429.696 627.334 427.866 627.334H383.752C381.922 627.334 380.477 625.889 380.477 624.06V612.406C380.477 610.672 381.922 609.131 383.752 609.131Z" fill="white"/>
<path d="M163.954 476.027H170.215L240.431 475.931C240.431 475.931 244.284 454.742 228.873 442.222C213.462 429.701 197.473 429.701 185.915 435.48C174.356 441.259 163.569 450.023 163.954 476.027Z" fill="#D6D3D1"/>
<path d="M170.215 476.027L169.733 527.362H235.037V474.775L169.252 473.716L170.215 476.027Z" fill="#D6D3D1"/>
<path d="M169.733 527.362L165.399 527.073V535.741H239.275L238.986 527.073L169.733 527.362Z" fill="#D6D3D1"/>
<path d="M200.651 478.917H177.824V499.913H200.651V478.917Z" fill="white"/>
<path d="M227.043 478.628H205.275V499.624H227.043V478.628Z" fill="white"/>
<path d="M227.428 505.114H205.178V526.11H227.428V505.114Z" fill="white"/>
<path d="M200.94 505.114H178.113V526.11H200.94V505.114Z" fill="white"/>
<path d="M173.201 444.726L170.504 476.22L183.603 475.738L186.204 435.48L178.016 440.295L174.164 443.666" fill="#E7E5E4"/>
<path d="M232.436 445.4L234.844 476.22L222.901 475.738L220.589 436.636L227.91 441.451L231.473 444.341" fill="#E7E5E4"/>
<path d="M190.442 444.148L188.612 475.931L200.073 476.124L202.578 431.82L197.665 432.013L191.694 433.072" fill="#E7E5E4"/>
<path d="M217.218 444.052L218.759 475.738L208.549 475.931L206.43 432.013L211.728 433.168L216.255 434.613" fill="#E7E5E4"/>
<path d="M261.524 476.702H267.785L338.001 476.605C338.001 476.605 341.854 455.416 326.443 442.896C311.032 430.375 295.043 430.375 283.485 436.154C271.927 441.933 261.139 450.697 261.524 476.702Z" fill="#D6D3D1"/>
<path d="M267.882 476.702L267.304 528.036H332.704V475.449L266.822 474.39L267.882 476.702Z" fill="#D6D3D1"/>
<path d="M267.304 528.036L262.969 527.747V536.415H336.942L336.556 527.747L267.304 528.036Z" fill="#D6D3D1"/>
<path d="M298.318 479.591H275.49V500.587H298.318V479.591Z" fill="white"/>
<path d="M324.709 479.302H302.941V500.298H324.709V479.302Z" fill="white"/>
<path d="M324.998 505.788H302.749V526.784H324.998V505.788Z" fill="white"/>
<path d="M298.511 505.788H275.683V526.784H298.511V505.788Z" fill="white"/>
<path d="M270.771 445.4L268.074 476.894L281.173 476.413L283.774 436.154L275.587 440.97L271.734 444.341" fill="#E7E5E4"/>
<path d="M330.007 446.074L332.415 476.894L320.471 476.509L318.159 437.31L325.48 442.125L329.043 445.015" fill="#E7E5E4"/>
<path d="M288.012 444.822L286.182 476.605L297.644 476.702L300.148 432.494L295.236 432.687L289.264 433.746" fill="#E7E5E4"/>
<path d="M314.788 444.726L316.329 476.413L306.12 476.605L304.001 432.687L309.298 433.843L313.825 435.287" fill="#E7E5E4"/>
<path d="M357.843 476.702H364.103L434.319 476.605C434.319 476.605 438.172 455.416 422.761 442.896C407.35 430.375 391.361 430.375 379.803 436.154C368.245 441.933 357.361 450.697 357.843 476.702Z" fill="#D6D3D1"/>
<path d="M364.103 476.702L363.525 528.036H428.925V475.449L363.044 474.39L364.103 476.702Z" fill="#D6D3D1"/>
<path d="M363.525 528.036L359.287 527.747V536.415H433.163L432.778 527.747L363.525 528.036Z" fill="#D6D3D1"/>
<path d="M394.54 479.591H371.712V500.587H394.54V479.591Z" fill="white"/>
<path d="M420.931 479.302H399.163V500.298H420.931V479.302Z" fill="white"/>
<path d="M421.316 505.788H399.067V526.784H421.316V505.788Z" fill="white"/>
<path d="M394.732 505.788H371.905V526.784H394.732V505.788Z" fill="white"/>
<path d="M366.993 445.4L364.392 476.894L377.395 476.413L380.092 436.154L371.809 440.97L368.052 444.341" fill="#E7E5E4"/>
<path d="M426.229 446.074L428.636 476.894L416.693 476.509L414.381 437.31L421.798 442.125L425.265 445.015" fill="#E7E5E4"/>
<path d="M384.234 444.822L382.5 476.605L393.866 476.702L396.37 432.494L391.458 432.687L385.486 433.746" fill="#E7E5E4"/>
<path d="M411.01 444.726L412.648 476.413L402.342 476.605L400.223 432.687L405.616 433.843L410.047 435.287" fill="#E7E5E4"/>
<path d="M164.243 622.904H180.906L366.8 622.807C366.8 622.807 381.922 599.404 341.083 586.594C300.245 573.784 233.207 577.444 202.674 583.319C172.141 589.194 163.087 596.322 164.243 622.904Z" fill="#D6D3D1"/>
<path d="M166.651 623.385L165.014 707.273H366.222V621.266L163.376 619.533L166.651 623.385Z" fill="#D6D3D1"/>
<path d="M353.701 624.541H176.379V667.304H353.701V624.541Z" fill="white"/>
<path d="M289.938 674.142H238.89V695.138H289.938V674.142Z" fill="white"/>
<path d="M228.68 674.527H177.631V695.523H228.68V674.527Z" fill="white"/>
<path d="M351.967 674.527H300.919V695.523H351.967V674.527Z" fill="white"/>
<path d="M183.025 590.061L179.365 620.4L196.702 620.014L199.784 583.223L189.671 585.631L183.988 587.942" fill="#E7E5E4"/>
<path d="M211.632 590.35L208.742 620.111L226.176 619.822L229.258 579.563L220.782 580.526L213.173 581.297" fill="#E7E5E4"/>
<path d="M341.276 589.772L344.069 620.111L330.488 619.725L328.08 583.03L336.075 585.438L340.409 587.75" fill="#E7E5E4"/>
<path d="M318.641 590.158L321.049 619.822L306.505 619.629L303.905 579.371L310.936 580.334L317.389 581.008" fill="#E7E5E4"/>
<path d="M291.961 589.869L294.465 619.629L279.921 619.436L277.224 578.118L284.063 578.504L290.613 578.793" fill="#E7E5E4"/>
<path d="M260.465 591.024L262.873 620.689L248.425 620.496L245.728 579.274L252.952 578.985L259.694 578.889" fill="#E7E5E4"/>
<path d="M478.144 522.354L477.277 715.171L803.122 716.038V520.62L478.144 522.354Z" fill="#F5F5F4"/>
<path d="M805.819 706.214H475.447V716.808H805.819V706.214Z" fill="#D6D3D1"/>
<path d="M821.422 522.257H460.133V535.067H821.422V522.257Z" fill="#D6D3D1"/>
<path d="M465.912 524.28C465.912 524.28 469.764 466.878 507.328 465.818C538.247 464.951 696.883 465.722 751.495 466.203C783.665 466.492 811.213 490.282 815.162 522.257C815.258 522.931 815.354 523.702 815.354 524.376L465.912 524.28Z" fill="#D6D3D1"/>
<path d="M783.184 609.131H802.448V621.652H784.147L783.184 609.131Z" fill="#E7E5E4"/>
<path d="M791.178 556.833H802.737V569.354H792.142L791.178 556.833Z" fill="#E7E5E4"/>
<path d="M523.125 650.353H492.303V661.91H523.125V650.353Z" fill="#E7E5E4"/>
<path d="M512.241 599.5H481.419V611.057H512.241V599.5Z" fill="#E7E5E4"/>
<path d="M531.312 558.471H500.49V570.028H531.312V558.471Z" fill="#E7E5E4"/>
<path d="M640.922 548.262H610.1V559.819H640.922V548.262Z" fill="#E7E5E4"/>
<path d="M796.476 586.69H765.654V598.248H796.476V586.69Z" fill="#E7E5E4"/>
<path d="M779.813 675.972H748.991V687.529H779.813V675.972Z" fill="#E7E5E4"/>
<path d="M706.611 539.016H675.789V550.573H706.611V539.016Z" fill="#E7E5E4"/>
<path d="M537.38 621.652H554.043L739.937 621.555C739.937 621.555 755.059 598.151 714.22 585.342C673.381 572.532 606.344 576.192 575.811 582.067C545.278 587.942 536.224 595.069 537.38 621.652Z" fill="#D6D3D1"/>
<path d="M539.788 622.133L538.15 706.021H739.359V620.014L536.513 618.281L539.788 622.133Z" fill="#D6D3D1"/>
<path d="M726.838 623.289H612.026V666.052H726.838V623.289Z" fill="white"/>
<path d="M663.075 672.89H612.026V693.886H663.075V672.89Z" fill="white"/>
<path d="M601.817 624.059H550.768V694.271H601.817V624.059Z" fill="white"/>
<path d="M725.104 673.275H674.055V694.271H725.104V673.275Z" fill="white"/>
<path d="M556.162 588.809L552.502 619.147L569.839 618.762L572.921 581.971L562.808 584.379L557.125 586.69" fill="#E7E5E4"/>
<path d="M584.768 589.098L581.879 618.859L599.312 618.666L602.395 578.311L593.919 579.274L586.31 580.045" fill="#E7E5E4"/>
<path d="M714.413 588.52L717.206 618.955L703.625 618.57L701.217 581.778L709.212 584.186L713.642 586.498" fill="#E7E5E4"/>
<path d="M691.778 588.905L694.186 618.666L679.642 618.377L677.041 578.118L684.072 579.082L690.526 579.852" fill="#E7E5E4"/>
<path d="M665.098 588.616L667.602 618.377L653.058 618.184L650.361 576.963L657.2 577.252L663.749 577.637" fill="#E7E5E4"/>
<path d="M633.602 589.772L636.01 619.533L621.562 619.244L618.865 578.022L626.089 577.829L632.831 577.637" fill="#E7E5E4"/>
<path d="M835.292 704.288C837.796 704.288 839.819 706.31 839.819 708.814V718.157C839.819 720.661 837.796 722.683 835.292 722.683C832.788 722.683 830.765 720.661 830.765 718.157V708.718C830.861 706.31 832.884 704.288 835.292 704.288Z" fill="white"/>
<path d="M864.188 704.288C866.692 704.288 868.715 706.31 868.715 708.814V718.157C868.715 720.661 866.692 722.683 864.188 722.683C861.683 722.683 859.661 720.661 859.661 718.157V708.718C859.757 706.31 861.78 704.288 864.188 704.288Z" fill="white"/>
<path d="M827.394 637.543C827.394 637.543 820.459 709.874 821.711 710.933C823.06 711.896 876.131 712.57 877.48 711.607C878.828 710.644 873.531 638.217 872.471 637.928C871.412 637.639 829.031 636.58 827.394 637.543Z" fill="#D6D3D1"/>
<path d="M836.159 655.746H865.343C866.307 655.746 867.173 656.517 867.173 657.576C867.173 658.539 866.307 659.406 865.343 659.406H836.159C835.196 659.406 834.329 658.636 834.329 657.576C834.329 656.613 835.099 655.746 836.159 655.746Z" fill="white"/>
<path d="M832.21 667.4H868.715C869.678 667.4 870.545 668.17 870.545 669.23C870.545 670.193 869.678 671.06 868.715 671.06H832.21C831.247 671.06 830.38 670.289 830.38 669.23C830.38 668.267 831.15 667.4 832.21 667.4Z" fill="white"/>
<path d="M659 695.996V708.47H860L859.917 696.244L659 695.996Z" fill="#D6D3D1"/>
<path d="M680.728 653.7L680.397 696.574H686.345V653.7H680.728Z" fill="#D6D3D1"/>
<path d="M832.572 653.204L833.068 696.574H838.768V653.204H832.572Z" fill="#D6D3D1"/>
<path d="M669.905 653.7C669.905 653.7 671.475 648 675.605 648H842.651C843.229 648 843.725 648.165 844.221 648.413C845.625 649.157 848.434 650.974 849.178 653.617H669.905V653.7Z" fill="#D6D3D1"/>
<path d="M668.831 659.565V664.522L848.847 664.687L848.682 659.896L668.831 659.565Z" fill="#D6D3D1"/>
<path d="M668.831 669.891V674.848L848.847 675.013L848.682 670.222L668.831 669.891Z" fill="#D6D3D1"/>
<path d="M668.831 681.787V686.744L848.847 686.909L848.682 682.118L668.831 681.787Z" fill="#D6D3D1"/>
<path d="M668.831 691.122V695.996L848.847 696.161L848.682 691.37L668.831 691.122Z" fill="#D6D3D1"/>
<path d="M677.093 707.974L677.175 739.448H691.55L691.963 707.974H677.093Z" fill="#D6D3D1"/>
<path d="M827.946 708.057L828.194 739.944H842.899L842.651 707.974L827.946 708.057Z" fill="#D6D3D1"/>
</g>
<defs>
<clipPath id="clip0_91176_10403">
<rect width="976" height="666" fill="white" transform="translate(24 179)"/>
</clipPath>
</defs>
</svg>
