<svg width="1024" height="1024" viewBox="0 0 1024 1024" fill="none" xmlns="http://www.w3.org/2000/svg">
<rect width="1024" height="1024" fill="white"/>
<g clip-path="url(#clip0_91144_5432)">
<path d="M184.973 558.896L511.375 236.452C515.258 232.59 520.131 229.87 525.461 228.593L647.755 198.847C652.816 197.619 658.109 197.715 663.123 199.128C668.136 200.54 672.699 203.22 676.371 206.908L797.011 328.47C800.648 332.099 803.298 336.595 804.711 341.531C806.123 346.468 806.251 351.683 805.083 356.684L775.135 482.759C773.826 488.184 771.031 493.139 767.063 497.068L447.725 817.134C442.102 822.773 434.474 825.963 426.504 826.008C418.535 826.053 410.871 822.95 405.184 817.376L185.054 601.822C182.202 599.022 179.935 595.685 178.385 592.004C176.835 588.322 176.033 584.369 176.025 580.376C176.018 576.382 176.805 572.427 178.341 568.74C179.877 565.052 182.132 561.706 184.973 558.896Z" fill="url(#paint0_linear_91144_5432)"/>
<path d="M682.304 360.351C702.388 360.351 718.669 344.092 718.669 324.036C718.669 303.98 702.388 287.721 682.304 287.721C662.22 287.721 645.938 303.98 645.938 324.036C645.938 344.092 662.22 360.351 682.304 360.351Z" fill="white"/>
<path d="M480.821 674.25C500.905 674.25 517.186 657.991 517.186 637.934C517.186 617.878 500.905 601.619 480.821 601.619C460.737 601.619 444.456 617.878 444.456 637.934C444.456 657.991 460.737 674.25 480.821 674.25Z" fill="white"/>
<path d="M480.821 436.045C500.905 436.045 517.186 419.786 517.186 399.729C517.186 379.673 500.905 363.414 480.821 363.414C460.737 363.414 444.456 379.673 444.456 399.729C444.456 419.786 460.737 436.045 480.821 436.045Z" fill="white"/>
<path d="M645.898 496.664H315.663V538.703H645.898V496.664Z" fill="white"/>
<path d="M723.616 659.297L719.386 660.83L719.387 660.833L723.616 659.297ZM820.887 606.618L817.936 610.015L817.936 610.015L820.887 606.618ZM765.773 509.409C766.552 507.049 765.269 504.505 762.909 503.726C760.549 502.948 758.005 504.23 757.226 506.591L765.773 509.409ZM650.603 343.866C653.166 347.565 653.165 347.566 653.164 347.567C653.164 347.567 653.163 347.567 653.163 347.567C653.163 347.567 653.164 347.566 653.166 347.565C653.17 347.562 653.177 347.557 653.189 347.549C653.211 347.534 653.248 347.509 653.299 347.474C653.402 347.405 653.562 347.298 653.774 347.159C654.2 346.88 654.838 346.47 655.661 345.965C657.309 344.955 659.687 343.57 662.575 342.096C668.398 339.126 676.083 335.901 683.928 334.541C691.792 333.177 699.278 333.769 705.296 337.716C711.244 341.616 716.673 349.396 719.178 364.397L728.055 362.915C725.293 346.378 718.962 335.914 710.231 330.19C701.573 324.512 691.463 324.1 682.39 325.673C673.299 327.25 664.706 330.905 658.485 334.08C655.351 335.679 652.766 337.183 650.956 338.293C650.049 338.849 649.335 339.308 648.84 339.632C648.593 339.794 648.4 339.923 648.266 340.014C648.198 340.059 648.146 340.095 648.108 340.121C648.089 340.134 648.074 340.144 648.063 340.152C648.057 340.156 648.052 340.159 648.049 340.161C648.047 340.163 648.045 340.164 648.044 340.165C648.042 340.166 648.04 340.167 650.603 343.866ZM719.178 364.397C721.69 379.442 720.35 397.624 717.411 418.752C715.947 429.278 714.106 440.408 712.194 452.154C710.285 463.878 708.308 476.185 706.594 488.962C699.736 540.076 697.005 599.067 719.386 660.83L727.847 657.764C706.194 598.006 708.73 540.715 715.514 490.159C717.21 477.519 719.168 465.321 721.077 453.6C722.982 441.901 724.843 430.646 726.325 419.992C729.279 398.762 730.81 379.41 728.055 362.915L719.178 364.397ZM719.387 660.833C734.625 702.791 752.495 725.088 770.842 732.682C789.818 740.537 807.498 732.096 820.237 717.437C832.956 702.802 841.586 681.237 843.309 660.047C845.03 638.884 839.896 617.172 823.838 603.221L817.936 610.015C831.059 621.416 835.925 639.802 834.339 659.318C832.754 678.807 824.771 698.499 813.444 711.534C802.138 724.544 788.342 730.185 774.284 724.366C759.598 718.287 742.879 699.155 727.846 657.761L719.387 660.833ZM823.838 603.221C788.525 572.539 774.239 548.502 768.651 532.545C765.858 524.571 765.221 518.57 765.233 514.694C765.239 512.752 765.408 511.329 765.558 510.444C765.633 510.001 765.704 509.692 765.747 509.519C765.769 509.432 765.784 509.38 765.789 509.361C765.792 509.352 765.792 509.351 765.79 509.359C765.788 509.363 765.786 509.37 765.784 509.378C765.782 509.382 765.781 509.387 765.779 509.392C765.778 509.395 765.777 509.399 765.776 509.4C765.775 509.405 765.773 509.409 761.5 508C757.226 506.591 757.225 506.596 757.223 506.601C757.222 506.602 757.221 506.608 757.219 506.611C757.217 506.619 757.214 506.627 757.212 506.635C757.206 506.653 757.2 506.672 757.193 506.694C757.18 506.738 757.164 506.79 757.146 506.852C757.11 506.976 757.066 507.136 757.017 507.332C756.918 507.725 756.8 508.262 756.685 508.939C756.455 510.296 756.241 512.213 756.233 514.666C756.218 519.583 757.032 526.598 760.157 535.52C766.402 553.354 781.809 578.626 817.936 610.015L823.838 603.221Z" fill="#A8A29E"/>
</g>
<defs>
<linearGradient id="paint0_linear_91144_5432" x1="176.013" y1="512.021" x2="805.769" y2="512.021" gradientUnits="userSpaceOnUse">
<stop stop-color="#57534E"/>
<stop offset="1" stop-color="#1C1917"/>
</linearGradient>
<clipPath id="clip0_91144_5432">
<rect width="683" height="628" fill="white" transform="translate(176 198)"/>
</clipPath>
</defs>
</svg>
