<svg width="1024" height="1024" viewBox="0 0 1024 1024" fill="none" xmlns="http://www.w3.org/2000/svg">
<g clip-path="url(#clip0_91151_5819)">
<path d="M81.1589 825C81.1589 825 61.5313 622.481 130.31 561.006C190.348 507.549 240.324 475.064 341.926 470.952C443.527 466.84 499.441 466.84 560.139 382.954C620.836 299.068 703.14 172.622 795.01 168.305C883.582 164.192 937.846 198.939 988.647 444.429C1039.45 689.919 986.998 816.776 985.349 818.832C984.194 820.271 81.1589 825 81.1589 825Z" fill="#FAFAF9"/>
<path d="M367.497 664.811C374.484 580.501 348.59 457.121 378.8 439.848C408.805 422.986 418.875 417.434 449.907 383.093C525.535 299.194 627.88 172.524 742.349 168.206C852.709 164.093 920.322 198.845 983.62 444.372C1015.27 567.135 1013.42 631.91 1010.34 670.775C1008.69 692.161 1007.05 719.921 1006.02 720.949C1004.38 722.389 361.743 734.932 367.497 664.811Z" fill="#F5F5F4"/>
<path d="M211.378 391.947L202.336 820.076C202.336 823.161 210.556 822.133 212.611 822.133H224.942L222.887 392.564L296.255 394.62L264.4 214.279C262.756 205.026 254.741 198.034 245.082 198.034H194.321C182.196 198.034 171.715 206.671 169.66 218.598L138.627 390.302L211.378 391.947Z" fill="#E7E5E4"/>
<path d="M78.5869 719.87C78.5869 719.87 78.1759 736.732 81.0531 738.582C82.2861 739.611 83.7247 740.227 85.1633 740.639L99.3436 816.929C99.3436 816.929 140.651 824.537 161.408 815.901L175.588 740.639L180.315 738.788L182.165 719.87C182.165 719.87 131.403 703.008 78.5869 719.87Z" fill="#E7E5E4"/>
<path d="M83.3137 740.227C83.3137 740.227 138.802 744.546 145.378 742.695C151.954 740.844 150.105 725.833 150.105 725.833L177.438 722.954C177.438 722.954 177.438 738.994 175.588 740.844C173.533 743.312 171.889 746.191 170.862 749.275C170.862 750.304 159.558 817.135 159.558 817.135C159.558 817.135 141.679 820.013 138.802 820.013C135.925 820.013 146.406 764.492 146.406 760.791C146.406 757.089 146.406 749.481 143.529 749.481C140.651 749.481 86.3964 751.126 85.9854 744.957C85.5744 743.106 84.7523 741.461 83.3137 740.227Z" fill="#F5F5F4"/>
<path d="M105.303 723.366C105.303 723.366 89.8901 712.467 81.6697 711.439C73.4492 710.411 63.9957 709.382 55.7752 708.149C47.5548 706.915 37.0737 703.213 37.2792 698.278C37.4847 693.343 38.5123 691.081 43.239 688.408C47.3493 685.735 51.8705 684.089 56.8028 683.473C60.502 683.061 97.494 692.726 112.907 715.757L119.073 723.366H105.303Z" fill="#F5F5F4"/>
<path d="M51.665 696.633C51.665 696.633 65.8453 696.427 73.6547 698.895C79.8201 701.157 85.5744 703.83 91.3287 707.12L114.551 723.365" fill="#F5F5F4"/>
<path d="M51.665 696.633C51.665 696.633 65.8453 696.427 73.6547 698.895C79.8201 701.157 85.5744 703.83 91.3287 707.12L114.551 723.365" stroke="white" stroke-width="0.36915" stroke-miterlimit="10" stroke-linecap="round"/>
<path d="M121.539 722.749C121.539 722.749 103.454 698.278 96.4664 691.492C89.479 684.706 81.2586 676.687 74.4767 669.489C67.6949 662.292 59.2689 652.011 62.7626 647.692C66.2563 643.374 68.9279 640.495 75.5043 641.523C80.6421 642.14 85.5743 643.785 89.6846 646.87C93.3838 649.132 126.06 680.388 130.787 716.168L135.514 723.366L121.539 722.749Z" fill="#F5F5F4"/>
<path d="M79.2035 655.918C79.2035 655.918 93.1783 664.349 98.7271 672.368C103.865 679.977 112.085 693.343 112.085 693.343L121.539 719.047" stroke="white" stroke-width="0.36915" stroke-miterlimit="10" stroke-linecap="round"/>
<path d="M130.581 723.982C130.581 723.982 109.619 678.332 105.714 669.284C101.81 660.236 85.7799 646.664 82.2862 637.411C78.7925 628.157 76.5319 621.577 80.2311 616.436C83.9303 611.295 93.5893 607.182 99.7547 610.267C105.509 613.146 113.113 621.782 116.401 626.101C119.073 629.597 136.13 691.492 134.692 705.887L137.98 724.188L130.581 723.982Z" fill="#F5F5F4"/>
<path d="M93.5894 627.129C93.5894 627.129 105.715 642.757 109.414 651.805C113.524 662.087 117.634 681.622 117.018 678.537L129.554 720.898" stroke="white" stroke-width="0.36915" stroke-miterlimit="10" stroke-linecap="round"/>
<path d="M119.073 723.777C119.073 723.777 100.577 702.596 91.5342 698.484C82.4917 694.371 72.2162 689.847 63.3792 685.323C54.5422 680.799 44.0611 673.397 45.7052 668.873C47.3493 664.349 49.4044 662.498 55.7753 661.675C61.3241 660.647 67.0784 660.853 72.6272 662.087C76.7374 663.115 115.374 686.557 125.238 714.318L129.759 723.982L119.073 723.777Z" fill="#F5F5F4"/>
<path d="M62.7626 672.78C62.7626 672.78 78.7925 678.126 86.8074 683.473C92.7672 687.996 98.5215 692.726 104.07 698.073L121.744 723.982" stroke="white" stroke-width="0.36915" stroke-miterlimit="10" stroke-linecap="round"/>
<path d="M167.368 724.188C167.368 724.188 184.22 713.906 193.057 712.878C201.894 711.85 212.169 711.027 221.212 709.794C230.254 708.56 241.352 705.064 241.146 700.54C240.941 696.016 239.913 693.754 234.57 691.081C230.049 688.613 225.116 686.968 219.979 686.351C216.074 685.94 175.999 695.194 159.147 717.197L152.365 724.394L167.368 724.188Z" fill="#F5F5F4"/>
<path d="M225.322 698.484C225.322 698.484 209.909 698.278 201.483 700.746C194.906 702.802 188.536 705.475 182.37 708.56L159.969 723.571" fill="#F5F5F4"/>
<path d="M225.322 698.484C225.322 698.484 209.909 698.278 201.483 700.746C194.906 702.802 188.536 705.475 182.37 708.56L159.969 723.571" stroke="white" stroke-width="0.36915" stroke-miterlimit="10" stroke-linecap="round"/>
<path d="M149.694 723.571C149.694 723.571 169.217 700.129 176.821 693.549C184.425 686.968 193.262 679.36 200.661 672.574C208.059 665.788 217.307 655.918 213.402 651.805C209.498 647.692 206.826 645.019 199.633 645.842C194.084 646.253 188.946 648.104 184.22 650.982C180.315 653.244 144.967 683.061 139.829 717.196L134.692 724.188L149.694 723.571Z" fill="#F5F5F4"/>
<path d="M195.523 659.825C195.523 659.825 180.315 667.844 174.355 675.453C168.806 682.65 159.764 695.605 159.764 695.605L149.694 720.075" stroke="white" stroke-width="0.36915" stroke-miterlimit="10" stroke-linecap="round"/>
<path d="M140.035 724.805C140.035 724.805 162.847 681.211 166.957 672.574C171.067 663.937 188.535 650.982 192.44 642.14C196.345 633.298 198.811 626.923 194.701 622.194C190.591 617.464 180.11 613.351 173.533 616.23C167.162 618.904 159.147 627.129 155.448 631.447C152.571 634.737 134.075 693.96 135.514 707.737L132.02 725.216L140.035 724.805Z" fill="#F5F5F4"/>
<path d="M137.774 724.188C137.774 724.188 139.624 681.622 143.94 667.844C146.817 658.591 149.694 643.168 153.599 634.532C157.503 625.895 151.543 614.38 147.639 609.444C143.734 604.509 133.253 605.537 126.471 608.416C120.1 611.089 116.607 619.932 115.784 624.661C115.168 628.98 130.17 680.182 128.526 699.101L129.759 724.599L137.774 724.188Z" fill="#F5F5F4"/>
<path d="M180.109 632.27C180.109 632.27 167.162 647.075 163.052 655.918C158.531 665.788 154.215 684.501 154.832 681.416L140.035 722.954" stroke="white" stroke-width="0.36915" stroke-miterlimit="10" stroke-linecap="round"/>
<path d="M152.571 724.394C152.571 724.394 172.711 704.242 182.37 700.335C192.029 696.427 203.332 692.109 212.786 687.791C222.239 683.473 233.748 676.481 231.898 672.163C230.049 667.844 227.994 666.199 221.006 665.377C215.046 664.554 208.881 664.554 202.921 665.788C198.4 666.816 156.681 689.025 145.995 715.551L141.062 724.599L152.571 724.394Z" fill="#F5F5F4"/>
<path d="M213.197 675.864C213.197 675.864 195.934 680.799 187.302 685.94C180.726 690.053 174.561 694.782 168.601 699.718L149.077 721.515" stroke="white" stroke-width="0.36915" stroke-miterlimit="10" stroke-linecap="round"/>
<path d="M133.664 617.258C133.664 617.258 137.158 653.656 135.103 663.526C134.28 667.639 134.691 693.343 134.691 693.343L133.869 721.72" stroke="white" stroke-width="0.36915" stroke-miterlimit="10" stroke-linecap="round"/>
<path d="M139.226 385.749L291.715 388.627L294.798 399.526L137.376 395.413L139.226 385.749Z" fill="#F5F5F4"/>
<path d="M790.644 408.18L789.411 707.994L979.715 708.406C979.715 708.406 981.153 550.479 973.55 399.338L791.056 396.665L790.644 408.18Z" fill="#F5F5F4"/>
<path d="M611.439 447.045L606.506 708.817H769.066L768.038 447.045H611.439Z" fill="#F5F5F4"/>
<path d="M375.306 600.654L609.178 601.887L606.506 708.817L376.128 708.611L375.306 600.654Z" fill="#F5F5F4"/>
<path d="M355.988 449.718L356.605 709.434C356.605 709.434 358.043 725.679 373.662 726.501C389.281 727.324 1004.17 727.53 1004.17 727.53C1004.17 727.53 1009.72 710.256 1007.46 709.639C1005.2 709.023 376.128 709.023 376.128 709.023C376.128 709.023 376.334 699.769 376.334 694.011C376.334 687.431 375.923 441.904 375.923 441.904C369.758 444.989 362.976 447.662 355.988 449.718Z" fill="white"/>
<path d="M369.552 475.423L991.635 479.33L994.923 492.696L369.552 495.78V475.423Z" fill="white"/>
<path d="M545.059 273.285V709.228L561.499 710.462V261.975L545.059 273.285Z" fill="white"/>
<path d="M842.228 185.685L841.817 709.228L857.025 707.994L859.491 195.966L842.228 185.685Z" fill="white"/>
<path d="M561.5 261.975L916.623 264.237L906.347 245.73L581.845 245.524L561.5 261.975Z" fill="white"/>
<path d="M621.303 347.93C641.279 347.93 657.473 331.726 657.473 311.738C657.473 291.75 641.279 275.547 621.303 275.547C601.327 275.547 585.133 291.75 585.133 311.738C585.133 331.726 601.327 347.93 621.303 347.93Z" fill="white"/>
<path d="M656.446 346.901C669.498 346.901 680.079 336.314 680.079 323.254C680.079 310.193 669.498 299.606 656.446 299.606C643.393 299.606 632.812 310.193 632.812 323.254C632.812 336.314 643.393 346.901 656.446 346.901Z" fill="white"/>
<path d="M895.25 381.859C915.566 381.859 932.036 365.38 932.036 345.051C932.036 324.722 915.566 308.242 895.25 308.242C874.933 308.242 858.463 324.722 858.463 345.051C858.463 365.38 874.933 381.859 895.25 381.859Z" fill="white"/>
<path d="M857.23 373.839C870.51 373.839 881.275 363.068 881.275 349.78C881.275 336.493 870.51 325.721 857.23 325.721C843.95 325.721 833.185 336.493 833.185 349.78C833.185 363.068 843.95 373.839 857.23 373.839Z" fill="white"/>
<path d="M757.352 711.49L769.477 707.789L775.231 806.287L770.505 808.344L757.352 711.49Z" fill="white"/>
<path d="M849.01 683.113L867.506 677.355L890.112 767.423L884.769 768.862L849.01 683.113Z" fill="white"/>
<path d="M632.401 704.087L609.178 778.527L602.807 775.648L613.699 701.208L632.401 704.087Z" fill="white"/>
<path d="M741.116 714.78H747.898L757.352 711.49L770.504 808.344L764.75 806.904L741.116 714.78Z" fill="white"/>
<path d="M717.483 431.417L825.993 431.006L823.937 671.597L732.896 680.028L719.743 685.169L613.905 678.794L614.11 672.009L730.224 657.408L717.483 431.417Z" fill="#1C1917"/>
<path d="M680.285 431.828L717.482 431.417L735.156 666.456L607.329 673.242L600.136 621.628L629.524 615.87L695.698 612.169L680.285 431.828Z" fill="#292524"/>
<path d="M585.339 677.355L585.955 693.394C585.955 693.394 585.75 699.975 593.97 700.18C602.396 700.386 740.911 714.575 740.911 714.575C740.911 714.575 752.008 717.454 769.271 707.789L869.15 676.121C869.15 676.121 872.644 675.916 872.233 669.952C871.822 663.989 889.29 437.175 889.29 436.558C889.29 435.941 887.029 433.679 882.508 433.268C878.398 433.062 835.652 430.389 835.652 430.389L835.857 602.915C835.857 602.915 837.09 618.749 829.692 619.366C813.251 620.806 745.843 619.777 737.212 626.769C731.457 631.499 744.61 671.803 745.843 680.028C746.254 682.496 728.169 681.468 722.62 682.907C718.51 684.346 585.339 677.355 585.339 677.355Z" fill="#292524"/>
<path d="M727.142 621.011C727.142 621.011 717.071 621.011 716.66 628.003C716.249 633.966 716.044 670.158 716.044 681.673C716.044 683.318 715.838 684.963 715.633 686.403C715.222 688.459 717.483 692.572 722.415 692.778C732.074 692.983 742.966 692.778 742.966 692.778C742.966 692.778 747.693 691.338 746.665 683.524C745.843 675.71 737.212 634.994 737.212 634.994C737.212 634.994 734.54 625.33 743.788 625.33C753.036 625.33 826.198 619.983 826.198 619.983C826.198 619.983 836.268 620.394 836.679 611.141C837.09 601.887 838.94 436.969 838.94 436.969C838.94 436.969 840.173 429.977 834.213 429.566C828.048 429.155 815.922 430.389 815.922 430.389C815.922 430.389 812.018 430.8 812.018 436.558C812.018 442.316 819.005 606.617 818.183 609.907C816.95 615.048 804.414 616.282 797.837 616.693C790.85 617.31 727.142 621.011 727.142 621.011Z" fill="#44403C"/>
<path d="M657.473 440.259C657.473 440.259 656.24 428.744 664.255 429.361C669.599 429.772 675.147 430.8 680.491 431.828C680.491 431.828 683.779 431.417 684.395 435.118C685.012 438.82 710.701 612.375 708.851 612.992C707.002 613.608 618.015 618.749 616.166 618.749C614.11 618.749 606.918 618.544 607.74 624.301C608.562 630.059 614.316 670.158 614.316 671.803C614.316 673.448 615.138 679.206 613.494 679.823C612.055 680.234 585.544 679 585.544 679L587.6 624.507C587.6 624.507 587.394 615.254 592.737 614.637C598.081 614.02 690.561 610.318 691.588 609.29C692.616 608.262 689.739 598.803 688.711 594.69C687.889 592.223 657.473 440.259 657.473 440.259Z" fill="#44403C"/>
<path d="M306.255 778.938H303.172L286.936 779.144C286.936 779.144 283.443 795.8 281.388 802.792C281.388 803.203 280.771 804.437 280.771 805.259C280.566 806.493 280.36 807.727 280.36 808.961C280.771 815.335 283.032 820.682 288.786 823.56C294.951 826.645 299.678 829.524 306.46 823.56C313.036 817.597 313.858 813.69 311.392 803.203C308.721 792.51 307.693 779.144 306.255 778.938Z" fill="#1C1917"/>
<path d="M374.279 799.707C362.976 796.211 355.577 780.789 355.577 780.789L336.465 779.555C336.465 779.555 335.437 794.977 334.821 802.997C334.204 813.484 335.848 818.008 342.835 817.597C351.878 816.98 388.664 820.27 394.624 816.363C402.228 811.634 384.76 802.997 374.279 799.707Z" fill="#1C1917"/>
<path d="M259.398 503.594V526.42L287.142 779.144H306.666C306.666 779.144 313.447 605.794 313.447 599.831C313.447 593.868 315.092 574.949 315.092 574.949C315.092 574.949 339.753 646.099 340.164 652.062C340.575 658.025 336.259 780.583 336.259 780.583L355.783 781.406C355.783 781.406 372.84 698.535 372.84 690.721C372.84 682.907 378.594 642.192 377.772 634.172C376.95 626.358 362.359 504.211 362.359 504.211L332.354 503.389L259.398 503.594Z" fill="#78716C"/>
<path d="M386.404 477.068L386.198 476.656C386.198 476.862 386.198 477.068 386.404 477.068ZM328.861 454.859L317.969 459.383L317.352 474.6L329.477 479.33L342.63 478.713C342.63 478.096 347.768 478.301 350.234 479.741L391.336 465.552L392.775 455.682C392.775 455.682 395.857 468.02 382.088 443.138L328.861 454.859ZM377.772 404.684L376.95 399.749L374.895 399.338L377.772 404.684ZM301.939 272.873C296.801 274.93 294.54 282.332 294.54 282.332C294.54 282.332 292.074 280.893 292.074 285.006C292.074 289.118 294.129 298.577 295.568 301.045C298.24 305.158 300.5 309.27 302.555 313.589C304.61 317.907 303.788 326.749 301.733 328.189C299.678 329.423 262.275 362.941 262.275 362.941L231.448 457.327V461.028L236.175 462.673L241.108 466.786C241.519 466.786 247.684 470.282 248.506 470.899C253.438 473.366 258.576 475.217 263.919 476.451C267.413 477.068 282.826 476.862 282.826 476.862L298.445 476.451L295.773 456.504L272.756 456.299L241.313 454.653L273.167 381.037L374.073 399.132C356.194 366.642 336.054 330.245 334.204 326.544C332.766 323.459 334.204 315.851 335.232 311.944C336.054 308.448 337.698 303.924 339.342 302.69C340.986 301.456 343.863 295.699 343.863 293.025C343.863 290.352 344.48 280.687 342.425 282.744C341.808 283.361 339.342 279.659 338.52 275.958C337.081 270.611 333.382 266.704 329.066 263.208C329.066 263.208 306.871 270.611 301.939 272.668" fill="url(#paint0_linear_91151_5819)"/>
<path d="M263.508 342.583C258.576 345.873 254.055 350.397 252.411 356.155C250.766 361.913 239.052 406.741 237.408 412.293C233.504 426.07 231.243 430.183 226.722 446.428C221.173 466.375 233.915 469.459 247.067 472.544C260.631 475.628 260.837 476.862 263.919 476.862C264.536 476.862 280.566 480.152 280.977 471.104C281.388 465.346 280.36 456.299 278.099 456.504C273.167 457.121 257.137 453.008 256.315 452.392C255.288 451.775 259.809 439.231 262.481 431.417C264.33 425.659 271.729 401.806 273.373 397.282C274.195 394.814 269.262 420.518 266.18 445.606C266.18 446.634 264.947 456.299 265.152 456.299C268.851 456.299 278.921 456.504 282.004 456.915C296.184 458.561 298.856 465.346 298.034 470.693C296.39 480.152 262.07 475.834 262.275 477.068C262.275 477.068 256.315 503.8 259.603 505.445C262.481 506.885 300.911 522.924 309.132 526.008C309.954 526.42 310.981 526.008 311.392 524.98L316.53 509.969C316.53 509.763 316.736 509.763 316.941 509.763C316.941 509.763 317.147 509.763 317.147 509.969L322.079 526.42C322.079 526.831 322.49 527.242 322.901 527.448H325.162L367.908 518.194C367.908 518.194 367.702 501.332 367.702 479.741C367.702 477.479 367.291 469.459 365.853 471.104C364.209 472.544 328.655 477.273 324.751 475.628C316.53 472.132 318.585 463.496 321.462 460C324.751 455.887 366.88 453.831 367.086 450.952C367.702 437.792 366.675 403.039 366.058 407.152C365.031 413.732 340.369 449.307 340.369 455.682C340.369 462.056 339.958 477.479 339.958 477.479L380.444 474.394C380.444 474.394 394.008 469.665 395.241 461.851C396.474 454.037 395.035 450.541 394.419 438.82C394.008 431.417 383.527 386.794 380.65 374.251C380.239 372.4 380.033 370.344 379.828 368.493C379.416 363.352 377.361 351.014 366.058 345.668C352.084 339.087 341.191 333.741 338.52 333.741C335.848 333.741 328.861 349.369 324.956 353.893C323.312 355.949 323.723 356.772 321.462 359.856C320.229 361.501 318.174 361.707 316.736 360.679C316.325 360.473 316.119 360.062 315.914 359.651C314.68 358.006 313.653 355.949 312.625 354.099C310.981 350.808 298.24 331.89 298.24 331.89C298.24 331.89 268.235 339.293 263.508 342.583Z" fill="#1C1917"/>
<path d="M329.272 263.62C329.272 263.62 301.939 273.901 300.089 275.341C298.24 276.78 294.54 282.332 294.54 282.332C294.54 282.332 292.691 281.304 292.28 284.183C292.28 284.183 289.403 278.425 289.197 275.135C288.786 271.845 289.197 263.62 294.335 258.068C299.473 252.515 310.159 245.318 316.53 246.346C322.901 247.375 325.778 247.992 329.888 252.104C333.999 256.217 337.492 257.451 338.725 258.068C339.958 258.684 344.685 261.975 345.507 268.349C346.329 274.724 344.069 287.473 344.069 287.473C344.069 287.473 344.685 282.538 342.63 283.977C341.191 285.006 339.136 280.482 338.725 277.808C337.903 275.341 330.916 264.237 329.272 263.62Z" fill="#1C1917"/>
<path d="M289.814 439.231L335.848 444.989C336.876 445.194 337.492 446.223 337.287 447.251L336.054 488.994C336.054 490.228 335.232 492.079 333.998 491.668L288.169 482.825C287.347 482.62 286.731 481.797 286.731 480.769L286.525 476.245L291.663 475.011C292.896 474.6 294.129 473.983 295.157 473.161C295.362 472.955 295.568 472.749 295.773 472.544L296.801 470.899C297.212 470.487 297.212 469.87 297.212 469.254C297.006 468.225 296.801 466.992 296.595 466.375C296.595 466.169 296.39 465.758 296.39 465.758L295.157 463.29C294.54 462.056 293.718 461.234 292.691 460.823L292.074 460.411L287.142 457.738L287.553 441.493C287.553 440.259 288.581 439.437 289.608 439.437C289.608 439.231 289.814 439.231 289.814 439.231Z" fill="white"/>
<path d="M695.904 609.29C695.904 609.29 709.468 658.231 707.207 663.783C704.946 669.335 694.054 670.363 689.122 671.392C684.19 672.42 639.799 683.935 635.278 684.346C630.757 684.552 631.168 685.169 629.113 685.169C627.058 685.169 602.396 676.944 601.574 674.065C600.752 671.186 599.93 669.13 600.752 665.634C601.574 662.138 612.672 615.253 615.754 614.225C618.837 613.197 695.904 609.29 695.904 609.29Z" fill="#292524"/>
<path d="M698.164 618.132C698.164 618.132 697.137 610.524 695.904 609.29C694.465 608.262 690.766 603.121 687.067 602.915C683.367 602.71 624.18 610.113 621.92 610.524C619.659 610.935 616.782 612.169 615.754 614.02C614.727 615.87 624.386 618.132 626.235 623.89C628.085 629.648 661.789 641.986 670.215 642.808C678.641 643.837 698.164 618.132 698.164 618.132Z" fill="#44403C"/>
<path d="M678.846 604.972C678.846 604.972 672.476 591.194 669.393 588.727C666.721 586.465 657.062 581.53 651.102 588.932C644.526 597.363 645.143 607.028 645.143 608.262C645.143 609.496 651.719 608.468 651.719 608.468C651.719 608.468 649.664 598.597 651.513 595.101C653.158 592.017 654.185 588.11 660.35 588.521C666.516 588.932 668.776 592.222 670.42 595.513C672.065 598.597 673.298 601.887 674.325 605.383C674.531 605.383 678.846 604.972 678.846 604.972Z" fill="#44403C"/>
<path d="M668.571 605.794C668.571 605.794 662.2 588.932 659.117 585.848C656.446 582.969 646.17 577.417 640.21 586.465C633.634 596.746 634.867 608.056 634.867 609.496C634.867 610.935 641.443 609.701 641.443 609.701C641.443 609.701 639.388 597.569 641.238 593.251C642.882 589.344 643.909 584.82 649.869 585.231C655.829 585.642 658.295 589.755 659.939 593.662C661.583 597.569 662.817 601.476 663.844 605.794C664.255 606.411 668.571 605.794 668.571 605.794Z" fill="#44403C"/>
<path d="M628.907 627.386C628.907 627.386 634.456 674.476 633.839 677.561C633.223 680.645 631.168 685.169 629.935 685.169C628.702 685.169 626.441 684.963 627.263 683.73C630.14 679.617 631.373 674.682 630.551 669.952C629.729 662.344 626.441 623.684 626.441 623.684L628.907 627.386Z" fill="#44403C"/>
<path d="M671.653 646.51C673.583 646.51 675.147 644.945 675.147 643.014C675.147 641.083 673.583 639.518 671.653 639.518C669.724 639.518 668.16 641.083 668.16 643.014C668.16 644.945 669.724 646.51 671.653 646.51Z" fill="white"/>
</g>
<defs>
<linearGradient id="paint0_linear_91151_5819" x1="231.834" y1="371.573" x2="392.939" y2="371.573" gradientUnits="userSpaceOnUse">
<stop stop-color="#F87B58"/>
<stop offset="0.41" stop-color="#F89453"/>
<stop offset="0.71" stop-color="#F8C548"/>
<stop offset="1" stop-color="#F89C51"/>
</linearGradient>
<clipPath id="clip0_91151_5819">
<rect width="1001" height="657" fill="white" transform="translate(11 168)"/>
</clipPath>
</defs>
</svg>
