<svg width="1024" height="1500" viewBox="0 0 1024 1500" fill="none" xmlns="http://www.w3.org/2000/svg">
<path d="M530.927 217.99L904.246 268.972C918.571 270.924 928.555 283.941 926.601 298.259L871.472 701.773C869.518 716.091 856.496 726.07 842.171 724.118L468.852 673.136C454.527 671.184 444.543 658.167 446.496 643.849L501.626 240.335C503.579 226.234 516.602 216.038 530.927 217.99Z" fill="#F5F5F4"/>
<path d="M354.035 1320.06C342.965 1322.23 304.331 1310.3 297.82 1304.22C295.649 1302.27 293.913 1296.63 292.176 1294.24C290.657 1286.65 286.967 1290.56 283.278 1289.9C272.208 1287.52 242.256 1279.71 228.148 1287.3C225.543 1293.16 225.326 1298.8 223.59 1302.05C219.9 1316.81 217.513 1331.99 215.993 1347.18C214.908 1356.51 221.637 1364.75 230.752 1365.83C230.752 1365.83 230.752 1365.83 230.97 1365.83H231.187C234.225 1366.05 237.481 1365.83 240.737 1365.4C264.612 1359.54 313.013 1358.02 331.679 1350.65C362.933 1342.4 380.731 1325.92 354.035 1320.06Z" fill="#1C1917"/>
<path d="M725.4 1337.63C714.548 1340.45 675.045 1330.91 668.317 1325.27C665.929 1323.53 663.976 1318.11 662.023 1315.72C660.069 1308.34 656.596 1312.25 652.907 1311.82C641.62 1310.08 611.234 1304.01 597.56 1312.47C595.172 1318.32 595.607 1324.18 594.087 1327.44C591.483 1342.4 589.746 1357.81 589.312 1372.99C588.878 1382.32 596.041 1390.13 605.374 1390.78C605.374 1390.78 605.374 1390.78 605.591 1390.78H605.808C608.846 1391 612.102 1390.57 615.141 1389.92C638.582 1382.54 686.766 1378.2 704.998 1369.52C735.601 1359.33 752.531 1341.75 725.4 1337.63Z" fill="#1C1917"/>
<path d="M226.846 1287.74C245.729 1290.34 291.091 1290.99 291.091 1290.99C291.091 1290.99 293.913 1268.86 307.804 1226.34C321.912 1183.17 392.886 1047.8 392.886 1047.8C407.428 1025.67 422.621 979.893 422.621 979.893L443.892 804.603C443.892 804.603 556.104 979.676 554.585 1019.38C553.066 1059.08 580.847 1214.41 580.847 1214.41C583.669 1237.62 597.56 1314.42 597.56 1314.42C618.396 1311.82 639.45 1311.38 660.503 1312.68C657.682 1280.79 646.178 1149.98 646.178 1149.98C646.178 1149.98 639.016 1048.45 637.496 986.618C635.977 924.79 591.917 794.407 562.182 734.748C558.275 724.552 555.019 714.355 552.414 703.725L290.006 736.917C295.866 753.622 300.641 770.543 304.114 787.899C319.524 865.347 330.377 995.513 330.377 995.513C289.355 1041.94 263.526 1129.37 263.526 1129.37C246.814 1181.87 226.846 1287.74 226.846 1287.74Z" fill="#78716C"/>
<path d="M518.555 213.434C478.184 205.841 436.729 220.159 436.729 220.159L429.783 222.329L386.808 277.432L426.527 266.802C437.163 263.114 457.999 257.474 467.549 258.124C474.712 257.691 491.641 261.162 499.672 254.653C505.749 251.833 506.834 246.843 519.206 234.695C528.105 224.932 525.5 222.112 528.973 220.81C533.531 218.858 529.624 214.302 518.555 213.434Z" fill="url(#paint0_linear_91155_7198)"/>
<path d="M661.154 702.857C660.72 700.688 652.906 701.99 651.604 700.037C643.139 688.105 633.155 672.919 611.885 665.76C605.807 663.808 599.513 662.506 593.219 661.855L578.894 686.803C580.63 691.142 583.017 695.264 585.622 698.952C594.304 710.667 612.536 726.504 645.961 722.165C653.774 721.297 662.239 710.884 661.154 702.857Z" fill="url(#paint1_linear_91155_7198)"/>
<path d="M362.716 148.134C357.941 148.134 257.232 225.8 256.364 234.478C256.147 239.033 255.93 258.775 252.457 271.792C249.201 283.941 239.434 301.296 239.434 301.296C239.434 301.296 248.116 317.567 270.689 320.821C292.393 323.858 321.477 316.699 321.477 316.699C321.477 316.699 314.749 273.744 322.997 268.972C330.159 264.85 332.33 269.189 357.073 248.362C381.816 227.535 373.785 175.035 373.134 171.564C372.483 168.093 367.491 148.134 362.716 148.134Z" fill="url(#paint2_linear_91155_7198)"/>
<path d="M477.751 511.514C444.977 481.792 424.14 389.158 413.722 365.945C403.304 342.732 386.591 336.224 380.08 333.621C376.824 332.319 358.81 327.329 345.353 323.424L443.023 262.029C456.263 237.081 430.218 222.112 430.218 222.112L319.09 277.215V314.747L283.061 308.889L240.085 300.428C226.846 297.391 213.389 295.222 199.932 294.137C194.289 293.703 188.646 294.354 183.219 296.306L180.398 297.391C173.669 299.777 168.026 304.55 164.771 311.058C157.825 326.244 153.05 342.515 150.88 359.003C146.756 385.687 167.375 446.214 188.429 490.253C197.544 508.91 233.14 604.799 242.039 628.88C285.448 729.541 288.487 737.351 288.487 737.351C421.753 736.049 551.546 706.328 551.546 706.328C557.624 695.264 535.702 663.157 535.702 663.157L576.072 696.566C593.653 702.206 608.195 662.94 608.195 662.94C608.195 662.94 505.315 536.462 477.751 511.514Z" fill="#292524"/>
<path d="M237.481 152.69C239.651 148.785 244.426 139.891 247.248 136.636C252.023 131.647 257.232 126.874 262.658 122.318C267.65 119.281 280.022 112.99 284.797 110.386C301.726 105.18 324.299 110.386 340.794 111.254C355.771 110.169 366.84 128.827 372.7 141.192C378.56 153.558 367.274 152.039 368.359 161.585C368.576 163.32 363.584 165.924 359.243 168.31C354.902 170.696 342.531 190.438 338.19 199.767C333.632 176.988 318.439 217.556 321.26 222.546C315.183 226.451 307.803 242.938 296.951 248.145C289.355 244.891 275.247 232.308 256.364 235.779C255.061 232.308 236.395 218.424 234.442 194.994C232.923 188.052 231.403 163.103 237.481 152.69Z" fill="#1C1917"/>
<path opacity="0.07" d="M294.998 255.087C294.998 255.087 311.928 270.273 322.129 269.839L319.524 282.639L320.175 301.079C320.175 301.079 313.664 290.666 305.416 280.036C300.207 272.66 296.517 264.199 294.998 255.087Z" fill="black"/>
<path opacity="0.07" d="M356.422 441.441C356.422 441.441 377.692 505.439 443.24 572.041C508.788 638.642 524.632 652.527 524.632 652.527C524.632 652.527 538.089 669.448 533.748 680.729C529.407 692.01 500.757 654.262 436.512 624.975C399.831 608.27 387.242 579.417 370.313 539.065C349.042 488.084 344.267 477.237 341.446 459.014C334.283 411.286 356.422 441.441 356.422 441.441Z" fill="black"/>
<path opacity="0.07" d="M443.674 804.387C443.674 804.387 412.637 871.422 403.738 904.18C394.622 938.023 394.622 987.269 367.274 1011.13C336.237 1038.25 299.773 1129.37 291.308 1148.67C279.371 1176.23 254.844 1328.09 262.007 1338.72C268.952 1349.13 296.951 1333.51 296.951 1333.51C296.951 1333.51 286.75 1294.89 295.432 1259.97C304.114 1225.04 344.918 1131.75 370.53 1085.54C393.754 1044.11 417.412 996.164 422.621 968.395C427.83 940.627 443.674 804.387 443.674 804.387Z" fill="black"/>
<defs>
<linearGradient id="paint0_linear_91155_7198" x1="386.808" y1="244.323" x2="531.043" y2="244.323" gradientUnits="userSpaceOnUse">
<stop stop-color="#F87B58"/>
<stop offset="0.41" stop-color="#F89453"/>
<stop offset="0.94" stop-color="#F8C548"/>
</linearGradient>
<linearGradient id="paint1_linear_91155_7198" x1="578.894" y1="692.377" x2="661.364" y2="692.377" gradientUnits="userSpaceOnUse">
<stop stop-color="#F87B58"/>
<stop offset="0.41" stop-color="#F89453"/>
<stop offset="0.94" stop-color="#F8C548"/>
</linearGradient>
<linearGradient id="paint2_linear_91155_7198" x1="239.434" y1="234.853" x2="375.08" y2="234.853" gradientUnits="userSpaceOnUse">
<stop stop-color="#F87B58"/>
<stop offset="0.41" stop-color="#F89453"/>
<stop offset="0.94" stop-color="#F8C548"/>
</linearGradient>
</defs>
</svg>
