<svg width="1024" height="1024" viewBox="0 0 1024 1024" fill="none" xmlns="http://www.w3.org/2000/svg">
<rect width="1024" height="1024" fill="white"/>
<g clip-path="url(#clip0_91126_4903)">
<path d="M460.397 742.674C460.397 742.674 493.431 562.711 319.23 466.373C145.03 370.036 136.842 371.166 102.397 360.147C82.6339 353.367 62.3058 367.493 85.1749 396.31C108.044 425.126 95.0566 432.471 140.795 445.185C186.533 457.898 193.591 513.836 216.46 527.679C239.33 541.523 259.375 545.195 329.394 575.424C392.919 602.828 447.128 680.238 447.128 707.642C447.128 735.046 509.241 744.086 509.241 744.086L460.397 742.674Z" fill="url(#paint0_linear_91126_4903)"/>
<path d="M454.186 717.53C454.186 717.53 498.513 551.976 346.052 462.419C193.591 372.861 140.23 373.991 110.02 363.256C92.7979 357.04 140.23 378.512 159.994 405.068C179.757 431.624 174.957 425.692 210.814 445.468C252.317 468.351 269.539 490.67 293.82 495.19C329.112 501.971 318.665 538.698 379.932 566.384C435.27 591.528 442.328 658.767 442.328 684.193C442.328 709.62 496.536 718.095 496.536 718.095L454.186 717.53Z" fill="url(#paint1_linear_91126_4903)"/>
<path d="M607.776 693.234L624.998 676.848C633.186 669.22 643.35 663.57 654.361 660.744C708.287 646.619 877.688 593.506 947.989 465.244C948.554 464.114 947.989 462.701 946.86 462.136H946.578C946.295 462.136 946.013 461.853 945.73 461.853C922.297 460.158 801.74 458.181 640.527 595.766C637.704 598.026 634.88 600.851 632.622 603.676C628.669 609.327 621.893 618.932 618.787 624.017C614.552 631.363 623.022 643.793 611.729 654.812C600.435 665.83 576.155 693.234 576.155 693.234L595.918 707.925L607.776 693.234Z" fill="url(#paint2_linear_91126_4903)"/>
<path d="M516.017 682.498C516.017 682.498 562.32 268.33 436.117 138.09C319.795 18.3038 318.101 128.485 318.383 147.131C318.383 148.826 318.948 150.239 319.512 151.651C346.899 202.786 356.498 261.832 346.617 318.9C334.759 378.794 420.306 370.883 427.647 429.929C434.987 488.975 464.915 579.945 461.809 621.757C458.703 663.569 458.421 704.252 458.421 704.252L505.006 705.664L516.017 682.498Z" fill="url(#paint3_linear_91126_4903)"/>
<path d="M515.453 683.911C515.735 683.063 516.017 681.933 516.3 681.086C519.123 653.964 558.085 263.81 436.117 138.091C320.642 18.869 318.948 126.79 319.513 146.284C319.795 148.544 320.924 150.804 322.054 152.781C330.524 165.212 368.639 219.455 402.519 213.24C495.972 196.571 413.53 309.013 464.35 369.188C505.006 416.651 491.454 580.51 488.349 622.605C486.372 646.336 482.42 669.503 476.491 692.669C475.361 698.602 479.314 704.252 484.961 705.382C485.243 705.382 485.525 705.382 485.808 705.382C486.655 705.382 487.219 705.664 488.066 705.664H496.536C501.618 705.947 506.136 703.404 508.394 698.884L515.453 683.911Z" fill="url(#paint4_linear_91126_4903)"/>
<path d="M560.909 707.925C560.909 707.925 569.096 593.224 636.01 523.16C654.644 503.949 678.36 490.67 704.334 484.738C724.38 480.217 757.131 464.114 785.647 410.436C785.647 410.436 839.573 334.157 893.499 310.99C947.424 287.824 893.499 284.999 893.499 284.999C893.499 284.999 739.344 314.381 640.527 404.786C634.316 410.436 627.822 415.804 620.763 420.324C595.071 437.84 524.205 503.949 527.311 696.907L560.909 707.925Z" fill="url(#paint5_linear_91126_4903)"/>
<path d="M694.735 698.601C694.735 698.601 696.994 684.758 678.642 685.041C662.549 685.606 390.378 683.628 390.378 683.628C390.378 683.628 377.673 683.628 378.52 693.233C379.367 702.839 420.588 929.699 424.541 934.502C426.235 937.327 429.058 939.587 432.446 940.435C437.528 941.847 628.669 940.717 628.669 940.717C633.186 940.152 636.574 936.479 636.857 931.959C636.574 932.242 695.3 701.426 694.735 698.601Z" fill="url(#paint6_linear_91126_4903)"/>
</g>
<defs>
<linearGradient id="paint0_linear_91126_4903" x1="75.0489" y1="551.014" x2="509.185" y2="551.014" gradientUnits="userSpaceOnUse">
<stop stop-color="#86EFAC"/>
<stop offset="0.51" stop-color="#22C55E"/>
<stop offset="1" stop-color="#86EFAC"/>
</linearGradient>
<linearGradient id="paint1_linear_91126_4903" x1="237.707" y1="414.096" x2="484.601" y2="716.6" gradientUnits="userSpaceOnUse">
<stop stop-color="#86EFAC"/>
<stop offset="0.51" stop-color="#22C55E"/>
<stop offset="1" stop-color="#86EFAC"/>
</linearGradient>
<linearGradient id="paint2_linear_91126_4903" x1="521.902" y1="756.42" x2="861.234" y2="494.033" gradientUnits="userSpaceOnUse">
<stop stop-color="#86EFAC"/>
<stop offset="0.51" stop-color="#22C55E"/>
<stop offset="1" stop-color="#86EFAC"/>
</linearGradient>
<linearGradient id="paint3_linear_91126_4903" x1="607.137" y1="622.902" x2="315.594" y2="254.061" gradientUnits="userSpaceOnUse">
<stop stop-color="#86EFAC"/>
<stop offset="0.51" stop-color="#22C55E"/>
<stop offset="1" stop-color="#86EFAC"/>
</linearGradient>
<linearGradient id="paint4_linear_91126_4903" x1="319.479" y1="394.25" x2="524.45" y2="394.25" gradientUnits="userSpaceOnUse">
<stop stop-color="#86EFAC"/>
<stop offset="0.51" stop-color="#22C55E"/>
<stop offset="1" stop-color="#86EFAC"/>
</linearGradient>
<linearGradient id="paint5_linear_91126_4903" x1="506.747" y1="729.279" x2="728.968" y2="408.107" gradientUnits="userSpaceOnUse">
<stop stop-color="#86EFAC"/>
<stop offset="0.51" stop-color="#22C55E"/>
<stop offset="1" stop-color="#86EFAC"/>
</linearGradient>
<linearGradient id="paint6_linear_91126_4903" x1="378.854" y1="812.367" x2="694.968" y2="812.367" gradientUnits="userSpaceOnUse">
<stop stop-color="#57534E"/>
<stop offset="1" stop-color="#1C1917"/>
</linearGradient>
<clipPath id="clip0_91126_4903">
<rect width="873" height="858" fill="white" transform="translate(75 83)"/>
</clipPath>
</defs>
</svg>
