<svg width="1024" height="1524" viewBox="0 0 1024 1524" fill="none" xmlns="http://www.w3.org/2000/svg">
<g clip-path="url(#clip0_91156_7335)">
<path d="M442.844 1337.93L408.386 1345.75C408.386 1345.75 400.033 1372.87 396.117 1387.47C395.856 1388.25 395.073 1390.85 394.551 1392.42C394.029 1395.03 393.768 1397.37 393.768 1399.98C394.551 1413.01 399.511 1424.23 410.997 1429.96C423.788 1436.48 433.708 1442.47 447.282 1429.96C460.857 1417.45 463.206 1409.63 457.463 1387.99C451.72 1366.35 442.844 1338.19 442.844 1337.93Z" fill="#292524"/>
<path d="M642.807 1383.03C619.574 1375.73 609.654 1347.05 609.654 1347.05L562.926 1344.71C562.926 1344.71 561.882 1373.91 560.577 1389.81C559.011 1410.93 562.926 1420.31 577.023 1419.01C595.818 1417.45 672.566 1424.23 684.574 1416.66C700.759 1407.02 664.735 1389.81 642.807 1383.03Z" fill="#292524"/>
<path d="M370.796 679.898C370.796 679.898 353.306 703.883 347.824 768.539C342.342 833.195 354.611 955.99 360.354 979.714C366.097 1003.44 389.069 1225.3 394.812 1241.47C400.555 1257.63 408.387 1346.01 408.387 1346.01L445.455 1347.05C445.455 1347.05 456.419 1231.82 456.419 1201.32C456.419 1170.81 471.821 882.209 470.777 861.091C469.733 839.974 474.693 846.752 474.693 846.752C474.693 846.752 507.062 949.993 516.721 967.2C526.38 984.407 543.609 1018.04 543.609 1018.04C543.609 1018.04 547.525 1126.23 552.224 1188.8C556.922 1251.37 561.882 1349.92 561.882 1349.92L611.742 1348.88C611.742 1348.88 623.229 1184.11 623.229 1149.44C623.229 1114.76 633.67 1031.6 633.67 1021.95C633.67 1012.3 601.301 843.884 601.301 843.884L578.589 679.637L370.796 679.898Z" fill="#57534E"/>
<path d="M429.531 136.056C412.563 142.313 390.896 226.523 390.896 226.523L390.635 226.262L381.237 235.648L385.153 253.376L401.599 531.032L486.7 512.782L561.099 434.048L607.565 455.948C607.565 455.948 611.22 556.843 611.742 562.317C612.264 567.792 620.096 720.308 620.096 730.215C620.357 740.904 665.779 788.875 673.349 783.66C695.799 768.018 658.47 739.079 649.594 732.04C644.373 727.868 633.148 586.042 632.365 569.357C631.582 552.671 658.209 510.175 612.003 454.123C578.328 413.191 560.055 308.125 531.862 188.72C516.982 126.671 508.106 108.16 493.488 108.16C480.174 108.16 461.901 124.064 429.531 136.056Z" fill="url(#paint0_linear_91156_7335)"/>
<path d="M415.173 372.52C414.912 373.303 382.804 388.424 368.968 405.37C355.133 422.316 343.908 446.823 343.908 446.823C343.908 446.823 323.546 494.793 309.449 530.25C301.879 549.282 277.079 627.234 306.839 630.102C335.032 632.709 397.422 566.489 407.081 553.975L417.784 529.989C418.567 526.861 401.077 494.533 401.599 491.665C402.121 486.972 442.844 463.248 449.11 477.326C451.198 482.019 456.68 495.576 458.246 499.747C462.162 509.915 402.904 529.729 402.904 538.853C402.904 550.064 397.944 591.517 389.852 611.852C381.759 632.188 369.49 680.419 369.49 680.419L577.806 680.94C577.806 680.94 570.758 588.388 573.629 557.625C573.629 557.625 582.505 456.73 587.726 446.823C592.947 436.916 601.822 571.442 600.517 599.078C599.473 618.37 616.963 734.125 621.923 738.297C630.015 744.554 649.072 732.04 649.072 732.04C649.072 732.04 648.289 605.074 647.506 583.956C646.722 562.839 648.028 392.074 620.096 361.31C592.164 330.546 584.593 331.328 561.36 339.41C538.127 347.492 526.641 355.314 495.054 360.528C475.736 363.917 455.636 361.31 437.623 353.489C442.583 335.5 432.141 366.003 433.447 357.66" fill="#A8A29E"/>
<path d="M445.977 88.3464C445.977 88.3464 404.47 89.9106 392.723 130.321C380.976 170.731 379.149 227.566 378.888 236.43C378.365 245.815 383.325 309.429 378.104 327.157C373.406 342.799 360.092 371.738 352 391.813C348.867 399.634 346.518 407.977 344.951 416.32L343.907 423.098C345.996 430.137 353.566 434.309 360.875 431.962C361.397 431.702 361.919 431.702 362.181 431.441C366.357 429.616 370.273 427.53 374.189 425.184C386.719 417.623 402.643 397.549 415.173 391.292C428.487 384.774 443.627 354.531 445.716 352.185C447.804 349.839 447.021 342.278 447.282 334.978C448.587 297.175 441.539 262.501 432.663 244.251C423.788 226.001 403.426 190.284 417.523 169.688C431.619 149.092 461.117 132.667 462.423 127.714C463.728 122.76 464.511 147.528 480.174 156.392C495.837 165.256 517.765 188.98 517.765 194.195C517.765 199.409 522.986 216.355 508.106 245.815C493.226 275.276 481.479 312.818 502.102 340.975C522.725 369.131 574.673 408.238 578.328 417.102C581.982 425.966 578.328 465.333 577.023 487.494C575.717 509.654 619.051 449.691 617.485 420.752C615.919 391.813 621.139 379.299 591.641 335.239C562.143 291.179 542.825 215.052 542.042 196.541C541.259 178.031 532.383 126.931 514.632 112.071C499.491 99.5569 496.098 87.3035 464.511 87.3035C458.246 87.3035 451.981 87.825 445.977 88.3464Z" fill="#1C1917"/>
<g opacity="0.07">
<path d="M430.054 476.022C423.788 478.629 417.784 481.497 412.041 484.886L405.776 488.015C405.776 488.015 339.47 557.103 342.342 553.453C355.133 537.55 394.812 453.08 408.126 433.527C422.222 413.191 430.054 421.273 445.455 475.24" fill="white"/>
</g>
<g opacity="0.07">
<path d="M426.921 1345.49C427.182 1346.27 427.182 1347.05 427.182 1347.84C427.443 1353.57 427.182 1367.91 420.917 1377.04C413.085 1389.03 431.62 1415.36 431.62 1421.88C431.62 1428.4 423.005 1434.39 417.001 1432.57C410.997 1430.74 385.936 1416.66 395.856 1386.42C399.772 1374.17 402.121 1363.48 404.471 1356.7C405.776 1353.31 406.82 1349.92 407.864 1346.53C408.125 1344.97 408.125 1343.41 408.125 1341.84C407.864 1339.76 407.864 1337.41 407.603 1335.06C406.298 1323.33 356.699 957.554 354.872 943.476C353.305 930.962 345.996 853.531 346.779 808.167C346.257 804.256 346.257 800.346 346.518 796.696C346.518 795.653 347.04 791.221 346.779 789.396C347.04 785.225 347.301 781.053 347.823 776.882C347.04 773.493 347.562 773.493 347.823 768.018C348.084 762.543 347.823 759.414 348.345 756.025C353.305 725.261 364.53 690.326 370.012 680.419L371.579 674.944C371.579 674.944 384.109 628.538 388.286 619.934C391.94 612.113 402.382 571.182 401.338 562.578C400.816 557.885 417.523 539.636 417.523 539.636L420.917 536.768C422.483 536.507 424.31 536.768 425.877 537.289C429.531 538.854 443.628 526.6 445.977 534.421C462.684 587.867 469.471 610.549 439.973 642.355C410.475 674.162 437.624 702.58 438.146 725.001C439.451 780.271 412.563 774.275 410.997 808.689C409.431 843.102 417.001 867.87 417.523 885.859C418.828 945.04 418.045 956.772 414.913 979.975C411.78 1003.18 395.856 1047.24 413.607 1133.79C431.359 1220.35 428.748 1228.17 426.921 1277.18C425.093 1326.2 426.921 1345.49 426.921 1345.49Z" fill="black"/>
</g>
<path d="M399.511 451.255L400.033 450.994C402.121 449.951 414.391 443.694 423.005 440.305C432.664 436.394 444.411 469.244 447.283 475.762C447.544 476.283 447.544 476.283 445.455 476.544C438.407 477.326 431.359 478.629 424.572 480.454C414.652 482.801 403.427 490.622 402.905 490.883C402.382 491.144 399.511 484.886 393.768 470.287C392.463 466.897 389.591 458.033 392.202 455.948L399.511 451.255Z" fill="white"/>
<path opacity="0.07" d="M474.432 276.84C480.697 279.186 488.006 277.622 492.705 272.668C501.058 264.326 489.572 293.265 491.4 299.782C493.227 306.3 474.432 276.84 474.432 276.84Z" fill="black"/>
<path d="M417.784 527.643C417.784 527.643 457.202 501.833 457.724 502.875C458.769 505.222 462.162 514.607 462.162 514.607C462.162 514.607 465.295 520.604 464.251 522.429C463.206 524.254 425.877 540.157 425.877 540.157C424.31 539.896 423.005 539.114 422.483 537.811C420.656 534.682 419.089 531.293 417.784 527.643Z" fill="white"/>
</g>
<defs>
<linearGradient id="paint0_linear_91156_7335" x1="381.237" y1="446.108" x2="680.429" y2="446.108" gradientUnits="userSpaceOnUse">
<stop stop-color="#F87B58"/>
<stop offset="0.5" stop-color="#F8C548"/>
<stop offset="1" stop-color="#F89C51"/>
</linearGradient>
<clipPath id="clip0_91156_7335">
<rect width="437" height="1351" fill="white" transform="translate(293 86)"/>
</clipPath>
</defs>
</svg>
