<svg width="1024" height="1024" viewBox="0 0 1024 1024" fill="none" xmlns="http://www.w3.org/2000/svg">
<g clip-path="url(#clip0_91174_9145)">
<path d="M86.3659 281.539L61.4619 306.424L84.6964 329.642L109.6 304.756L86.3659 281.539Z" fill="#F5F5F4"/>
<path d="M113.76 311.169L88.8564 336.054L112.091 359.272L136.995 334.386L113.76 311.169Z" fill="#F5F5F4"/>
<path d="M119.669 252.18L94.7646 277.065L117.999 300.282L142.903 275.397L119.669 252.18Z" fill="#F5F5F4"/>
<path d="M906.838 676.741L881.934 701.627L905.168 724.844L930.072 699.958L906.838 676.741Z" fill="#F5F5F4"/>
<path d="M934.247 706.365L909.343 731.251L932.577 754.468L957.481 729.583L934.247 706.365Z" fill="#F5F5F4"/>
<path d="M904.728 735.859L879.824 760.744L903.059 783.962L927.963 759.076L904.728 735.859Z" fill="#F5F5F4"/>
<path d="M517.607 168.479H277.561V292.346H517.607V168.479Z" fill="#F5F5F4"/>
<path d="M224.436 632.488H133.927V833.034H224.436V632.488Z" fill="#F5F5F4"/>
<path d="M177.213 650.183C177.213 650.183 98.5097 522.384 94.5745 488.96C90.6393 455.535 86.7041 443.738 86.7041 443.738C86.7041 443.738 110.315 439.806 118.186 457.501C126.056 475.197 149.667 453.569 157.537 500.756C157.537 500.756 159.505 524.35 177.213 516.486C194.922 508.621 177.213 650.183 177.213 650.183Z" fill="#F5F5F4"/>
<path d="M187.052 669.844C187.052 669.844 130.778 565.639 112.283 524.35C98.5098 493.678 86.7043 443.738 86.7043 443.738C86.7043 443.738 62.8964 452.389 65.0608 471.264C67.0284 488.96 49.32 494.858 53.2552 516.486C57.5839 539.883 91.4265 544.208 70.9635 565.639C58.5677 578.616 67.8154 600.636 76.8663 614.792C82.5723 623.837 111.102 632.095 104.413 628.555C89.0654 620.691 187.052 669.844 187.052 669.844Z" fill="#F5F5F4"/>
<path d="M151.408 582.595C153.382 581.687 145.404 560.16 133.588 534.514C121.773 508.867 110.594 488.813 108.62 489.721C106.645 490.63 114.623 512.156 126.439 537.803C138.255 563.449 149.433 583.504 151.408 582.595Z" fill="#F5F5F4"/>
<path d="M203.973 733.744C203.973 733.744 84.1463 643.302 68.4055 613.613C52.6648 583.924 44.5977 574.29 44.5977 574.29C44.5977 574.29 65.2574 562.1 79.0305 575.666C92.8037 589.233 106.97 560.527 131.369 601.619C131.369 601.619 134.123 630.522 151.831 624.623C169.933 618.528 203.973 733.744 203.973 733.744Z" fill="#F5F5F4"/>
<path d="M220.304 748.49C220.304 748.49 129.991 671.811 97.7229 640.156C73.7183 616.562 44.5979 574.29 44.5979 574.29C44.5979 574.29 25.709 591.002 34.3664 607.714C42.6303 623.444 28.2668 635.437 39.8756 654.115C52.2715 674.367 85.5238 666.109 74.3085 693.438C67.4219 709.954 84.1465 727.256 97.7229 737.086C106.38 743.378 135.894 740.625 128.417 739.839C111.103 738.266 220.304 748.49 220.304 748.49Z" fill="#E7E5E4"/>
<path d="M143.399 703.953C144.907 702.389 129.644 685.234 109.307 665.635C88.9704 646.036 71.261 631.415 69.7523 632.978C68.2436 634.541 83.5068 651.697 103.844 671.296C124.18 690.895 141.89 705.516 143.399 703.953Z" fill="#F5F5F4"/>
<path d="M828.487 493.088C828.487 493.088 921.947 341.106 928.047 300.604C934.146 260.101 939.065 245.945 939.065 245.945C939.065 245.945 913.093 240.046 903.452 261.281C893.811 282.515 868.822 255.186 857.804 312.204C857.804 312.204 854.459 340.909 835.177 330.489C815.894 320.068 828.487 493.088 828.487 493.088Z" fill="#F5F5F4"/>
<path d="M816.682 516.486C816.682 516.486 884.17 392.226 906.797 342.875C923.522 306.305 939.066 245.945 939.066 245.945C939.066 245.945 965.038 257.545 961.693 280.352C958.545 301.783 978.024 309.844 972.515 335.994C966.612 364.306 928.834 368.042 950.478 394.978C963.464 411.297 952.249 437.84 941.427 454.552C934.541 465.169 902.665 474.017 910.142 470.085C927.457 461.237 816.682 516.486 816.682 516.486Z" fill="#F5F5F4"/>
<path d="M882.596 354.279C868.233 384.951 858.395 410.707 860.559 411.887C862.724 413.067 876.103 389.276 890.467 358.605C904.83 327.933 914.668 302.176 912.504 300.8C910.339 299.424 896.96 323.607 882.596 354.279Z" fill="#F5F5F4"/>
<path d="M794.645 593.558C794.645 593.558 931.983 488.96 950.871 453.373C969.76 417.785 979.205 406.578 979.205 406.578C979.205 406.578 956.971 390.849 941.033 406.775C925.096 422.701 910.929 387.114 881.612 436.07C881.612 436.07 877.283 471.068 857.804 463.007C837.932 454.945 794.645 593.558 794.645 593.558Z" fill="#E7E5E4"/>
<path d="M775.952 610.86C775.952 610.86 879.841 521.598 917.225 484.438C944.968 456.912 979.401 406.775 979.401 406.775C979.401 406.775 999.471 428.009 989.042 448.064C979.008 466.939 994.355 482.078 980.779 504.296C966.022 528.282 929.621 516.879 940.836 550.696C947.526 571.144 928.244 591.395 912.7 602.799C902.862 610.074 870.2 605.355 878.66 604.765C897.353 603.192 775.952 610.86 775.952 610.86Z" fill="#F5F5F4"/>
<path d="M913.88 507.048C891.45 531.035 874.528 551.876 876.102 553.842C877.677 555.808 897.353 537.916 919.783 513.93C942.214 489.943 959.135 469.102 957.561 467.136C955.987 465.169 936.311 483.061 913.88 507.048Z" fill="white"/>
<path d="M391.681 632.488H240.177V833.034H391.681V632.488Z" fill="#F5F5F4"/>
<path d="M722.237 634.454H570.732V835H722.237V634.454Z" fill="#F5F5F4"/>
<path d="M629.761 168.479H531.381V294.312H629.761V168.479Z" fill="#F5F5F4"/>
<path d="M858.001 272.684H171.311V777.982H858.001V272.684Z" fill="#F5F5F4"/>
<path d="M858.001 272.684H189.02V777.982H858.001V272.684Z" fill="#E7E5E4"/>
<path d="M850.13 280.549H194.922V315.939H850.13V280.549Z" fill="white"/>
<path d="M850.13 313.973H194.922V770.117H850.13V313.973Z" fill="#F5F5F4"/>
<path d="M383.811 331.668H303.14V422.111H383.811V331.668Z" fill="#F5F5F4"/>
<path d="M474.32 331.668H393.648V422.111H474.32V331.668Z" fill="#F5F5F4"/>
<path d="M562.862 331.668H482.19V422.111H562.862V331.668Z" fill="#F5F5F4"/>
<path d="M653.372 331.668H572.7V422.111H653.372V331.668Z" fill="white"/>
<path d="M741.913 331.668H661.241V422.111H741.913V331.668Z" fill="white"/>
<path d="M832.422 331.668H751.751V422.111H832.422V331.668Z" fill="white"/>
<path d="M383.811 435.874H303.14V526.316H383.811V435.874Z" fill="white"/>
<path d="M474.32 435.874H393.648V526.316H474.32V435.874Z" fill="white"/>
<path d="M562.862 435.874H482.19V526.316H562.862V435.874Z" fill="#E7E5E4"/>
<path d="M653.372 435.874H572.7V526.316H653.372V435.874Z" fill="white"/>
<path d="M741.913 435.874H661.241V526.316H741.913V435.874Z" fill="white"/>
<path d="M832.422 435.874H751.751V526.316H832.422V435.874Z" fill="white"/>
<path d="M383.811 536.147H303.14V626.589H383.811V536.147Z" fill="white"/>
<path d="M474.32 536.147H393.648V626.589H474.32V536.147Z" fill="white"/>
<path d="M562.862 536.147H482.19V626.589H562.862V536.147Z" fill="#E7E5E4"/>
<path d="M653.372 536.147H572.7V626.589H653.372V536.147Z" fill="white"/>
<path d="M741.913 536.147H661.241V626.589H741.913V536.147Z" fill="#E7E5E4"/>
<path d="M832.422 536.147H751.751V626.589H832.422V536.147Z" fill="white"/>
<path d="M385.779 638.386H305.107V728.828H385.779V638.386Z" fill="#E7E5E4"/>
<path d="M476.288 638.386H395.616V728.828H476.288V638.386Z" fill="#E7E5E4"/>
<path d="M564.83 638.386H484.158V728.828H564.83V638.386Z" fill="white"/>
<path d="M655.339 638.386H574.668V728.828H655.339V638.386Z" fill="white"/>
<path d="M743.88 638.386H663.209V728.828H743.88V638.386Z" fill="#F5F5F4"/>
<path d="M834.39 638.386H753.719V728.828H834.39V638.386Z" fill="white"/>
<path d="M213.614 306.109C217.417 306.109 220.501 303.028 220.501 299.227C220.501 295.427 217.417 292.346 213.614 292.346C209.811 292.346 206.728 295.427 206.728 299.227C206.728 303.028 209.811 306.109 213.614 306.109Z" fill="#F5F5F4"/>
<path d="M235.258 306.109C239.061 306.109 242.144 303.028 242.144 299.227C242.144 295.427 239.061 292.346 235.258 292.346C231.454 292.346 228.371 295.427 228.371 299.227C228.371 303.028 231.454 306.109 235.258 306.109Z" fill="#F5F5F4"/>
<path d="M256.901 306.109C260.705 306.109 263.788 303.028 263.788 299.227C263.788 295.427 260.705 292.346 256.901 292.346C253.098 292.346 250.015 295.427 250.015 299.227C250.015 303.028 253.098 306.109 256.901 306.109Z" fill="#F5F5F4"/>
<path d="M223.452 433.908H278.544C283.463 433.908 287.399 437.84 287.399 442.755C287.399 447.671 283.463 451.603 278.544 451.603H223.452C218.533 451.603 214.598 447.671 214.598 442.755C214.598 438.037 218.533 433.908 223.452 433.908Z" fill="white"/>
<path d="M223.452 536.147H278.544C283.463 536.147 287.399 540.079 287.399 544.994C287.399 549.91 283.463 553.842 278.544 553.842H223.452C218.533 553.842 214.598 549.91 214.598 544.994C214.598 540.276 218.533 536.147 223.452 536.147Z" fill="white"/>
<path d="M223.452 638.386H278.544C283.463 638.386 287.399 642.318 287.399 647.234C287.399 652.149 283.463 656.081 278.544 656.081H223.452C218.533 656.081 214.598 652.149 214.598 647.234C214.598 642.515 218.533 638.386 223.452 638.386Z" fill="white"/>
<path d="M317.896 441.772H349.378C353.116 441.772 356.264 444.918 356.264 448.654C356.264 452.389 353.116 455.535 349.378 455.535H317.896C314.158 455.535 311.01 452.389 311.01 448.654C311.01 444.918 314.158 441.772 317.896 441.772Z" fill="#F5F5F4"/>
<path d="M315.929 467.332H329.702C332.457 467.332 334.621 469.495 334.621 472.247C334.621 475 332.457 477.163 329.702 477.163H315.929C313.174 477.163 311.01 475 311.01 472.247C311.01 469.691 313.174 467.332 315.929 467.332Z" fill="#F5F5F4"/>
<path d="M409.39 441.772H440.872C444.216 441.772 446.774 444.328 446.774 447.671C446.774 451.013 444.216 453.569 440.872 453.569H409.39C406.045 453.569 403.487 451.013 403.487 447.671C403.487 444.525 406.045 441.772 409.39 441.772Z" fill="#F5F5F4"/>
<path d="M676.982 652.149H708.463C711.808 652.149 714.366 654.705 714.366 658.047C714.366 661.39 711.808 663.946 708.463 663.946H676.982C673.637 663.946 671.079 661.39 671.079 658.047C671.079 654.902 673.637 652.149 676.982 652.149Z" fill="white"/>
<path d="M765.524 545.978H797.005C800.35 545.978 802.908 548.534 802.908 551.876C802.908 555.218 800.35 557.774 797.005 557.774H765.524C762.179 557.774 759.621 555.218 759.621 551.876C759.621 548.73 762.179 545.978 765.524 545.978Z" fill="#F5F5F4"/>
<path d="M763.556 443.738H795.038C798.383 443.738 800.94 446.294 800.94 449.637C800.94 452.979 798.383 455.535 795.038 455.535H763.556C760.211 455.535 757.653 452.979 757.653 449.637C757.653 446.491 760.211 443.738 763.556 443.738Z" fill="#F5F5F4"/>
<path d="M675.015 443.738H706.497C709.841 443.738 712.399 446.294 712.399 449.637C712.399 452.979 709.841 455.535 706.497 455.535H675.015C671.67 455.535 669.112 452.979 669.112 449.637C669.112 446.491 671.67 443.738 675.015 443.738Z" fill="#F5F5F4"/>
<path d="M411.358 477.163C415.704 477.163 419.228 473.642 419.228 469.298C419.228 464.955 415.704 461.434 411.358 461.434C407.011 461.434 403.487 464.955 403.487 469.298C403.487 473.642 407.011 477.163 411.358 477.163Z" fill="#F5F5F4"/>
<path d="M590.408 463.4C594.755 463.4 598.279 459.879 598.279 455.535C598.279 451.192 594.755 447.671 590.408 447.671C586.062 447.671 582.538 451.192 582.538 455.535C582.538 459.879 586.062 463.4 590.408 463.4Z" fill="#F5F5F4"/>
<path d="M617.954 463.4C622.301 463.4 625.825 459.879 625.825 455.535C625.825 451.192 622.301 447.671 617.954 447.671C613.608 447.671 610.084 451.192 610.084 455.535C610.084 459.879 613.608 463.4 617.954 463.4Z" fill="#F5F5F4"/>
<path d="M617.954 561.707C622.301 561.707 625.825 558.186 625.825 553.842C625.825 549.499 622.301 545.978 617.954 545.978C613.608 545.978 610.084 549.499 610.084 553.842C610.084 558.186 613.608 561.707 617.954 561.707Z" fill="#F5F5F4"/>
<path d="M590.408 561.707C594.755 561.707 598.279 558.186 598.279 553.842C598.279 549.499 594.755 545.978 590.408 545.978C586.062 545.978 582.538 549.499 582.538 553.842C582.538 558.186 586.062 561.707 590.408 561.707Z" fill="#F5F5F4"/>
<path d="M615.987 661.98C620.333 661.98 623.857 658.459 623.857 654.115C623.857 649.772 620.333 646.251 615.987 646.251C611.64 646.251 608.116 649.772 608.116 654.115C608.116 658.459 611.64 661.98 615.987 661.98Z" fill="#F5F5F4"/>
<path d="M588.441 661.98C592.787 661.98 596.311 658.459 596.311 654.115C596.311 649.772 592.787 646.251 588.441 646.251C584.094 646.251 580.57 649.772 580.57 654.115C580.57 658.459 584.094 661.98 588.441 661.98Z" fill="#F5F5F4"/>
<path d="M348.394 663.946C352.74 663.946 356.264 660.425 356.264 656.081C356.264 651.738 352.74 648.217 348.394 648.217C344.047 648.217 340.523 651.738 340.523 656.081C340.523 660.425 344.047 663.946 348.394 663.946Z" fill="#F5F5F4"/>
<path d="M320.848 663.946C325.195 663.946 328.718 660.425 328.718 656.081C328.718 651.738 325.195 648.217 320.848 648.217C316.501 648.217 312.978 651.738 312.978 656.081C312.978 660.425 316.501 663.946 320.848 663.946Z" fill="#F5F5F4"/>
<path d="M590.408 357.228C594.755 357.228 598.279 353.707 598.279 349.364C598.279 345.02 594.755 341.499 590.408 341.499C586.062 341.499 582.538 345.02 582.538 349.364C582.538 353.707 586.062 357.228 590.408 357.228Z" fill="#F5F5F4"/>
<path d="M497.931 357.228C502.278 357.228 505.801 353.707 505.801 349.364C505.801 345.02 502.278 341.499 497.931 341.499C493.584 341.499 490.061 345.02 490.061 349.364C490.061 353.707 493.584 357.228 497.931 357.228Z" fill="white"/>
<path d="M525.478 357.228C529.824 357.228 533.348 353.707 533.348 349.364C533.348 345.02 529.824 341.499 525.478 341.499C521.131 341.499 517.607 345.02 517.607 349.364C517.607 353.707 521.131 357.228 525.478 357.228Z" fill="white"/>
<path d="M409.39 357.228C413.737 357.228 417.26 353.707 417.26 349.364C417.26 345.02 413.737 341.499 409.39 341.499C405.043 341.499 401.52 345.02 401.52 349.364C401.52 353.707 405.043 357.228 409.39 357.228Z" fill="white"/>
<path d="M436.936 357.228C441.282 357.228 444.806 353.707 444.806 349.364C444.806 345.02 441.282 341.499 436.936 341.499C432.589 341.499 429.065 345.02 429.065 349.364C429.065 353.707 432.589 357.228 436.936 357.228Z" fill="white"/>
<path d="M320.848 357.228C325.195 357.228 328.718 353.707 328.718 349.364C328.718 345.02 325.195 341.499 320.848 341.499C316.501 341.499 312.978 345.02 312.978 349.364C312.978 353.707 316.501 357.228 320.848 357.228Z" fill="white"/>
<path d="M348.394 357.228C352.74 357.228 356.264 353.707 356.264 349.364C356.264 345.02 352.74 341.499 348.394 341.499C344.047 341.499 340.523 345.02 340.523 349.364C340.523 353.707 344.047 357.228 348.394 357.228Z" fill="white"/>
</g>
<g clip-path="url(#clip1_91174_9145)">
<path d="M258.818 829.745C255.945 827.899 252.559 825.541 244.146 823.9C237.272 822.67 233.167 811.903 233.167 811.903H217.162C217.162 811.903 215.725 829.745 216.443 831.181C217.162 832.616 217.572 834.154 221.266 835.282C224.959 836.41 257.382 836 258.818 835.692C260.254 835.385 264.256 833.231 258.818 829.745Z" fill="#292524"/>
<path d="M72.6979 658.198C70.5433 661.377 61.1038 692.344 61.0012 693.882C60.8986 695.42 61.7195 699.829 66.6444 695.727C69.312 693.472 72.5953 691.011 76.5968 683.423C79.8801 677.27 91.3715 676.553 91.3715 676.553L96.2964 661.377C96.2964 661.377 79.6749 654.609 78.0332 654.815C76.3916 655.02 74.8526 655.02 72.6979 658.198Z" fill="#292524"/>
<path d="M178.07 602.007C177.66 602.11 177.147 605.083 177.044 605.494C174.684 613.081 152.419 680.757 152.419 683.628C152.419 686.499 104.709 664.966 97.0141 661.582C96.3985 661.275 95.7829 661.582 95.4751 662.095C93.9361 665.376 89.5242 675.117 91.0632 676.245C93.0127 677.578 143.185 713.364 147.289 714.389C151.393 715.415 157.55 720.542 167.81 708.237C176.634 697.676 201.258 657.686 208.132 646.509C208.44 645.996 209.159 645.791 209.672 646.099C209.979 646.304 210.185 646.611 210.287 647.022C211.518 657.788 212.031 699.521 215.622 710.698C219.214 721.875 214.083 733.872 214.083 750.278L217.059 810.673C217.059 811.288 217.572 811.801 218.188 811.801L232.039 812.109C232.654 812.109 233.167 811.698 233.27 811.083C234.193 801.342 243.325 728.335 244.249 716.953C245.275 704.648 251.225 601.392 249.584 595.137C248.353 591.241 185.663 600.777 178.07 602.007Z" fill="#57534E"/>
<path d="M183.201 420.206C183.201 420.206 186.689 406.261 189.46 406.261C192.23 406.261 209.057 408.312 211.109 418.156C213.161 427.999 220.856 433.536 220.856 445.431C220.856 457.325 225.781 462.862 225.781 462.862C225.781 462.862 231.321 445.328 235.425 437.741C239.529 430.153 246.814 425.333 246.814 420.206C246.814 415.08 240.658 356.838 240.145 355.3C239.632 353.762 238.093 344.533 241.684 339.304C241.684 339.304 252.765 330.178 254.202 326.486C255.33 323.41 258.921 321.667 260.973 325.256C263.025 328.845 254.509 338.586 253.073 342.482C251.842 346.174 250.918 349.968 250.508 353.864C250.508 354.889 248.456 370.373 248.456 378.063C248.456 385.754 253.073 410.055 253.073 417.746C253.073 425.436 236.041 456.3 234.502 462.042C232.963 467.784 183.406 521.822 182.38 523.36C181.354 524.898 176.224 536.793 176.224 540.894C176.224 544.996 176.224 558.428 178.276 555.865C180.328 553.301 188.844 532.794 190.383 530.23C191.922 527.667 204.132 525.206 209.877 523.668C215.623 522.13 224.037 525.206 223.011 528.795C221.984 532.384 205.26 539.151 199.925 540.484C196.539 541.304 181.867 557.505 180.841 562.12C179.815 566.734 166.374 560.069 166.374 553.404C166.374 546.739 167.913 512.696 169.965 508.082C172.017 503.468 181.354 483.37 186.484 473.014C191.614 462.657 180.328 457.53 178.276 450.353C176.224 443.175 183.201 420.206 183.201 420.206Z" fill="url(#paint0_linear_91174_9145)"/>
<path d="M227.524 453.121C227.524 453.121 240.965 429.025 242.299 422.975C243.633 416.925 240.247 355.095 240.247 355.095L250.61 353.556C250.61 353.556 260.562 410.875 261.896 417.54C263.23 424.205 258.408 438.561 253.791 446.661C249.173 454.762 236.451 488.702 236.451 492.701C236.451 496.7 237.272 534.742 239.324 542.125C241.376 549.507 249.686 595.342 249.686 595.342L177.865 602.11C177.865 602.11 181.045 582.115 180.84 575.45C180.327 560.787 176.326 549.918 186.996 543.048C194.179 538.536 200.95 540.689 208.645 536.895C217.572 532.486 219.624 528.897 220.137 526.436C220.445 525.001 218.187 521.72 204.336 526.846C199.719 528.59 190.382 528.487 190.177 534.434C190.074 539.459 196.538 550.328 188.741 555.25C188.741 555.25 179.814 576.27 171.503 579.551C164.321 582.32 155.805 574.732 156.01 564.786C156.216 552.891 156.934 530.128 162.372 520.181C167.81 510.235 182.687 484.703 185.355 482.652C188.022 480.602 196.128 490.343 205.567 489.01C215.007 487.677 218.906 483.268 220.958 478.653C223.01 474.039 227.524 453.121 227.524 453.121Z" fill="#A8A29E"/>
<path d="M197.564 409.337C201.771 416.105 207.209 421.95 213.57 426.769C224.446 435.177 213.673 458.556 213.16 470.245C212.749 479.576 218.29 492.496 231.731 501.212C241.375 507.569 234.604 521.925 234.604 529.102C234.604 536.28 250.199 518.951 250.815 510.748C251.533 500.597 248.968 493.419 241.786 485.216C235.117 477.526 227.319 448.712 225.164 435.075C224.959 433.639 224.856 432.306 224.959 430.871C225.164 426.051 224.549 410.773 210.8 402.16C194.384 391.906 184.123 401.339 177.454 406.979C169.349 413.849 166.065 433.024 168.117 462.76C170.169 492.496 165.039 509.415 161.551 518.028C153.548 537.613 175.3 523.873 179.301 512.594C184.431 498.136 188.022 497.008 195.307 485.729C198.18 481.319 194.384 466.349 191.203 460.094C185.149 447.994 181.661 442.97 181.661 434.767C181.661 426.564 191.408 412.414 197.564 409.337Z" fill="#1C1917"/>
<path opacity="0.07" d="M200.745 462.452C200.745 462.452 212.339 463.17 215.52 455.787C215.828 454.967 213.673 478.346 213.057 475.27C212.237 472.091 200.745 462.452 200.745 462.452Z" fill="black"/>
<path opacity="0.07" d="M180.328 516.49C180.328 516.49 177.66 533.101 176.224 540.689C175.403 544.791 174.89 548.892 174.787 553.096C174.787 553.096 184.637 540.792 187.818 535.87C189.767 532.794 183.816 534.332 183.303 523.053C182.79 511.773 182.893 504.493 182.893 504.493L180.328 516.49Z" fill="black"/>
<path opacity="0.07" d="M181.148 569.913C181.148 569.913 189.972 561.299 190.383 556.788C190.896 550.84 195.102 551.148 195.102 554.84C195.102 558.531 188.536 586.114 192.537 593.394C196.539 600.674 199.719 600.572 199.719 600.572L178.173 602.11L181.148 569.913Z" fill="black"/>
<path opacity="0.07" d="M199.617 600.469C199.617 600.469 200.848 622.412 193.05 629.693C177.147 644.561 186.484 664.043 179.404 672.554C173.453 679.629 171.914 700.034 157.652 704.546C152.009 706.391 131.694 693.984 127.59 692.549C118.869 689.575 112.713 672.861 85.5229 664.248C79.1616 662.197 102.247 664.351 102.247 664.351L152.317 685.063L178.173 602.11L199.617 600.469Z" fill="black"/>
</g>
<g clip-path="url(#clip2_91174_9145)">
<path d="M826.68 409.807L688.183 428.721C682.869 429.446 679.165 434.275 679.89 439.587L700.342 589.293C701.067 594.605 705.898 598.307 711.213 597.583L849.71 578.669C855.024 577.944 858.728 573.115 858.003 567.803L837.551 418.097C836.826 412.865 831.995 409.083 826.68 409.807Z" fill="#E7E5E4"/>
<path d="M892.305 818.681C896.412 819.486 910.745 815.059 913.16 812.805C913.966 812.081 914.61 809.988 915.254 809.103C915.818 806.286 917.186 807.734 918.555 807.493C922.662 806.608 933.774 803.71 939.008 806.527C939.974 808.7 940.055 810.793 940.699 812C942.068 817.473 942.953 823.107 943.517 828.742C943.92 832.203 941.423 835.261 938.041 835.663C938.041 835.663 938.041 835.663 937.961 835.663H937.88C936.753 835.744 935.545 835.663 934.337 835.502C925.48 833.329 907.524 832.766 900.599 830.029C889.004 826.971 882.401 820.854 892.305 818.681Z" fill="#1C1917"/>
<path d="M754.533 825.2C758.559 826.247 773.214 822.705 775.711 820.612C776.596 819.969 777.321 817.956 778.046 817.071C778.77 814.334 780.059 815.783 781.428 815.622C785.615 814.978 796.888 812.725 801.961 815.864C802.846 818.037 802.685 820.21 803.249 821.417C804.215 826.971 804.859 832.685 805.02 838.32C805.181 841.781 802.524 844.678 799.062 844.92C799.062 844.92 799.062 844.92 798.981 844.92H798.901C797.773 845 796.566 844.839 795.438 844.598C786.742 841.861 768.866 840.251 762.102 837.032C750.749 833.249 744.468 826.729 754.533 825.2Z" fill="#1C1917"/>
<path d="M939.491 806.688C932.486 807.654 915.657 807.895 915.657 807.895C915.657 807.895 914.61 799.686 909.457 783.91C904.223 767.893 877.892 717.67 877.892 717.67C872.497 709.46 866.861 692.477 866.861 692.477L858.97 627.444C858.97 627.444 817.34 692.397 817.904 707.126C818.467 721.855 808.161 779.484 808.161 779.484C807.114 788.096 801.96 816.588 801.96 816.588C794.23 815.622 786.42 815.461 778.609 815.944C779.656 804.113 783.924 755.579 783.924 755.579C783.924 755.579 786.581 717.911 787.145 694.972C787.708 672.033 804.054 623.661 815.085 601.527C816.535 597.744 817.743 593.961 818.709 590.017L916.059 602.332C913.885 608.529 912.114 614.807 910.826 621.246C905.109 649.98 901.082 698.272 901.082 698.272C916.301 715.496 925.883 747.933 925.883 747.933C932.083 767.41 939.491 806.688 939.491 806.688Z" fill="#78716C"/>
<path d="M831.271 408.117C846.248 405.3 861.628 410.612 861.628 410.612L864.204 411.417L880.147 431.86L865.412 427.916C861.466 426.548 853.736 424.455 850.193 424.697C847.536 424.536 841.256 425.824 838.276 423.409C836.022 422.363 835.619 420.512 831.029 416.004C827.728 412.382 828.694 411.336 827.406 410.853C825.715 410.129 827.164 408.439 831.271 408.117Z" fill="url(#paint1_linear_91174_9145)"/>
<path d="M778.368 589.695C778.529 588.89 781.428 589.373 781.911 588.649C785.051 584.222 788.755 578.588 796.646 575.932C798.901 575.208 801.236 574.725 803.571 574.483L808.886 583.739C808.242 585.349 807.356 586.878 806.39 588.246C803.169 592.593 796.405 598.468 784.005 596.859C781.106 596.537 777.965 592.673 778.368 589.695Z" fill="url(#paint2_linear_91174_9145)"/>
<path d="M889.085 383.89C890.857 383.89 928.219 412.704 928.541 415.924C928.621 417.614 928.702 424.938 929.99 429.768C931.198 434.275 934.821 440.714 934.821 440.714C934.821 440.714 931.6 446.75 923.226 447.958C915.174 449.085 904.384 446.428 904.384 446.428C904.384 446.428 906.88 430.492 903.821 428.721C901.163 427.192 900.358 428.802 891.179 421.075C881.999 413.348 884.978 393.87 885.22 392.583C885.462 391.295 887.314 383.89 889.085 383.89Z" fill="url(#paint3_linear_91174_9145)"/>
<path d="M846.408 518.706C858.567 507.679 866.297 473.311 870.162 464.699C874.027 456.087 880.227 453.672 882.643 452.706C883.85 452.224 890.534 450.372 895.526 448.924L859.291 426.146C854.38 416.89 864.042 411.336 864.042 411.336L905.269 431.78V445.704L918.636 443.531L934.579 440.392C939.491 439.265 944.483 438.46 949.475 438.058C951.569 437.897 953.663 438.138 955.676 438.863L956.722 439.265C959.219 440.151 961.312 441.921 962.52 444.336C965.097 449.97 966.868 456.006 967.673 462.123C969.203 472.023 961.554 494.479 953.743 510.818C950.361 517.74 937.156 553.315 933.854 562.249C917.75 599.595 916.623 602.493 916.623 602.493C867.182 602.01 819.031 590.983 819.031 590.983C816.776 586.878 824.909 574.966 824.909 574.966L809.932 587.361C803.409 589.454 798.015 574.886 798.015 574.886C798.015 574.886 836.182 527.962 846.408 518.706Z" fill="#292524"/>
<path d="M935.545 385.58C934.74 384.132 932.969 380.832 931.922 379.624C930.15 377.773 928.218 376.002 926.205 374.312C924.353 373.185 919.763 370.851 917.992 369.885C911.711 367.954 903.337 369.885 897.217 370.207C891.661 369.805 887.555 376.727 885.38 381.314C883.206 385.902 887.393 385.339 886.991 388.88C886.91 389.524 888.762 390.49 890.373 391.375C891.983 392.261 896.573 399.585 898.183 403.046C899.874 394.595 905.511 409.646 904.464 411.497C906.719 412.946 909.456 419.063 913.482 420.995C916.301 419.787 921.535 415.119 928.54 416.407C929.023 415.119 935.948 409.968 936.673 401.275C937.236 398.7 937.8 389.444 935.545 385.58Z" fill="#1C1917"/>
<path opacity="0.07" d="M914.207 423.57C914.207 423.57 907.926 429.204 904.142 429.043L905.108 433.792L904.867 440.633C904.867 440.633 907.282 436.77 910.342 432.826C912.275 430.09 913.643 426.951 914.207 423.57Z" fill="black"/>
<path opacity="0.07" d="M891.42 492.708C891.42 492.708 883.529 516.452 859.211 541.162C834.894 565.871 829.016 571.022 829.016 571.022C829.016 571.022 824.023 577.3 825.634 581.486C827.244 585.671 837.873 571.666 861.707 560.8C875.315 554.603 879.986 543.898 886.266 528.928C894.157 510.013 895.929 505.989 896.976 499.228C899.633 481.521 891.42 492.708 891.42 492.708Z" fill="black"/>
<path opacity="0.07" d="M859.05 627.363C859.05 627.363 870.564 652.234 873.866 664.387C877.248 676.943 877.248 695.214 887.393 704.067C898.908 714.128 912.436 747.933 915.576 755.096C920.005 765.318 929.104 821.659 926.446 825.603C923.87 829.466 913.482 823.671 913.482 823.671C913.482 823.671 917.267 809.344 914.046 796.386C910.825 783.427 895.687 748.818 886.186 731.674C877.57 716.301 868.793 698.514 866.86 688.211C864.928 677.909 859.05 627.363 859.05 627.363Z" fill="black"/>
</g>
<defs>
<linearGradient id="paint0_linear_91174_9145" x1="95.681" y1="464.632" x2="213.276" y2="464.632" gradientUnits="userSpaceOnUse">
<stop stop-color="#F87B58"/>
<stop offset="0.5" stop-color="#F8C548"/>
<stop offset="1" stop-color="#F89C51"/>
</linearGradient>
<linearGradient id="paint1_linear_91174_9145" x1="880.147" y1="419.577" x2="826.638" y2="419.577" gradientUnits="userSpaceOnUse">
<stop stop-color="#F87B58"/>
<stop offset="0.41" stop-color="#F89453"/>
<stop offset="0.94" stop-color="#F8C548"/>
</linearGradient>
<linearGradient id="paint2_linear_91174_9145" x1="808.886" y1="585.807" x2="778.29" y2="585.807" gradientUnits="userSpaceOnUse">
<stop stop-color="#F87B58"/>
<stop offset="0.41" stop-color="#F89453"/>
<stop offset="0.94" stop-color="#F8C548"/>
</linearGradient>
<linearGradient id="paint3_linear_91174_9145" x1="934.821" y1="416.063" x2="884.498" y2="416.063" gradientUnits="userSpaceOnUse">
<stop stop-color="#F87B58"/>
<stop offset="0.41" stop-color="#F89453"/>
<stop offset="0.94" stop-color="#F8C548"/>
</linearGradient>
<clipPath id="clip0_91174_9145">
<rect width="960" height="852" fill="white" transform="translate(32 115)"/>
</clipPath>
<clipPath id="clip1_91174_9145">
<rect width="201" height="513" fill="white" transform="translate(61 323)"/>
</clipPath>
<clipPath id="clip2_91174_9145">
<rect width="289" height="476" fill="white" transform="matrix(-1 0 0 1 968 369)"/>
</clipPath>
</defs>
</svg>
