<svg width="1024" height="1024" viewBox="0 0 1024 1024" fill="none" xmlns="http://www.w3.org/2000/svg">
<g clip-path="url(#clip0_91175_9977)">
<path d="M81.1588 825C81.1588 825 61.5312 622.481 130.31 561.006C190.348 507.549 240.324 475.064 341.926 470.952C443.527 466.84 499.441 466.84 560.139 382.954C620.836 299.068 703.14 172.622 795.01 168.305C883.582 164.192 937.846 198.939 988.647 444.429C1039.45 689.919 986.998 816.776 985.348 818.832C984.194 820.271 81.1588 825 81.1588 825Z" fill="#FAFAF9"/>
<path d="M367.497 664.811C374.485 580.501 348.59 457.121 378.8 439.848C408.805 422.986 418.875 417.434 449.907 383.093C525.535 299.194 627.88 172.524 742.35 168.206C852.709 164.093 920.322 198.845 983.62 444.372C1015.27 567.135 1013.42 631.91 1010.34 670.775C1008.69 692.161 1007.05 719.921 1006.02 720.949C1004.38 722.389 361.743 734.932 367.497 664.811Z" fill="#F5F5F4"/>
<path d="M211.378 391.947L202.336 820.077C202.336 823.161 210.556 822.133 212.611 822.133H224.942L222.887 392.564L296.255 394.62L264.4 214.279C262.756 205.026 254.741 198.034 245.082 198.034H194.321C182.196 198.034 171.715 206.671 169.66 218.598L138.627 390.302L211.378 391.947Z" fill="#E7E5E4"/>
<path d="M78.5872 719.87C78.5872 719.87 78.1762 736.732 81.0533 738.582C82.2864 739.611 83.725 740.227 85.1635 740.639L99.3438 816.929C99.3438 816.929 140.652 824.537 161.408 815.901L175.588 740.639L180.315 738.788L182.165 719.87C182.165 719.87 131.404 703.008 78.5872 719.87Z" fill="#E7E5E4"/>
<path d="M83.314 740.227C83.314 740.227 138.802 744.546 145.378 742.695C151.955 740.844 150.105 725.833 150.105 725.833L177.438 722.954C177.438 722.954 177.438 738.994 175.589 740.844C173.533 743.312 171.889 746.191 170.862 749.275C170.862 750.304 159.559 817.135 159.559 817.135C159.559 817.135 141.679 820.013 138.802 820.013C135.925 820.013 146.406 764.492 146.406 760.791C146.406 757.089 146.406 749.481 143.529 749.481C140.652 749.481 86.3966 751.126 85.9856 744.957C85.5746 743.106 84.7525 741.461 83.314 740.227Z" fill="#F5F5F4"/>
<path d="M105.304 723.366C105.304 723.366 89.8902 712.467 81.6698 711.439C73.4493 710.411 63.9958 709.382 55.7754 708.149C47.5549 706.915 37.0738 703.213 37.2793 698.278C37.4849 693.343 38.5124 691.081 43.2392 688.408C47.3494 685.735 51.8706 684.089 56.8029 683.473C60.5021 683.061 97.4941 692.726 112.907 715.757L119.073 723.366H105.304Z" fill="#F5F5F4"/>
<path d="M51.665 696.633C51.665 696.633 65.8453 696.427 73.6547 698.895C79.8201 701.157 85.5744 703.83 91.3287 707.12L114.551 723.365" fill="#F5F5F4"/>
<path d="M51.665 696.633C51.665 696.633 65.8453 696.427 73.6547 698.895C79.8201 701.157 85.5744 703.83 91.3287 707.12L114.551 723.365" stroke="white" stroke-width="0.36915" stroke-miterlimit="10" stroke-linecap="round"/>
<path d="M121.539 722.749C121.539 722.749 103.454 698.278 96.4668 691.492C89.4794 684.706 81.259 676.687 74.4771 669.489C67.6952 662.292 59.2693 652.011 62.763 647.692C66.2566 643.374 68.9283 640.495 75.5047 641.523C80.6424 642.14 85.5747 643.785 89.6849 646.87C93.3841 649.132 126.06 680.388 130.787 716.168L135.514 723.366L121.539 722.749Z" fill="#F5F5F4"/>
<path d="M79.2036 655.918C79.2036 655.918 93.1784 664.349 98.7272 672.368C103.865 679.977 112.085 693.343 112.085 693.343L121.539 719.047" stroke="white" stroke-width="0.36915" stroke-miterlimit="10" stroke-linecap="round"/>
<path d="M130.581 723.982C130.581 723.982 109.619 678.332 105.714 669.284C101.81 660.236 85.7799 646.664 82.2862 637.411C78.7925 628.157 76.5319 621.577 80.2311 616.436C83.9303 611.295 93.5893 607.182 99.7547 610.267C105.509 613.146 113.113 621.782 116.401 626.101C119.073 629.597 136.13 691.492 134.692 705.887L137.98 724.188L130.581 723.982Z" fill="#F5F5F4"/>
<path d="M93.5894 627.129C93.5894 627.129 105.715 642.757 109.414 651.805C113.524 662.087 117.634 681.622 117.018 678.537L129.554 720.898" stroke="white" stroke-width="0.36915" stroke-miterlimit="10" stroke-linecap="round"/>
<path d="M119.073 723.777C119.073 723.777 100.577 702.597 91.5345 698.484C82.492 694.371 72.2164 689.847 63.3794 685.323C54.5424 680.799 44.0614 673.397 45.7054 668.873C47.3495 664.349 49.4047 662.498 55.7755 661.675C61.3243 660.647 67.0786 660.853 72.6274 662.087C76.7376 663.115 115.374 686.557 125.238 714.318L129.76 723.982L119.073 723.777Z" fill="#F5F5F4"/>
<path d="M62.7627 672.78C62.7627 672.78 78.7926 678.126 86.8075 683.473C92.7673 687.996 98.5216 692.726 104.07 698.073L121.744 723.982" stroke="white" stroke-width="0.36915" stroke-miterlimit="10" stroke-linecap="round"/>
<path d="M167.368 724.188C167.368 724.188 184.22 713.906 193.057 712.878C201.894 711.85 212.169 711.028 221.212 709.794C230.254 708.56 241.352 705.064 241.147 700.54C240.941 696.016 239.914 693.754 234.57 691.081C230.049 688.613 225.117 686.968 219.979 686.351C216.074 685.94 176 695.194 159.148 717.197L152.366 724.394L167.368 724.188Z" fill="#F5F5F4"/>
<path d="M225.322 698.484C225.322 698.484 209.909 698.278 201.483 700.746C194.907 702.802 188.536 705.475 182.37 708.56L159.97 723.571" fill="#F5F5F4"/>
<path d="M225.322 698.484C225.322 698.484 209.909 698.278 201.483 700.746C194.907 702.802 188.536 705.475 182.37 708.56L159.97 723.571" stroke="white" stroke-width="0.36915" stroke-miterlimit="10" stroke-linecap="round"/>
<path d="M149.694 723.571C149.694 723.571 169.218 700.129 176.822 693.549C184.426 686.968 193.263 679.36 200.661 672.574C208.059 665.788 217.307 655.918 213.403 651.805C209.498 647.692 206.826 645.019 199.633 645.842C194.085 646.253 188.947 648.104 184.22 650.982C180.315 653.244 144.967 683.061 139.83 717.197L134.692 724.188L149.694 723.571Z" fill="#F5F5F4"/>
<path d="M195.523 659.825C195.523 659.825 180.315 667.844 174.355 675.453C168.806 682.65 159.764 695.605 159.764 695.605L149.694 720.075" stroke="white" stroke-width="0.36915" stroke-miterlimit="10" stroke-linecap="round"/>
<path d="M140.035 724.805C140.035 724.805 162.847 681.211 166.957 672.574C171.067 663.937 188.536 650.982 192.44 642.14C196.345 633.298 198.811 626.923 194.701 622.194C190.591 617.464 180.11 613.351 173.533 616.23C167.162 618.904 159.147 627.129 155.448 631.447C152.571 634.737 134.075 693.96 135.514 707.737L132.02 725.216L140.035 724.805Z" fill="#F5F5F4"/>
<path d="M137.774 724.188C137.774 724.188 139.624 681.622 143.94 667.844C146.817 658.591 149.694 643.168 153.599 634.532C157.503 625.895 151.544 614.38 147.639 609.444C143.734 604.509 133.253 605.537 126.471 608.416C120.1 611.089 116.607 619.932 115.785 624.661C115.168 628.98 130.17 680.182 128.526 699.101L129.759 724.599L137.774 724.188Z" fill="#F5F5F4"/>
<path d="M180.11 632.27C180.11 632.27 167.163 647.075 163.052 655.918C158.531 665.788 154.215 684.501 154.832 681.416L140.035 722.954" stroke="white" stroke-width="0.36915" stroke-miterlimit="10" stroke-linecap="round"/>
<path d="M152.571 724.394C152.571 724.394 172.711 704.242 182.37 700.335C192.029 696.427 203.332 692.109 212.786 687.791C222.239 683.473 233.748 676.481 231.898 672.163C230.049 667.844 227.994 666.199 221.006 665.377C215.047 664.554 208.881 664.554 202.921 665.788C198.4 666.816 156.681 689.025 145.995 715.551L141.062 724.599L152.571 724.394Z" fill="#F5F5F4"/>
<path d="M213.197 675.864C213.197 675.864 195.934 680.799 187.303 685.94C180.726 690.053 174.561 694.782 168.601 699.718L149.078 721.515" stroke="white" stroke-width="0.36915" stroke-miterlimit="10" stroke-linecap="round"/>
<path d="M133.664 617.258C133.664 617.258 137.158 653.656 135.103 663.526C134.281 667.639 134.692 693.343 134.692 693.343L133.87 721.72" stroke="white" stroke-width="0.36915" stroke-miterlimit="10" stroke-linecap="round"/>
<path d="M139.226 385.749L291.715 388.627L294.798 399.526L137.376 395.413L139.226 385.749Z" fill="#F5F5F4"/>
<path d="M790.645 408.18L789.412 707.994L979.715 708.406C979.715 708.406 981.154 550.479 973.55 399.338L791.056 396.665L790.645 408.18Z" fill="#F5F5F4"/>
<path d="M611.439 447.045L606.506 708.817H769.066L768.038 447.045H611.439Z" fill="#F5F5F4"/>
<path d="M375.307 600.654L609.178 601.887L606.507 708.817L376.129 708.611L375.307 600.654Z" fill="#F5F5F4"/>
<path d="M355.988 449.718L356.605 709.434C356.605 709.434 358.043 725.679 373.662 726.501C389.281 727.324 1004.17 727.53 1004.17 727.53C1004.17 727.53 1009.72 710.256 1007.46 709.639C1005.2 709.023 376.128 709.023 376.128 709.023C376.128 709.023 376.334 699.769 376.334 694.011C376.334 687.431 375.923 441.904 375.923 441.904C369.758 444.989 362.976 447.662 355.988 449.718Z" fill="white"/>
<path d="M369.552 475.423L991.635 479.33L994.923 492.696L369.552 495.78V475.423Z" fill="white"/>
<path d="M545.059 273.285V709.228L561.499 710.462V261.975L545.059 273.285Z" fill="white"/>
<path d="M842.228 185.685L841.817 709.228L857.025 707.994L859.491 195.966L842.228 185.685Z" fill="white"/>
<path d="M561.5 261.975L916.623 264.237L906.347 245.73L581.845 245.524L561.5 261.975Z" fill="white"/>
<path d="M621.303 347.93C641.279 347.93 657.473 331.726 657.473 311.738C657.473 291.75 641.279 275.547 621.303 275.547C601.327 275.547 585.133 291.75 585.133 311.738C585.133 331.726 601.327 347.93 621.303 347.93Z" fill="white"/>
<path d="M656.446 346.901C669.498 346.901 680.08 336.314 680.08 323.254C680.08 310.193 669.498 299.606 656.446 299.606C643.393 299.606 632.812 310.193 632.812 323.254C632.812 336.314 643.393 346.901 656.446 346.901Z" fill="white"/>
<path d="M895.25 381.859C915.567 381.859 932.036 365.38 932.036 345.051C932.036 324.722 915.567 308.242 895.25 308.242C874.933 308.242 858.463 324.722 858.463 345.051C858.463 365.38 874.933 381.859 895.25 381.859Z" fill="white"/>
<path d="M857.23 373.84C870.51 373.84 881.275 363.068 881.275 349.78C881.275 336.493 870.51 325.721 857.23 325.721C843.951 325.721 833.186 336.493 833.186 349.78C833.186 363.068 843.951 373.84 857.23 373.84Z" fill="white"/>
<path d="M757.352 711.49L769.477 707.789L775.231 806.287L770.504 808.344L757.352 711.49Z" fill="#E7E5E4"/>
<path d="M849.01 683.113L867.506 677.355L890.112 767.423L884.769 768.862L849.01 683.113Z" fill="#E7E5E4"/>
<path d="M632.401 704.087L609.178 778.527L602.807 775.648L613.699 701.208L632.401 704.087Z" fill="#E7E5E4"/>
<path d="M741.116 714.78H747.898L757.352 711.49L770.504 808.344L764.75 806.904L741.116 714.78Z" fill="#E7E5E4"/>
<path d="M717.482 431.417L825.992 431.006L823.937 671.597L732.896 680.028L719.743 685.169L613.905 678.794L614.11 672.009L730.224 657.408L717.482 431.417Z" fill="#44403C"/>
<path d="M680.285 431.828L717.483 431.417L735.157 666.456L607.329 673.242L600.136 621.628L629.524 615.87L695.698 612.169L680.285 431.828Z" fill="#57534E"/>
<path d="M585.339 677.355L585.955 693.394C585.955 693.394 585.75 699.975 593.97 700.18C602.396 700.386 740.911 714.575 740.911 714.575C740.911 714.575 752.008 717.454 769.271 707.789L869.15 676.121C869.15 676.121 872.644 675.916 872.233 669.952C871.822 663.989 889.29 437.175 889.29 436.558C889.29 435.941 887.029 433.679 882.508 433.268C878.398 433.062 835.652 430.389 835.652 430.389L835.857 602.916C835.857 602.916 837.09 618.749 829.692 619.366C813.251 620.806 745.843 619.778 737.212 626.769C731.457 631.499 744.61 671.803 745.843 680.028C746.254 682.496 728.169 681.468 722.62 682.907C718.51 684.347 585.339 677.355 585.339 677.355Z" fill="#57534E"/>
<path d="M727.142 621.011C727.142 621.011 717.071 621.011 716.66 628.003C716.249 633.966 716.044 670.158 716.044 681.673C716.044 683.318 715.838 684.963 715.633 686.403C715.222 688.459 717.483 692.572 722.415 692.778C732.074 692.983 742.966 692.778 742.966 692.778C742.966 692.778 747.693 691.338 746.665 683.524C745.843 675.71 737.212 634.994 737.212 634.994C737.212 634.994 734.54 625.33 743.788 625.33C753.036 625.33 826.198 619.983 826.198 619.983C826.198 619.983 836.268 620.394 836.679 611.141C837.09 601.887 838.94 436.969 838.94 436.969C838.94 436.969 840.173 429.977 834.213 429.566C828.048 429.155 815.922 430.389 815.922 430.389C815.922 430.389 812.018 430.8 812.018 436.558C812.018 442.316 819.005 606.617 818.183 609.907C816.95 615.048 804.414 616.282 797.837 616.693C790.85 617.31 727.142 621.011 727.142 621.011Z" fill="#78716C"/>
<path d="M657.473 440.259C657.473 440.259 656.24 428.744 664.255 429.361C669.599 429.772 675.147 430.8 680.491 431.828C680.491 431.828 683.779 431.417 684.395 435.118C685.012 438.82 710.701 612.375 708.851 612.992C707.002 613.609 618.015 618.749 616.166 618.749C614.11 618.749 606.918 618.544 607.74 624.301C608.562 630.059 614.316 670.158 614.316 671.803C614.316 673.448 615.138 679.206 613.494 679.823C612.055 680.234 585.544 679 585.544 679L587.6 624.507C587.6 624.507 587.394 615.254 592.737 614.637C598.081 614.02 690.561 610.318 691.588 609.29C692.616 608.262 689.739 598.803 688.711 594.69C687.889 592.223 657.473 440.259 657.473 440.259Z" fill="#78716C"/>
<path d="M695.904 609.29C695.904 609.29 709.468 658.231 707.207 663.783C704.946 669.335 694.054 670.363 689.122 671.392C684.19 672.42 639.799 683.935 635.278 684.346C630.757 684.552 631.168 685.169 629.113 685.169C627.058 685.169 602.396 676.944 601.574 674.065C600.752 671.186 599.93 669.13 600.752 665.634C601.574 662.138 612.672 615.253 615.754 614.225C618.837 613.197 695.904 609.29 695.904 609.29Z" fill="#292524"/>
<path d="M698.165 618.132C698.165 618.132 697.137 610.524 695.904 609.29C694.465 608.262 690.766 603.121 687.067 602.915C683.368 602.71 624.18 610.113 621.92 610.524C619.659 610.935 616.782 612.169 615.755 614.02C614.727 615.87 624.386 618.132 626.236 623.89C628.085 629.648 661.789 641.986 670.215 642.808C678.641 643.837 698.165 618.132 698.165 618.132Z" fill="#44403C"/>
<path d="M678.846 604.972C678.846 604.972 672.475 591.194 669.393 588.727C666.721 586.465 657.062 581.53 651.102 588.932C644.526 597.363 645.142 607.028 645.142 608.262C645.142 609.496 651.719 608.468 651.719 608.468C651.719 608.468 649.664 598.597 651.513 595.101C653.157 592.017 654.185 588.11 660.35 588.521C666.515 588.932 668.776 592.222 670.42 595.513C672.064 598.597 673.297 601.887 674.325 605.383C674.53 605.383 678.846 604.972 678.846 604.972Z" fill="#44403C"/>
<path d="M668.571 605.794C668.571 605.794 662.2 588.932 659.117 585.848C656.446 582.969 646.17 577.417 640.21 586.465C633.634 596.746 634.867 608.056 634.867 609.496C634.867 610.935 641.443 609.701 641.443 609.701C641.443 609.701 639.388 597.569 641.238 593.251C642.882 589.344 643.91 584.82 649.869 585.231C655.829 585.642 658.295 589.755 659.939 593.662C661.584 597.569 662.817 601.476 663.844 605.794C664.255 606.411 668.571 605.794 668.571 605.794Z" fill="#44403C"/>
<path d="M628.907 627.386C628.907 627.386 634.456 674.476 633.839 677.561C633.223 680.645 631.168 685.169 629.935 685.169C628.702 685.169 626.441 684.963 627.263 683.73C630.14 679.617 631.373 674.682 630.551 669.952C629.729 662.344 626.441 623.684 626.441 623.684L628.907 627.386Z" fill="#44403C"/>
<path d="M671.653 646.51C673.583 646.51 675.147 644.945 675.147 643.014C675.147 641.083 673.583 639.518 671.653 639.518C669.724 639.518 668.16 641.083 668.16 643.014C668.16 644.945 669.724 646.51 671.653 646.51Z" fill="white"/>
</g>
<defs>
<clipPath id="clip0_91175_9977">
<rect width="1001" height="657" fill="white" transform="translate(11 168)"/>
</clipPath>
</defs>
</svg>
