<svg width="1024" height="1024" viewBox="0 0 1024 1024" fill="none" xmlns="http://www.w3.org/2000/svg">
<path d="M307.469 671.741C314.484 587.174 288.488 463.418 318.817 446.092C348.94 429.179 359.05 423.61 390.205 389.165C466.131 305.011 568.879 177.955 683.801 173.623C794.596 169.498 862.476 204.356 926.023 450.63C957.796 573.767 955.94 638.739 952.845 677.722C951.194 699.173 949.544 727.018 948.512 728.05C946.861 729.493 301.692 742.075 307.469 671.741Z" fill="#F5F5F4"/>
<path d="M210.532 382.602L201.453 812.035C201.453 815.129 209.706 814.098 211.77 814.098H224.149L222.086 383.221L295.743 385.283L263.763 204.394C262.112 195.112 254.066 188.099 244.368 188.099H193.407C181.234 188.099 170.711 196.762 168.648 208.725L137.494 380.952L210.532 382.602Z" fill="#D6D3D1"/>
<path d="M111.19 706.338C111.19 706.338 110.778 723.251 113.666 725.107C114.904 726.139 116.348 726.758 117.793 727.17L132.029 803.692C132.029 803.692 173.5 811.324 194.338 802.661L208.574 727.17L213.32 725.314L215.177 706.338C215.177 706.338 164.215 689.425 111.19 706.338Z" fill="#D6D3D1"/>
<path d="M115.936 726.758C115.936 726.758 171.643 731.089 178.245 729.233C184.848 727.376 182.991 712.319 182.991 712.319L210.432 709.432C210.432 709.432 210.432 725.52 208.575 727.376C206.511 729.851 204.861 732.739 203.829 735.833C203.829 736.864 192.482 803.899 192.482 803.899C192.482 803.899 174.531 806.786 171.643 806.786C168.754 806.786 179.277 751.096 179.277 747.383C179.277 743.671 179.277 736.039 176.388 736.039C173.5 736.039 119.031 737.689 118.618 731.502C118.206 729.645 117.38 727.995 115.936 726.758Z" fill="#F5F5F4"/>
<path d="M138.012 709.844C138.012 709.844 122.538 698.912 114.285 697.881C106.032 696.85 96.5417 695.819 88.2888 694.581C80.0359 693.344 69.5135 689.631 69.7198 684.681C69.9261 679.73 70.9577 677.461 75.7031 674.78C79.8296 672.099 84.3686 670.449 89.3204 669.83C93.0342 669.417 130.172 679.112 145.646 702.213L151.836 709.844H138.012Z" fill="#F5F5F4"/>
<path d="M84.1621 683.03C84.1621 683.03 98.3983 682.824 106.239 685.299C112.428 687.568 118.205 690.25 123.982 693.55L147.297 709.844" fill="#F5F5F4"/>
<path d="M84.1621 683.03C84.1621 683.03 98.3983 682.824 106.239 685.299C112.428 687.568 118.205 690.25 123.982 693.55L147.297 709.844" stroke="white" stroke-width="0.36915" stroke-miterlimit="10" stroke-linecap="round"/>
<path d="M154.312 709.225C154.312 709.225 136.156 684.681 129.141 677.874C122.126 671.067 113.873 663.023 107.064 655.804C100.256 648.585 91.7963 638.272 95.3038 633.941C98.8113 629.609 101.493 626.722 108.096 627.753C113.254 628.372 118.206 630.022 122.332 633.116C126.046 635.384 158.851 666.736 163.596 702.625L168.342 709.844L154.312 709.225Z" fill="#F5F5F4"/>
<path d="M111.81 642.191C111.81 642.191 125.839 650.648 131.41 658.692C136.568 666.323 144.821 679.73 144.821 679.73L154.312 705.513" stroke="white" stroke-width="0.36915" stroke-miterlimit="10" stroke-linecap="round"/>
<path d="M163.39 710.463C163.39 710.463 142.345 664.673 138.425 655.598C134.505 646.522 118.412 632.909 114.904 623.628C111.397 614.346 109.127 607.746 112.841 602.589C116.555 597.433 126.252 593.307 132.442 596.401C138.219 599.289 145.853 607.952 149.154 612.283C151.836 615.79 168.961 677.874 167.516 692.312L170.818 710.669L163.39 710.463Z" fill="#F5F5F4"/>
<path d="M126.252 613.315C126.252 613.315 138.425 628.99 142.139 638.066C146.265 648.379 150.392 667.974 149.773 664.88L162.358 707.369" stroke="white" stroke-width="0.36915" stroke-miterlimit="10" stroke-linecap="round"/>
<path d="M151.836 710.257C151.836 710.257 133.267 689.012 124.189 684.887C115.11 680.762 104.794 676.224 95.9225 671.686C87.0506 667.148 76.5282 659.723 78.1788 655.185C79.8294 650.648 81.8926 648.791 88.2886 647.966C93.8593 646.935 99.6363 647.141 105.207 648.379C109.333 649.41 148.122 672.924 158.025 700.769L162.564 710.463L151.836 710.257Z" fill="#F5F5F4"/>
<path d="M95.3037 659.104C95.3037 659.104 111.397 664.467 119.443 669.83C125.427 674.368 131.204 679.111 136.774 684.474L154.518 710.463" stroke="white" stroke-width="0.36915" stroke-miterlimit="10" stroke-linecap="round"/>
<path d="M200.322 710.669C200.322 710.669 217.24 700.356 226.112 699.325C234.984 698.294 245.3 697.469 254.378 696.231C263.456 694.994 274.598 691.487 274.391 686.949C274.185 682.412 273.153 680.143 267.789 677.461C263.25 674.986 258.298 673.336 253.14 672.717C249.22 672.305 208.987 681.587 192.069 703.656L185.26 710.876L200.322 710.669Z" fill="#F5F5F4"/>
<path d="M258.504 684.887C258.504 684.887 243.03 684.681 234.571 687.156C227.969 689.218 221.573 691.9 215.383 694.993L192.894 710.05" fill="#F5F5F4"/>
<path d="M258.504 684.887C258.504 684.887 243.03 684.681 234.571 687.156C227.969 689.218 221.573 691.9 215.383 694.993L192.894 710.05" stroke="white" stroke-width="0.36915" stroke-miterlimit="10" stroke-linecap="round"/>
<path d="M182.578 710.051C182.578 710.051 202.179 686.537 209.813 679.937C217.447 673.336 226.318 665.705 233.746 658.898C241.174 652.091 250.458 642.191 246.538 638.066C242.618 633.941 239.936 631.259 232.714 632.084C227.144 632.497 221.986 634.353 217.24 637.241C213.32 639.51 177.833 669.417 172.675 703.656L167.517 710.669L182.578 710.051Z" fill="#F5F5F4"/>
<path d="M228.588 646.11C228.588 646.11 213.32 654.154 207.337 661.786C201.766 669.005 192.688 681.999 192.688 681.999L182.578 706.544" stroke="white" stroke-width="0.36915" stroke-miterlimit="10" stroke-linecap="round"/>
<path d="M172.881 711.288C172.881 711.288 195.783 667.561 199.909 658.898C204.036 650.235 221.573 637.241 225.493 628.372C229.413 619.502 231.889 613.108 227.763 608.364C223.636 603.62 213.114 599.495 206.512 602.383C200.116 605.064 192.069 613.315 188.355 617.646C185.467 620.946 166.898 680.349 168.342 694.168L164.834 711.701L172.881 711.288Z" fill="#F5F5F4"/>
<path d="M170.611 710.669C170.611 710.669 172.468 667.974 176.801 654.154C179.689 644.872 182.578 629.403 186.498 620.74C190.418 612.077 184.435 600.527 180.515 595.576C176.594 590.626 166.072 591.657 159.263 594.545C152.867 597.226 149.36 606.096 148.535 610.84C147.916 615.171 162.977 666.53 161.327 685.506L162.565 711.082L170.611 710.669Z" fill="#F5F5F4"/>
<path d="M213.114 618.471C213.114 618.471 200.115 633.322 195.989 642.191C191.45 652.092 187.117 670.861 187.736 667.767L172.881 709.432" stroke="white" stroke-width="0.36915" stroke-miterlimit="10" stroke-linecap="round"/>
<path d="M185.467 710.876C185.467 710.876 205.686 690.662 215.383 686.743C225.08 682.824 236.428 678.493 245.919 674.161C255.41 669.83 266.964 662.817 265.107 658.486C263.25 654.154 261.187 652.504 254.172 651.679C248.189 650.854 241.999 650.854 236.016 652.092C231.476 653.123 189.593 675.399 178.864 702.006L173.913 711.082L185.467 710.876Z" fill="#F5F5F4"/>
<path d="M246.331 662.198C246.331 662.198 229 667.148 220.335 672.305C213.733 676.43 207.543 681.174 201.56 686.124L181.959 707.988" stroke="white" stroke-width="0.36915" stroke-miterlimit="10" stroke-linecap="round"/>
<path d="M166.485 603.414C166.485 603.414 169.992 639.922 167.929 649.823C167.104 653.948 167.516 679.73 167.516 679.73L166.691 708.194" stroke="white" stroke-width="0.36915" stroke-miterlimit="10" stroke-linecap="round"/>
<path d="M138.158 379.024L294.533 381.856L297.694 392.574L136.262 388.529L138.158 379.024Z" fill="#F5F5F4"/>
<path d="M732.286 414.328L731.048 715.055L922.103 715.468C922.103 715.468 923.547 557.06 915.913 405.459L732.699 402.778L732.286 414.328Z" fill="#F5F5F4"/>
<path d="M552.374 453.312L547.422 715.88H710.623L709.591 453.312H552.374Z" fill="#F5F5F4"/>
<path d="M315.31 607.388L550.104 608.625L547.422 715.88L316.135 715.674L315.31 607.388Z" fill="#F5F5F4"/>
<path d="M295.915 455.993L296.534 716.499C296.534 716.499 297.978 732.794 313.659 733.619C329.339 734.444 946.655 734.65 946.655 734.65C946.655 734.65 952.226 717.324 949.956 716.705C947.686 716.086 316.135 716.087 316.135 716.087C316.135 716.087 316.341 706.805 316.341 701.03C316.341 694.429 315.928 448.155 315.928 448.155C309.739 451.249 302.93 453.93 295.915 455.993Z" fill="white"/>
<path d="M309.533 481.775L934.07 485.694L937.371 499.101L309.533 502.195V481.775Z" fill="white"/>
<path d="M485.731 279.022V716.293L502.237 717.53V267.678L485.731 279.022Z" fill="white"/>
<path d="M784.073 191.155L783.661 716.293L798.929 715.055L801.404 201.468L784.073 191.155Z" fill="white"/>
<path d="M502.237 267.678L858.762 269.947L848.446 251.383L522.663 251.177L502.237 267.678Z" fill="white"/>
<path d="M562.277 353.894C582.332 353.894 598.59 337.641 598.59 317.593C598.59 297.544 582.332 281.291 562.277 281.291C542.222 281.291 525.964 297.544 525.964 317.593C525.964 337.641 542.222 353.894 562.277 353.894Z" fill="white"/>
<path d="M597.558 352.863C610.662 352.863 621.285 342.243 621.285 329.143C621.285 316.043 610.662 305.423 597.558 305.423C584.454 305.423 573.831 316.043 573.831 329.143C573.831 342.243 584.454 352.863 597.558 352.863Z" fill="white"/>
<path d="M837.304 387.927C857.701 387.927 874.236 371.397 874.236 351.007C874.236 330.616 857.701 314.086 837.304 314.086C816.907 314.086 800.373 330.616 800.373 351.007C800.373 371.397 816.907 387.927 837.304 387.927Z" fill="white"/>
<path d="M799.135 379.883C812.467 379.883 823.274 369.079 823.274 355.751C823.274 342.423 812.467 331.618 799.135 331.618C785.803 331.618 774.995 342.423 774.995 355.751C774.995 369.079 785.803 379.883 799.135 379.883Z" fill="white"/>
<path d="M217.531 547.943C216.912 547.943 216.499 548.356 216.499 548.975C216.499 552.069 217.118 559.7 223.514 559.7C230.942 559.7 610.161 559.494 633.063 559.494C633.889 559.494 635.126 558.05 635.952 557.019C636.983 555.781 638.634 553.719 639.459 549.387C639.666 548.356 639.047 547.531 638.015 547.325C637.809 547.325 637.809 547.325 637.602 547.325L217.531 547.943Z" fill="#A8A29E"/>
<path d="M244.765 559.7C244.765 559.7 244.146 567.951 250.955 567.951C257.557 567.951 590.767 567.332 610.78 567.126C611.399 567.126 612.225 566.919 612.844 566.507C614.082 565.476 616.145 563.413 616.764 559.288L244.765 559.7Z" fill="#A8A29E"/>
<path d="M549.503 566.919H553.423L593.862 815.256L590.561 815.462L549.503 566.919Z" fill="#A8A29E"/>
<path d="M331.627 567.538H327.088L277.57 815.669L281.49 815.875L331.627 567.538Z" fill="#A8A29E"/>
<path d="M360.512 567.538H355.973L306.456 797.724L310.169 797.93L360.512 567.538Z" fill="#A8A29E"/>
<path d="M516.904 566.507H521.237L568.278 796.486L564.564 796.693L516.904 566.507Z" fill="#A8A29E"/>
<path d="M334.309 553.1L439.533 548.768L455.213 475.34L348.338 476.371L332.452 552.894" fill="#D6D3D1"/>
<path d="M395.173 523.192C398.706 523.192 401.569 520.145 401.569 516.386C401.569 512.626 398.706 509.579 395.173 509.579C391.641 509.579 388.777 512.626 388.777 516.386C388.777 520.145 391.641 523.192 395.173 523.192Z" fill="white"/>
<path d="M333.483 547.531H276.126C275.713 547.531 275.507 547.737 275.3 548.15L274.475 551.656C274.475 552.069 274.681 552.481 275.094 552.481C275.094 552.481 275.094 552.481 275.3 552.481L332.452 553.1C332.864 553.1 333.071 552.894 333.277 552.481L334.308 548.562C334.308 548.15 334.102 547.737 333.483 547.531Z" fill="#D6D3D1"/>
<path d="M346.688 474.309L453.563 473.484C453.769 473.484 453.769 473.484 453.975 473.69L455.42 475.34L348.957 476.165C348.751 476.165 348.545 476.371 348.545 476.577L334.721 552.481C334.721 552.687 334.515 552.894 334.309 552.894H333.277C333.071 552.894 332.864 552.687 332.864 552.481L346.069 475.134C345.863 474.721 346.069 474.309 346.688 474.309Z" fill="#D6D3D1"/>
<path d="M532.171 514.117C531.346 513.91 530.314 513.704 529.489 513.498C527.632 513.085 525.363 513.704 524.125 515.148C523.3 516.179 522.681 517.623 522.474 519.067C521.649 523.398 523.093 527.936 526.394 530.824C528.664 533.093 531.346 535.155 534.028 536.805C534.854 537.218 535.473 538.043 535.473 538.868C536.298 541.962 537.329 545.056 538.567 547.943C538.774 548.356 538.98 548.356 539.186 548.562C544.757 550.212 550.534 550.212 556.105 548.768C557.343 548.356 557.343 548.356 557.962 547.118C560.231 541.137 561.882 534.949 562.707 528.761C563.532 522.986 563.945 517.211 563.739 511.435C563.739 510.404 563.739 510.404 562.707 509.992C561.056 509.373 559.2 509.167 557.343 509.167C552.804 508.754 548.058 508.754 543.313 508.754C540.424 508.754 537.329 509.167 534.441 509.785C533.822 509.992 533.203 510.198 532.584 510.404C532.378 510.61 532.171 510.61 532.171 511.023C532.171 512.054 532.171 513.085 532.171 514.117ZM534.028 534.124C529.077 531.649 525.982 527.936 525.569 522.367C525.363 521.13 525.569 520.098 525.982 518.654C526.394 517.623 527.013 516.798 528.045 516.592C529.695 516.386 531.14 517.211 531.965 518.654V520.305C532.171 523.811 532.584 527.317 533.203 530.618C533.409 531.855 533.616 532.886 534.028 534.124Z" fill="#D6D3D1"/>
<path d="M532.377 510.404C532.377 510.404 547.645 505.866 563.738 510.404C563.738 510.404 550.327 515.767 532.377 510.404Z" fill="#A8A29E"/>
<path d="M557.755 475.546C558.787 481.115 557.136 486.89 553.423 491.428C551.978 493.491 550.328 495.141 548.884 497.203C546.614 500.297 544.963 503.804 544.345 507.723C544.345 508.135 543.932 508.96 543.932 509.373C543.932 508.341 543.519 507.723 543.519 506.691C543.313 502.154 544.964 497.822 547.852 494.11C549.09 492.459 550.534 490.809 551.772 489.366C554.867 485.653 556.93 481.528 557.755 476.99" fill="#D6D3D1"/>
<path d="M537.948 503.391C537.948 502.772 537.742 502.36 537.536 501.947C537.329 498.235 538.567 494.522 541.25 491.634C542.694 489.984 543.932 488.334 544.963 486.684C546.408 484.622 547.233 482.146 547.646 479.671C547.852 479.259 547.852 478.021 547.852 478.846L548.058 479.053C548.265 479.671 548.264 480.496 548.471 481.115C548.471 484.415 547.233 487.715 545.17 490.397L541.456 494.935C540.012 496.791 539.186 498.853 538.567 501.122C538.361 501.329 538.361 501.741 538.361 501.947C538.361 502.36 538.155 502.772 537.948 503.391Z" fill="#D6D3D1"/>
<path d="M554.66 505.66C554.66 505.454 554.454 504.629 554.248 503.804C554.041 500.091 555.279 496.378 557.961 493.491C559.406 491.841 560.644 490.191 561.675 488.541C563.119 486.478 563.945 484.003 564.357 481.528C564.564 481.321 564.77 479.878 564.564 480.909V481.115C564.77 481.734 564.77 482.353 564.976 482.972C564.976 486.272 563.738 489.572 561.675 492.253L557.961 496.791C556.517 498.647 555.692 500.71 555.073 502.979C554.867 503.185 554.867 503.597 554.867 503.804C554.867 504.423 554.66 504.835 554.454 505.454L554.66 505.66Z" fill="#D6D3D1"/>
</svg>
