<svg width="1024" height="1500" viewBox="0 0 1024 1500" fill="none" xmlns="http://www.w3.org/2000/svg">
<path d="M489.268 1292.94H483.728L445.405 1293.41C445.405 1293.41 437.094 1330.8 433.401 1346.5C432.939 1347.43 432.477 1350.2 432.015 1352.04C431.092 1354.81 431.092 1357.58 431.092 1360.35C432.015 1374.21 437.556 1386.67 450.022 1393.14C463.874 1400.06 474.955 1406.99 489.268 1393.14C503.582 1379.28 505.89 1370.97 500.349 1347.43C494.809 1323.42 492.962 1293.41 489.268 1292.94Z" fill="#0C0A09"/>
<path d="M642.097 1340.04C617.164 1331.73 600.08 1298.02 600.08 1298.02L557.141 1295.25C557.141 1295.25 554.832 1329.88 553.909 1347.43C552.524 1370.51 556.679 1381.59 571.454 1380.21C591.769 1378.36 674.417 1386.21 687.345 1377.44C704.428 1366.82 665.644 1347.43 642.097 1340.04Z" fill="#0C0A09"/>
<path d="M649.484 967.9C651.331 985.445 638.403 1076.86 638.403 1094.41C638.403 1111.95 600.08 1298.02 600.08 1298.02L556.217 1296.64C556.217 1296.64 566.375 1021.92 564.99 1008.53C564.066 995.141 508.66 835.851 508.66 835.851C508.66 835.851 504.505 877.866 504.505 891.256C504.505 904.646 489.73 1292.94 489.73 1292.94H445.867L383.073 719.5L377.071 670.558L614.855 676.56C614.855 676.56 647.637 950.355 649.484 967.9Z" fill="#57534E"/>
<path d="M679.034 559.286L659.18 576.369L665.644 603.148L673.955 615.153C673.031 616.076 671.185 609.151 680.419 614.229L697.964 613.306L711.354 595.761C711.354 595.761 704.428 515.423 673.031 459.556L679.034 559.286ZM654.563 453.093L652.716 442.011L648.099 441.088L654.563 453.093ZM486.96 157.136C498.041 152.519 540.981 132.204 547.445 136.359C557.141 144.67 564.066 155.289 566.837 167.294C568.684 175.604 575.148 186.224 576.533 184.839C581.15 180.222 580.227 198.228 580.227 203.769C578.841 211.618 575.609 219.467 570.069 225.007C566.375 227.778 562.681 237.935 560.834 245.784C558.988 254.095 555.294 271.179 558.526 278.566C562.22 286.877 607.468 369.061 647.637 441.55L421.396 400.919L349.83 551.899L382.15 577.754L372.916 608.689L366.914 609.612C366.914 609.612 361.835 621.617 356.294 616.076C351.677 611.459 345.213 613.768 342.443 615.153C341.519 615.615 340.596 615.615 339.672 615.615L332.285 614.229L327.668 573.599L397.387 359.365C397.387 359.365 480.958 284.106 486.036 281.336C490.654 278.566 492.5 258.251 487.883 248.555C483.266 238.859 477.726 229.625 472.185 220.39C468.491 214.85 463.874 193.611 463.874 184.377C463.874 175.143 469.415 178.375 469.415 178.375C469.415 178.375 474.493 160.368 485.575 155.289C489.73 152.519 547.445 136.359 547.445 136.359" fill="url(#paint0_linear_91153_6957)"/>
<path d="M397.849 313.194C386.767 320.582 376.61 330.739 372.916 343.667C369.222 356.595 306.429 477.563 303.197 486.336C300.426 495.108 288.422 530.198 294.886 567.597C301.35 605.457 329.976 614.23 335.055 614.23C337.825 614.23 332.747 594.838 331.823 581.448C331.361 576.831 335.517 564.827 336.44 560.21C338.287 553.284 344.289 555.131 344.289 548.667C344.289 536.662 373.839 495.57 384.92 472.946C396.002 449.861 416.779 446.167 420.473 436.009C424.166 425.852 389.538 641.932 389.538 641.932C389.538 641.932 388.614 679.793 396.002 683.486C402.466 686.718 482.343 717.191 500.811 724.117C502.658 725.04 504.967 723.655 505.89 721.808L517.895 688.103C517.895 687.642 518.356 687.18 518.818 687.642C519.28 687.642 519.28 688.103 519.28 688.103L530.361 724.579C530.823 726.425 533.131 727.349 534.978 727.349L632.862 706.11C632.862 706.11 631.477 525.12 633.324 494.647C634.709 465.097 631.015 448.476 636.556 456.325C642.558 465.097 691.5 513.577 691.5 527.428C691.038 535.277 694.732 542.203 701.196 546.82L698.426 613.306C698.426 613.306 726.129 582.372 728.899 565.288C731.669 547.743 732.593 538.509 724.282 521.426C715.971 503.881 671.185 345.976 671.185 345.976C671.185 345.976 666.567 326.584 633.324 316.888C600.08 306.73 575.148 291.956 569.145 292.417C563.143 292.879 544.674 327.507 536.363 337.665C532.67 342.282 533.593 344.129 528.514 351.055C525.744 354.287 521.127 355.21 517.895 352.44C516.971 351.516 516.51 351.516 516.048 350.131C513.278 345.976 511.431 341.82 509.122 338.127C505.428 330.739 476.802 288.724 476.802 288.724C476.802 288.724 408.93 305.807 397.849 313.194Z" fill="#292524"/>
<path d="M546.983 136.359C546.983 136.359 489.73 155.751 479.111 164.985C472.647 170.987 468.953 178.375 468.953 178.375C468.953 178.375 463.412 176.066 463.412 184.377C463.412 184.377 461.104 178.836 459.257 175.604C457.41 172.372 450.484 154.366 456.948 140.514C463.412 126.663 471.723 118.352 474.955 116.044C478.187 113.735 497.579 97.1136 516.51 98.0371C535.44 98.9605 547.445 111.888 551.138 114.659C554.832 117.429 561.296 122.969 565.913 124.355C570.53 125.74 581.612 140.514 582.073 151.596C582.997 162.677 578.841 186.686 578.841 186.686C578.841 186.686 578.38 183.454 576.071 185.3C573.762 187.147 567.76 175.143 565.913 166.832C564.066 158.059 546.983 136.359 546.983 136.359Z" fill="#1C1917"/>
<path opacity="0.07" d="M472.647 710.265C472.647 710.265 446.329 850.164 460.18 906.031C480.958 990.985 450.946 1105.49 450.946 1160.43C450.946 1195.98 464.797 1295.25 465.721 1334.96C466.183 1346.96 474.493 1370.51 468.491 1376.05C465.721 1378.36 449.099 1373.28 439.403 1368.66C434.786 1366.36 431.554 1361.28 432.477 1356.2L438.018 1332.19L445.867 1300.79L391.385 789.218C391.385 789.218 373.839 675.175 383.535 674.714C393.693 674.714 472.647 710.265 472.647 710.265Z" fill="black"/>
<path d="M424.628 453.092L509.584 426.775L513.739 667.326L435.709 696.876L424.628 453.092Z" fill="white"/>
<path d="M509.584 426.775L609.776 456.786V693.182L513.739 667.326L509.584 426.775Z" fill="white"/>
<path d="M609.776 456.786L705.813 427.237L692.424 552.36L668.876 569.905C666.106 571.752 664.721 574.523 664.259 577.293L663.335 581.91C662.874 584.218 663.335 586.527 664.259 588.374L668.414 598.532C669.8 601.764 672.108 604.995 675.34 606.842L689.192 614.23L688.268 665.018L609.315 694.106V456.786H609.776Z" fill="#FAFAF9"/>
<path d="M424.628 453.093L331.361 424.005L344.289 550.975L367.375 568.52C369.684 570.367 371.531 573.137 371.992 575.908L372.916 580.525C373.378 582.833 372.916 585.142 371.992 586.989L368.299 597.146C366.913 600.378 364.605 603.61 361.373 605.457L347.983 612.844L348.907 666.403L435.709 696.876L424.628 453.093Z" fill="#FAFAF9"/>
<path d="M507.737 427.698L509.584 426.775L511.431 427.237L515.586 668.25L513.739 667.326L510.969 668.25L507.737 427.698Z" fill="#FAFAF9"/>
<defs>
<linearGradient id="paint0_linear_91153_6957" x1="327.772" y1="376.692" x2="710.726" y2="376.692" gradientUnits="userSpaceOnUse">
<stop stop-color="#F87B58"/>
<stop offset="0.41" stop-color="#F89453"/>
<stop offset="0.71" stop-color="#F8C548"/>
<stop offset="1" stop-color="#F89C51"/>
</linearGradient>
</defs>
</svg>
