<svg width="1024" height="1024" viewBox="0 0 1024 1024" fill="none" xmlns="http://www.w3.org/2000/svg">
<rect width="1024" height="1024" fill="white"/>
<g clip-path="url(#clip0_91144_5470)">
<path d="M458.938 903.111L302.896 537.548C240.202 390.637 347.9 227.412 507.537 227.412C662.56 227.412 767.145 386.02 706.263 528.569L546.399 903.111C542.74 911.684 536.645 918.993 528.871 924.13C521.096 929.267 511.985 932.005 502.669 932.005C493.352 932.005 484.241 929.267 476.467 924.13C468.693 918.993 462.598 911.684 458.938 903.111Z" fill="url(#paint0_linear_91144_5470)"/>
<path d="M504.537 571.478C571.552 571.478 625.878 517.116 625.878 450.058C625.878 382.999 571.552 328.638 504.537 328.638C437.523 328.638 383.196 382.999 383.196 450.058C383.196 517.116 437.523 571.478 504.537 571.478Z" fill="white"/>
<path d="M204.6 543.042H143.255C135.394 543.042 129.022 549.414 129.022 557.274C129.022 565.134 135.394 571.506 143.255 571.506H204.6C212.46 571.506 218.832 565.134 218.832 557.274C218.832 549.414 212.46 543.042 204.6 543.042Z" fill="#E7E5E4"/>
<path d="M879.746 543.042H818.4C810.54 543.042 804.168 549.414 804.168 557.274C804.168 565.134 810.54 571.506 818.4 571.506H879.746C887.606 571.506 893.978 565.134 893.978 557.274C893.978 549.414 887.606 543.042 879.746 543.042Z" fill="#E7E5E4"/>
<path d="M778.568 797.621L735.177 754.201C729.623 748.643 720.617 748.643 715.063 754.201C709.509 759.759 709.509 768.771 715.063 774.329L758.454 817.748C764.008 823.306 773.014 823.306 778.568 817.748C784.123 812.19 784.123 803.179 778.568 797.621Z" fill="#E7E5E4"/>
<path d="M285.27 763.453L241.879 806.872C236.325 812.43 236.325 821.441 241.879 826.999C247.434 832.557 256.439 832.557 261.994 826.999L305.385 783.58C310.939 778.022 310.939 769.011 305.385 763.453C299.83 757.895 290.825 757.895 285.27 763.453Z" fill="#E7E5E4"/>
<path d="M254.795 298.652L205.095 262.427C198.731 257.789 189.815 259.19 185.181 265.556C180.546 271.923 181.948 280.845 188.312 285.483L238.012 321.708C244.376 326.347 253.292 324.946 257.927 318.579C262.561 312.212 261.159 303.291 254.795 298.652Z" fill="#E7E5E4"/>
<path d="M524.747 167.646V106.223C524.747 98.3678 518.379 92 510.524 92C502.669 92 496.301 98.3679 496.301 106.223V167.646C496.301 175.501 502.669 181.869 510.524 181.869C518.379 181.869 524.747 175.501 524.747 167.646Z" fill="#E7E5E4"/>
<path d="M753.964 317.227L807.099 286.53C813.904 282.598 816.236 273.893 812.309 267.086C808.381 260.278 799.681 257.947 792.876 261.879L739.741 292.576C732.936 296.507 730.604 305.213 734.531 312.02C738.459 318.827 747.159 321.158 753.964 317.227Z" fill="#E7E5E4"/>
</g>
<defs>
<linearGradient id="paint0_linear_91144_5470" x1="284.781" y1="579.692" x2="723.84" y2="579.692" gradientUnits="userSpaceOnUse">
<stop stop-color="#78716C"/>
<stop offset="1" stop-color="#1C1917"/>
</linearGradient>
<clipPath id="clip0_91144_5470">
<rect width="765" height="840" fill="white" transform="translate(129 92)"/>
</clipPath>
</defs>
</svg>
