<svg width="1024" height="1024" viewBox="0 0 1024 1024" fill="none" xmlns="http://www.w3.org/2000/svg">
<g clip-path="url(#clip0_91175_9623)">
<path d="M59.7001 477.403C45.5239 451.309 41.4511 420.826 48.4218 391.989C68.2372 310.257 124.316 166.776 272.736 187.071C478.722 215.282 538.639 222.334 623.148 195.848C707.657 169.362 853.806 169.44 899.546 229.309C927.272 265.59 1021.02 428.349 961.185 484.769C901.347 541.19 990.164 652.778 992.906 712.02C995.647 771.261 910.198 778.941 802.74 780.743C695.282 782.546 71.0568 762.015 71.0568 762.015C71.0568 762.015 -8.98816 623.941 54.4526 574.651C93.6918 544.089 76.0694 507.573 59.7001 477.403Z" fill="#FAFAF9"/>
<path d="M122.123 697.444C108.416 696.974 56.9589 704.026 53.9043 706.691C53.1211 707.396 41.8427 740.935 91.4205 784.191C170.682 853.463 383.874 855.814 452.954 829.484C553.206 791.243 663.092 862.945 890.774 835.518C963.535 826.742 1012.17 715.232 979.121 700.735C959.305 692.115 935.574 714.997 915.68 704.967C892.732 693.369 846.287 686.16 817.543 695.015C816.368 695.328 815.663 696.582 815.976 697.757C816.29 698.854 817.386 699.56 818.561 699.325L803.445 704.183C786.606 716.721 790.365 700.03 750.891 697.914L634.504 695.015C592.916 696.269 432.747 703.321 370.09 700.814H335.628C312.602 697.914 252.999 696.582 250.806 696.504L122.123 697.444Z" fill="#F5F5F4"/>
<path d="M169.507 526.85H204.752C204.752 526.85 215.717 528.417 216.501 536.253C217.284 544.089 216.266 646.038 216.266 646.038L286.99 645.177C286.99 645.177 294.039 647.527 294.039 655.364C294.039 663.2 288.557 666.334 288.557 666.334L181.099 665.864L169.507 526.85Z" fill="#E7E5E4"/>
<path d="M169.507 526.85C169.507 526.85 159.326 528.417 158.542 544.089C157.759 559.762 158.542 665.551 158.542 665.551L265.922 666.334C267.488 666.334 268.976 665.707 269.994 664.532C271.561 662.808 273.676 660.144 273.676 657.714C273.676 653.483 272.109 646.744 263.494 646.744C254.878 646.744 182.039 645.96 182.039 645.96L180.473 536.253C180.473 536.331 180.473 528.417 169.507 526.85Z" fill="#D6D3D1"/>
<path d="M214.464 666.099C214.464 666.099 212.584 674.954 218.85 674.954H229.032C229.815 674.954 233.183 670.252 231.068 666.334C228.954 662.416 214.464 666.099 214.464 666.099Z" fill="#F5F5F4"/>
<path d="M218.85 675.032L219.633 763.503H226.682L227.074 674.484L218.85 675.032Z" fill="#E7E5E4"/>
<path d="M189.871 761.936L257.228 762.72V768.989L189.871 768.205V761.936Z" fill="#E7E5E4"/>
<path d="M323.018 769.772L319.885 605.995H336.333L335.55 769.772H323.018Z" fill="white"/>
<path d="M680.949 606.779H698.963L692.698 770.556L680.949 771.34V606.779Z" fill="white"/>
<path d="M307.354 577.785L308.137 604.428L706.796 606.779L707.266 577.001L307.354 577.785Z" fill="#E7E5E4"/>
<path d="M283.074 562.896L731.075 564.463V579.352L283.857 578.569L283.074 562.896Z" fill="#F5F5F4"/>
<path d="M831.092 702.224L831.876 768.832L921.163 767.265V702.224H831.092Z" fill="#E7E5E4"/>
<path d="M901.582 767.578L901.661 702.224H895.943" fill="white"/>
<path d="M854.276 702.067C854.276 702.067 852.161 662.573 870.802 651.367C889.442 640.161 873.465 613.988 877.224 600.118C880.984 586.248 898.528 576.061 898.528 565.404C898.528 554.747 896.961 524.812 917.168 515.801C937.375 506.789 953.431 518.465 947.087 536.096C940.743 553.728 935.887 574.024 928.917 580.371C921.946 586.718 924.687 596.905 925.705 609.208C926.724 621.511 917.168 641.729 911.842 649.251C906.517 656.774 911.842 669.547 910.276 682.869C910.276 682.869 907.378 701.519 904.402 702.146C901.426 702.773 854.276 702.067 854.276 702.067Z" fill="#F5F5F4"/>
<path d="M895.943 703.321C895.943 703.321 898.293 684.514 877.459 679.186C856.625 673.857 874.483 661.397 870.332 654.815C866.181 648.233 846.522 643.374 846.522 638.359C846.522 633.344 848.323 619.082 825.688 614.772C803.053 610.462 785.196 616.026 792.323 624.411C799.45 632.795 804.855 642.434 812.53 645.49C820.206 648.546 817.308 653.326 816.133 659.203C814.958 665.08 825.688 674.719 831.641 678.245C837.593 681.772 831.641 687.884 833.442 694.231C833.442 694.231 836.732 703.086 839.943 703.4C843.154 703.713 895.943 703.321 895.943 703.321Z" fill="#F5F5F4"/>
<path d="M878.556 703.243C878.556 703.243 876.911 683.574 891.4 678.01C905.89 672.446 893.515 659.438 896.335 652.542C899.154 645.647 912.939 640.631 912.939 635.303C912.939 629.974 911.686 615.164 927.428 610.619C943.171 606.074 955.624 611.951 950.612 620.727C945.599 629.504 941.918 639.534 936.514 642.747C931.11 645.96 933.224 650.975 934.007 657.087C934.791 663.2 927.35 673.308 923.199 676.991C919.048 680.674 923.199 687.1 921.946 693.683C921.946 693.683 919.675 702.929 917.403 703.243C915.132 703.556 878.556 703.243 878.556 703.243Z" fill="#F5F5F4"/>
<path d="M376.121 324.518L376.669 474.817L794.516 474.19V325.694L376.121 324.518Z" fill="white"/>
<path d="M450.84 371.536V390.029L621.973 389.246V371.536H450.84Z" fill="#F5F5F4"/>
<path d="M450.84 423.02V441.513L621.973 440.73V423.02H450.84Z" fill="#F5F5F4"/>
<path d="M421.939 396.455C429.033 396.455 434.784 390.701 434.784 383.604C434.784 376.506 429.033 370.752 421.939 370.752C414.845 370.752 409.094 376.506 409.094 383.604C409.094 390.701 414.845 396.455 421.939 396.455Z" fill="#F5F5F4"/>
<path d="M421.939 444.491C429.033 444.491 434.784 438.737 434.784 431.64C434.784 424.542 429.033 418.788 421.939 418.788C414.845 418.788 409.094 424.542 409.094 431.64C409.094 438.737 414.845 444.491 421.939 444.491Z" fill="#F5F5F4"/>
<path d="M770.315 391.753H668.731V441.356H770.315V391.753Z" fill="#E7E5E4"/>
<path d="M667.086 439.006C667.086 439.006 674.997 421.688 682.516 423.568C690.035 425.449 691.914 433.364 697.554 429.994C703.193 426.624 706.874 412.989 712.356 410.795C720.189 407.739 722.773 411.109 733.347 417.143C743.92 423.176 748.385 421.844 752.692 417.378C756.687 413.303 764.049 402.254 772.194 397.317" stroke="#F5F5F4" stroke-width="0.679273" stroke-linecap="round" stroke-linejoin="round"/>
<path d="M343.539 326.478H192.377V470.272H343.539V326.478Z" fill="white"/>
<path d="M266 452.641C287.585 452.641 305.083 435.134 305.083 413.538C305.083 391.942 287.585 374.435 266 374.435C244.415 374.435 226.917 391.942 226.917 413.538C226.917 435.134 244.415 452.641 266 452.641Z" stroke="#F5F5F4" stroke-width="1.35855" stroke-linecap="round" stroke-linejoin="round"/>
<path d="M240.78 338.937H202.324V348.027H240.78V338.937Z" fill="#F5F5F4"/>
<path d="M240.78 353.199H202.324V362.289H240.78V353.199Z" fill="#F5F5F4"/>
<path d="M314.716 539.544H434C434 539.544 438.465 539.309 438.465 534.137V523.872H310.017V536.331C310.644 538.291 312.523 539.623 314.716 539.544Z" fill="#D6D3D1"/>
<path d="M310.017 446.293L309.939 527.79L438.465 526.615V443.942C438.465 443.942 439.248 439.241 434.235 439.241H314.873C314.873 439.241 309.469 439.241 310.017 446.293Z" fill="#D6D3D1"/>
<path d="M364.059 561.407V538.761L382.856 539.544V559.448L364.059 561.407Z" fill="#D6D3D1"/>
<path d="M334.218 559.135H412.305L412.384 563.053H334.218V559.135Z" fill="#D6D3D1"/>
<path d="M373.066 529.436C375.181 529.436 376.825 531.081 376.825 533.197C376.825 535.313 375.181 536.958 373.066 536.958C370.951 536.958 369.307 535.313 369.307 533.197C369.307 531.081 371.03 529.436 373.066 529.436Z" fill="white"/>
<path d="M434.549 443.159H313.933V522.305H434.549V443.159Z" fill="#FAFAF9"/>
<path d="M319.964 447.234C320.982 447.234 321.844 448.096 321.844 449.114C321.844 450.133 320.982 450.995 319.964 450.995C318.946 450.995 318.084 450.133 318.084 449.114C318.084 448.096 318.946 447.234 319.964 447.234Z" fill="#FA5F5D"/>
<path d="M326.386 447.234C327.404 447.234 328.266 448.096 328.266 449.114C328.266 450.133 327.404 450.995 326.386 450.995C325.368 450.995 324.506 450.133 324.506 449.114C324.506 448.096 325.368 447.234 326.386 447.234Z" fill="#FDBC4E"/>
<path d="M333.122 447.234C334.14 447.234 335.002 448.096 335.002 449.114C335.002 450.133 334.14 450.995 333.122 450.995C332.104 450.995 331.242 450.133 331.242 449.114C331.242 448.096 332.104 447.234 333.122 447.234Z" fill="#37CD58"/>
<path d="M359.36 461.025C359.281 462.044 358.42 462.828 357.402 462.749H334.297C333.122 462.749 331.947 461.966 331.947 461.025V457.499C331.947 456.559 333.044 455.697 334.297 455.697H357.323C358.342 455.618 359.281 456.402 359.36 457.421V457.499V461.025Z" fill="#A8A29E"/>
<path d="M414.968 484.377C414.89 485.474 413.95 486.336 412.854 486.258H334.297C333.122 486.258 331.947 485.396 331.947 484.377V466.981C331.947 465.962 333.122 465.1 334.297 465.1H412.854C413.95 465.022 414.89 465.884 414.968 466.981V484.377Z" fill="#D6D3D1"/>
<path d="M357.793 499.266C357.793 500.285 356.932 501.147 355.914 501.147H334.297C333.044 501.147 331.947 500.285 331.947 499.266V489.706C331.947 488.687 333.122 487.825 334.297 487.825H355.757C356.775 487.747 357.715 488.531 357.793 489.628V489.706V499.266Z" fill="#D6D3D1"/>
<path d="M385.989 499.266C385.989 500.285 385.128 501.147 384.109 501.147H362.493C361.239 501.147 360.143 500.285 360.143 499.266V489.706C360.143 488.687 361.318 487.825 362.493 487.825H383.953C384.971 487.747 385.911 488.531 385.989 489.628V489.706V499.266Z" fill="#D6D3D1"/>
<path d="M414.968 499.266C414.89 500.363 413.95 501.225 412.854 501.147H391.393C390.219 501.225 389.279 500.363 389.122 499.266V489.706C389.2 488.531 390.219 487.747 391.393 487.825H412.854C413.95 487.747 414.968 488.609 415.047 489.706L414.968 499.266Z" fill="#D6D3D1"/>
<path d="M385.989 504.673C385.832 505.065 385.519 505.3 385.128 505.378C385.049 505.378 385.049 505.378 384.971 505.065H361.318C360.848 505.378 360.143 505.065 360.143 504.673V504.36C360.143 503.968 360.848 503.576 361.318 503.498H384.971C385.363 503.576 385.598 503.89 385.676 504.203C385.676 504.281 385.676 504.281 385.911 504.36L385.989 504.673Z" fill="#D6D3D1"/>
<path d="M385.989 507.729C385.832 508.121 385.519 508.435 385.128 508.513C385.128 508.513 385.049 508.513 385.049 508.199H361.318C360.848 508.513 360.143 508.199 360.143 507.729V507.416C360.143 507.024 360.848 506.711 361.318 506.632H384.971C385.363 506.711 385.754 507.024 385.911 507.416L385.989 507.729Z" fill="#D6D3D1"/>
<path d="M385.989 510.864C385.832 511.334 385.441 511.647 385.049 511.726C385.049 511.569 385.049 511.491 385.049 511.334H361.318C360.926 511.569 360.456 511.491 360.221 511.099C360.143 511.02 360.143 510.942 360.143 510.864V510.55C360.143 510.158 360.848 509.923 361.318 509.767H384.971C385.363 509.845 385.754 510.158 385.911 510.55L385.989 510.864Z" fill="#D6D3D1"/>
<path d="M385.989 513.92C385.754 514.39 385.441 514.86 385.049 515.252H361.318C360.848 514.86 360.143 514.39 360.143 513.92V513.606C360.143 513.215 360.848 512.744 361.318 512.901H384.971C385.284 512.823 385.598 513.058 385.676 513.371C385.676 513.45 385.676 513.528 385.676 513.606C385.676 513.606 385.676 513.606 385.911 513.685L385.989 513.92Z" fill="#D6D3D1"/>
<path d="M372.831 517.054C372.831 517.446 372.596 517.603 372.126 517.603H361.239C360.769 517.603 360.143 517.446 360.143 517.054V516.741C360.143 516.349 360.769 516.036 361.239 516.036H372.126C372.518 516.036 372.831 516.349 372.831 516.741V517.054Z" fill="#D6D3D1"/>
<path d="M414.968 504.673C414.498 505.065 414.577 505.378 414.107 505.065H390.454C390.062 505.378 389.67 505.143 389.67 504.752C389.67 504.752 389.67 504.752 389.905 504.673V504.36C389.67 503.968 389.984 503.576 390.454 503.498H414.107C414.577 503.654 414.498 503.968 414.968 504.36V504.673Z" fill="#D6D3D1"/>
<path d="M414.968 507.729C414.498 508.121 414.577 508.513 414.107 508.199H390.454C389.984 508.513 389.67 508.199 389.905 507.729V507.416C389.67 507.024 389.984 506.711 390.454 506.632H414.107C414.577 506.789 414.498 507.024 414.968 507.416V507.729Z" fill="#D6D3D1"/>
<path d="M414.968 510.864C414.498 511.256 414.577 511.726 414.107 511.334H390.454C389.984 511.647 389.67 511.334 389.905 510.864V510.55C389.67 510.158 389.984 509.923 390.454 509.767H414.107C414.577 509.923 414.498 510.158 414.968 510.55V510.864Z" fill="#D6D3D1"/>
<path d="M414.968 513.92C414.498 514.312 414.577 514.86 414.107 515.252H390.454C389.984 514.782 389.67 514.39 389.905 513.92V513.606C389.749 513.45 389.749 513.136 389.905 512.98C390.062 512.901 390.219 512.823 390.375 512.901H414.107C414.577 512.744 414.498 513.215 414.968 513.606V513.92Z" fill="#D6D3D1"/>
<path d="M401.967 517.054C401.967 517.446 401.967 517.603 401.575 517.603H390.61C390.14 517.603 389.905 517.446 389.905 517.054V516.741C389.905 516.349 390.219 516.036 390.61 516.036H401.497C401.967 516.036 401.888 516.349 401.888 516.741L401.967 517.054Z" fill="#D6D3D1"/>
<path d="M357.01 504.673C357.323 505.065 357.167 505.378 356.697 505.065H332.965C332.652 505.3 332.26 505.222 332.104 504.987C332.025 504.908 332.025 504.83 331.947 504.673V504.36C332.104 503.89 332.495 503.576 332.965 503.498H356.618C357.088 503.654 357.245 503.968 356.932 504.36L357.01 504.673Z" fill="#D6D3D1"/>
<path d="M357.01 507.729C357.323 508.121 357.167 508.513 356.697 508.199H332.965C332.495 508.591 332.104 508.199 331.947 507.729V507.416C332.025 507.024 332.495 506.711 332.965 506.632H356.618C357.088 506.789 357.245 507.024 356.932 507.416L357.01 507.729Z" fill="#D6D3D1"/>
<path d="M357.01 510.864C357.323 511.256 357.167 511.726 356.697 511.334H332.965C332.495 511.726 332.104 511.334 331.947 510.864V510.55C332.025 510.158 332.495 509.923 332.965 509.767H356.618C357.088 509.923 357.245 510.158 356.932 510.55L357.01 510.864Z" fill="#D6D3D1"/>
<path d="M349.961 512.901H356.697C357.167 512.744 357.323 513.215 357.01 513.606V513.92C357.323 514.312 357.167 514.86 356.697 515.252H332.965C332.495 514.939 332.182 514.468 331.947 513.92V513.606C332.025 513.136 332.495 512.823 332.965 512.901H349.961Z" fill="#D6D3D1"/>
<path d="M345.262 517.054C345.262 517.446 345.027 517.603 344.557 517.603H332.809C332.339 517.603 331.947 517.446 331.947 517.054V516.741C332.025 516.349 332.417 516.036 332.809 516.036H344.557C344.948 516.036 345.262 516.349 345.262 516.663C345.262 516.663 345.262 516.663 345.262 516.741V517.054Z" fill="#D6D3D1"/>
</g>
<defs>
<clipPath id="clip0_91175_9623">
<rect width="963" height="666" fill="white" transform="translate(30 179)"/>
</clipPath>
</defs>
</svg>
