<svg width="1024" height="1524" viewBox="0 0 1024 1524" fill="none" xmlns="http://www.w3.org/2000/svg">
<g clip-path="url(#clip0_91156_7378)">
<path d="M753.388 1416.06C745.613 1411.07 736.449 1404.68 713.679 1400.24C695.074 1396.91 683.966 1367.76 683.966 1367.76H640.646C640.646 1367.76 636.759 1416.06 638.702 1419.95C640.646 1423.84 641.757 1428 651.754 1431.06C661.751 1434.11 749.501 1433 753.388 1432.17C757.276 1431.33 768.106 1425.5 753.388 1416.06Z" fill="#292524"/>
<path d="M249.659 951.584C243.827 960.19 218.28 1044.04 218.002 1048.2C217.725 1052.36 219.946 1064.3 233.275 1053.2C240.495 1047.09 249.381 1040.43 260.211 1019.88C269.097 1003.22 300.199 1001.28 300.199 1001.28L313.528 960.19C313.528 960.19 268.542 941.867 264.099 942.422C259.656 942.977 255.49 942.977 249.659 951.584Z" fill="#292524"/>
<path d="M534.847 799.441C533.736 799.718 532.348 807.77 532.07 808.88C525.683 829.425 465.424 1012.66 465.424 1020.44C465.424 1028.21 336.299 969.908 315.472 960.746C313.806 959.913 312.14 960.746 311.307 962.134C307.141 971.018 295.201 997.393 299.366 1000.45C304.642 1004.06 440.432 1100.95 451.54 1103.73C462.648 1106.5 479.309 1120.38 507.078 1087.07C530.959 1058.47 597.605 950.196 616.21 919.934C617.043 918.545 618.987 917.99 620.375 918.823C621.209 919.378 621.764 920.211 622.042 921.322C625.374 950.473 626.762 1063.47 636.482 1093.73C646.201 1123.99 632.316 1156.48 632.316 1200.9L640.369 1364.42C640.369 1366.09 641.758 1367.48 643.424 1367.48L680.912 1368.31C682.578 1368.31 683.966 1367.2 684.244 1365.54C686.743 1339.16 711.458 1141.49 713.957 1110.67C716.734 1077.35 732.84 797.775 728.397 780.839C725.065 770.289 555.396 796.109 534.847 799.441Z" fill="#57534E"/>
<path d="M548.732 307.197C548.732 307.197 558.173 269.438 565.671 269.438C573.168 269.438 618.709 274.991 624.263 301.644C629.817 328.297 650.644 343.289 650.644 375.494C650.644 407.7 663.973 422.692 663.973 422.692C663.973 422.692 678.968 375.217 690.076 354.672C701.183 334.127 720.899 321.078 720.899 307.197C720.899 293.315 704.238 135.619 702.85 131.455C701.461 127.29 697.296 102.303 707.015 88.1437C707.015 88.1437 737.005 63.4343 740.893 53.4395C743.948 45.1105 753.667 40.3908 759.221 50.1079C764.774 59.8251 741.726 86.2003 737.838 96.7504C734.506 106.745 732.007 117.018 730.896 127.568C730.896 130.344 725.342 172.267 725.342 193.089C725.342 213.912 737.838 279.711 737.838 300.533C737.838 321.356 691.742 404.923 687.577 420.471C683.411 436.018 549.287 582.331 546.51 586.496C543.733 590.66 529.849 622.866 529.849 633.971C529.849 645.076 529.849 681.446 535.402 674.506C540.956 667.565 564.005 612.038 568.17 605.097C572.335 598.156 605.38 591.493 620.931 587.329C636.482 583.164 659.252 591.493 656.475 601.21C653.698 610.927 608.435 629.251 593.995 632.86C584.831 635.082 545.122 678.948 542.345 691.441C539.568 703.935 503.19 685.888 503.19 667.842C503.19 649.796 507.356 557.622 512.91 545.128C518.463 532.635 543.733 478.219 557.618 450.178C571.502 422.137 540.956 408.255 535.402 388.821C529.849 369.386 548.732 307.197 548.732 307.197Z" fill="url(#paint0_linear_91156_7378)"/>
<path d="M668.694 396.317C668.694 396.317 705.071 331.073 708.681 314.693C712.291 298.312 703.127 130.899 703.127 130.899L731.174 126.735C731.174 126.735 758.11 281.932 761.72 299.978C765.33 318.024 752.278 356.893 739.782 378.826C727.286 400.759 692.853 492.656 692.853 503.483C692.853 514.311 695.074 617.313 700.628 637.303C706.182 657.292 728.675 781.394 728.675 781.394L534.292 799.718C534.292 799.718 542.9 745.58 542.345 727.533C540.956 687.832 530.126 658.403 559.006 639.801C578.444 627.585 596.772 633.416 617.599 623.143C641.758 611.205 647.311 601.488 648.7 594.825C649.533 590.938 643.424 582.054 605.936 595.935C593.44 600.655 568.17 600.377 567.614 616.48C567.337 630.084 584.831 659.513 563.727 672.84C563.727 672.84 539.568 729.755 517.075 738.639C497.637 746.135 474.588 725.59 475.144 698.66C475.699 666.454 477.643 604.82 492.36 577.889C507.078 550.959 547.343 481.828 554.563 476.275C561.783 470.723 583.72 497.098 609.268 493.488C634.815 489.879 645.368 477.941 650.921 465.448C656.475 452.954 668.694 396.317 668.694 396.317Z" fill="#A8A29E"/>
<path d="M587.608 277.767C598.993 296.091 613.711 311.916 630.927 324.965C660.362 347.731 631.205 411.031 629.817 442.682C628.706 467.946 643.701 502.928 680.078 526.527C706.181 543.74 687.854 582.609 687.854 602.043C687.854 621.478 730.063 574.557 731.729 552.347C733.673 524.861 726.73 505.427 707.292 483.216C689.242 462.394 668.138 384.379 662.306 347.453C661.751 343.566 661.473 339.957 661.751 336.07C662.306 323.022 660.64 281.654 623.43 258.333C578.999 230.57 551.23 256.112 533.181 271.382C511.243 289.983 502.357 341.901 507.911 422.414C513.465 502.928 499.58 548.738 490.139 572.059C468.479 625.087 527.349 587.884 538.179 557.344C552.063 518.198 561.783 515.144 581.499 484.604C589.274 472.666 578.999 432.132 570.391 415.196C554.007 382.435 544.566 368.831 544.566 346.62C544.566 324.41 570.946 286.096 587.608 277.767Z" fill="#1C1917"/>
<path opacity="0.07" d="M596.217 421.582C596.217 421.582 627.596 423.525 636.204 403.535C637.037 401.314 631.206 464.615 629.54 456.286C627.318 447.679 596.217 421.582 596.217 421.582Z" fill="black"/>
<path opacity="0.07" d="M540.956 567.894C540.956 567.894 533.736 612.871 529.849 633.416C527.627 644.521 526.239 655.626 525.961 667.009C525.961 667.009 552.619 633.693 561.228 620.367C566.504 612.038 550.398 616.202 549.009 585.663C547.621 555.123 547.898 535.411 547.898 535.411L540.956 567.894Z" fill="black"/>
<path opacity="0.07" d="M543.178 712.541C543.178 712.541 567.059 689.22 568.17 677.004C569.559 660.901 580.944 661.734 580.944 671.729C580.944 681.724 563.172 756.407 574.002 776.119C584.831 795.831 593.44 795.554 593.44 795.554L535.125 799.718L543.178 712.541Z" fill="black"/>
<path opacity="0.07" d="M593.161 795.276C593.161 795.276 596.494 854.69 575.389 874.402C532.347 914.658 557.617 967.409 538.456 990.452C522.35 1009.61 518.185 1064.86 479.586 1077.07C464.313 1082.07 409.331 1048.48 398.223 1044.59C374.619 1036.54 357.958 991.285 284.37 967.964C267.153 962.411 329.634 968.242 329.634 968.242L465.146 1024.32L535.124 799.718L593.161 795.276Z" fill="black"/>
</g>
<defs>
<linearGradient id="paint0_linear_91156_7378" x1="311.862" y1="427.483" x2="630.128" y2="427.483" gradientUnits="userSpaceOnUse">
<stop stop-color="#F87B58"/>
<stop offset="0.5" stop-color="#F8C548"/>
<stop offset="1" stop-color="#F89C51"/>
</linearGradient>
<clipPath id="clip0_91156_7378">
<rect width="544" height="1389" fill="white" transform="translate(218 44)"/>
</clipPath>
</defs>
</svg>
