<svg width="1024" height="1524" viewBox="0 0 1024 1524" fill="none" xmlns="http://www.w3.org/2000/svg">
<path d="M444.603 1290.7L413.026 1297.82C413.026 1297.82 405.465 1322.74 401.907 1336.09C401.463 1336.98 401.018 1339.21 400.573 1340.55C400.128 1342.77 399.684 1345 399.684 1347.67C400.573 1359.68 405.02 1369.92 415.694 1375.26C427.258 1381.49 436.598 1386.84 449.051 1375.26C461.504 1363.69 463.727 1356.57 458.39 1336.54C452.609 1316.96 444.603 1290.7 444.603 1290.7Z" fill="#1C1917"/>
<path d="M628.729 1332.09C607.381 1325.41 598.041 1298.71 598.041 1298.71L554.9 1296.48C554.9 1296.48 554.011 1323.63 552.677 1337.88C551.342 1357.46 554.9 1365.92 567.798 1365.03C585.143 1363.69 655.858 1369.92 666.977 1362.8C681.654 1354.34 648.742 1338.32 628.729 1332.09Z" fill="#1C1917"/>
<path d="M377.891 683.147C377.891 683.147 361.88 705.402 356.543 765.044C351.651 824.686 362.77 937.739 368.107 959.993C373.444 981.803 394.347 1186.1 399.684 1201.23C405.021 1216.37 412.137 1297.82 412.137 1297.82L446.383 1298.71C446.383 1298.71 456.612 1192.33 456.612 1164.29C456.612 1136.25 470.399 870.085 469.51 850.501C468.62 830.917 473.068 837.149 473.068 837.149C473.068 837.149 503.31 932.843 512.205 948.421C521.1 964.444 537.111 995.156 537.111 995.156C537.111 995.156 540.669 1094.86 545.117 1152.72C549.564 1210.58 554.012 1301.38 554.012 1301.38L599.821 1300.49C599.821 1300.49 610.495 1148.71 610.495 1116.67C610.495 1084.62 620.279 1008.06 620.279 999.161C620.279 990.26 590.036 834.478 590.036 834.478L569.133 683.147H377.891Z" fill="#57534E"/>
<path d="M397.015 265.208C397.015 265.208 417.029 187.317 432.595 181.976C493.97 159.276 500.197 120.553 526.437 230.936C552.677 341.318 625.171 468.614 656.304 506.447C698.999 558.077 695.441 591.459 679.875 594.574C664.754 597.69 587.367 618.164 581.141 619.945C574.914 621.725 593.594 675.581 567.798 668.014C553.567 664.008 552.232 600.361 570.022 597.245C577.583 595.91 663.42 578.996 662.975 574.1C662.53 569.204 596.262 477.071 596.262 477.071L553.566 457.041L447.716 399.625L397.015 374.255L391.678 289.688L388.12 273.219L397.015 265.208Z" fill="url(#paint0_linear_91153_7003)"/>
<path d="M383.228 369.359C383.228 369.359 383.673 375.59 369.441 396.064C360.991 408.527 382.783 399.625 364.104 431.226C334.751 481.076 318.295 534.487 316.071 567.424C314.737 587.898 332.527 583.892 340.088 590.124C344.09 593.684 357.433 587.898 360.546 583.002L366.772 572.32C368.551 570.095 385.007 546.06 385.452 542.944C386.786 533.597 396.126 493.984 399.239 479.741C401.907 467.724 422.811 440.128 440.156 383.602C445.048 366.243 440.156 359.122 441.49 351.11C445.048 325.295 409.023 325.74 405.91 334.642C405.021 336.867 377.891 445.024 376.557 459.267C376.112 464.163 385.897 506.892 393.013 518.464C400.129 530.036 409.024 538.493 409.024 549.175C409.024 559.857 404.131 601.696 396.571 620.39C389.01 639.084 377.891 682.257 377.891 682.257L570.023 681.367C570.023 681.367 562.906 599.025 566.02 570.095C566.02 570.095 574.025 477.071 578.918 467.724C583.81 458.377 634.956 542.499 648.298 563.863C653.635 572.765 580.697 588.343 574.47 595.465C568.244 602.586 580.697 621.725 580.697 621.725C580.697 621.725 708.339 606.147 707.45 586.563C706.56 566.979 634.511 416.983 608.716 388.498C582.92 360.012 576.249 360.902 554.456 368.914C532.664 376.925 522.434 383.602 493.526 388.498C472.178 392.058 450.385 388.053 431.706 377.37C421.032 372.474 383.228 369.359 383.228 369.359Z" fill="#D6D3D1"/>
<path d="M356.988 443.689C359.211 440.573 361.435 437.458 363.214 433.897C364.993 430.781 365.883 429.001 366.772 427.22C376.112 411.197 397.46 375.145 401.018 359.122C402.797 352.89 404.576 346.214 405.465 339.983C406.355 335.532 406.355 331.081 405.91 326.63C404.576 318.618 388.12 284.347 390.344 281.231C390.788 280.786 392.567 270.994 395.681 274.109C399.239 277.67 422.81 290.578 424.589 293.248C429.037 301.26 432.595 310.162 435.263 319.064C437.042 324.405 438.377 339.538 438.821 340.873C443.714 353.781 437.932 363.128 438.377 369.804C438.821 372.029 438.821 381.821 439.711 382.711C443.269 384.937 447.716 387.162 449.495 384.937C451.274 382.711 450.83 375.59 450.83 368.914C452.164 334.197 445.493 302.15 437.487 285.237C429.482 268.323 410.357 235.387 423.255 216.248C436.153 197.109 463.282 182.421 464.617 177.525C465.951 172.629 466.396 195.774 481.072 203.785C495.749 211.797 515.763 234.051 515.763 238.502C515.763 242.953 520.655 258.976 506.868 286.127C493.081 313.277 482.407 347.994 501.531 373.81C520.655 399.625 568.243 435.677 571.801 444.134C575.359 452.146 571.801 488.643 570.467 509.117C569.133 529.591 609.16 474.4 607.826 447.695C606.492 420.989 611.384 409.417 584.254 368.914C557.124 328.41 538.89 258.531 538.445 241.618C537.556 224.704 529.995 177.525 513.539 163.727C497.083 149.929 495.749 137.467 450.385 141.918C450.385 141.918 412.136 143.253 401.462 180.641C390.788 218.028 389.01 270.549 388.565 278.56C388.12 287.017 392.123 339.983 387.23 356.896C382.338 373.365 360.101 408.972 355.653 423.215" fill="#1C1917"/>
<path opacity="0.07" d="M429.927 1297.82C430.372 1298.71 430.372 1299.15 430.372 1300.04C430.816 1305.38 430.372 1318.74 424.59 1327.19C417.474 1338.32 434.374 1362.36 434.374 1368.59C434.374 1374.82 426.369 1380.16 421.032 1378.38C415.695 1376.6 392.568 1363.69 401.463 1335.65C405.021 1324.52 407.245 1314.29 409.469 1308.05C410.803 1304.94 411.692 1301.82 412.582 1298.71C413.026 1297.37 413.027 1296.04 413.027 1294.26C412.582 1292.48 412.582 1290.25 412.582 1288.03C411.247 1277.34 365.883 939.965 364.104 926.612C362.77 915.039 356.099 843.825 356.543 801.987C356.099 798.426 356.099 794.865 356.099 791.304C356.099 790.414 356.543 786.408 356.543 784.628C356.988 780.622 356.988 777.061 357.433 773.056C356.543 769.94 356.988 769.94 357.433 765.044C357.878 760.148 357.433 757.032 357.878 753.917C362.325 725.431 372.999 693.384 377.891 684.038L379.226 679.142C379.226 679.142 387.676 641.309 391.679 633.297C395.237 626.176 409.913 554.516 408.579 546.505C407.245 538.493 392.123 518.464 392.123 518.464L394.347 507.782C394.347 507.782 399.239 491.759 404.132 478.406C408.134 468.169 420.142 440.573 425.479 429.001C433.485 409.862 437.488 402.295 439.267 389.388C440.601 379.596 441.49 384.047 445.938 385.827C452.164 388.053 452.609 384.937 452.609 379.151C453.054 360.457 452.164 341.763 450.385 323.069C448.606 308.381 433.485 284.792 426.814 270.549C422.811 262.982 420.142 254.971 417.474 246.959C414.806 234.496 414.805 220.699 426.814 208.681C437.043 198.444 467.731 177.08 467.731 177.08C467.731 177.08 453.498 206.011 459.28 215.803C468.62 230.936 464.173 250.075 464.173 256.751C464.173 263.427 456.612 280.341 461.504 297.254C469.509 327.52 455.722 344.434 460.615 364.908C463.728 377.37 465.507 381.376 462.393 392.503C459.28 403.631 428.148 487.308 445.493 536.268C462.394 585.228 470.399 619.5 443.269 648.875C415.695 678.251 441.046 704.512 441.49 724.986C442.825 776.171 417.919 770.385 416.584 801.987C415.25 833.588 421.922 856.733 422.811 873.201C424.145 927.947 423.256 938.629 420.587 959.994C417.919 981.358 403.242 1021.86 419.253 1101.98C435.264 1182.09 433.04 1189.22 431.706 1234.17C428.148 1280.01 429.927 1297.82 429.927 1297.82Z" fill="black"/>
<path d="M383.673 249.184C390.345 244.733 397.016 240.728 404.132 236.722C413.027 233.161 417.029 246.514 419.698 252.3C421.922 258.531 433.93 295.474 434.819 298.144C435.264 299.48 433.04 299.035 426.814 303.93C425.924 304.821 424.145 304.376 422.366 299.925C421.477 297.699 418.364 291.913 414.806 289.688C413.471 288.797 390.789 281.231 390.344 283.011C389.9 285.237 395.682 299.034 398.35 306.601C398.795 307.491 402.353 315.058 401.908 316.838C401.463 317.283 402.353 316.838 402.353 316.838C402.353 316.838 398.35 318.173 397.016 316.838C395.681 315.503 384.118 278.115 380.115 263.872C379.226 260.757 377.002 256.306 379.226 254.525L383.673 249.184Z" fill="#F5F5F4"/>
<defs>
<linearGradient id="paint0_linear_91153_7003" x1="387.944" y1="412.666" x2="690.339" y2="412.666" gradientUnits="userSpaceOnUse">
<stop stop-color="#F87B58"/>
<stop offset="0.5" stop-color="#F8C548"/>
<stop offset="1" stop-color="#F89C51"/>
</linearGradient>
</defs>
</svg>
