<svg width="1024" height="1024" viewBox="0 0 1024 1024" fill="none" xmlns="http://www.w3.org/2000/svg">
<rect width="1024" height="1024" fill="white"/>
<g clip-path="url(#clip0_91128_4963)">
<path d="M191.607 305.273L843.789 309.149L842.38 155.354C842.38 155.354 827.543 121.105 795.073 116.477C762.604 111.849 265.467 118.826 265.467 118.826L219.874 120.893C184.658 121.739 173.647 156.505 177.92 186.386L191.607 305.273Z" fill="url(#paint0_linear_91128_4963)"/>
<path d="M320.334 126.953C320.334 126.953 351.489 217.957 460.519 232.287C569.548 246.616 644.16 203.581 667.121 243.774C690.082 283.967 756.523 310.37 756.523 310.37L843.789 309.125L846.019 162.566C846.132 156.45 844.503 150.429 841.324 145.206C835.36 135.481 822.377 121.856 795.003 116.453C750.395 107.644 318.409 118.403 318.409 118.403" fill="url(#paint1_linear_91128_4963)"/>
<path d="M409.76 462.404L531.397 325.922L636.436 451.81L626.082 461.629L530.646 355.098L419.949 472.576L409.76 462.404Z" fill="#292524"/>
<path d="M196.35 340.04L244.197 340.181H638.713H842.732L843.766 309.149L192.57 305.297L194.73 337.926" fill="#292524"/>
<path d="M674.61 389.934L300.238 877.676C298.439 879.939 297.124 882.548 296.372 885.34C295.621 888.132 295.451 891.048 295.871 893.909C297.232 902.271 302.092 912.114 317.987 907.533C320.32 906.877 322.384 905.495 323.879 903.587L711.423 398.532C712.549 397.061 713.285 395.329 713.562 393.496C713.84 391.664 713.65 389.792 713.01 388.053C712.371 386.314 711.302 384.764 709.904 383.549C708.506 382.334 706.824 381.492 705.013 381.102L691.796 378.259C689.803 377.833 687.731 377.97 685.811 378.655C683.891 379.339 682.2 380.544 680.925 382.135L674.61 389.934Z" fill="#292524"/>
<path d="M355.339 389.958L751.64 878.922C753.539 881.142 754.941 883.744 755.751 886.552C756.561 889.36 756.76 892.309 756.335 895.201C754.88 903.587 749.738 913.453 732.858 908.849C730.414 908.208 728.231 906.82 726.613 904.879L316.39 398.509C315.209 397.024 314.438 395.257 314.153 393.381C313.868 391.506 314.08 389.588 314.766 387.82C315.452 386.052 316.59 384.495 318.066 383.304C319.541 382.112 321.303 381.329 323.175 381.031L337.262 378.189C339.356 377.751 341.529 377.882 343.556 378.568C345.583 379.254 347.39 380.469 348.789 382.088L355.339 389.958Z" fill="#292524"/>
<path d="M682.334 392.495C703.088 394.844 736.99 393.364 754.199 393.176C762.345 393.176 769.764 384.954 771.455 376.991C771.666 376.051 771.455 379.081 771.455 378.071C772.581 368.064 770.14 339.828 770.14 339.828L667.919 340.274L667.003 374.947C666.89 379.264 668.404 383.465 671.244 386.716C674.084 389.967 678.043 392.03 682.334 392.495Z" fill="#44403C"/>
<path d="M280.845 392.495C297.246 393.782 313.706 394.15 330.148 393.599C338.882 393.458 346.84 393.246 352.78 393.176C360.927 393.176 368.346 384.954 370.036 376.991C370.248 376.051 370.036 379.081 370.036 378.071C371.163 368.064 369.074 339.828 369.074 339.828L266.5 340.274L265.585 374.947C265.47 379.253 266.974 383.445 269.8 386.694C272.625 389.944 276.567 392.014 280.845 392.495Z" fill="#44403C"/>
</g>
<defs>
<linearGradient id="paint0_linear_91128_4963" x1="177.004" y1="212.014" x2="843.766" y2="212.014" gradientUnits="userSpaceOnUse">
<stop stop-color="#57534E"/>
<stop offset="1" stop-color="#292524"/>
</linearGradient>
<linearGradient id="paint1_linear_91128_4963" x1="318.386" y1="211.709" x2="845.996" y2="211.709" gradientUnits="userSpaceOnUse">
<stop stop-color="#44403C"/>
<stop offset="1" stop-color="#1C1917"/>
</linearGradient>
<clipPath id="clip0_91128_4963">
<rect width="669" height="797" fill="white" transform="translate(177 113)"/>
</clipPath>
</defs>
</svg>
