<svg width="1024" height="1024" viewBox="0 0 1024 1024" fill="none" xmlns="http://www.w3.org/2000/svg">
<rect width="1024" height="1024" fill="white"/>
<g clip-path="url(#clip0_91125_4837)">
<path d="M214.727 339.563C214.727 339.563 118.081 690.533 133.753 729.723C149.426 768.913 227.787 776.751 262.614 784.589C297.442 792.427 613.499 875.162 645.714 876.904C677.93 878.646 675.318 883 689.248 883C703.179 883 879.057 823.779 885.152 802.878C891.247 781.976 896.471 768.042 891.247 741.915C886.023 715.789 805.92 381.366 784.153 374.399C762.386 367.432 214.727 339.563 214.727 339.563Z" fill="url(#paint0_linear_91125_4837)"/>
<path d="M202.367 401.154C202.396 400.936 202.429 400.699 202.464 400.442C202.671 398.942 202.978 396.787 203.376 394.175C204.173 388.947 205.333 381.908 206.786 374.639C208.243 367.35 209.978 359.925 211.911 353.887C212.878 350.865 213.867 348.282 214.855 346.274C215.889 344.172 216.739 343.086 217.26 342.659C219.628 340.721 222.867 337.331 226.518 333.51C226.933 333.076 227.354 332.636 227.779 332.192C232.058 327.721 237.06 322.559 242.549 317.603C253.728 307.506 266.107 299.04 277.682 298.268C280.549 298.077 289.581 298.667 303.771 299.975C317.765 301.264 336.368 303.207 358.032 305.601C401.353 310.388 456.841 316.972 512.014 323.721C567.185 330.469 622.029 337.381 664.056 342.823C685.071 345.544 702.876 347.896 715.913 349.677C729.081 351.476 737.131 352.659 738.88 353.048C746.501 354.742 755.312 357.48 762.991 361.321C770.769 365.211 776.849 369.965 779.753 375.41C779.766 375.436 779.775 375.455 779.78 375.467C779.769 375.533 779.702 375.808 779.346 376.322C778.548 377.477 776.902 378.992 774.182 380.919C770.631 383.433 766.044 386.126 760.748 389.234C757.921 390.893 754.892 392.671 751.711 394.603C734.054 405.33 712.486 420.376 705.456 442.878C704.204 446.885 699.868 452.193 692.007 458.55C684.315 464.769 673.84 471.534 661.29 478.59C636.208 492.693 603.268 507.725 568.791 521.682C534.331 535.632 498.434 548.469 467.481 558.192C436.421 567.949 410.646 574.472 396.29 575.951C389.924 576.606 382.047 574.726 372.868 570.424C363.747 566.149 353.701 559.654 343.135 551.565C322.006 535.392 299.216 513.178 278.161 490.653C257.128 468.151 237.925 445.445 223.975 428.355C217.001 419.813 211.345 412.68 207.435 407.686C205.48 405.188 203.961 403.226 202.932 401.89C202.723 401.618 202.535 401.373 202.367 401.154Z" fill="url(#paint1_linear_91125_4837)" stroke="#1C1917" stroke-width="8"/>
<path d="M335.752 308.211C335.752 308.211 381.027 209.8 402.794 191.512C421.949 174.965 490.733 139.258 532.526 192.383C579.543 252.474 575.189 322.146 575.189 330.854C575.189 339.563 529.043 331.725 529.043 331.725C529.043 331.725 543.845 260.312 530.784 235.927C518.595 213.284 511.629 186.286 468.095 188.899C424.561 191.512 408.889 215.897 395.829 238.54C384.51 261.183 375.803 284.697 367.967 309.082C366.225 311.695 335.752 308.211 335.752 308.211Z" fill="#1C1917"/>
<path d="M408.018 314.308C408.018 314.308 453.294 194.124 475.061 171.481C494.216 151.451 567.353 111.39 609.146 175.836C656.163 248.991 646.585 330.854 646.585 340.434C646.585 350.014 600.439 342.176 600.439 342.176C600.439 342.176 614.37 255.087 601.31 224.606C589.12 196.737 582.155 163.643 539.491 167.127C496.828 170.61 480.285 199.35 467.225 228.089C455.906 255.958 447.199 284.697 439.363 314.308C439.363 318.662 408.018 314.308 408.018 314.308Z" fill="#1C1917"/>
<path d="M690.99 468.455C690.99 468.455 650.938 805.491 656.163 828.134C661.387 850.777 674.447 883 684.024 883C693.602 883 709.274 881.258 703.179 873.42C683.154 844.681 674.447 808.974 679.671 775.009C685.766 720.143 709.274 444.07 709.274 444.07L690.99 468.455Z" fill="#1C1917"/>
<path d="M386.251 604.315C399.715 604.315 410.63 593.397 410.63 579.93C410.63 566.462 399.715 555.545 386.251 555.545C372.787 555.545 361.872 566.462 361.872 579.93C361.872 593.397 372.787 604.315 386.251 604.315Z" fill="white"/>
</g>
<defs>
<linearGradient id="paint0_linear_91125_4837" x1="-7.00294" y1="343.05" x2="734.272" y2="686.306" gradientUnits="userSpaceOnUse">
<stop stop-color="#292524"/>
<stop offset="1" stop-color="#292524"/>
</linearGradient>
<linearGradient id="paint1_linear_91125_4837" x1="107.492" y1="252.418" x2="600.166" y2="480.587" gradientUnits="userSpaceOnUse">
<stop stop-color="#292524"/>
<stop offset="1" stop-color="#292524"/>
</linearGradient>
<clipPath id="clip0_91125_4837">
<rect width="761" height="742" fill="white" transform="translate(132 141)"/>
</clipPath>
</defs>
</svg>
