<svg width="1024" height="1024" viewBox="0 0 1024 1024" fill="none" xmlns="http://www.w3.org/2000/svg">
<rect width="1024" height="1024" fill="white"/>
<g clip-path="url(#clip0_91126_4880)">
<path d="M208.56 271.967L117.026 787.02C117.026 787.02 235.097 766.185 290.665 787.02L208.56 271.967Z" fill="url(#paint0_linear_91126_4880)"/>
<path d="M208.56 271.967L290.745 787.02C290.745 787.02 639.852 743.259 907.034 783.36L812.224 273.837L208.62 271.967" fill="#F5F5F4"/>
<path d="M555.736 533.505L471.299 535.456L459.096 467.482L541.744 467.08L555.736 533.505Z" fill="#D6D3D1"/>
<path d="M689.589 529.524L605.132 531.474L592.929 463.5L675.576 463.098L689.589 529.524Z" fill="#D6D3D1"/>
<path d="M815.782 530.107L731.345 532.037L719.122 464.063L801.79 463.661L815.782 530.107Z" fill="#D6D3D1"/>
<path d="M832.75 621.63L748.293 623.561L736.09 555.587L818.737 555.185L832.75 621.63Z" fill="#D6D3D1"/>
<path d="M574.152 620.846L489.715 622.777L477.491 554.803L560.139 554.4L574.152 620.846Z" fill="#D6D3D1"/>
<path d="M443.495 624.908L359.059 626.859L346.835 558.885L429.503 558.483L443.495 624.908Z" fill="#D6D3D1"/>
<path d="M464.303 719.549L379.846 721.48L367.643 653.506L450.291 653.124L464.303 719.549Z" fill="#D6D3D1"/>
<path d="M593.914 717.638L509.477 719.589L497.254 651.595L579.921 651.213L593.914 717.638Z" fill="#D6D3D1"/>
<path d="M727.445 717.337L643.008 719.267L630.805 651.293L713.453 650.891L727.445 717.337Z" fill="#D6D3D1"/>
<path d="M706.356 620.725L621.919 622.656L609.696 554.682L692.363 554.28L706.356 620.725Z" fill="url(#paint1_linear_91126_4880)"/>
<path d="M208.56 271.947L231.639 418.473L839.264 416.462L812.143 273.817L208.56 271.947Z" fill="#D6D3D1"/>
<path d="M374.257 238.845L420.336 238L425.502 302.656L379.987 302.696L374.257 238.845Z" fill="#292524"/>
<path d="M662.469 241.861L702.295 241.077L706.778 301.148L667.434 301.188L662.469 241.861Z" fill="#292524"/>
</g>
<defs>
<linearGradient id="paint0_linear_91126_4880" x1="117.026" y1="529.483" x2="290.665" y2="529.483" gradientUnits="userSpaceOnUse">
<stop stop-color="#44403C"/>
<stop offset="1" stop-color="#1C1917"/>
</linearGradient>
<linearGradient id="paint1_linear_91126_4880" x1="610.535" y1="588.684" x2="705.622" y2="586.494" gradientUnits="userSpaceOnUse">
<stop stop-color="#44403C"/>
<stop offset="1" stop-color="#1C1917"/>
</linearGradient>
<clipPath id="clip0_91126_4880">
<rect width="790" height="549" fill="white" transform="translate(117 238)"/>
</clipPath>
</defs>
</svg>
