<svg width="1024" height="1024" viewBox="0 0 1024 1024" fill="none" xmlns="http://www.w3.org/2000/svg">
<g clip-path="url(#clip0_91151_6072)">
<path d="M985.627 397.967C985.627 397.967 1038.71 607.259 838.453 717.782C791.122 743.903 686.819 689.049 601.939 694.437C441.386 704.722 319.676 766.758 240.55 730.026C152.073 689.049 119.415 649.215 106.036 621.299C102.583 613.952 97.6917 606.443 94.0951 599.423C71.0767 556.323 -1.14359 395.681 80.1402 290.382C149.339 200.592 285.436 200.919 353.34 207.612C377.653 210.061 401.247 217.571 423.115 229.978C465.843 254.139 543.674 296.749 576.619 306.218C638.625 324.012 648.12 320.911 763.643 264.914C879.167 208.918 962.609 211.53 985.627 397.967Z" fill="#FAFAF9"/>
<path d="M154.806 553.222C154.806 553.222 241.125 363.357 340.392 359.928C439.659 356.5 438.22 485.145 466.562 504.898C494.903 524.652 524.971 519.265 546.982 476.329C568.994 433.393 594.17 353.561 641.502 357.153C688.833 360.745 742.639 528.244 770.98 528.244C799.322 528.244 851.545 400.416 898.301 402.375C946.64 404.334 979.872 553.711 979.872 553.711L905.206 553.385L154.806 553.222Z" fill="#F5F5F4"/>
<path d="M66.4729 553.059L353.052 557.14C353.052 557.14 376.934 555.507 401.391 534.284C419.949 518.122 426.423 506.531 426.423 495.103C426.423 483.675 417.072 424.904 325.718 413.476L46.044 407.599C46.044 407.599 43.5983 417.394 42.3035 436.821C41.8719 445.8 42.0158 454.943 42.879 463.922C43.8861 474.37 45.3247 484.818 47.195 495.103C52.518 522.53 59.7112 540.488 66.4729 553.059Z" fill="#E7E5E4"/>
<path d="M320.539 474.043C351.129 474.043 375.927 466.369 375.927 456.902C375.927 447.435 351.129 439.76 320.539 439.76C289.949 439.76 265.151 447.435 265.151 456.902C265.151 466.369 289.949 474.043 320.539 474.043Z" fill="white"/>
<path d="M100.425 500.164C108.768 500.164 115.531 492.49 115.531 483.023C115.531 473.555 108.768 465.881 100.425 465.881C92.0822 465.881 85.3191 473.555 85.3191 483.023C85.3191 492.49 92.0822 500.164 100.425 500.164Z" fill="white"/>
<path d="M144.304 501.797C153.044 501.797 160.129 493.757 160.129 483.839C160.129 473.921 153.044 465.881 144.304 465.881C135.564 465.881 128.479 473.921 128.479 483.839C128.479 493.757 135.564 501.797 144.304 501.797Z" fill="white"/>
<path d="M144.304 501.797C153.044 501.797 160.129 493.757 160.129 483.839C160.129 473.921 153.044 465.881 144.304 465.881C135.564 465.881 128.479 473.921 128.479 483.839C128.479 493.757 135.564 501.797 144.304 501.797Z" fill="white"/>
<path d="M190.341 501.797C199.081 501.797 206.166 493.757 206.166 483.839C206.166 473.921 199.081 465.881 190.341 465.881C181.601 465.881 174.516 473.921 174.516 483.839C174.516 493.757 181.601 501.797 190.341 501.797Z" fill="white"/>
<path d="M550.003 424.088C562.637 424.088 572.878 412.466 572.878 398.13C572.878 383.794 562.637 372.173 550.003 372.173C537.37 372.173 527.129 383.794 527.129 398.13C527.129 412.466 537.37 424.088 550.003 424.088Z" fill="white"/>
<path d="M525.547 420.823C535.637 420.823 543.817 411.54 543.817 400.089C543.817 388.639 535.637 379.356 525.547 379.356C515.456 379.356 507.276 388.639 507.276 400.089C507.276 411.54 515.456 420.823 525.547 420.823Z" fill="white"/>
<path d="M822.34 369.724C836.96 369.724 848.811 356.275 848.811 339.685C848.811 323.095 836.96 309.646 822.34 309.646C807.72 309.646 795.869 323.095 795.869 339.685C795.869 356.275 807.72 369.724 822.34 369.724Z" fill="white"/>
<path d="M850.681 361.071C859.58 361.071 866.794 352.885 866.794 342.787C866.794 332.689 859.58 324.502 850.681 324.502C841.783 324.502 834.569 332.689 834.569 342.787C834.569 352.885 841.783 361.071 850.681 361.071Z" fill="white"/>
<path d="M794.862 364.173C803.761 364.173 810.975 355.987 810.975 345.889C810.975 335.791 803.761 327.604 794.862 327.604C785.963 327.604 778.749 335.791 778.749 345.889C778.749 355.987 785.963 364.173 794.862 364.173Z" fill="white"/>
<path d="M234.939 501.797C243.679 501.797 250.764 493.757 250.764 483.839C250.764 473.921 243.679 465.881 234.939 465.881C226.199 465.881 219.114 473.921 219.114 483.839C219.114 493.757 226.199 501.797 234.939 501.797Z" fill="white"/>
<path d="M72.8029 570.364L977.571 571.18C977.571 571.18 946.496 679.254 924.772 699.988C903.048 720.721 944.769 820.469 784.36 756.147C623.95 691.825 535.329 758.106 488.429 766.595C441.529 775.085 318.093 843.325 267.884 810.021C217.675 776.717 241.125 737.21 147.469 735.25C53.8127 733.291 58.848 627.176 58.848 627.176L72.8029 570.364Z" fill="#F5F5F4"/>
<path d="M977.571 571.017L72.803 570.364L65.8975 553.059L981.455 553.385L977.571 571.017Z" fill="white"/>
<path d="M201.418 555.181H192.93L192.786 218.387L201.418 216.265V555.181Z" fill="white"/>
<path d="M446.852 558.936H438.364V238.467L446.708 243.038L446.852 558.936Z" fill="white"/>
<path d="M687.251 562.854H678.763V303.769L687.251 300.504V562.854Z" fill="white"/>
<path d="M915.421 558.936H906.933V239.283L915.565 243.202L915.421 558.936Z" fill="white"/>
<path d="M611.653 662.604H635.652V644.32H869.435V663.584H890.495V614.444L611.653 615.424V662.604Z" fill="#E7E5E4"/>
<path d="M612.306 606.934L890.658 606.281V594.364L611.653 595.017L612.306 606.934Z" fill="#E7E5E4"/>
<path d="M611.653 589.303L890.005 588.65V576.896L611 577.385L611.653 589.303Z" fill="#E7E5E4"/>
<path d="M612.306 571.182L890.658 570.529V558.611L611.653 559.264L612.306 571.182Z" fill="#E7E5E4"/>
<path d="M612.306 552.407L890.658 551.754V540L611.653 540.49L612.306 552.407Z" fill="#E7E5E4"/>
<path d="M184.532 732.312H182.573L169.022 732.475C169.022 732.475 166.084 745.699 164.778 751.249C164.614 751.576 164.451 752.555 164.288 753.208C163.961 754.188 163.961 755.168 163.961 756.147C164.288 761.045 166.247 765.453 170.655 767.738C175.553 770.187 179.471 772.636 184.532 767.738C189.593 762.84 190.409 759.902 188.45 751.576C186.491 743.087 185.838 732.475 184.532 732.312Z" fill="#0C0A09"/>
<path d="M238.57 748.964C229.754 746.025 223.713 734.108 223.713 734.108L208.53 733.128C208.53 733.128 207.714 745.372 207.388 751.576C206.898 759.739 208.367 763.657 213.591 763.167C220.775 762.514 249.998 765.289 254.569 762.187C260.609 758.433 246.896 751.576 238.57 748.964Z" fill="#0C0A09"/>
<path d="M241.182 617.381C241.835 623.584 237.263 655.909 237.263 662.112C237.263 668.316 223.713 734.108 223.713 734.108L208.204 733.618C208.204 733.618 211.795 636.482 211.306 631.747C210.979 627.013 191.388 570.69 191.388 570.69C191.388 570.69 189.919 585.546 189.919 590.281C189.919 595.015 184.695 732.312 184.695 732.312H169.186L146.983 529.55L144.86 512.245L228.937 514.367C228.937 514.367 240.529 611.177 241.182 617.381Z" fill="#57534E"/>
<path d="M251.63 472.901L244.61 478.941L246.896 488.41L249.834 492.654C249.508 492.981 248.855 490.532 252.12 492.328L258.324 492.001L263.058 485.798C263.058 485.798 260.609 457.391 249.508 437.638L251.63 472.901ZM242.978 435.352L242.325 431.434L240.692 431.107L242.978 435.352ZM183.716 330.706C187.634 329.073 202.817 321.89 205.102 323.359C208.531 326.298 210.979 330.053 211.959 334.298C212.612 337.236 214.898 340.991 215.387 340.501C217.02 338.869 216.693 345.236 216.693 347.195C216.204 349.97 215.061 352.745 213.102 354.704C211.796 355.684 210.49 359.275 209.837 362.051C209.184 364.989 207.878 371.03 209.02 373.642C210.326 376.58 226.326 405.64 240.529 431.271L160.533 416.904L135.228 470.288L146.656 479.431L143.391 490.369L141.269 490.695C141.269 490.695 139.473 494.94 137.514 492.981C135.881 491.348 133.596 492.165 132.616 492.654C132.29 492.818 131.963 492.818 131.637 492.818L129.025 492.328L127.392 477.961L152.044 402.211C152.044 402.211 181.593 375.601 183.389 374.621C185.022 373.642 185.675 366.459 184.042 363.03C182.41 359.602 180.45 356.337 178.491 353.072C177.185 351.113 175.553 343.603 175.553 340.338C175.553 337.073 177.512 338.216 177.512 338.216C177.512 338.216 179.308 331.849 183.226 330.053C184.695 329.073 205.102 323.359 205.102 323.359" fill="url(#paint0_linear_91151_6072)"/>
<path d="M152.207 385.886C148.289 388.498 144.697 392.09 143.391 396.661C142.085 401.232 119.882 444.005 118.739 447.106C117.76 450.208 113.515 462.616 115.801 475.839C118.086 489.226 128.208 492.328 130.004 492.328C130.984 492.328 129.188 485.471 128.861 480.737C128.698 479.104 130.167 474.86 130.494 473.227C131.147 470.778 133.269 471.431 133.269 469.146C133.269 464.901 143.718 450.371 147.636 442.372C151.554 434.209 158.901 432.903 160.207 429.312C161.513 425.72 149.268 502.123 149.268 502.123C149.268 502.123 148.942 515.51 151.554 516.816C153.84 517.959 182.083 528.734 188.613 531.182C189.266 531.509 190.083 531.019 190.409 530.366L194.654 518.449C194.654 518.285 194.817 518.122 194.98 518.285C195.143 518.285 195.143 518.449 195.143 518.449L199.062 531.346C199.225 531.999 200.041 532.325 200.694 532.325L235.305 524.815C235.305 524.815 234.815 460.82 235.468 450.045C235.958 439.597 234.652 433.72 236.611 436.495C238.733 439.597 256.038 456.738 256.038 461.636C255.875 464.411 257.181 466.86 259.466 468.493L258.487 492.001C258.487 492.001 268.282 481.063 269.262 475.023C270.241 468.819 270.568 465.554 267.629 459.514C264.691 453.31 248.855 397.477 248.855 397.477C248.855 397.477 247.222 390.62 235.468 387.192C223.713 383.6 214.897 378.376 212.775 378.539C210.653 378.703 204.123 390.947 201.184 394.538C199.878 396.171 200.204 396.824 198.409 399.273C197.429 400.416 195.796 400.742 194.654 399.763C194.327 399.436 194.164 399.436 194.001 398.946C193.021 397.477 192.368 396.008 191.552 394.702C190.246 392.09 180.124 377.233 180.124 377.233C180.124 377.233 156.125 383.274 152.207 385.886Z" fill="#292524"/>
<path d="M204.939 323.359C204.939 323.359 184.695 330.216 180.94 333.481C178.654 335.604 177.348 338.216 177.348 338.216C177.348 338.216 175.389 337.399 175.389 340.338C175.389 340.338 174.573 338.379 173.92 337.236C173.267 336.093 170.818 329.726 173.104 324.829C175.389 319.931 178.328 316.993 179.471 316.176C180.614 315.36 187.47 309.483 194.164 309.809C200.857 310.136 205.102 314.707 206.408 315.687C207.714 316.666 210 318.625 211.632 319.115C213.265 319.605 217.183 324.829 217.346 328.747C217.673 332.665 216.203 341.154 216.203 341.154C216.203 341.154 216.04 340.011 215.224 340.664C214.408 341.317 212.285 337.073 211.632 334.134C210.979 331.032 204.939 323.359 204.939 323.359Z" fill="#1C1917"/>
<path opacity="0.07" d="M178.655 526.285C178.655 526.285 169.349 575.751 174.247 595.505C181.593 625.543 170.981 666.031 170.981 685.458C170.981 698.028 175.879 733.128 176.206 747.168C176.369 751.413 179.308 759.739 177.185 761.698C176.206 762.514 170.328 760.718 166.9 759.086C165.267 758.269 164.125 756.474 164.451 754.678L166.41 746.188L169.186 735.087L149.921 554.201C149.921 554.201 143.718 513.877 147.146 513.714C150.738 513.714 178.655 526.285 178.655 526.285Z" fill="black"/>
<path d="M161.676 435.352L191.715 426.047L193.184 511.102L165.594 521.55L161.676 435.352Z" fill="white"/>
<path d="M191.715 426.047L227.142 436.658V520.244L193.184 511.102L191.715 426.047Z" fill="white"/>
<path d="M227.142 436.658L261.099 426.21L256.365 470.452L248.039 476.655C247.059 477.308 246.569 478.288 246.406 479.267L246.08 480.9C245.916 481.716 246.08 482.533 246.406 483.186L247.875 486.777C248.365 487.92 249.181 489.063 250.324 489.716L255.222 492.328L254.895 510.286L226.979 520.571V436.658H227.142Z" fill="#FAFAF9"/>
<path d="M161.676 435.352L128.698 425.067L133.269 469.962L141.432 476.166C142.248 476.819 142.901 477.798 143.065 478.778L143.391 480.41C143.554 481.227 143.391 482.043 143.065 482.696L141.759 486.287C141.269 487.43 140.452 488.573 139.31 489.226L134.575 491.838L134.902 510.776L165.594 521.55L161.676 435.352Z" fill="#FAFAF9"/>
<path d="M191.062 426.373L191.715 426.047L192.368 426.21L193.837 511.429L193.184 511.102L192.205 511.429L191.062 426.373Z" fill="#FAFAF9"/>
<path d="M413.879 762.024C418.614 761.698 424.165 756.31 424.165 756.31L434.94 754.841C434.94 754.841 438.205 764.963 434.613 767.085C431.021 769.207 409.472 769.86 409.472 767.085C409.308 764.473 409.798 762.187 413.879 762.024Z" fill="#0C0A09"/>
<path d="M487.182 761.698C491.426 759.412 493.712 751.902 493.712 751.902L502.691 745.862C502.691 745.862 510.364 753.535 507.915 756.963C505.63 760.392 486.692 770.84 485.386 768.391C484.243 765.779 483.59 763.82 487.182 761.698Z" fill="#0C0A09"/>
<path d="M471.019 472.737C471.019 472.737 460.734 450.861 444.082 462.289C427.43 473.717 427.103 488.573 432.164 495.756C438.042 504.245 436.572 511.102 435.429 513.877C435.103 514.694 434.613 515.347 433.797 515.673L405.717 531.509L394.452 542.12L367.515 508.163C367.515 508.163 363.107 501.96 355.27 501.96C347.434 501.96 343.843 504.572 343.843 504.572C343.843 504.572 343.026 508 352.658 510.776L362.291 513.388L386.779 557.14C386.779 557.14 394.126 560.242 401.799 553.711C408.655 547.998 415.022 541.957 420.9 535.264L421.716 636.808L418.777 665.867L420.083 683.009C419.92 684.642 420.736 701.62 420.736 703.089L422.695 729.373L424.981 755.984L434.776 754.678L436.409 735.414L440.327 666.194L440.817 603.667L457.796 642.848L457.143 665.704L471.183 709.13C471.836 710.925 472.489 712.721 473.305 714.354L493.385 752.229L502.854 746.352L492.079 719.088C490.937 716.803 485.386 698.681 484.57 696.069L477.386 662.112L446.204 543.263L461.877 551.263C461.877 551.263 473.305 576.894 475.101 579.506C476.897 582.118 497.793 608.565 498.61 611.993C499.426 615.422 502.854 622.278 507.262 623.911C511.67 625.707 519.506 628.482 508.079 611.993C499.099 598.933 493.385 589.301 491.426 585.709C490.937 584.73 490.447 583.75 489.957 582.771L478.203 553.058L459.428 522.856L456.816 521.061L451.429 516.816C450.776 516.326 450.449 515.347 450.449 514.53C451.102 510.449 453.224 506.857 456.326 504.409C462.53 499.511 475.101 490.205 471.019 472.737Z" fill="url(#paint1_linear_91151_6072)"/>
<path d="M472.145 645.879C472.145 645.879 460.391 693.223 462.187 698.447C463.982 703.671 473.615 704.814 477.859 705.793C482.104 706.773 520.632 718.038 524.551 718.201C528.469 718.364 528.142 719.017 529.938 719.017C531.734 719.017 553.12 711.018 553.773 708.242C554.426 705.467 555.08 703.508 554.59 700.08C553.937 696.488 544.141 651.43 541.529 650.45C539.08 649.634 472.145 645.879 472.145 645.879Z" fill="#44403C"/>
<path d="M470.186 654.368C470.186 654.368 471.002 647.022 472.145 645.879C473.288 644.9 476.553 640.002 479.818 639.839C483.083 639.675 534.346 646.695 536.305 647.185C538.264 647.675 540.713 648.654 541.692 650.45C542.509 652.246 534.183 654.368 532.713 659.919C531.244 665.47 501.858 677.387 494.511 678.203C487.165 679.183 470.186 654.368 470.186 654.368Z" fill="#292524"/>
<path d="M487.001 641.635C487.001 641.635 492.552 628.411 495.164 625.962C497.45 623.677 505.939 618.942 511 626.125C516.714 634.288 516.224 643.594 516.224 644.736C516.224 645.879 510.51 644.9 510.51 644.9C510.51 644.9 512.306 635.268 510.674 632.003C509.204 628.901 508.388 625.309 503.001 625.636C497.613 625.962 495.817 629.227 494.185 632.329C492.879 635.431 491.736 638.533 490.756 641.798C490.593 642.124 487.001 641.635 487.001 641.635Z" fill="#44403C"/>
<path d="M495.818 642.451C495.818 642.451 501.368 626.289 503.98 623.187C506.266 620.411 515.245 615.024 520.306 623.84C526.02 633.635 524.877 644.736 524.877 646.042C524.877 647.348 519.163 646.206 519.163 646.206C519.163 646.206 520.796 634.451 519.326 630.37C517.857 626.615 517.041 622.207 511.817 622.697C506.592 623.187 504.633 627.105 503.001 630.86C501.695 634.615 500.552 638.533 499.572 642.451C499.572 643.104 495.818 642.451 495.818 642.451Z" fill="#44403C"/>
<path d="M530.265 663.347C530.265 663.347 525.367 708.732 526.02 711.834C526.673 714.936 528.306 719.18 529.448 719.18C530.591 719.18 532.55 719.017 531.734 717.874C529.285 713.956 528.306 709.222 528.795 704.651C529.612 697.304 532.387 660.082 532.387 660.082L530.265 663.347Z" fill="#44403C"/>
<path d="M493.042 681.632C491.419 681.632 490.103 680.17 490.103 678.367C490.103 676.563 491.419 675.102 493.042 675.102C494.665 675.102 495.981 676.563 495.981 678.367C495.981 680.17 494.665 681.632 493.042 681.632Z" fill="white"/>
<path d="M467.264 605.137L477.876 662.112L456.816 666.52L443.755 619.177L440.49 666.357H418.614L416.492 592.893L467.264 605.137Z" fill="#1C1917"/>
<path d="M478.692 553.711C478.692 553.711 471.999 529.387 458.449 521.387C456.979 520.571 454.53 518.122 454.367 519.591C454.041 522.203 452.571 528.407 446.531 528.407C436.899 528.407 434.123 520.408 434.123 516C434.123 514.694 428.736 515.02 424.001 515.673C419.594 516.326 415.022 518.285 412.084 521.55L403.105 534.121L411.431 543.263L414.043 544.732L416.655 593.219C416.655 593.219 436.082 602.198 453.388 604.647C457.959 605.137 462.693 605.463 467.428 605.463L463.999 555.507L478.692 553.711Z" fill="#A8A29E"/>
<path d="M464.979 488.083C461.877 484.328 458.612 481.063 455.02 477.798C449.959 473.554 447.347 471.105 447.347 471.105C447.347 471.105 440.49 476.166 437.552 477.145C434.776 478.125 430.532 479.921 430.532 479.921C430.532 479.921 428.246 472.084 433.96 471.105C439.674 470.125 457.469 463.758 461.061 466.534C464.815 469.309 471.019 477.308 471.835 481.227C472.652 485.145 470.529 490.042 469.06 491.022C468.244 491.512 470.529 487.104 469.223 486.287C468.57 485.471 464.979 488.083 464.979 488.083Z" fill="#78716C"/>
<path d="M471.999 481.227L417.145 468.329C417.145 468.329 416.165 465.717 418.124 465.717C420.083 465.554 432.654 469.799 432.654 469.799C432.654 469.799 438.042 453.8 455.836 454.29C455.836 454.29 455.183 452.657 456.163 452.657C457.143 452.494 461.714 453.8 462.04 454.126C462.367 454.453 461.387 455.596 461.877 455.922C462.203 456.412 477.55 463.758 471.999 481.227Z" fill="#0C0A09"/>
<path opacity="0.07" d="M433.633 497.552C433.633 497.552 437.225 501.96 440.164 502.939C443.102 503.919 441.47 503.919 440.164 507.51C439.511 509.47 438.694 511.265 437.552 512.898C437.552 512.898 435.919 498.858 433.633 497.552Z" fill="black"/>
<path opacity="0.07" d="M461.714 456.085C461.714 456.085 459.265 458.371 460.897 464.738C462.53 471.105 463.02 472.901 461.714 475.186C460.408 477.472 461.387 478.941 461.387 478.941L472.162 481.553C471.835 481.227 478.692 465.554 461.714 456.085Z" fill="black"/>
<path opacity="0.07" d="M463.836 555.344C463.836 555.344 460.408 550.446 460.081 546.039C459.755 541.631 461.714 554.854 459.428 562.854C457.306 570.853 459.755 577.71 455.347 580.485C450.939 583.261 454.367 592.893 453.388 596.974C452.735 599.423 451.102 601.382 448.653 602.361C448.653 602.361 449.306 604.484 456.816 604.973C464.489 605.3 467.264 605.3 467.264 605.3L463.836 555.344Z" fill="black"/>
</g>
<defs>
<linearGradient id="paint0_linear_91151_6072" x1="127.429" y1="408.338" x2="262.836" y2="408.338" gradientUnits="userSpaceOnUse">
<stop stop-color="#F87B58"/>
<stop offset="0.41" stop-color="#F89453"/>
<stop offset="0.71" stop-color="#F8C548"/>
<stop offset="1" stop-color="#F89C51"/>
</linearGradient>
<linearGradient id="paint1_linear_91151_6072" x1="514.09" y1="607.417" x2="343.871" y2="607.417" gradientUnits="userSpaceOnUse">
<stop stop-color="#F87B58"/>
<stop offset="0.5" stop-color="#F8C548"/>
<stop offset="1" stop-color="#F89C51"/>
</linearGradient>
<clipPath id="clip0_91151_6072">
<rect width="939" height="614" fill="white" transform="translate(42 205)"/>
</clipPath>
</defs>
</svg>
