<svg width="1024" height="1024" viewBox="0 0 1024 1024" fill="none" xmlns="http://www.w3.org/2000/svg">
<g clip-path="url(#clip0_91151_5736)">
<path d="M307.469 671.741C314.484 587.174 288.488 463.418 318.817 446.092C348.94 429.179 359.05 423.61 390.205 389.165C466.131 305.011 568.879 177.955 683.801 173.623C794.596 169.498 862.476 204.356 926.023 450.63C957.796 573.767 955.94 638.739 952.845 677.722C951.194 699.173 949.544 727.018 948.512 728.05C946.861 729.493 301.692 742.075 307.469 671.741Z" fill="#F5F5F4"/>
<path d="M210.532 382.602L201.454 812.035C201.454 815.129 209.707 814.098 211.77 814.098H224.149L222.086 383.221L295.743 385.283L263.763 204.394C262.113 195.112 254.066 188.099 244.369 188.099H193.407C181.234 188.099 170.712 196.762 168.649 208.725L137.494 380.952L210.532 382.602Z" fill="#D6D3D1"/>
<path d="M111.191 706.338C111.191 706.338 110.778 723.251 113.667 725.107C114.904 726.139 116.349 726.758 117.793 727.17L132.029 803.692C132.029 803.692 173.5 811.324 194.338 802.661L208.575 727.17L213.32 725.314L215.177 706.338C215.177 706.338 164.215 689.424 111.191 706.338Z" fill="#D6D3D1"/>
<path d="M115.936 726.758C115.936 726.758 171.643 731.089 178.245 729.233C184.848 727.376 182.991 712.319 182.991 712.319L210.432 709.432C210.432 709.432 210.432 725.52 208.575 727.376C206.511 729.851 204.861 732.739 203.829 735.833C203.829 736.864 192.482 803.899 192.482 803.899C192.482 803.899 174.532 806.786 171.643 806.786C168.755 806.786 179.277 751.096 179.277 747.384C179.277 743.671 179.277 736.039 176.388 736.039C173.5 736.039 119.031 737.689 118.618 731.502C118.206 729.645 117.38 727.995 115.936 726.758Z" fill="#F5F5F4"/>
<path d="M138.013 709.844C138.013 709.844 122.538 698.912 114.286 697.881C106.033 696.85 96.5418 695.819 88.2889 694.581C80.036 693.343 69.5136 689.631 69.7199 684.681C69.9263 679.73 70.9579 677.461 75.7033 674.78C79.8297 672.099 84.3688 670.449 89.3205 669.83C93.0343 669.417 130.172 679.112 145.646 702.213L151.836 709.844H138.013Z" fill="#F5F5F4"/>
<path d="M84.1625 683.03C84.1625 683.03 98.3987 682.824 106.239 685.299C112.429 687.568 118.206 690.25 123.983 693.55L147.297 709.844" fill="#F5F5F4"/>
<path d="M84.1625 683.03C84.1625 683.03 98.3987 682.824 106.239 685.299C112.429 687.568 118.206 690.25 123.983 693.55L147.297 709.844" stroke="white" stroke-width="0.36915" stroke-miterlimit="10" stroke-linecap="round"/>
<path d="M154.312 709.225C154.312 709.225 136.156 684.681 129.141 677.874C122.126 671.067 113.873 663.023 107.064 655.804C100.256 648.585 91.7964 638.272 95.3039 633.941C98.8113 629.609 101.494 626.722 108.096 627.753C113.254 628.372 118.206 630.022 122.332 633.116C126.046 635.384 158.851 666.736 163.596 702.625L168.342 709.844L154.312 709.225Z" fill="#F5F5F4"/>
<path d="M111.81 642.191C111.81 642.191 125.84 650.648 131.41 658.692C136.568 666.323 144.821 679.73 144.821 679.73L154.312 705.513" stroke="white" stroke-width="0.36915" stroke-miterlimit="10" stroke-linecap="round"/>
<path d="M163.39 710.463C163.39 710.463 142.345 664.673 138.425 655.598C134.505 646.522 118.412 632.909 114.904 623.628C111.397 614.346 109.127 607.746 112.841 602.589C116.555 597.433 126.252 593.307 132.442 596.401C138.219 599.289 145.853 607.952 149.154 612.283C151.836 615.79 168.961 677.874 167.517 692.312L170.818 710.669L163.39 710.463Z" fill="#F5F5F4"/>
<path d="M126.252 613.315C126.252 613.315 138.425 628.99 142.139 638.066C146.265 648.379 150.392 667.974 149.773 664.88L162.359 707.369" stroke="white" stroke-width="0.36915" stroke-miterlimit="10" stroke-linecap="round"/>
<path d="M151.836 710.257C151.836 710.257 133.267 689.012 124.189 684.887C115.111 680.762 104.795 676.224 95.9228 671.686C87.051 667.148 76.5286 659.723 78.1791 655.185C79.8297 650.648 81.8929 648.791 88.2889 647.966C93.8596 646.935 99.6366 647.141 105.207 648.379C109.334 649.41 148.122 672.924 158.026 700.769L162.565 710.463L151.836 710.257Z" fill="#F5F5F4"/>
<path d="M95.3039 659.104C95.3039 659.104 111.397 664.467 119.444 669.83C125.427 674.368 131.204 679.111 136.775 684.474L154.518 710.463" stroke="white" stroke-width="0.36915" stroke-miterlimit="10" stroke-linecap="round"/>
<path d="M200.322 710.669C200.322 710.669 217.24 700.356 226.112 699.325C234.984 698.294 245.3 697.469 254.378 696.231C263.456 694.994 274.598 691.487 274.391 686.949C274.185 682.412 273.153 680.143 267.789 677.461C263.25 674.986 258.298 673.336 253.14 672.717C249.22 672.305 208.987 681.587 192.069 703.656L185.26 710.876L200.322 710.669Z" fill="#F5F5F4"/>
<path d="M258.505 684.887C258.505 684.887 243.03 684.681 234.571 687.156C227.969 689.218 221.573 691.9 215.383 694.993L192.894 710.05" fill="#F5F5F4"/>
<path d="M258.505 684.887C258.505 684.887 243.03 684.681 234.571 687.156C227.969 689.218 221.573 691.9 215.383 694.993L192.894 710.05" stroke="white" stroke-width="0.36915" stroke-miterlimit="10" stroke-linecap="round"/>
<path d="M182.578 710.051C182.578 710.051 202.179 686.537 209.813 679.937C217.447 673.336 226.318 665.705 233.746 658.898C241.174 652.091 250.458 642.191 246.538 638.066C242.618 633.941 239.936 631.259 232.714 632.084C227.144 632.497 221.986 634.353 217.24 637.241C213.32 639.51 177.833 669.417 172.675 703.656L167.517 710.669L182.578 710.051Z" fill="#F5F5F4"/>
<path d="M228.588 646.11C228.588 646.11 213.32 654.154 207.337 661.786C201.766 669.005 192.688 681.999 192.688 681.999L182.578 706.544" stroke="white" stroke-width="0.36915" stroke-miterlimit="10" stroke-linecap="round"/>
<path d="M172.881 711.288C172.881 711.288 195.783 667.561 199.909 658.898C204.036 650.235 221.573 637.241 225.493 628.372C229.413 619.502 231.889 613.108 227.763 608.364C223.636 603.62 213.114 599.495 206.511 602.383C200.115 605.064 192.069 613.315 188.355 617.646C185.467 620.946 166.898 680.349 168.342 694.168L164.834 711.701L172.881 711.288Z" fill="#F5F5F4"/>
<path d="M170.611 710.669C170.611 710.669 172.468 667.974 176.801 654.154C179.69 644.872 182.578 629.403 186.498 620.74C190.418 612.077 184.435 600.527 180.515 595.576C176.595 590.626 166.072 591.657 159.264 594.545C152.868 597.226 149.36 606.096 148.535 610.84C147.916 615.171 162.978 666.53 161.327 685.506L162.565 711.082L170.611 710.669Z" fill="#F5F5F4"/>
<path d="M213.114 618.471C213.114 618.471 200.115 633.322 195.989 642.191C191.45 652.092 187.117 670.861 187.736 667.767L172.881 709.432" stroke="white" stroke-width="0.36915" stroke-miterlimit="10" stroke-linecap="round"/>
<path d="M185.467 710.876C185.467 710.876 205.686 690.662 215.383 686.743C225.08 682.824 236.428 678.493 245.919 674.161C255.41 669.83 266.964 662.817 265.107 658.486C263.25 654.154 261.187 652.504 254.172 651.679C248.189 650.854 241.999 650.854 236.016 652.092C231.476 653.123 189.593 675.399 178.864 702.006L173.913 711.082L185.467 710.876Z" fill="#F5F5F4"/>
<path d="M246.332 662.198C246.332 662.198 229.001 667.148 220.335 672.305C213.733 676.43 207.543 681.174 201.56 686.124L181.959 707.988" stroke="white" stroke-width="0.36915" stroke-miterlimit="10" stroke-linecap="round"/>
<path d="M166.485 603.414C166.485 603.414 169.992 639.922 167.929 649.823C167.104 653.948 167.517 679.73 167.517 679.73L166.691 708.194" stroke="white" stroke-width="0.36915" stroke-miterlimit="10" stroke-linecap="round"/>
<path d="M138.158 379.024L294.533 381.856L297.694 392.574L136.262 388.529L138.158 379.024Z" fill="#F5F5F4"/>
<path d="M732.286 414.328L731.049 715.055L922.103 715.468C922.103 715.468 923.547 557.06 915.913 405.459L732.699 402.778L732.286 414.328Z" fill="#F5F5F4"/>
<path d="M552.374 453.312L547.422 715.88H710.623L709.591 453.312H552.374Z" fill="#F5F5F4"/>
<path d="M315.31 607.388L550.104 608.625L547.422 715.88L316.135 715.674L315.31 607.388Z" fill="#F5F5F4"/>
<path d="M295.915 455.993L296.534 716.499C296.534 716.499 297.979 732.794 313.659 733.619C329.34 734.444 946.655 734.65 946.655 734.65C946.655 734.65 952.226 717.324 949.956 716.705C947.687 716.086 316.135 716.087 316.135 716.087C316.135 716.087 316.341 706.805 316.341 701.03C316.341 694.429 315.929 448.155 315.929 448.155C309.739 451.249 302.93 453.93 295.915 455.993Z" fill="white"/>
<path d="M309.533 481.775L934.07 485.694L937.371 499.101L309.533 502.195V481.775Z" fill="white"/>
<path d="M485.732 279.022V716.293L502.237 717.53V267.678L485.732 279.022Z" fill="white"/>
<path d="M784.073 191.155L783.661 716.293L798.929 715.055L801.404 201.468L784.073 191.155Z" fill="white"/>
<path d="M502.237 267.678L858.762 269.947L848.446 251.383L522.663 251.177L502.237 267.678Z" fill="white"/>
<path d="M562.277 353.894C582.332 353.894 598.59 337.642 598.59 317.593C598.59 297.544 582.332 281.291 562.277 281.291C542.222 281.291 525.964 297.544 525.964 317.593C525.964 337.642 542.222 353.894 562.277 353.894Z" fill="white"/>
<path d="M597.558 352.863C610.662 352.863 621.285 342.243 621.285 329.143C621.285 316.043 610.662 305.423 597.558 305.423C584.454 305.423 573.831 316.043 573.831 329.143C573.831 342.243 584.454 352.863 597.558 352.863Z" fill="white"/>
<path d="M837.304 387.927C857.701 387.927 874.236 371.397 874.236 351.007C874.236 330.616 857.701 314.086 837.304 314.086C816.908 314.086 800.373 330.616 800.373 351.007C800.373 371.397 816.908 387.927 837.304 387.927Z" fill="white"/>
<path d="M799.135 379.883C812.467 379.883 823.275 369.079 823.275 355.751C823.275 342.423 812.467 331.618 799.135 331.618C785.803 331.618 774.995 342.423 774.995 355.751C774.995 369.079 785.803 379.883 799.135 379.883Z" fill="white"/>
<path d="M734.098 797.178C731.622 786.659 730.796 773.046 729.146 772.84H727.289L709.545 773.046C709.545 773.046 705.831 789.959 703.975 796.972C703.768 797.385 703.562 798.622 703.149 799.447C702.737 800.685 702.737 801.922 702.737 803.16C703.149 809.554 705.625 815.123 711.196 817.804C717.592 820.898 722.337 823.992 728.94 817.804C735.748 811.616 736.573 807.698 734.098 797.178Z" fill="#1C1917"/>
<path d="M678.184 774.49L655.695 775.727C655.695 775.727 646.823 791.197 633.825 794.703C621.652 798.21 601.433 806.666 610.511 811.616C617.113 815.535 660.234 812.029 670.757 812.854C678.597 813.473 680.867 808.729 680.041 798.21C679.422 790.165 678.184 774.49 678.184 774.49Z" fill="#1C1917"/>
<path d="M651.362 494.801C651.362 494.801 636.301 618.351 635.269 626.395C634.238 634.439 640.427 675.691 640.427 683.529C640.427 691.367 655.076 775.727 655.076 775.727L678.391 774.696C678.391 774.696 673.645 650.528 674.264 644.546C674.883 638.565 700.261 566.58 700.261 566.58C700.261 566.58 702.118 585.556 702.118 591.744C702.118 597.931 709.133 773.458 709.133 773.458H729.558L758.444 514.809L758.031 509.858L651.362 494.801Z" fill="#78716C"/>
<path d="M720.068 255.953C720.068 255.953 697.579 264.616 692.627 266.678C687.675 268.741 684.787 274.929 684.787 274.929C684.787 274.929 682.311 273.485 682.311 277.61C682.311 281.735 684.374 291.223 686.025 293.904C688.707 298.03 690.976 302.361 693.246 306.693C695.309 311.024 694.484 320.099 692.421 321.337C690.357 322.575 652.394 356.814 652.394 356.814L621.033 453.55L625.16 484.076L631.556 514.19C631.556 514.19 630.318 516.459 632.793 518.934C635.476 521.409 646.823 540.179 646.823 540.179L650.744 512.54L637.952 471.7L633.412 437.255L663.535 375.79L767.728 394.353L779.076 461.387L758.031 518.521L754.317 546.366L772.061 530.897C773.092 530.072 775.156 525.74 775.981 523.472L786.503 493.77L794.344 446.33C794.344 446.33 728.527 327.731 725.226 320.718C723.781 317.624 725.432 309.786 726.257 306.074C727.083 302.567 728.733 298.03 730.384 296.792C732.86 294.111 734.098 290.192 734.717 286.685C734.717 284.21 735.748 274.516 733.272 276.785C732.86 277.404 731.003 274.516 730.177 270.597C728.733 264.409 724.607 259.665 720.068 255.953Z" fill="url(#paint0_linear_91151_5736)"/>
<path d="M711.609 352.688C709.958 354.132 707.482 353.926 705.831 352.482C704.594 350.626 703.562 348.77 702.737 346.913C701.086 343.613 688.294 324.637 688.294 324.637C688.294 324.637 657.758 332.475 652.807 335.569C647.855 338.869 643.316 343.407 641.665 349.182C640.015 354.957 616.494 423.642 615.256 427.973C614.018 432.099 608.035 438.905 610.923 455.612C613.812 472.525 629.699 515.84 631.349 516.253C633 516.665 649.918 508.415 649.918 508.415C649.918 508.415 636.507 454.581 636.507 449.218C636.507 443.855 648.474 428.592 653.426 418.279C658.171 407.966 661.885 398.891 663.535 394.353C665.186 389.815 649.093 483.663 649.093 483.663C649.093 483.663 648.68 500.783 651.981 502.433C655.076 503.877 690.976 517.696 699.229 520.79C700.054 521.203 701.086 520.584 701.499 519.759L706.863 504.496C706.863 504.289 707.069 504.083 707.276 504.289C707.482 504.289 707.482 504.496 707.482 504.496L712.434 520.996C712.64 521.821 713.672 522.234 714.497 522.234L758.856 512.746C758.856 512.746 758.237 431.067 759.063 417.248C759.682 403.841 758.031 396.416 760.507 400.128C763.189 404.047 774.33 440.968 774.33 447.155C774.33 453.343 761.745 507.59 761.745 507.59L778.251 516.871C778.251 516.871 800.74 457.262 801.771 449.424C803.009 441.586 803.422 437.461 799.708 429.623C795.994 421.786 775.568 350.42 775.568 350.42C775.568 350.42 773.505 341.757 758.444 337.219C743.382 332.681 732.241 326.081 729.559 326.287C726.876 326.493 718.623 342.169 714.91 346.913C713.259 348.976 713.672 349.801 711.609 352.688Z" fill="#292524"/>
<path d="M719.861 256.159C719.861 256.159 694.69 265.441 689.532 269.153C685.612 272.041 684.787 274.722 684.787 274.722C684.787 274.722 682.104 273.485 682.311 277.404C682.517 281.323 679.216 271.422 678.391 268.122C677.772 265.028 677.565 256.159 684.374 249.559C691.183 242.958 698.816 238.214 705.006 238.627C711.196 239.039 716.56 240.896 721.512 245.64C726.464 250.384 727.702 250.177 728.733 250.59C729.765 251.002 734.923 256.571 735.542 262.553C736.161 268.534 734.304 277.404 734.304 277.404C734.304 277.404 733.066 276.166 731.828 276.991C730.59 278.022 730.177 271.216 725.845 263.172C722.956 257.396 719.861 256.159 719.861 256.159Z" fill="#1C1917"/>
<path opacity="0.07" d="M703.975 553.998C701.086 562.455 689.945 578.749 682.517 588.65C675.089 598.55 652.6 619.176 654.045 644.546C655.489 669.71 670.757 734.682 670.757 740.663C670.757 746.438 664.98 774.077 660.647 782.534C656.314 790.991 654.251 806.254 656.52 806.254C660.441 806.048 664.773 805.635 668.693 804.604C672.407 803.779 676.121 802.954 679.629 801.716C681.073 801.097 681.485 796.147 681.485 796.147C681.692 794.084 681.279 792.022 680.866 790.165C679.835 787.072 679.01 783.771 678.597 780.678C677.772 756.958 675.502 701.886 676.121 698.174C676.946 690.955 671.169 654.653 676.534 636.915C681.692 618.764 703.975 553.998 703.975 553.998Z" fill="black"/>
<path opacity="0.07" d="M649.712 508.827L645.792 538.529C645.792 538.529 649.712 544.716 650.743 539.56C651.981 534.403 660.028 524.709 654.87 517.696C650.125 510.683 649.712 508.827 649.712 508.827Z" fill="black"/>
<path opacity="0.07" d="M758.444 517.078L757.206 531.309L755.555 544.923C755.555 544.923 749.778 549.048 749.984 543.685C750.191 538.322 740.494 530.278 747.715 524.915C754.936 519.553 758.444 517.078 758.444 517.078Z" fill="black"/>
<path opacity="0.07" d="M688.088 325.05C689.119 324.843 683.342 326.287 688.5 324.637C697.372 321.75 693.659 305.042 693.659 305.042C693.659 305.042 694.484 311.23 702.943 313.705C711.402 316.181 713.465 314.324 700.88 320.306C688.294 326.287 694.896 328.144 695.722 335.775" fill="black"/>
<path opacity="0.07" d="M662.917 400.541L648.887 485.726C648.887 485.726 649.093 500.989 651.775 503.052C654.457 505.114 663.535 506.765 665.392 508.208C667.456 509.652 689.119 516.871 683.342 504.702C682.104 502.021 652.807 485.726 665.805 468.4C678.803 451.281 676.534 427.561 670.344 410.854C666.63 401.16 664.773 390.847 665.392 380.534L662.917 400.541Z" fill="black"/>
<path d="M217.53 547.943C216.911 547.943 216.499 548.356 216.499 548.975C216.499 552.069 217.118 559.7 223.514 559.7C230.941 559.7 610.161 559.494 633.063 559.494C633.888 559.494 635.126 558.05 635.952 557.019C636.983 555.781 638.634 553.719 639.459 549.387C639.665 548.356 639.046 547.531 638.015 547.325C637.808 547.325 637.808 547.325 637.602 547.325L217.53 547.943Z" fill="#A8A29E"/>
<path d="M244.765 559.7C244.765 559.7 244.146 567.951 250.955 567.951C257.557 567.951 590.767 567.332 610.78 567.126C611.399 567.126 612.224 566.919 612.843 566.507C614.081 565.476 616.145 563.413 616.764 559.288L244.765 559.7Z" fill="#A8A29E"/>
<path d="M549.503 566.919H553.423L593.862 815.256L590.561 815.462L549.503 566.919Z" fill="#A8A29E"/>
<path d="M331.627 567.538H327.087L277.57 815.669L281.49 815.875L331.627 567.538Z" fill="#A8A29E"/>
<path d="M360.512 567.538H355.973L306.455 797.724L310.169 797.93L360.512 567.538Z" fill="#A8A29E"/>
<path d="M516.904 566.507H521.236L568.278 796.486L564.564 796.693L516.904 566.507Z" fill="#A8A29E"/>
<path d="M334.309 553.1L439.533 548.768L455.213 475.34L348.339 476.371L332.452 552.894" fill="#44403C"/>
<path d="M395.174 523.192C398.706 523.192 401.57 520.145 401.57 516.386C401.57 512.626 398.706 509.579 395.174 509.579C391.641 509.579 388.778 512.626 388.778 516.386C388.778 520.145 391.641 523.192 395.174 523.192Z" fill="white"/>
<path d="M333.483 547.531H276.126C275.713 547.531 275.507 547.737 275.301 548.15L274.475 551.656C274.475 552.068 274.682 552.481 275.094 552.481C275.094 552.481 275.094 552.481 275.301 552.481L332.452 553.1C332.864 553.1 333.071 552.894 333.277 552.481L334.309 548.562C334.309 548.15 334.102 547.737 333.483 547.531Z" fill="#44403C"/>
<path d="M346.688 474.309L453.563 473.484C453.769 473.484 453.769 473.484 453.975 473.69L455.42 475.34L348.958 476.165C348.751 476.165 348.545 476.371 348.545 476.577L334.721 552.481C334.721 552.687 334.515 552.894 334.309 552.894H333.277C333.071 552.894 332.864 552.687 332.864 552.481L346.069 475.134C345.863 474.721 346.069 474.309 346.688 474.309Z" fill="#44403C"/>
<path d="M532.172 514.117C531.346 513.911 530.315 513.704 529.489 513.498C527.632 513.085 525.363 513.704 524.125 515.148C523.3 516.179 522.681 517.623 522.474 519.067C521.649 523.398 523.093 527.936 526.395 530.824C528.664 533.093 531.346 535.155 534.028 536.805C534.854 537.218 535.473 538.043 535.473 538.868C536.298 541.962 537.33 545.056 538.568 547.943C538.774 548.356 538.98 548.356 539.186 548.562C544.757 550.212 550.534 550.212 556.105 548.768C557.343 548.356 557.343 548.356 557.962 547.118C560.231 541.137 561.882 534.949 562.707 528.761C563.532 522.986 563.945 517.211 563.739 511.435C563.739 510.404 563.739 510.404 562.707 509.992C561.057 509.373 559.2 509.167 557.343 509.167C552.804 508.754 548.058 508.754 543.313 508.754C540.424 508.754 537.33 509.167 534.441 509.785C533.822 509.992 533.203 510.198 532.584 510.404C532.378 510.61 532.172 510.61 532.172 511.023C532.172 512.054 532.172 513.085 532.172 514.117ZM534.028 534.124C529.077 531.649 525.982 527.936 525.569 522.367C525.363 521.13 525.569 520.098 525.982 518.654C526.394 517.623 527.013 516.798 528.045 516.592C529.696 516.386 531.14 517.211 531.965 518.654V520.305C532.172 523.811 532.584 527.317 533.203 530.618C533.409 531.855 533.616 532.886 534.028 534.124Z" fill="#44403C"/>
<path d="M532.378 510.404C532.378 510.404 547.646 505.866 563.739 510.404C563.739 510.404 550.328 515.767 532.378 510.404Z" fill="#D6D3D1"/>
<path d="M557.755 475.546C558.787 481.115 557.136 486.89 553.423 491.428C551.978 493.491 550.328 495.141 548.884 497.203C546.614 500.297 544.963 503.804 544.344 507.723C544.344 508.135 543.932 508.96 543.932 509.373C543.932 508.341 543.519 507.723 543.519 506.691C543.313 502.154 544.963 497.822 547.852 494.11C549.09 492.459 550.534 490.809 551.772 489.366C554.867 485.653 556.93 481.528 557.755 476.99" fill="#D6D3D1"/>
<path d="M537.949 503.391C537.949 502.772 537.742 502.36 537.536 501.947C537.33 498.235 538.567 494.522 541.25 491.634C542.694 489.984 543.932 488.334 544.964 486.684C546.408 484.622 547.233 482.146 547.646 479.671C547.852 479.259 547.852 478.021 547.852 478.846L548.058 479.053C548.265 479.671 548.265 480.496 548.471 481.115C548.471 484.415 547.233 487.715 545.17 490.397L541.456 494.935C540.012 496.791 539.186 498.853 538.568 501.122C538.361 501.329 538.361 501.741 538.361 501.947C538.361 502.36 538.155 502.772 537.949 503.391Z" fill="#D6D3D1"/>
<path d="M554.661 505.66C554.661 505.454 554.454 504.629 554.248 503.804C554.042 500.091 555.28 496.378 557.962 493.491C559.406 491.841 560.644 490.191 561.676 488.541C563.12 486.478 563.945 484.003 564.358 481.528C564.564 481.321 564.77 479.878 564.564 480.909V481.115C564.77 481.734 564.77 482.353 564.977 482.972C564.977 486.272 563.739 489.572 561.676 492.253L557.962 496.791C556.517 498.647 555.692 500.71 555.073 502.979C554.867 503.185 554.867 503.597 554.867 503.804C554.867 504.423 554.661 504.835 554.454 505.454L554.661 505.66Z" fill="#D6D3D1"/>
</g>
<defs>
<linearGradient id="paint0_linear_91151_5736" x1="621.011" y1="401.063" x2="794.498" y2="401.063" gradientUnits="userSpaceOnUse">
<stop stop-color="#F87B58"/>
<stop offset="0.41" stop-color="#F89453"/>
<stop offset="0.71" stop-color="#F8C548"/>
<stop offset="1" stop-color="#F89C51"/>
</linearGradient>
<clipPath id="clip0_91151_5736">
<rect width="923" height="659" fill="white" transform="translate(50 161)"/>
</clipPath>
</defs>
</svg>
