<svg width="1024" height="1024" viewBox="0 0 1024 1024" fill="none" xmlns="http://www.w3.org/2000/svg">
<rect width="1024" height="1024" fill="white"/>
<g clip-path="url(#clip0_91149_5599)">
<path d="M454.026 180.581C454.026 180.581 307.896 262.033 345.616 861.009H694.439C694.439 861.009 718.015 348.293 567.169 180.581H454.026Z" fill="#F5F5F4"/>
<path d="M420.007 860.217V898.022H407.022V927.924H376.246V942H663.865V925.29H630.215V901.099H615.37V860.217H420.007Z" fill="#F5F5F4"/>
<path d="M515.267 609.118C578.751 609.118 630.215 557.639 630.215 494.135C630.215 430.632 578.751 379.152 515.267 379.152C451.782 379.152 400.318 430.632 400.318 494.135C400.318 557.639 451.782 609.118 515.267 609.118Z" fill="url(#paint0_linear_91149_5599)"/>
<path d="M515.266 591.911C567.877 591.911 610.526 549.249 610.526 496.623C610.526 443.997 567.877 401.335 515.266 401.335C462.656 401.335 420.007 443.997 420.007 496.623C420.007 549.249 462.656 591.911 515.266 591.911Z" fill="#F5F5F4"/>
<path d="M516.225 565.197C554.085 565.197 584.777 534.495 584.777 496.623C584.777 458.751 554.085 428.05 516.225 428.05C478.364 428.05 447.672 458.751 447.672 496.623C447.672 534.495 478.364 565.197 516.225 565.197Z" fill="url(#paint1_linear_91149_5599)"/>
<path d="M366.705 807.727H188.656C184.079 807.74 179.555 806.758 175.395 804.85C171.236 802.941 167.54 800.151 164.565 796.673C151.672 781.491 137.453 752.142 176.279 718.169C233.117 668.424 358.177 609.118 358.177 609.118L366.705 807.727Z" fill="url(#paint2_linear_91149_5599)"/>
<path d="M663.865 794.425H835.652C840.102 794.419 844.496 793.424 848.516 791.513C852.536 789.601 856.081 786.82 858.895 783.371C871.346 768.19 885.049 738.841 847.587 704.867C792.737 655.123 672.079 595.835 672.079 595.835L663.865 794.425Z" fill="url(#paint3_linear_91149_5599)"/>
<path d="M525.157 714.981H513.793C504.679 714.981 497.291 722.372 497.291 731.489V883.909C497.291 893.026 504.679 900.417 513.793 900.417H525.157C534.272 900.417 541.66 893.026 541.66 883.909V731.489C541.66 722.372 534.272 714.981 525.157 714.981Z" fill="url(#paint4_linear_91149_5599)"/>
<path d="M424.336 214.959H589.16C589.766 214.933 590.355 214.749 590.867 214.423C591.379 214.098 591.796 213.645 592.078 213.107C592.36 212.57 592.495 211.968 592.471 211.362C592.447 210.756 592.265 210.167 591.941 209.653L514.677 82.5291C514.405 82.0432 514.012 81.6361 513.536 81.3474C513.06 81.0586 512.518 80.898 511.961 80.8813C511.405 80.8646 510.854 80.9924 510.361 81.2521C509.869 81.5118 509.452 81.8946 509.152 82.3633L421.591 209.488C421.226 210 421.008 210.603 420.959 211.231C420.911 211.858 421.035 212.487 421.317 213.05C421.599 213.612 422.029 214.087 422.561 214.424C423.093 214.76 423.706 214.946 424.336 214.959Z" fill="url(#paint5_linear_91149_5599)"/>
<path d="M517.575 438.006C517.575 438.006 547.98 428.142 576.752 480.442L517.575 438.006Z" fill="url(#paint6_linear_91149_5599)"/>
</g>
<defs>
<linearGradient id="paint0_linear_91149_5599" x1="400.337" y1="494.135" x2="630.215" y2="494.135" gradientUnits="userSpaceOnUse">
<stop stop-color="#78716C"/>
<stop offset="1" stop-color="#1C1917"/>
</linearGradient>
<linearGradient id="paint1_linear_91149_5599" x1="447.653" y1="496.623" x2="584.777" y2="496.623" gradientUnits="userSpaceOnUse">
<stop stop-color="#78716C"/>
<stop offset="1" stop-color="#1C1917"/>
</linearGradient>
<linearGradient id="paint2_linear_91149_5599" x1="151.009" y1="708.423" x2="366.705" y2="708.423" gradientUnits="userSpaceOnUse">
<stop stop-color="#78716C"/>
<stop offset="1" stop-color="#1C1917"/>
</linearGradient>
<linearGradient id="paint3_linear_91149_5599" x1="873.219" y1="695.121" x2="664.301" y2="695.121" gradientUnits="userSpaceOnUse">
<stop stop-color="#78716C"/>
<stop offset="1" stop-color="#1C1917"/>
</linearGradient>
<linearGradient id="paint4_linear_91149_5599" x1="541.66" y1="807.69" x2="497.291" y2="807.69" gradientUnits="userSpaceOnUse">
<stop stop-color="#78716C"/>
<stop offset="1" stop-color="#1C1917"/>
</linearGradient>
<linearGradient id="paint5_linear_91149_5599" x1="421.039" y1="147.989" x2="592.457" y2="147.989" gradientUnits="userSpaceOnUse">
<stop stop-color="#78716C"/>
<stop offset="1" stop-color="#1C1917"/>
</linearGradient>
<linearGradient id="paint6_linear_91149_5599" x1="534.961" y1="404.215" x2="555.361" y2="496.517" gradientUnits="userSpaceOnUse">
<stop stop-color="white" stop-opacity="0"/>
<stop offset="1" stop-color="white"/>
</linearGradient>
<clipPath id="clip0_91149_5599">
<rect width="721" height="861" fill="white" transform="translate(151 81)"/>
</clipPath>
</defs>
</svg>
