<svg width="1024" height="1024" viewBox="0 0 1024 1024" fill="none" xmlns="http://www.w3.org/2000/svg">
<rect width="1024" height="1024" fill="white"/>
<g clip-path="url(#clip0_91138_5297)">
<path d="M934.509 229H91.0683C76.9942 229 65.585 240.42 65.585 254.508V769.492C65.585 783.58 76.9942 795 91.0683 795H934.509C948.583 795 959.992 783.58 959.992 769.492V254.508C959.992 240.42 948.583 229 934.509 229Z" fill="url(#paint0_linear_91138_5297)"/>
<path d="M959.992 363.354H64.0078V458.906H959.992V363.354Z" fill="white"/>
<path d="M853.909 665.492H580.647V709.585H853.909V665.492Z" fill="url(#paint1_linear_91138_5297)"/>
<path d="M227.699 745.119C259.469 745.119 285.223 719.339 285.223 687.539C285.223 655.738 259.469 629.958 227.699 629.958C195.929 629.958 170.175 655.738 170.175 687.539C170.175 719.339 195.929 745.119 227.699 745.119Z" fill="white"/>
<path d="M310.319 745.147C342.089 745.147 367.843 719.367 367.843 687.566C367.843 655.766 342.089 629.986 310.319 629.986C278.549 629.986 252.795 655.766 252.795 687.566C252.795 719.367 278.549 745.147 310.319 745.147Z" fill="white"/>
</g>
<defs>
<linearGradient id="paint0_linear_91138_5297" x1="65.585" y1="512" x2="959.992" y2="512" gradientUnits="userSpaceOnUse">
<stop stop-color="#57534E"/>
<stop offset="1" stop-color="#1C1917"/>
</linearGradient>
<linearGradient id="paint1_linear_91138_5297" x1="580.647" y1="687.539" x2="853.909" y2="687.539" gradientUnits="userSpaceOnUse">
<stop stop-color="white"/>
<stop offset="1" stop-color="white" stop-opacity="0"/>
</linearGradient>
<clipPath id="clip0_91138_5297">
<rect width="896" height="566" fill="white" transform="translate(64 229)"/>
</clipPath>
</defs>
</svg>
