<svg width="1024" height="1024" viewBox="0 0 1024 1024" fill="none" xmlns="http://www.w3.org/2000/svg">
<g clip-path="url(#clip0_91174_8347)">
<path d="M82.565 707.562C82.565 707.562 16.587 809.268 173.586 821.692C330.584 834.02 372.676 818.611 399.452 815.529C426.228 812.447 504.246 755.333 636.299 826.315C725.682 874.375 820.555 818.61 864.573 784.612C908.59 750.614 935.367 713.63 914.369 707.466C893.372 701.302 82.565 707.562 82.565 707.562Z" fill="#F5F5F4"/>
<path d="M79.8682 710.548C79.8682 710.548 -13.7531 572.436 41.5336 518.886C97.4945 464.663 23.811 396.859 48.5648 317.786C69.3695 250.945 197.088 141.246 314.21 192.002C475.929 262.021 475.158 277.431 574.751 260.191C674.344 242.951 789.734 149.143 845.791 267.126C879.021 337.049 970.33 352.362 992.676 417.469C1015.02 482.577 981.407 563.961 962.914 581.778C897.514 644.959 919.86 713.148 919.86 713.148L79.8682 710.548Z" fill="#FAFAF9"/>
<path d="M526.11 393.295C541.484 393.295 553.946 380.833 553.946 365.461C553.946 350.088 541.484 337.626 526.11 337.626C510.737 337.626 498.274 350.088 498.274 365.461C498.274 380.833 510.737 393.295 526.11 393.295Z" fill="white"/>
<path d="M556.451 389.443C567.835 389.443 577.063 380.215 577.063 368.832C577.063 357.449 567.835 348.221 556.451 348.221C545.067 348.221 535.839 357.449 535.839 368.832C535.839 380.215 545.067 389.443 556.451 389.443Z" fill="white"/>
<path d="M756.022 380.485C770.119 380.485 781.547 369.059 781.547 354.963C781.547 340.867 770.119 329.44 756.022 329.44C741.926 329.44 730.498 340.867 730.498 354.963C730.498 369.059 741.926 380.485 756.022 380.485Z" fill="white"/>
<path d="M727.512 376.537C737.938 376.537 746.391 368.085 746.391 357.659C746.391 347.234 737.938 338.782 727.512 338.782C717.086 338.782 708.634 347.234 708.634 357.659C708.634 368.085 717.086 376.537 727.512 376.537Z" fill="white"/>
<path d="M789.54 378.945C799.967 378.945 808.419 370.493 808.419 360.067C808.419 349.642 799.967 341.19 789.54 341.19C779.114 341.19 770.662 349.642 770.662 360.067C770.662 370.493 779.114 378.945 789.54 378.945Z" fill="white"/>
<path d="M138.237 395.125C152.334 395.125 163.762 383.698 163.762 369.602C163.762 355.506 152.334 344.079 138.237 344.079C124.141 344.079 112.713 355.506 112.713 369.602C112.713 383.698 124.141 395.125 138.237 395.125Z" fill="white"/>
<path d="M110.498 385.397C120.924 385.397 129.376 376.946 129.376 366.52C129.376 356.095 120.924 347.643 110.498 347.643C100.071 347.643 91.6191 356.095 91.6191 366.52C91.6191 376.946 100.071 385.397 110.498 385.397Z" fill="white"/>
<path d="M146.135 320.964L147.098 707.948H454.353L453.39 321.928L146.135 320.964Z" fill="#F5F5F4"/>
<path d="M132.65 285.233L463.022 286.196L463.985 321.928H132.65V285.233Z" fill="#D6D3D1"/>
<path d="M463.022 393.199H132.65V403.793H463.022V393.199Z" fill="#D6D3D1"/>
<path d="M452.426 402.83H147.098V413.424H452.426V402.83Z" fill="#D6D3D1"/>
<path d="M451.464 319.038H146.135V329.633H451.464V319.038Z" fill="#D6D3D1"/>
<path d="M464.949 707.081H134.577V717.675H464.949V707.081Z" fill="#D6D3D1"/>
<path d="M176.956 342.153L166.361 353.711V370.084L175.993 379.715L423.531 380.678L433.163 372.01V353.711L421.605 342.153H176.956Z" fill="#D6D3D1"/>
<path d="M146.135 437.502H165.398V450.023H147.098L146.135 437.502Z" fill="#E7E5E4"/>
<path d="M146.135 562.708H157.693V575.229H147.098L146.135 562.708Z" fill="#E7E5E4"/>
<path d="M280.98 544.409H250.158V555.967H280.98V544.409Z" fill="#E7E5E4"/>
<path d="M262.68 563.672H231.858V575.229H262.68V563.672Z" fill="#E7E5E4"/>
<path d="M247.751 492.689H216.929V504.247H247.751V492.689Z" fill="#E7E5E4"/>
<path d="M318.544 564.635H287.723V576.192H318.544V564.635Z" fill="#E7E5E4"/>
<path d="M263.932 426.138H233.11V437.695H263.932V426.138Z" fill="#E7E5E4"/>
<path d="M437.016 557.893H406.194V569.45H437.016V557.893Z" fill="#E7E5E4"/>
<path d="M441.832 416.314H411.01V427.871H441.832V416.314Z" fill="#E7E5E4"/>
<path d="M377.781 596.322H433.742C435.572 596.322 437.016 597.766 437.016 599.596V706.792C437.016 708.622 435.572 710.066 433.742 710.066H377.781C375.951 710.066 374.506 708.622 374.506 706.792V599.692C374.506 597.863 375.951 596.322 377.781 596.322Z" fill="#D6D3D1"/>
<path d="M383.752 609.131H427.866C429.696 609.131 431.141 610.576 431.141 612.406V624.06C431.141 625.889 429.696 627.334 427.866 627.334H383.752C381.922 627.334 380.478 625.889 380.478 624.06V612.406C380.478 610.672 381.922 609.131 383.752 609.131Z" fill="white"/>
<path d="M163.953 476.027H170.214L240.43 475.931C240.43 475.931 244.283 454.742 228.872 442.222C213.461 429.701 197.472 429.701 185.914 435.48C174.356 441.259 163.568 450.023 163.953 476.027Z" fill="#D6D3D1"/>
<path d="M170.214 476.027L169.733 527.362H235.036V474.775L169.251 473.716L170.214 476.027Z" fill="#D6D3D1"/>
<path d="M169.733 527.362L165.398 527.073V535.741H239.275L238.986 527.073L169.733 527.362Z" fill="#D6D3D1"/>
<path d="M200.651 478.917H177.823V499.913H200.651V478.917Z" fill="white"/>
<path d="M227.041 478.628H205.273V499.624H227.041V478.628Z" fill="white"/>
<path d="M227.427 505.114H205.178V526.11H227.427V505.114Z" fill="white"/>
<path d="M200.94 505.114H178.112V526.11H200.94V505.114Z" fill="white"/>
<path d="M173.2 444.726L170.503 476.22L183.602 475.738L186.203 435.48L178.016 440.295L174.163 443.666" fill="#E7E5E4"/>
<path d="M232.436 445.4L234.844 476.22L222.9 475.738L220.589 436.636L227.909 441.451L231.473 444.341" fill="#E7E5E4"/>
<path d="M190.44 444.148L188.61 475.931L200.072 476.124L202.576 431.82L197.664 432.013L191.693 433.072" fill="#E7E5E4"/>
<path d="M217.217 444.052L218.758 475.738L208.549 475.931L206.43 432.013L211.727 433.168L216.254 434.613" fill="#E7E5E4"/>
<path d="M261.524 476.702H267.784L338 476.605C338 476.605 341.853 455.416 326.442 442.896C311.031 430.375 295.042 430.375 283.484 436.154C271.926 441.933 261.138 450.697 261.524 476.702Z" fill="#D6D3D1"/>
<path d="M267.881 476.702L267.303 528.036H332.703V475.449L266.821 474.39L267.881 476.702Z" fill="#D6D3D1"/>
<path d="M267.303 528.036L262.969 527.747V536.415H336.941L336.556 527.747L267.303 528.036Z" fill="#D6D3D1"/>
<path d="M298.318 479.591H275.49V500.587H298.318V479.591Z" fill="white"/>
<path d="M324.708 479.302H302.94V500.298H324.708V479.302Z" fill="white"/>
<path d="M324.998 505.788H302.748V526.784H324.998V505.788Z" fill="white"/>
<path d="M298.51 505.788H275.683V526.784H298.51V505.788Z" fill="white"/>
<path d="M270.77 445.4L268.073 476.894L281.173 476.413L283.773 436.154L275.586 440.97L271.733 444.341" fill="#E7E5E4"/>
<path d="M330.006 446.074L332.414 476.894L320.471 476.509L318.159 437.31L325.479 442.125L329.043 445.015" fill="#E7E5E4"/>
<path d="M288.012 444.822L286.182 476.605L297.644 476.702L300.148 432.494L295.236 432.687L289.264 433.746" fill="#E7E5E4"/>
<path d="M314.788 444.726L316.329 476.413L306.119 476.605L304 432.687L309.298 433.843L313.824 435.287" fill="#E7E5E4"/>
<path d="M357.843 476.702H364.103L434.319 476.605C434.319 476.605 438.172 455.416 422.761 442.896C407.35 430.375 391.361 430.375 379.803 436.154C368.245 441.933 357.361 450.697 357.843 476.702Z" fill="#D6D3D1"/>
<path d="M364.103 476.702L363.526 528.036H428.926V475.449L363.044 474.39L364.103 476.702Z" fill="#D6D3D1"/>
<path d="M363.525 528.036L359.287 527.747V536.415H433.163L432.778 527.747L363.525 528.036Z" fill="#D6D3D1"/>
<path d="M394.539 479.591H371.712V500.587H394.539V479.591Z" fill="white"/>
<path d="M420.931 479.302H399.163V500.298H420.931V479.302Z" fill="white"/>
<path d="M421.316 505.788H399.066V526.784H421.316V505.788Z" fill="white"/>
<path d="M394.733 505.788H371.905V526.784H394.733V505.788Z" fill="white"/>
<path d="M366.993 445.4L364.393 476.894L377.396 476.413L380.092 436.154L371.809 440.97L368.053 444.341" fill="#E7E5E4"/>
<path d="M426.228 446.074L428.636 476.894L416.693 476.509L414.381 437.31L421.797 442.125L425.265 445.015" fill="#E7E5E4"/>
<path d="M384.234 444.822L382.5 476.605L393.866 476.702L396.37 432.494L391.458 432.687L385.486 433.746" fill="#E7E5E4"/>
<path d="M411.01 444.726L412.648 476.413L402.342 476.605L400.223 432.687L405.616 433.843L410.047 435.287" fill="#E7E5E4"/>
<path d="M164.243 622.904H180.906L366.8 622.807C366.8 622.807 381.922 599.404 341.083 586.594C300.244 573.784 233.207 577.444 202.674 583.319C172.141 589.194 163.087 596.322 164.243 622.904Z" fill="#D6D3D1"/>
<path d="M166.651 623.385L165.013 707.273H366.222V621.266L163.376 619.533L166.651 623.385Z" fill="#D6D3D1"/>
<path d="M353.701 624.541H176.379V667.304H353.701V624.541Z" fill="white"/>
<path d="M289.938 674.142H238.89V695.138H289.938V674.142Z" fill="white"/>
<path d="M228.68 674.527H177.631V695.523H228.68V674.527Z" fill="white"/>
<path d="M351.967 674.527H300.918V695.523H351.967V674.527Z" fill="white"/>
<path d="M183.025 590.061L179.365 620.4L196.703 620.014L199.785 583.223L189.671 585.631L183.989 587.942" fill="#E7E5E4"/>
<path d="M211.632 590.35L208.742 620.111L226.176 619.822L229.258 579.563L220.782 580.526L213.173 581.297" fill="#E7E5E4"/>
<path d="M341.276 589.772L344.069 620.111L330.488 619.725L328.08 583.03L336.074 585.438L340.409 587.75" fill="#E7E5E4"/>
<path d="M318.641 590.158L321.049 619.822L306.505 619.629L303.904 579.371L310.936 580.334L317.389 581.008" fill="#E7E5E4"/>
<path d="M291.96 589.869L294.465 619.629L279.921 619.436L277.224 578.118L284.062 578.504L290.612 578.793" fill="#E7E5E4"/>
<path d="M260.465 591.024L262.873 620.689L248.425 620.496L245.729 579.274L252.952 578.985L259.695 578.889" fill="#E7E5E4"/>
<path d="M478.144 522.354L477.277 715.171L803.122 716.038V520.62L478.144 522.354Z" fill="#F5F5F4"/>
<path d="M805.819 706.214H475.447V716.808H805.819V706.214Z" fill="#D6D3D1"/>
<path d="M821.423 522.257H460.133V535.067H821.423V522.257Z" fill="#D6D3D1"/>
<path d="M465.912 524.28C465.912 524.28 469.765 466.878 507.329 465.818C538.247 464.951 696.883 465.722 751.496 466.203C783.666 466.492 811.213 490.282 815.162 522.257C815.258 522.931 815.355 523.702 815.355 524.376L465.912 524.28Z" fill="#D6D3D1"/>
<path d="M783.184 609.131H802.447V621.652H784.147L783.184 609.131Z" fill="#E7E5E4"/>
<path d="M791.179 556.833H802.737V569.354H792.142L791.179 556.833Z" fill="#E7E5E4"/>
<path d="M523.125 650.353H492.303V661.91H523.125V650.353Z" fill="#E7E5E4"/>
<path d="M512.241 599.5H481.419V611.057H512.241V599.5Z" fill="#E7E5E4"/>
<path d="M531.312 558.471H500.49V570.028H531.312V558.471Z" fill="#E7E5E4"/>
<path d="M640.922 548.262H610.101V559.819H640.922V548.262Z" fill="#E7E5E4"/>
<path d="M796.476 586.69H765.654V598.248H796.476V586.69Z" fill="#E7E5E4"/>
<path d="M779.813 675.972H748.991V687.529H779.813V675.972Z" fill="#E7E5E4"/>
<path d="M706.611 539.016H675.789V550.573H706.611V539.016Z" fill="#E7E5E4"/>
<path d="M537.379 621.652H554.042L739.937 621.555C739.937 621.555 755.059 598.151 714.22 585.342C673.381 572.532 606.343 576.192 575.81 582.067C545.278 587.942 536.224 595.069 537.379 621.652Z" fill="#D6D3D1"/>
<path d="M539.788 622.133L538.15 706.021H739.359V620.014L536.513 618.281L539.788 622.133Z" fill="#D6D3D1"/>
<path d="M726.838 623.289H612.026V666.052H726.838V623.289Z" fill="white"/>
<path d="M663.075 672.89H612.026V693.886H663.075V672.89Z" fill="white"/>
<path d="M601.816 624.059H550.768V694.271H601.816V624.059Z" fill="white"/>
<path d="M725.104 673.275H674.056V694.271H725.104V673.275Z" fill="white"/>
<path d="M556.162 588.809L552.502 619.147L569.839 618.762L572.921 581.971L562.808 584.379L557.125 586.69" fill="#E7E5E4"/>
<path d="M584.768 589.098L581.879 618.859L599.312 618.666L602.395 578.311L593.919 579.274L586.31 580.045" fill="#E7E5E4"/>
<path d="M714.412 588.52L717.206 618.955L703.625 618.57L701.217 581.778L709.211 584.186L713.642 586.498" fill="#E7E5E4"/>
<path d="M691.778 588.905L694.186 618.666L679.642 618.377L677.041 578.118L684.072 579.082L690.526 579.852" fill="#E7E5E4"/>
<path d="M665.098 588.616L667.602 618.377L653.058 618.184L650.361 576.963L657.2 577.252L663.75 577.637" fill="#E7E5E4"/>
<path d="M633.602 589.772L636.01 619.533L621.562 619.244L618.865 578.022L626.089 577.829L632.831 577.637" fill="#E7E5E4"/>
<path d="M835.293 704.288C837.797 704.288 839.82 706.31 839.82 708.814V718.157C839.82 720.661 837.797 722.683 835.293 722.683C832.788 722.683 830.766 720.661 830.766 718.157V708.718C830.862 706.31 832.885 704.288 835.293 704.288Z" fill="white"/>
<path d="M864.188 704.288C866.692 704.288 868.715 706.31 868.715 708.814V718.157C868.715 720.661 866.692 722.683 864.188 722.683C861.684 722.683 859.661 720.661 859.661 718.157V708.718C859.757 706.31 861.78 704.288 864.188 704.288Z" fill="white"/>
<path d="M827.395 637.543C827.395 637.543 820.46 709.874 821.712 710.933C823.06 711.896 876.132 712.57 877.48 711.607C878.828 710.644 873.531 638.217 872.472 637.928C871.412 637.639 829.032 636.58 827.395 637.543Z" fill="#D6D3D1"/>
<path d="M836.159 655.746H865.344C866.307 655.746 867.174 656.517 867.174 657.576C867.174 658.539 866.307 659.406 865.344 659.406H836.159C835.196 659.406 834.329 658.636 834.329 657.576C834.329 656.613 835.1 655.746 836.159 655.746Z" fill="white"/>
<path d="M832.211 667.4H868.716C869.679 667.4 870.546 668.17 870.546 669.23C870.546 670.193 869.679 671.06 868.716 671.06H832.211C831.248 671.06 830.381 670.289 830.381 669.23C830.381 668.267 831.151 667.4 832.211 667.4Z" fill="white"/>
<path d="M659 695.996V708.47H860L859.917 696.244L659 695.996Z" fill="#D6D3D1"/>
<path d="M680.728 653.7L680.397 696.574H686.346V653.7H680.728Z" fill="#D6D3D1"/>
<path d="M832.572 653.204L833.068 696.574H838.768V653.204H832.572Z" fill="#D6D3D1"/>
<path d="M669.905 653.7C669.905 653.7 671.475 648 675.606 648H842.651C843.23 648 843.725 648.165 844.221 648.413C845.625 649.157 848.434 650.974 849.178 653.617H669.905V653.7Z" fill="#D6D3D1"/>
<path d="M668.831 659.565V664.522L848.847 664.687L848.682 659.896L668.831 659.565Z" fill="#D6D3D1"/>
<path d="M668.831 669.891V674.848L848.847 675.013L848.682 670.222L668.831 669.891Z" fill="#D6D3D1"/>
<path d="M668.831 681.787V686.744L848.847 686.909L848.682 682.118L668.831 681.787Z" fill="#D6D3D1"/>
<path d="M668.831 691.122V695.996L848.847 696.161L848.682 691.37L668.831 691.122Z" fill="#D6D3D1"/>
<path d="M677.093 707.974L677.175 739.448H691.55L691.963 707.974H677.093Z" fill="#D6D3D1"/>
<path d="M827.945 708.057L828.193 739.944H842.898L842.651 707.974L827.945 708.057Z" fill="#D6D3D1"/>
</g>
<path d="M396.59 740.187H395.106L384.837 740.31C384.837 740.31 382.61 750.331 381.621 754.538C381.497 754.785 381.373 755.527 381.249 756.022C381.002 756.764 381.002 757.507 381.002 758.249C381.249 761.961 382.734 765.301 386.074 767.033C389.786 768.889 392.755 770.744 396.59 767.033C400.426 763.321 401.044 761.095 399.56 754.785C398.075 748.352 397.58 740.31 396.59 740.187Z" fill="#0C0A09"/>
<path d="M437.541 752.806C430.86 750.579 426.283 741.547 426.283 741.547L414.777 740.805C414.777 740.805 414.158 750.084 413.911 754.785C413.54 760.971 414.653 763.94 418.612 763.569C424.056 763.074 446.201 765.177 449.665 762.827C454.243 759.981 443.85 754.785 437.541 752.806Z" fill="#0C0A09"/>
<path d="M439.521 653.091C440.015 657.792 436.551 682.288 436.551 686.989C436.551 691.69 426.283 741.547 426.283 741.547L414.53 741.176C414.53 741.176 417.251 667.565 416.88 663.978C416.633 660.39 401.787 617.708 401.787 617.708C401.787 617.708 400.673 628.966 400.673 632.554C400.673 636.142 396.714 740.187 396.714 740.187H384.961L368.136 586.531L366.527 573.418L430.242 575.026C430.242 575.026 439.026 648.389 439.521 653.091Z" fill="#57534E"/>
<path d="M447.438 543.602L442.118 548.18L443.85 555.355L446.077 558.572C445.83 558.819 445.335 556.963 447.809 558.324L452.51 558.077L456.098 553.376C456.098 553.376 454.242 531.849 445.83 516.879L447.438 543.602ZM440.881 515.147L440.386 512.178L439.149 511.931L440.881 515.147ZM395.972 435.846C398.941 434.608 410.446 429.165 412.179 430.278C414.777 432.505 416.632 435.351 417.375 438.567C417.87 440.794 419.602 443.64 419.973 443.269C421.21 442.031 420.962 446.856 420.962 448.341C420.591 450.444 419.725 452.547 418.241 454.032C417.251 454.774 416.261 457.496 415.766 459.599C415.271 461.826 414.282 466.403 415.148 468.383C416.137 470.61 428.262 492.631 439.025 512.055L378.404 501.168L359.227 541.623L367.888 548.551L365.413 556.84L363.805 557.087C363.805 557.087 362.444 560.304 360.96 558.819C359.722 557.582 357.99 558.201 357.248 558.572C357.001 558.695 356.753 558.695 356.506 558.695L354.526 558.324L353.289 547.437L371.97 490.033C371.97 490.033 394.363 469.867 395.724 469.125C396.961 468.383 397.456 462.939 396.219 460.341C394.982 457.743 393.497 455.269 392.013 452.795C391.023 451.31 389.786 445.619 389.786 443.145C389.786 440.67 391.27 441.536 391.27 441.536C391.27 441.536 392.631 436.712 395.6 435.351C396.714 434.608 412.179 430.278 412.179 430.278" fill="url(#paint0_linear_91174_8347)"/>
<path d="M372.094 477.662C369.125 479.641 366.403 482.363 365.414 485.827C364.424 489.291 347.598 521.704 346.732 524.055C345.99 526.406 342.773 535.808 344.505 545.829C346.237 555.974 353.908 558.324 355.269 558.324C356.011 558.324 354.65 553.128 354.403 549.54C354.279 548.303 355.392 545.087 355.64 543.85C356.135 541.994 357.743 542.489 357.743 540.757C357.743 537.54 365.661 526.529 368.63 520.467C371.599 514.281 377.167 513.292 378.156 510.57C379.146 507.848 369.867 565.747 369.867 565.747C369.867 565.747 369.62 575.892 371.599 576.882C373.331 577.748 394.735 585.913 399.683 587.769C400.178 588.016 400.797 587.645 401.044 587.15L404.261 578.119C404.261 577.995 404.385 577.871 404.508 577.995C404.632 577.995 404.632 578.119 404.632 578.119L407.601 587.892C407.725 588.387 408.343 588.635 408.838 588.635L435.066 582.944C435.066 582.944 434.695 534.447 435.19 526.282C435.561 518.364 434.572 513.91 436.056 516.013C437.664 518.364 450.779 531.354 450.779 535.066C450.655 537.169 451.645 539.025 453.377 540.262L452.634 558.077C452.634 558.077 460.057 549.788 460.8 545.21C461.542 540.509 461.789 538.035 459.562 533.457C457.336 528.756 445.335 486.445 445.335 486.445C445.335 486.445 444.098 481.249 435.19 478.651C426.282 475.93 419.602 471.971 417.993 472.094C416.385 472.218 411.436 481.497 409.209 484.218C408.22 485.456 408.467 485.951 407.106 487.806C406.364 488.672 405.127 488.92 404.261 488.177C404.013 487.93 403.89 487.93 403.766 487.559C403.024 486.445 402.529 485.332 401.91 484.342C400.92 482.363 393.25 471.105 393.25 471.105C393.25 471.105 375.063 475.682 372.094 477.662Z" fill="#292524"/>
<path d="M412.055 430.278C412.055 430.278 396.714 435.474 393.868 437.949C392.136 439.557 391.147 441.536 391.147 441.536C391.147 441.536 389.662 440.918 389.662 443.145C389.662 443.145 389.043 441.66 388.549 440.794C388.054 439.928 386.198 435.103 387.93 431.392C389.662 427.68 391.889 425.453 392.755 424.835C393.621 424.216 398.817 419.762 403.89 420.01C408.962 420.257 412.179 423.721 413.168 424.464C414.158 425.206 415.89 426.691 417.127 427.062C418.364 427.433 421.334 431.392 421.457 434.361C421.705 437.33 420.591 443.763 420.591 443.763C420.591 443.763 420.468 442.897 419.849 443.392C419.231 443.887 417.622 440.67 417.127 438.444C416.632 436.093 412.055 430.278 412.055 430.278Z" fill="#1C1917"/>
<path opacity="0.07" d="M392.137 584.057C392.137 584.057 385.085 621.543 388.796 636.513C394.364 659.276 386.322 689.958 386.322 704.68C386.322 714.206 390.034 740.805 390.281 751.445C390.405 754.661 392.632 760.971 391.023 762.455C390.281 763.074 385.827 761.713 383.229 760.476C381.992 759.857 381.126 758.497 381.373 757.136L382.858 750.702L384.961 742.29L370.363 605.213C370.363 605.213 365.661 574.655 368.259 574.531C370.981 574.531 392.137 584.057 392.137 584.057Z" fill="black"/>
<path d="M379.27 515.147L402.034 508.096L403.147 572.552L382.239 580.469L379.27 515.147Z" fill="white"/>
<path d="M402.034 508.096L428.881 516.137V579.48L403.148 572.552L402.034 508.096Z" fill="white"/>
<path d="M428.881 516.137L454.614 508.219L451.026 541.746L444.716 546.448C443.974 546.942 443.603 547.685 443.479 548.427L443.232 549.664C443.108 550.283 443.232 550.901 443.479 551.396L444.593 554.118C444.964 554.984 445.582 555.85 446.448 556.345L450.16 558.324L449.912 571.933L428.757 579.727V516.137H428.881Z" fill="#FAFAF9"/>
<path d="M379.27 515.147L354.279 507.353L357.743 541.375L363.929 546.076C364.548 546.571 365.043 547.314 365.166 548.056L365.414 549.293C365.538 549.912 365.414 550.53 365.166 551.025L364.177 553.747C363.806 554.613 363.187 555.479 362.321 555.974L358.733 557.953L358.981 572.304L382.239 580.469L379.27 515.147Z" fill="#FAFAF9"/>
<path d="M401.539 508.343L402.034 508.096L402.529 508.219L403.642 572.799L403.147 572.552L402.405 572.799L401.539 508.343Z" fill="#FAFAF9"/>
<path d="M230.403 750.553L221.956 752.458C221.956 752.458 219.933 759.126 218.982 762.698C218.863 762.936 218.744 763.531 218.625 763.888C218.506 764.484 218.387 765.079 218.387 765.793C218.625 769.008 219.814 771.747 222.67 773.176C225.763 774.842 228.262 776.271 231.593 773.176C234.924 770.08 235.519 768.175 234.091 762.817C232.545 757.578 230.403 750.553 230.403 750.553Z" fill="#1C1917"/>
<path d="M279.658 761.626C273.947 759.84 271.449 752.696 271.449 752.696L259.908 752.101C259.908 752.101 259.67 759.364 259.313 763.174C258.956 768.413 259.908 770.675 263.359 770.437C267.999 770.08 286.915 771.747 289.89 769.842C293.816 767.579 285.012 763.293 279.658 761.626Z" fill="#1C1917"/>
<path d="M212.556 588.029C212.556 588.029 208.273 593.982 206.845 609.937C205.537 625.892 208.511 656.134 209.939 662.087C211.366 667.922 216.958 722.573 218.386 726.621C219.814 730.669 221.717 752.458 221.717 752.458L230.878 752.696C230.878 752.696 233.614 724.24 233.614 716.738C233.614 709.237 237.303 638.036 237.065 632.797C236.827 627.559 238.017 629.225 238.017 629.225C238.017 629.225 246.107 654.825 248.486 658.992C250.866 663.278 255.149 671.494 255.149 671.494C255.149 671.494 256.101 698.164 257.29 713.643C258.48 729.121 259.67 753.411 259.67 753.411L271.924 753.172C271.924 753.172 274.779 712.571 274.779 703.998C274.779 695.426 277.397 674.947 277.397 672.565C277.397 670.184 269.307 628.511 269.307 628.511L263.715 588.029H212.556Z" fill="#57534E"/>
<path d="M217.672 476.227C217.672 476.227 223.026 455.39 227.19 453.961C243.609 447.889 245.274 437.53 252.294 467.059C259.313 496.587 278.706 530.639 287.034 540.76C298.456 554.572 297.504 563.501 293.34 564.335C289.295 565.168 268.593 570.645 266.928 571.122C265.262 571.598 270.259 586.005 263.358 583.981C259.551 582.909 259.194 565.883 263.953 565.049C265.976 564.692 288.938 560.168 288.819 558.858C288.7 557.548 270.973 532.902 270.973 532.902L259.551 527.544L231.235 512.184L217.672 505.398L216.245 482.775L215.293 478.37L217.672 476.227Z" fill="url(#paint1_linear_91174_8347)"/>
<path d="M213.984 504.088C213.984 504.088 214.103 505.755 210.296 511.232C208.035 514.566 213.865 512.184 208.868 520.638C201.016 533.973 196.614 548.261 196.019 557.072C195.662 562.549 200.421 561.477 202.444 563.144C203.514 564.097 207.084 562.549 207.916 561.239L209.582 558.382C210.058 557.786 214.46 551.357 214.579 550.523C214.936 548.023 217.434 537.426 218.267 533.616C218.981 530.401 224.573 523.019 229.213 507.898C230.521 503.254 229.213 501.349 229.57 499.206C230.521 492.3 220.885 492.419 220.052 494.801C219.814 495.396 212.556 524.329 212.199 528.139C212.081 529.449 214.698 540.879 216.602 543.975C218.505 547.07 220.885 549.333 220.885 552.19C220.885 555.048 219.576 566.24 217.553 571.241C215.531 576.241 212.556 587.791 212.556 587.791L263.953 587.553C263.953 587.553 262.05 565.526 262.882 557.786C262.882 557.786 265.024 532.902 266.333 530.401C267.641 527.901 281.323 550.404 284.893 556.119C286.32 558.501 266.809 562.668 265.143 564.573C263.477 566.478 266.809 571.598 266.809 571.598C266.809 571.598 300.954 567.431 300.716 562.192C300.478 556.953 281.204 516.828 274.304 509.208C267.403 501.587 265.619 501.826 259.789 503.969C253.959 506.112 251.223 507.898 243.49 509.208C237.779 510.16 231.949 509.089 226.952 506.231C224.097 504.921 213.984 504.088 213.984 504.088Z" fill="#D6D3D1"/>
<path d="M206.964 523.972C207.559 523.138 208.154 522.305 208.63 521.352C209.106 520.519 209.344 520.043 209.582 519.566C212.08 515.28 217.791 505.636 218.743 501.349C219.219 499.682 219.695 497.896 219.933 496.23C220.17 495.039 220.17 493.848 220.051 492.658C219.695 490.514 215.293 481.346 215.887 480.513C216.006 480.394 216.482 477.774 217.315 478.608C218.267 479.56 224.572 483.013 225.048 483.728C226.238 485.871 227.19 488.252 227.904 490.633C228.38 492.062 228.737 496.11 228.856 496.468C230.164 499.921 228.618 502.421 228.737 504.207C228.856 504.802 228.856 507.422 229.094 507.66C230.045 508.255 231.235 508.85 231.711 508.255C232.187 507.66 232.068 505.755 232.068 503.969C232.425 494.682 230.64 486.109 228.499 481.585C226.357 477.06 221.241 468.249 224.691 463.129C228.142 458.01 235.399 454.08 235.756 452.771C236.113 451.461 236.232 457.652 240.158 459.796C244.084 461.939 249.438 467.892 249.438 469.083C249.438 470.273 250.747 474.56 247.059 481.823C243.37 489.086 240.515 498.373 245.631 505.278C250.747 512.184 263.477 521.829 264.429 524.091C265.381 526.234 264.429 535.997 264.072 541.474C263.715 546.951 274.423 532.187 274.066 525.043C273.709 517.899 275.017 514.804 267.76 503.969C260.503 493.134 255.625 474.441 255.506 469.916C255.268 465.392 253.245 452.771 248.843 449.08C244.441 445.389 244.084 442.055 231.949 443.245C231.949 443.245 221.717 443.603 218.862 453.604C216.006 463.606 215.53 477.655 215.412 479.799C215.293 482.061 216.363 496.23 215.055 500.754C213.746 505.159 207.797 514.685 206.607 518.495" fill="#1C1917"/>
<path opacity="0.07" d="M226.476 752.458C226.595 752.696 226.595 752.815 226.595 753.053C226.714 754.482 226.595 758.054 225.049 760.316C223.145 763.293 227.666 769.723 227.666 771.389C227.666 773.056 225.524 774.485 224.097 774.009C222.669 773.533 216.482 770.08 218.862 762.579C219.814 759.602 220.409 756.864 221.003 755.197C221.36 754.363 221.598 753.53 221.836 752.696C221.955 752.339 221.955 751.982 221.955 751.506C221.836 751.029 221.836 750.434 221.836 749.839C221.479 746.981 209.344 656.73 208.868 653.158C208.511 650.062 206.727 631.011 206.846 619.819C206.727 618.867 206.727 617.914 206.727 616.962C206.727 616.724 206.846 615.652 206.846 615.176C206.965 614.104 206.965 613.152 207.084 612.08C206.846 611.247 206.965 611.247 207.084 609.937C207.202 608.627 207.083 607.794 207.202 606.96C208.392 599.34 211.248 590.767 212.556 588.267L212.913 586.957C212.913 586.957 215.174 576.837 216.245 574.694C217.196 572.789 221.122 553.619 220.766 551.476C220.409 549.333 216.363 543.975 216.363 543.975L216.958 541.117C216.958 541.117 218.267 536.831 219.576 533.259C220.647 530.52 223.859 523.138 225.286 520.043C227.428 514.923 228.499 512.899 228.975 509.446C229.332 506.826 229.57 508.017 230.759 508.493C232.425 509.089 232.544 508.255 232.544 506.707C232.663 501.707 232.425 496.706 231.949 491.705C231.473 487.776 227.428 481.465 225.643 477.655C224.573 475.631 223.859 473.488 223.145 471.345C222.431 468.011 222.431 464.32 225.643 461.105C228.38 458.367 236.589 452.652 236.589 452.652C236.589 452.652 232.782 460.391 234.328 463.01C236.827 467.059 235.637 472.178 235.637 473.964C235.637 475.75 233.615 480.275 234.923 484.799C237.065 492.896 233.377 497.42 234.685 502.897C235.518 506.231 235.994 507.303 235.161 510.279C234.328 513.256 226 535.64 230.64 548.737C235.161 561.835 237.303 571.003 230.045 578.861C222.669 586.719 229.451 593.744 229.57 599.221C229.926 612.914 223.264 611.366 222.907 619.819C222.55 628.273 224.335 634.464 224.573 638.87C224.93 653.515 224.692 656.372 223.978 662.088C223.264 667.803 219.338 678.638 223.621 700.069C227.904 721.501 227.309 723.406 226.952 735.432C226 747.695 226.476 752.458 226.476 752.458Z" fill="black"/>
<path d="M214.103 471.94C215.888 470.75 217.673 469.678 219.576 468.606C221.956 467.654 223.026 471.226 223.74 472.774C224.335 474.441 227.547 484.323 227.785 485.037C227.904 485.395 227.309 485.276 225.644 486.585C225.406 486.823 224.93 486.704 224.454 485.514C224.216 484.918 223.383 483.37 222.431 482.775C222.075 482.537 216.007 480.513 215.888 480.989C215.769 481.585 217.316 485.276 218.029 487.3C218.148 487.538 219.1 489.562 218.981 490.038C218.862 490.157 219.1 490.038 219.1 490.038C219.1 490.038 218.029 490.395 217.672 490.038C217.316 489.681 214.222 479.679 213.151 475.869C212.914 475.036 212.319 473.845 212.914 473.369L214.103 471.94Z" fill="#F5F5F4"/>
<defs>
<linearGradient id="paint0_linear_91174_8347" x1="353.317" y1="494.676" x2="455.93" y2="494.676" gradientUnits="userSpaceOnUse">
<stop stop-color="#F87B58"/>
<stop offset="0.41" stop-color="#F89453"/>
<stop offset="0.71" stop-color="#F8C548"/>
<stop offset="1" stop-color="#F89C51"/>
</linearGradient>
<linearGradient id="paint1_linear_91174_8347" x1="215.246" y1="515.673" x2="296.139" y2="515.673" gradientUnits="userSpaceOnUse">
<stop stop-color="#F87B58"/>
<stop offset="0.5" stop-color="#F8C548"/>
<stop offset="1" stop-color="#F89C51"/>
</linearGradient>
<clipPath id="clip0_91174_8347">
<rect width="976" height="666" fill="white" transform="translate(24 179)"/>
</clipPath>
</defs>
</svg>
