<svg width="1024" height="1024" viewBox="0 0 1024 1024" fill="none" xmlns="http://www.w3.org/2000/svg">
<g clip-path="url(#clip0_91175_9718)">
<path d="M44.7397 471.281C44.7397 471.281 -37.9447 205.111 187.97 191.715C413.885 178.319 372.182 248.7 572.767 205.214C773.351 161.729 776.749 131.742 881.16 175.125C985.571 218.507 992.367 330.416 970.538 387.298C948.708 444.18 904.843 489.211 908.138 520.95C911.433 552.688 982.379 634.301 991.749 689.431C996.898 719.521 981.967 770.838 967.963 773.002C864.067 789.593 446.732 762.286 446.732 762.286L204.445 751.569L74.8068 733.845C74.8068 733.845 79.2345 659.445 78.8226 600.605C78.4107 540.22 44.7397 471.281 44.7397 471.281Z" fill="#FAFAF9"/>
<path d="M75.3216 725.704C75.3216 725.704 47.108 842.559 202.077 834.624C357.046 826.69 355.295 809.481 453.116 839.88C550.937 870.279 611.895 882.335 687.475 858.428C763.054 834.521 765.011 838.54 860.978 838.54C956.946 838.54 989.793 736.112 992.264 722.097C995.25 705.61 988.351 651.51 974.553 651.407C873.129 650.171 244.912 644.915 195.384 658.62C152.858 670.368 101.682 709.526 77.0721 719.933" fill="#F5F5F4"/>
<path d="M93.8561 623.069L189.618 583.911L191.265 191.921C191.265 191.921 120.628 196.455 92.8264 223.247L93.8561 623.069Z" fill="#F5F5F4"/>
<path d="M92.8264 223.247L95.1947 622.554L78.4107 629.561C78.4107 629.561 80.779 611.425 76.6602 571.958C72.8504 535.17 33.9279 445.932 31.0448 411.823C28.9854 387.607 30.118 288.991 54.2129 259.726C76.4543 232.831 92.8264 223.247 92.8264 223.247Z" fill="#F5F5F4"/>
<path d="M144.126 339.584C155.051 337.68 162.84 330 161.522 322.43C160.205 314.861 150.28 310.269 139.355 312.173C128.43 314.078 120.641 321.757 121.958 329.327C123.276 336.896 133.2 341.488 144.126 339.584Z" fill="white"/>
<path d="M166.436 332.822C175.344 331.269 181.696 325.01 180.622 318.843C179.549 312.675 171.457 308.934 162.549 310.487C153.641 312.04 147.289 318.298 148.363 324.466C149.436 330.633 157.528 334.375 166.436 332.822Z" fill="white"/>
<path d="M53.4102 388.035C64.3354 386.13 72.1241 378.45 70.8067 370.881C69.4893 363.312 59.5646 358.719 48.6394 360.624C37.7142 362.528 29.9255 370.208 31.2429 377.777C32.5603 385.347 42.485 389.939 53.4102 388.035Z" fill="white"/>
<path d="M72.7322 375.073C81.6405 373.52 87.9918 367.261 86.9184 361.094C85.8449 354.926 77.7532 351.185 68.8449 352.738C59.9367 354.291 53.5853 360.549 54.6587 366.717C55.7322 372.884 63.824 376.625 72.7322 375.073Z" fill="white"/>
<path d="M100.961 216.859L105.8 214.179L106.006 214.076L108.993 212.531L111.876 211.191L116.715 613.589L106.624 617.814L100.961 216.859Z" fill="white"/>
<path d="M64.098 522.083L62.9653 518.271C62.7594 518.374 62.1416 515.488 62.0386 515.488L60.803 512.397L59.6703 508.996L190.338 459.637L190.75 470.663L64.098 522.083Z" fill="white"/>
<path d="M32.2804 420.376L31.8685 418.212C31.6626 417.594 31.3537 415.018 31.1477 414.399L30.6329 410.174L30.118 407.083L191.265 345.461L190.75 356.281L32.2804 420.376Z" fill="white"/>
<path d="M468.047 566.29C471.548 561.756 473.813 556.501 474.637 550.833C475.564 543.929 478.035 535.273 484.316 529.297C493.892 520.229 495.231 481.895 495.437 467.675C495.54 462.316 496.363 456.958 497.908 451.908C500.791 442.943 506.557 430.475 517.884 424.498C529.417 418.418 566.28 415.842 576.989 424.807C598.818 443.046 595.832 467.056 596.141 470.869C597.788 488.799 596.759 501.886 605.923 513.221C615.087 524.557 625.384 538.262 622.707 552.173C620.03 566.084 644.022 586.694 617.764 595.247C591.507 603.8 564.632 609.776 535.389 607.406C509.441 605.345 474.019 601.12 467.017 583.911C463.722 575.462 465.473 569.794 468.047 566.29Z" fill="#F5F5F4"/>
<path d="M474.637 564.127C475.873 562.375 477.417 559.799 480.197 558.356C482.978 556.913 488.641 552.997 516.34 564.333C555.88 580.614 588.418 560.726 591.507 560.314C594.596 559.902 622.501 551.143 621.78 569.485C621.059 587.827 588.006 597.72 578.018 598.132C568.03 598.544 526.431 602.46 505.94 596.586C485.449 590.713 477.623 582.778 476.181 580.82C474.637 578.656 469.488 571.443 474.637 564.127Z" fill="#E7E5E4"/>
<path d="M477.314 697.263H479.271C482.772 697.366 485.758 694.481 485.758 690.977C485.758 690.874 485.758 690.874 485.758 690.771L485.552 681.497C485.552 680.466 484.831 679.539 483.904 679.127L483.286 678.921C481.948 678.405 481.227 676.86 481.845 675.52C482.051 675.005 482.36 674.593 482.772 674.387C483.183 674.077 483.698 673.871 484.11 673.665C488.435 672.016 497.599 666.761 521.694 664.288C534.874 662.948 541.567 662.536 545.068 662.433C546.51 662.33 547.642 661.197 547.642 659.651C547.642 659.445 547.642 659.239 547.539 659.033C547.23 657.796 545.995 656.972 544.656 657.178C536.213 658.208 506.146 661.815 496.261 664.185C490.494 665.628 484.934 667.998 479.785 671.089C477.829 672.326 476.49 674.387 476.284 676.757C476.181 677.581 475.77 678.302 475.152 678.715C474.122 679.436 473.092 679.951 471.96 680.363C470.312 680.879 470.312 686.546 470.724 691.286C470.827 694.481 473.71 697.16 477.314 697.263Z" fill="#D6D3D1"/>
<path d="M623.222 697.263H621.78C617.97 697.366 614.778 694.275 614.778 690.462C614.778 690.359 614.778 690.256 614.778 690.153L614.984 681.394C614.984 680.363 615.602 679.436 616.632 679.024L617.25 678.818C618.588 678.302 619.309 676.757 618.691 675.417C618.485 675.005 618.176 674.593 617.765 674.284C617.353 673.974 616.838 673.768 616.426 673.562C612.101 671.914 603.04 666.658 579.151 664.185C566.177 662.845 559.484 662.433 556.086 662.33C554.644 662.227 553.512 661.094 553.512 659.548C553.512 659.342 553.512 659.136 553.615 658.93C553.923 657.693 555.159 656.869 556.498 657.075C564.941 658.105 594.699 661.712 604.378 664.082C610.145 665.525 615.602 667.895 620.648 670.986C622.604 672.223 623.943 674.284 624.149 676.654C624.252 677.478 624.663 678.199 625.281 678.612C626.208 679.23 627.238 679.848 628.37 680.26C630.018 680.776 629.915 686.546 629.606 691.286C629.503 694.481 626.723 697.16 623.222 697.263Z" fill="#D6D3D1"/>
<path d="M546.407 611.631L546.201 689.638C546.201 690.668 545.377 691.492 544.347 691.492H543.935C542.906 691.492 542.082 692.317 542.082 693.347C542.082 693.347 542.082 693.347 542.082 693.45L542.391 706.64C542.494 709.835 545.068 712.514 548.363 712.514L552.482 712.617C555.88 712.72 558.763 709.938 558.763 706.537C558.763 706.434 558.763 706.331 558.763 706.125L558.248 693.347C558.248 692.317 557.424 691.595 556.395 691.595C555.365 691.595 554.541 690.771 554.541 689.741L554.747 609.776C554.747 608.746 553.923 607.921 552.894 607.921H548.157C547.127 607.921 546.304 608.746 546.304 609.776C546.304 609.776 546.304 609.776 546.304 609.879L546.407 611.631Z" fill="#D6D3D1"/>
<path d="M546.51 668.204C546.51 668.204 483.492 693.553 473.607 702.003C463.722 710.453 462.075 715.708 462.487 717.975C462.487 718.182 462.898 718.388 463.31 718.491C465.782 719.212 467.429 721.479 467.326 723.952L467.12 737.245C467.12 739.306 465.37 740.955 463.413 740.955H456.308C454.249 740.955 452.602 739.306 452.499 737.245L452.293 724.055C452.19 721.273 454.249 718.8 457.029 718.388H457.132C457.132 718.388 459.603 708.392 463.413 704.992C467.223 701.591 473.916 693.965 500.276 682.424C526.637 670.883 546.407 663.67 546.407 663.67L546.51 668.204Z" fill="#E7E5E4"/>
<path d="M554.438 667.276C554.438 668.101 554.953 668.925 555.674 669.234C564.323 672.944 614.572 694.687 623.222 702.415C632.592 710.865 634.137 716.121 633.725 718.388C633.622 718.903 632.283 719.109 630.944 719.212C629.812 719.315 628.988 720.242 628.988 721.376L629.194 735.493C629.194 738.791 631.974 741.47 635.269 741.47H637.02C640.315 741.47 642.992 738.791 643.095 735.493L643.301 721.479C643.301 720.449 642.58 719.521 641.55 719.418L640.006 719.212C639.182 719.109 638.564 718.491 638.358 717.666C637.638 714.884 635.578 708.186 632.695 705.507C629.091 702.106 622.707 694.481 597.788 682.939C578.636 674.18 563.294 667.895 557.218 665.422C556.189 665.009 554.953 665.422 554.541 666.452C554.541 666.761 554.541 666.967 554.438 667.276Z" fill="#E7E5E4"/>
<path d="M209.182 727.147L210.212 547.845H233.895V728.177L209.182 727.147Z" fill="white"/>
<path d="M755.949 544.651L756.979 729.208H777.573L777.985 545.475L755.949 544.651Z" fill="white"/>
<path d="M137.103 526.205V547.845L845.533 545.784V527.236L137.103 526.205Z" fill="white"/>
<path d="M137.103 526.205L187.558 510.748L787.87 511.779L845.533 527.236L137.103 526.205Z" fill="#E7E5E4"/>
<path d="M458.883 520.229L470.724 513.015L525.401 512.706L517.163 519.713L458.883 520.229Z" fill="#FAFAF9"/>
<path d="M186.529 472.518C186.529 472.518 177.57 472.106 176.438 474.991C175.305 477.876 178.497 517.24 179.939 519.61C181.38 521.98 195.59 522.599 199.606 522.599C199.606 522.599 214.536 521.259 215.257 520.228C215.978 519.198 226.069 478.495 222.774 473.033C219.479 467.572 187.043 472.621 187.043 472.621" fill="#E7E5E4"/>
<path d="M175.717 481.792C175.717 481.792 203.518 483.956 206.813 483.029C210.108 482.101 208.976 473.754 208.976 473.754L222.774 473.136C222.774 473.136 222.774 481.174 221.847 482.101C220.817 483.338 219.994 484.78 219.479 486.326C219.479 486.841 213.609 520.847 213.609 520.847C213.609 520.847 204.651 522.186 203.518 522.083C202.077 521.877 207.225 493.849 207.225 491.891C207.225 489.933 207.225 486.223 205.784 486.223C204.342 486.223 177.158 487.047 176.952 483.956C176.849 483.235 176.334 482.41 175.717 481.792Z" fill="#D6D3D1"/>
<path d="M186.734 473.445C186.734 473.445 179.012 467.984 174.893 467.469C170.774 466.953 165.935 466.438 161.816 465.82C157.697 465.202 152.446 463.347 152.549 460.874C152.652 458.503 153.166 457.267 155.535 455.927C157.594 454.588 159.859 453.763 162.331 453.454C164.184 453.248 182.719 458.091 190.441 469.633L193.53 473.445H186.734Z" fill="#D6D3D1"/>
<path d="M159.859 459.946C159.859 459.946 166.964 459.843 170.877 461.08C173.966 462.213 176.849 463.553 179.733 465.201L191.368 473.342" fill="#D6D3D1"/>
<path d="M159.859 459.946C159.859 459.946 166.964 459.843 170.877 461.08C173.966 462.213 176.849 463.553 179.733 465.201L191.368 473.342" stroke="white" stroke-width="0.223259" stroke-miterlimit="10" stroke-linecap="round"/>
<path d="M194.869 473.136C194.869 473.136 185.808 460.874 182.307 457.473C178.806 453.969 174.687 450.054 171.289 446.447C167.891 442.84 163.669 437.688 165.42 435.524C167.17 433.36 168.509 431.917 171.804 432.433C174.378 432.742 176.849 433.669 179.012 435.112C180.865 436.245 197.237 451.908 199.606 469.839L201.974 473.445L194.869 473.136Z" fill="#D6D3D1"/>
<path d="M173.657 439.646C173.657 439.646 180.659 443.871 183.439 447.89C186.014 451.702 190.132 458.4 190.132 458.4L194.766 471.281" stroke="white" stroke-width="0.223259" stroke-miterlimit="10" stroke-linecap="round"/>
<path d="M199.4 473.651C199.4 473.651 188.897 450.775 186.94 446.241C184.984 441.707 176.952 434.906 175.099 430.269C173.348 425.632 172.216 422.334 174.069 419.758C175.923 417.182 180.762 415.121 183.851 416.666C186.734 418.109 190.544 422.437 192.192 424.601C193.427 426.353 202.077 457.37 201.356 464.583L203.004 473.754L199.4 473.651Z" fill="#E7E5E4"/>
<path d="M180.762 425.219C180.762 425.219 186.837 433.051 188.691 437.585C190.75 442.737 192.81 452.527 192.501 450.981L198.782 472.209" stroke="white" stroke-width="0.223259" stroke-miterlimit="10" stroke-linecap="round"/>
<path d="M193.633 473.548C193.633 473.548 184.366 462.934 179.835 460.874C175.305 458.813 170.156 456.546 165.729 454.279C161.301 452.011 156.05 448.302 156.873 446.035C157.8 443.768 158.727 442.84 161.919 442.428C164.699 441.913 167.582 442.016 170.362 442.634C172.422 443.149 191.78 454.897 196.722 468.808L198.988 473.651L193.633 473.548Z" fill="#E7E5E4"/>
<path d="M165.42 448.096C165.42 448.096 173.451 450.775 177.467 453.454C180.453 455.721 183.336 458.091 186.117 460.77L194.972 473.754" stroke="white" stroke-width="0.223259" stroke-miterlimit="10" stroke-linecap="round"/>
<path d="M217.831 473.754C217.831 473.754 226.275 468.602 230.702 468.087C235.13 467.572 240.279 467.159 244.809 466.541C249.34 465.923 254.9 464.171 254.797 461.904C254.694 459.637 254.179 458.503 251.502 457.164C249.237 455.927 246.766 455.103 244.191 454.794C242.235 454.588 222.053 459.225 213.712 470.251L210.314 473.857L217.831 473.754Z" fill="#D6D3D1"/>
<path d="M246.869 460.977C246.869 460.977 239.146 460.874 234.924 462.11C231.629 463.141 228.437 464.48 225.348 466.026L214.124 473.548" fill="#D6D3D1"/>
<path d="M246.869 460.977C246.869 460.977 239.146 460.874 234.924 462.11C231.629 463.141 228.437 464.48 225.348 466.026L214.124 473.548" stroke="white" stroke-width="0.223259" stroke-miterlimit="10" stroke-linecap="round"/>
<path d="M208.976 473.548C208.976 473.548 218.758 461.801 222.568 458.503C226.378 455.206 230.805 451.393 234.512 447.993C238.219 444.592 242.75 439.646 240.896 437.585C239.043 435.524 237.601 434.184 233.997 434.597C231.217 434.803 228.643 435.73 226.275 437.173C224.318 438.306 206.608 453.248 204.033 470.354L201.459 473.857L208.976 473.548Z" fill="#D6D3D1"/>
<path d="M231.938 441.501C231.938 441.501 224.318 445.52 221.332 449.332C218.552 452.939 214.021 459.431 214.021 459.431L208.976 471.693" stroke="white" stroke-width="0.223259" stroke-miterlimit="10" stroke-linecap="round"/>
<path d="M204.136 474.064C204.136 474.064 215.566 452.218 217.625 447.89C219.685 443.562 228.437 437.07 230.394 432.639C232.35 428.208 233.586 425.013 231.526 422.643C229.467 420.273 224.215 418.212 220.92 419.655C217.728 420.994 213.712 425.116 211.859 427.28C210.417 428.929 201.15 458.606 201.871 465.511L200.12 474.27L204.136 474.064Z" fill="#E7E5E4"/>
<path d="M203.004 473.754C203.004 473.754 203.93 452.424 206.093 445.52C207.534 440.882 208.976 433.154 210.932 428.826C212.889 424.498 209.903 418.727 207.946 416.254C205.99 413.781 200.738 414.296 197.34 415.739C194.148 417.079 192.398 421.51 191.986 423.88C191.677 426.044 199.194 451.702 198.37 461.183L198.988 473.96L203.004 473.754Z" fill="#D6D3D1"/>
<path d="M224.215 427.796C224.215 427.796 217.728 435.215 215.669 439.646C213.403 444.592 211.241 453.969 211.55 452.424L204.136 473.239" stroke="white" stroke-width="0.223259" stroke-miterlimit="10" stroke-linecap="round"/>
<path d="M210.417 473.96C210.417 473.96 220.508 463.862 225.348 461.904C230.188 459.946 235.851 457.782 240.587 455.618C245.324 453.454 251.09 449.951 250.164 447.787C249.237 445.623 248.207 444.798 244.706 444.386C241.72 443.974 238.631 443.974 235.645 444.592C233.38 445.107 212.477 456.236 207.122 469.529L204.651 474.064L210.417 473.96Z" fill="#E7E5E4"/>
<path d="M240.793 449.538C240.793 449.538 232.144 452.115 227.819 454.588C224.627 456.649 221.435 459.019 218.552 461.492L208.77 472.415" stroke="white" stroke-width="0.223259" stroke-miterlimit="10" stroke-linecap="round"/>
<path d="M200.944 420.273C200.944 420.273 202.695 438.512 201.665 443.459C201.253 445.52 201.459 458.4 201.459 458.4L201.15 472.724" stroke="white" stroke-width="0.223259" stroke-miterlimit="10" stroke-linecap="round"/>
<path d="M483.08 412.132H369.917V501.062H483.08V412.132Z" fill="white"/>
<path d="M424.079 464.068C427.832 464.068 430.875 461.023 430.875 457.267C430.875 453.511 427.832 450.466 424.079 450.466C420.326 450.466 417.283 453.511 417.283 457.267C417.283 461.023 420.326 464.068 424.079 464.068Z" fill="#F5F5F4"/>
<path d="M416.974 498.898C416.974 498.898 419.857 506.42 416.562 508.481C413.267 510.542 393.291 518.477 393.291 518.477C393.291 518.477 391.85 520.847 395.351 521.568C398.543 522.289 439.113 521.671 447.865 521.568C449.101 521.671 450.233 520.95 450.748 519.816C450.954 519.095 450.645 518.271 449.101 517.755C446.423 516.828 436.538 511.367 432.214 509.099C430.669 508.275 430.257 506.729 429.948 505.184C429.433 502.814 429.125 500.237 430.772 499.722C433.346 498.898 417.077 499.928 417.077 499.928" fill="white"/>
<path d="M331.201 402.961L625.487 402.549L624.972 353.293L314.52 355.663L314.314 402.961H331.201Z" fill="#F5F5F4"/>
<path d="M478.447 362.155V396.057L616.941 395.542V362.567L478.447 362.155Z" fill="#E7E5E4"/>
<path d="M330.377 362.155V396.057L468.871 395.542V362.567L330.377 362.155Z" fill="#E7E5E4"/>
<path d="M330.377 370.295H337.688V396.16L330.377 396.057V370.295Z" fill="white"/>
<path d="M337.791 374.829H342.63L342.836 396.057L337.688 396.16L337.791 374.829Z" fill="#F5F5F4"/>
<path d="M459.912 370.089H464.134V395.954L459.912 395.851V370.089Z" fill="white"/>
<path d="M464.237 374.623H469.077L469.283 395.851L464.134 395.954L464.237 374.623Z" fill="#F5F5F4"/>
<path d="M343.042 371.532H347.882L348.088 396.057L342.939 396.16L343.042 371.532Z" fill="#F5F5F4"/>
<path d="M347.779 377.406L350.25 375.448L362.915 393.79L360.135 396.057L347.779 377.406Z" fill="white"/>
<path d="M406.677 395.954H437.053L436.847 392.45L406.677 392.657V395.954Z" fill="white"/>
<path d="M411.723 392.553H442.099L441.996 389.153L411.723 389.359V392.553Z" fill="#F5F5F4"/>
<path d="M483.286 369.059H487.508L487.611 396.263L483.286 396.16V369.059Z" fill="white"/>
<path d="M487.611 374.829H492.451L492.657 396.057L487.611 396.16V374.829Z" fill="#F5F5F4"/>
<path d="M607.673 369.986H611.895L611.998 395.748H607.673V369.986Z" fill="white"/>
<path d="M611.895 374.108H616.941L617.147 395.542L611.998 395.645L611.895 374.108Z" fill="#F5F5F4"/>
<path d="M602.834 376.272H607.673L607.879 395.748L602.731 395.851L602.834 376.272Z" fill="#F5F5F4"/>
<path d="M478.344 371.532H483.286L483.389 396.16L478.344 396.263V371.532Z" fill="#F5F5F4"/>
<path d="M528.799 377.509L531.27 375.448L543.832 393.893L541.155 396.057L528.799 377.509Z" fill="white"/>
<path d="M508.205 395.954H538.581L538.375 392.553L508.205 392.76V395.954Z" fill="white"/>
<path d="M506.557 392.76H536.83L536.727 389.359L506.557 389.565V392.76Z" fill="#F5F5F4"/>
<path d="M625.281 350.716L624.972 311.25H900.93L901.548 405.64L625.487 407.907L625.281 354.323" fill="#F5F5F4"/>
<path d="M428.713 327.84C428.713 327.84 426.035 326.913 425.829 326.294C425.624 325.676 424.697 321.863 426.447 321.863H441.481C441.481 321.863 443.952 325.882 440.863 326.707C437.774 327.531 440.451 329.18 441.275 329.18C442.099 329.18 444.158 329.18 444.57 330.313C444.982 331.447 444.982 354.632 444.982 354.632H422.637V332.065C422.637 330.725 423.667 329.695 425.006 329.592H425.109C427.58 329.592 429.33 328.974 428.713 327.84Z" fill="#F5F5F4"/>
<path d="M441.687 336.805H426.035V346.492H441.687V336.805Z" fill="white"/>
<path d="M454.249 327.84C454.249 327.84 451.572 326.913 451.366 326.294C451.16 325.676 450.233 321.863 451.984 321.863H467.017C467.017 321.863 469.488 325.882 466.399 326.707C463.31 327.531 465.988 329.18 466.811 329.18C467.635 329.18 469.694 329.18 470.106 330.313C470.518 331.447 470.518 354.632 470.518 354.632H448.174V332.065C448.174 330.725 449.204 329.695 450.542 329.592H450.645C453.219 329.592 454.97 328.974 454.249 327.84Z" fill="#E7E5E4"/>
<path d="M467.223 336.805H451.572V346.492H467.223V336.805Z" fill="white"/>
<path d="M480.609 327.531C480.609 327.531 477.932 326.603 477.726 325.985C477.52 325.367 476.593 321.554 478.344 321.554H493.377C493.377 321.554 495.849 325.573 492.76 326.397C489.67 327.222 492.348 328.871 493.171 328.871C493.995 328.871 496.055 328.871 496.466 330.004C496.878 331.138 496.878 354.323 496.878 354.323H474.534V331.756C474.534 330.416 475.564 329.386 476.902 329.283H477.005C479.477 329.283 481.33 328.664 480.609 327.531Z" fill="#F5F5F4"/>
<path d="M493.583 336.496H477.932V346.182H493.583V336.496Z" fill="white"/>
<path d="M762.231 320.833H634.754V398.736H762.231V320.833Z" fill="#E7E5E4"/>
<path d="M775.925 367.41C778.996 367.41 781.486 364.919 781.486 361.845C781.486 358.772 778.996 356.281 775.925 356.281C772.855 356.281 770.365 358.772 770.365 361.845C770.365 364.919 772.855 367.41 775.925 367.41Z" fill="#E7E5E4"/>
<path d="M719.91 372.047C719.91 372.047 717.233 371.12 717.027 370.501C716.821 369.883 715.894 366.07 717.645 366.07H732.678C732.678 366.07 735.15 370.089 732.06 370.914C728.971 371.738 731.649 373.387 732.472 373.387C733.296 373.387 735.356 373.387 735.767 374.52C736.179 375.654 736.179 398.839 736.179 398.839H713.835V376.272C713.835 374.932 714.865 373.902 716.203 373.799H716.306C718.777 373.799 720.528 373.181 719.91 372.047Z" fill="white"/>
<path d="M732.781 381.012H717.13V390.699H732.781V381.012Z" fill="#F5F5F4"/>
</g>
<defs>
<clipPath id="clip0_91175_9718">
<rect width="963" height="717" fill="white" transform="translate(30 154)"/>
</clipPath>
</defs>
</svg>
