<svg width="1024" height="1024" viewBox="0 0 1024 1024" fill="none" xmlns="http://www.w3.org/2000/svg">
<rect width="1024" height="1024" fill="white"/>
<g clip-path="url(#clip0_91125_4814)">
<path d="M163.011 667.854L228.516 663.489C228.516 663.489 241.617 584.929 294.021 558.743V471.454C294.021 471.454 355.159 506.37 368.26 510.734C381.361 515.099 499.27 458.361 634.647 541.285C748.669 611.116 723.297 733.626 712.424 770.505C710.466 777.183 707.395 783.483 703.34 789.141C693.907 802.234 674.824 828.421 665.216 838.066C652.115 851.159 673.557 924.045 656.482 929.719C643.381 934.083 617.179 877.346 604.078 881.71C533.564 905.477 457.588 907.846 385.728 888.519C383.356 887.858 380.827 888.045 378.579 889.049C376.33 890.054 374.503 891.811 373.413 894.018C367.562 905.977 355.945 927.886 346.556 934.127C333.455 942.856 333.455 886.118 320.354 877.39C307.253 868.661 163.142 742.092 163.142 742.092L163.011 667.854Z" fill="url(#paint0_linear_91125_4814)"/>
<path d="M711.157 681.296C711.157 681.296 764.784 643.282 793.475 671.52C822.166 699.758 817.668 729.217 794.61 736.244C777.404 741.481 750.591 712.676 762.163 694.171C773.736 675.666 793.955 665.759 817.188 681.296C840.42 696.834 850.857 727.996 852.124 745.41" stroke="#44403C" stroke-width="3.94156" stroke-miterlimit="10" stroke-linecap="round"/>
<path d="M302.712 698.055C316.146 698.055 327.036 687.172 327.036 673.746C327.036 660.32 316.146 649.436 302.712 649.436C289.278 649.436 278.387 660.32 278.387 673.746C278.387 687.172 289.278 698.055 302.712 698.055Z" fill="#44403C"/>
<path d="M402.104 525.704C402.104 525.704 499.751 499.518 563.116 528.323" stroke="#44403C" stroke-width="0.98539" stroke-linecap="round" stroke-linejoin="round"/>
<path d="M484.684 428.727C538.613 428.727 582.331 385.035 582.331 331.138C582.331 277.242 538.613 233.55 484.684 233.55C430.756 233.55 387.038 277.242 387.038 331.138C387.038 385.035 430.756 428.727 484.684 428.727Z" fill="url(#paint1_linear_91125_4814)"/>
<path d="M484.029 411.4C528.166 411.4 563.945 375.641 563.945 331.531C563.945 287.421 528.166 251.662 484.029 251.662C439.893 251.662 404.113 287.421 404.113 331.531C404.113 375.641 439.893 411.4 484.029 411.4Z" stroke="url(#paint2_linear_91125_4814)" stroke-width="0.98539"/>
<path d="M478.686 379.972V289.062H484.51V379.972H478.686ZM498.288 316.335C497.862 312.737 496.134 309.943 493.103 307.954C490.073 305.966 486.356 304.972 481.953 304.972C478.733 304.972 475.916 305.492 473.501 306.534C471.11 307.576 469.24 309.008 467.89 310.831C466.564 312.654 465.902 314.725 465.902 317.045C465.902 318.987 466.363 320.656 467.286 322.052C468.233 323.426 469.441 324.574 470.909 325.497C472.376 326.397 473.915 327.142 475.525 327.734C477.135 328.302 478.615 328.764 479.964 329.119L487.35 331.108C489.244 331.605 491.351 332.292 493.671 333.168C496.015 334.043 498.252 335.239 500.383 336.754C502.537 338.246 504.313 340.163 505.71 342.507C507.107 344.851 507.805 347.727 507.805 351.136C507.805 355.066 506.775 358.617 504.715 361.79C502.679 364.962 499.697 367.483 495.767 369.354C491.86 371.224 487.114 372.159 481.527 372.159C476.318 372.159 471.808 371.319 467.997 369.638C464.209 367.957 461.226 365.613 459.048 362.606C456.894 359.6 455.674 356.108 455.39 352.131H464.481C464.718 354.877 465.641 357.15 467.251 358.949C468.885 360.724 470.944 362.05 473.43 362.926C475.939 363.778 478.638 364.204 481.527 364.204C484.888 364.204 487.907 363.66 490.582 362.571C493.257 361.458 495.376 359.919 496.938 357.954C498.501 355.966 499.282 353.646 499.282 350.994C499.282 348.579 498.608 346.615 497.258 345.099C495.909 343.584 494.133 342.353 491.931 341.406C489.73 340.459 487.35 339.631 484.794 338.92L475.845 336.364C470.163 334.73 465.665 332.398 462.35 329.368C459.036 326.338 457.379 322.372 457.379 317.472C457.379 313.4 458.48 309.848 460.681 306.818C462.907 303.764 465.89 301.397 469.63 299.716C473.394 298.011 477.597 297.159 482.237 297.159C486.924 297.159 491.091 297.999 494.737 299.68C498.383 301.338 501.271 303.61 503.402 306.499C505.556 309.387 506.692 312.666 506.811 316.335H498.288Z" fill="#44403C"/>
<path d="M598.445 217.489C633.947 217.489 662.727 188.725 662.727 153.244C662.727 117.763 633.947 89 598.445 89C562.943 89 534.162 117.763 534.162 153.244C534.162 188.725 562.943 217.489 598.445 217.489Z" fill="url(#paint3_linear_91125_4814)"/>
<path d="M598.008 206.098C627.071 206.098 650.63 182.552 650.63 153.506C650.63 124.461 627.071 100.915 598.008 100.915C568.946 100.915 545.386 124.461 545.386 153.506C545.386 182.552 568.946 206.098 598.008 206.098Z" stroke="url(#paint4_linear_91125_4814)" stroke-width="0.98539"/>
<path d="M596.891 189.307V116.58H601.55V189.307H596.891ZM612.573 138.398C612.232 135.519 610.85 133.284 608.425 131.693C606.001 130.102 603.028 129.307 599.505 129.307C596.929 129.307 594.675 129.723 592.744 130.557C590.831 131.39 589.334 132.536 588.255 133.994C587.194 135.453 586.664 137.11 586.664 138.966C586.664 140.519 587.033 141.854 587.772 142.972C588.53 144.07 589.495 144.989 590.67 145.727C591.844 146.447 593.075 147.044 594.363 147.517C595.651 147.972 596.834 148.341 597.914 148.625L603.823 150.216C605.338 150.614 607.024 151.163 608.88 151.864C610.755 152.564 612.545 153.521 614.249 154.733C615.973 155.926 617.393 157.46 618.511 159.335C619.628 161.21 620.187 163.511 620.187 166.239C620.187 169.383 619.363 172.223 617.715 174.761C616.086 177.299 613.7 179.316 610.556 180.812C607.431 182.309 603.634 183.057 599.164 183.057C594.997 183.057 591.389 182.384 588.34 181.04C585.31 179.695 582.923 177.82 581.181 175.415C579.458 173.009 578.482 170.216 578.255 167.034H585.528C585.717 169.231 586.456 171.049 587.744 172.489C589.05 173.909 590.698 174.97 592.687 175.67C594.694 176.352 596.853 176.693 599.164 176.693C601.853 176.693 604.268 176.258 606.408 175.386C608.548 174.496 610.244 173.265 611.494 171.693C612.744 170.102 613.369 168.246 613.369 166.125C613.369 164.193 612.829 162.621 611.749 161.409C610.67 160.197 609.249 159.212 607.488 158.455C605.727 157.697 603.823 157.034 601.778 156.466L594.619 154.42C590.073 153.114 586.475 151.248 583.823 148.824C581.172 146.4 579.846 143.227 579.846 139.307C579.846 136.049 580.727 133.208 582.488 130.784C584.268 128.341 586.655 126.447 589.647 125.102C592.658 123.739 596.02 123.057 599.732 123.057C603.482 123.057 606.816 123.729 609.732 125.074C612.649 126.4 614.959 128.218 616.664 130.528C618.388 132.839 619.297 135.462 619.391 138.398H612.573Z" fill="#44403C"/>
<path d="M368.479 241.842C393.875 241.842 414.463 221.266 414.463 195.885C414.463 170.503 393.875 149.927 368.479 149.927C343.082 149.927 322.494 170.503 322.494 195.885C322.494 221.266 343.082 241.842 368.479 241.842Z" fill="url(#paint5_linear_91125_4814)"/>
<path d="M368.129 233.681C388.919 233.681 405.773 216.837 405.773 196.059C405.773 175.282 388.919 158.438 368.129 158.438C347.339 158.438 330.486 175.282 330.486 196.059C330.486 216.837 347.339 233.681 368.129 233.681Z" stroke="url(#paint6_linear_91125_4814)" stroke-width="0.98539"/>
<path d="M366.511 222.563V168.017H370.006V222.563H366.511ZM378.273 184.381C378.017 182.222 376.98 180.546 375.162 179.352C373.344 178.159 371.114 177.563 368.472 177.563C366.54 177.563 364.85 177.875 363.401 178.5C361.966 179.125 360.844 179.984 360.034 181.078C359.239 182.172 358.841 183.415 358.841 184.807C358.841 185.972 359.118 186.973 359.672 187.811C360.24 188.635 360.965 189.324 361.845 189.878C362.726 190.418 363.649 190.865 364.615 191.22C365.581 191.561 366.469 191.838 367.279 192.051L371.71 193.244C372.847 193.543 374.111 193.955 375.503 194.48C376.909 195.006 378.252 195.723 379.53 196.632C380.823 197.527 381.888 198.678 382.726 200.084C383.564 201.49 383.983 203.216 383.983 205.261C383.983 207.619 383.365 209.75 382.129 211.653C380.908 213.557 379.118 215.07 376.76 216.192C374.416 217.314 371.568 217.875 368.216 217.875C365.091 217.875 362.385 217.371 360.098 216.362C357.825 215.354 356.036 213.948 354.729 212.144C353.436 210.34 352.705 208.244 352.534 205.858H357.989C358.131 207.506 358.685 208.869 359.651 209.949C360.631 211.014 361.867 211.81 363.358 212.335C364.864 212.847 366.483 213.102 368.216 213.102C370.233 213.102 372.044 212.776 373.649 212.122C375.254 211.455 376.526 210.531 377.463 209.352C378.401 208.159 378.869 206.767 378.869 205.176C378.869 203.727 378.465 202.548 377.655 201.639C376.845 200.73 375.78 199.992 374.459 199.423C373.138 198.855 371.71 198.358 370.176 197.932L364.807 196.398C361.398 195.418 358.699 194.019 356.71 192.2C354.722 190.382 353.727 188.003 353.727 185.063C353.727 182.619 354.388 180.489 355.709 178.671C357.044 176.838 358.834 175.418 361.078 174.409C363.337 173.386 365.858 172.875 368.642 172.875C371.455 172.875 373.955 173.379 376.142 174.388C378.33 175.382 380.063 176.746 381.341 178.479C382.634 180.212 383.315 182.179 383.386 184.381H378.273Z" fill="#44403C"/>
</g>
<defs>
<linearGradient id="paint0_linear_91125_4814" x1="653.207" y1="857.226" x2="200.665" y2="528.2" gradientUnits="userSpaceOnUse">
<stop stop-color="#44403C"/>
<stop offset="1" stop-color="#1C1917"/>
</linearGradient>
<linearGradient id="paint1_linear_91125_4814" x1="357.474" y1="520.511" x2="543.139" y2="243.792" gradientUnits="userSpaceOnUse">
<stop stop-color="#44403C"/>
<stop offset="1" stop-color="#1C1917"/>
</linearGradient>
<linearGradient id="paint2_linear_91125_4814" x1="401.93" y1="331.531" x2="566.129" y2="331.531" gradientUnits="userSpaceOnUse">
<stop stop-color="#44403C"/>
<stop offset="1" stop-color="#1C1917"/>
</linearGradient>
<linearGradient id="paint3_linear_91125_4814" x1="514.686" y1="277.936" x2="636.906" y2="95.7418" gradientUnits="userSpaceOnUse">
<stop stop-color="#44403C"/>
<stop offset="1" stop-color="#1C1917"/>
</linearGradient>
<linearGradient id="paint4_linear_91125_4814" x1="543.202" y1="153.506" x2="652.814" y2="153.506" gradientUnits="userSpaceOnUse">
<stop stop-color="#44403C"/>
<stop offset="1" stop-color="#1C1917"/>
</linearGradient>
<linearGradient id="paint5_linear_91125_4814" x1="308.52" y1="285.094" x2="396.007" y2="154.724" gradientUnits="userSpaceOnUse">
<stop stop-color="#44403C"/>
<stop offset="1" stop-color="#1C1917"/>
</linearGradient>
<linearGradient id="paint6_linear_91125_4814" x1="328.302" y1="196.059" x2="408" y2="196.059" gradientUnits="userSpaceOnUse">
<stop stop-color="#44403C"/>
<stop offset="1" stop-color="#1C1917"/>
</linearGradient>
<clipPath id="clip0_91125_4814">
<rect width="698" height="846" fill="white" transform="translate(163 89)"/>
</clipPath>
</defs>
</svg>
