<svg width="1024" height="1024" viewBox="0 0 1024 1024" fill="none" xmlns="http://www.w3.org/2000/svg">
<g clip-path="url(#clip0_91152_6664)">
<path d="M44.7396 471.281C44.7396 471.281 -37.9448 205.111 187.97 191.715C413.885 178.319 372.182 248.7 572.767 205.214C773.351 161.728 776.749 131.742 881.16 175.125C985.571 218.507 992.367 330.416 970.538 387.298C948.708 444.18 904.843 489.211 908.138 520.95C911.433 552.688 982.379 634.301 991.749 689.431C996.898 719.521 981.967 770.838 967.963 773.002C864.067 789.593 446.732 762.286 446.732 762.286L204.445 751.569L74.8067 733.845C74.8067 733.845 79.2343 659.445 78.8225 600.605C78.4106 540.22 44.7396 471.281 44.7396 471.281Z" fill="#FAFAF9"/>
<path d="M75.3217 725.704C75.3217 725.704 47.1081 842.559 202.077 834.624C357.046 826.69 355.296 809.481 453.116 839.88C550.937 870.279 611.895 882.335 687.475 858.428C763.054 834.521 765.011 838.54 860.978 838.54C956.946 838.54 989.793 736.112 992.264 722.097C995.25 705.61 988.352 651.51 974.554 651.407C873.129 650.171 244.912 644.915 195.384 658.62C152.858 670.368 101.682 709.526 77.0722 719.933" fill="#F5F5F4"/>
<path d="M93.8559 623.069L189.617 583.911L191.265 191.921C191.265 191.921 120.628 196.455 92.8262 223.247L93.8559 623.069Z" fill="#F5F5F4"/>
<path d="M92.8262 223.247L95.1945 622.554L78.4105 629.561C78.4105 629.561 80.7788 611.425 76.66 571.958C72.8501 535.17 33.9277 445.932 31.0445 411.823C28.9851 387.607 30.1178 288.991 54.2126 259.726C76.454 232.831 92.8262 223.247 92.8262 223.247Z" fill="#F5F5F4"/>
<path d="M144.125 339.584C155.051 337.68 162.839 330 161.522 322.43C160.204 314.861 150.28 310.269 139.355 312.173C128.429 314.077 120.641 321.757 121.958 329.327C123.276 336.896 133.2 341.488 144.125 339.584Z" fill="white"/>
<path d="M166.436 332.822C175.344 331.269 181.696 325.01 180.622 318.843C179.549 312.675 171.457 308.934 162.549 310.487C153.641 312.04 147.289 318.298 148.363 324.466C149.436 330.633 157.528 334.374 166.436 332.822Z" fill="white"/>
<path d="M53.4101 388.035C64.3353 386.13 72.124 378.45 70.8065 370.881C69.4891 363.312 59.5645 358.719 48.6393 360.624C37.7141 362.528 29.9254 370.208 31.2428 377.777C32.5602 385.347 42.4848 389.939 53.4101 388.035Z" fill="white"/>
<path d="M72.732 375.073C81.6402 373.52 87.9916 367.261 86.9182 361.094C85.8447 354.926 77.7529 351.185 68.8447 352.738C59.9364 354.291 53.585 360.549 54.6585 366.717C55.7319 372.884 63.8237 376.625 72.732 375.073Z" fill="white"/>
<path d="M100.961 216.859L105.8 214.179L106.006 214.076L108.993 212.531L111.876 211.191L116.715 613.589L106.624 617.814L100.961 216.859Z" fill="white"/>
<path d="M64.0976 522.083L62.9649 518.271C62.759 518.374 62.1412 515.488 62.0382 515.488L60.8026 512.397L59.6699 508.996L190.338 459.637L190.75 470.663L64.0976 522.083Z" fill="white"/>
<path d="M32.28 420.376L31.8682 418.212C31.6622 417.594 31.3533 415.018 31.1474 414.399L30.6325 410.174L30.1177 407.083L191.265 345.461L190.75 356.281L32.28 420.376Z" fill="white"/>
<path d="M468.047 566.29C471.548 561.756 473.813 556.501 474.637 550.833C475.564 543.929 478.035 535.273 484.316 529.297C493.892 520.228 495.231 481.895 495.437 467.675C495.54 462.316 496.363 456.958 497.908 451.908C500.791 442.943 506.557 430.475 517.884 424.498C529.417 418.418 566.28 415.842 576.989 424.807C598.818 443.046 595.832 467.056 596.141 470.869C597.788 488.799 596.759 501.886 605.923 513.221C615.087 524.556 625.384 538.262 622.707 552.173C620.03 566.084 644.022 586.694 617.764 595.247C591.507 603.799 564.632 609.776 535.389 607.406C509.441 605.345 474.019 601.12 467.017 583.911C463.722 575.462 465.473 569.794 468.047 566.29Z" fill="#F5F5F4"/>
<path d="M474.637 564.126C475.873 562.375 477.417 559.798 480.198 558.356C482.978 556.913 488.641 552.997 516.34 564.333C555.88 580.614 588.418 560.726 591.507 560.314C594.597 559.901 622.501 551.143 621.781 569.485C621.06 587.827 588.007 597.72 578.019 598.132C568.03 598.544 526.431 602.46 505.94 596.586C485.449 590.712 477.623 582.778 476.182 580.82C474.637 578.656 469.489 571.443 474.637 564.126Z" fill="#E7E5E4"/>
<path d="M477.314 697.263H479.271C482.772 697.366 485.758 694.481 485.758 690.977C485.758 690.874 485.758 690.874 485.758 690.771L485.552 681.497C485.552 680.466 484.831 679.539 483.904 679.127L483.287 678.921C481.948 678.405 481.227 676.86 481.845 675.52C482.051 675.005 482.36 674.593 482.772 674.387C483.184 674.077 483.699 673.871 484.11 673.665C488.435 672.016 497.599 666.761 521.694 664.288C534.874 662.948 541.567 662.536 545.068 662.433C546.51 662.33 547.643 661.197 547.643 659.651C547.643 659.445 547.643 659.239 547.54 659.033C547.231 657.796 545.995 656.972 544.656 657.178C536.213 658.208 506.146 661.815 496.261 664.185C490.495 665.628 484.934 667.998 479.786 671.089C477.829 672.326 476.491 674.387 476.285 676.757C476.182 677.581 475.77 678.302 475.152 678.714C474.122 679.436 473.093 679.951 471.96 680.363C470.313 680.878 470.313 686.546 470.724 691.286C470.827 694.481 473.711 697.16 477.314 697.263Z" fill="#D6D3D1"/>
<path d="M623.222 697.263H621.78C617.971 697.366 614.779 694.275 614.779 690.462C614.779 690.359 614.779 690.256 614.779 690.153L614.984 681.394C614.984 680.363 615.602 679.436 616.632 679.024L617.25 678.818C618.588 678.302 619.309 676.757 618.691 675.417C618.485 675.005 618.176 674.593 617.765 674.284C617.353 673.974 616.838 673.768 616.426 673.562C612.101 671.913 603.04 666.658 579.151 664.185C566.177 662.845 559.484 662.433 556.086 662.33C554.644 662.227 553.512 661.094 553.512 659.548C553.512 659.342 553.512 659.136 553.615 658.93C553.924 657.693 555.159 656.869 556.498 657.075C564.941 658.105 594.699 661.712 604.379 664.082C610.145 665.525 615.602 667.895 620.648 670.986C622.604 672.223 623.943 674.284 624.149 676.654C624.252 677.478 624.664 678.199 625.281 678.611C626.208 679.23 627.238 679.848 628.37 680.26C630.018 680.775 629.915 686.546 629.606 691.286C629.503 694.481 626.723 697.16 623.222 697.263Z" fill="#D6D3D1"/>
<path d="M546.407 611.631L546.201 689.637C546.201 690.668 545.377 691.492 544.347 691.492H543.935C542.906 691.492 542.082 692.317 542.082 693.347C542.082 693.347 542.082 693.347 542.082 693.45L542.391 706.64C542.494 709.835 545.068 712.514 548.363 712.514L552.482 712.617C555.88 712.72 558.763 709.938 558.763 706.537C558.763 706.434 558.763 706.331 558.763 706.125L558.248 693.347C558.248 692.317 557.424 691.595 556.395 691.595C555.365 691.595 554.541 690.771 554.541 689.741L554.747 609.776C554.747 608.746 553.924 607.921 552.894 607.921H548.157C547.128 607.921 546.304 608.746 546.304 609.776C546.304 609.776 546.304 609.776 546.304 609.879L546.407 611.631Z" fill="#D6D3D1"/>
<path d="M546.51 668.204C546.51 668.204 483.492 693.553 473.607 702.003C463.722 710.453 462.075 715.708 462.487 717.975C462.487 718.181 462.899 718.388 463.31 718.491C465.782 719.212 467.429 721.479 467.326 723.952L467.12 737.245C467.12 739.306 465.37 740.955 463.413 740.955H456.309C454.249 740.955 452.602 739.306 452.499 737.245L452.293 724.055C452.19 721.273 454.249 718.8 457.029 718.388H457.132C457.132 718.388 459.604 708.392 463.413 704.991C467.223 701.591 473.916 693.965 500.277 682.424C526.637 670.883 546.407 663.67 546.407 663.67L546.51 668.204Z" fill="#E7E5E4"/>
<path d="M554.438 667.276C554.438 668.101 554.953 668.925 555.674 669.234C564.324 672.944 614.573 694.687 623.222 702.415C632.592 710.865 634.137 716.121 633.725 718.388C633.622 718.903 632.283 719.109 630.945 719.212C629.812 719.315 628.988 720.242 628.988 721.376L629.194 735.493C629.194 738.791 631.974 741.47 635.269 741.47H637.02C640.315 741.47 642.992 738.791 643.095 735.493L643.301 721.479C643.301 720.449 642.58 719.521 641.551 719.418L640.006 719.212C639.182 719.109 638.564 718.491 638.359 717.666C637.638 714.884 635.578 708.186 632.695 705.507C629.091 702.106 622.707 694.481 597.789 682.939C578.636 674.18 563.294 667.895 557.219 665.422C556.189 665.009 554.953 665.422 554.541 666.452C554.541 666.761 554.541 666.967 554.438 667.276Z" fill="#E7E5E4"/>
<path d="M209.182 727.147L210.211 547.845H233.894V728.177L209.182 727.147Z" fill="white"/>
<path d="M755.949 544.651L756.979 729.207H777.573L777.985 545.475L755.949 544.651Z" fill="white"/>
<path d="M137.103 526.205V547.845L845.533 545.784V527.236L137.103 526.205Z" fill="white"/>
<path d="M137.103 526.205L187.558 510.748L787.87 511.779L845.533 527.236L137.103 526.205Z" fill="#E7E5E4"/>
<path d="M458.882 520.228L470.724 513.015L525.401 512.706L517.163 519.713L458.882 520.228Z" fill="#FAFAF9"/>
<path d="M186.528 472.518C186.528 472.518 177.57 472.106 176.437 474.991C175.305 477.876 178.497 517.24 179.938 519.61C181.38 521.98 195.589 522.599 199.605 522.599C199.605 522.599 214.536 521.259 215.257 520.228C215.977 519.198 226.068 478.494 222.773 473.033C219.478 467.572 187.043 472.621 187.043 472.621" fill="#E7E5E4"/>
<path d="M175.716 481.792C175.716 481.792 203.518 483.956 206.813 483.029C210.108 482.101 208.975 473.754 208.975 473.754L222.773 473.136C222.773 473.136 222.773 481.174 221.847 482.101C220.817 483.338 219.993 484.78 219.478 486.326C219.478 486.841 213.609 520.847 213.609 520.847C213.609 520.847 204.651 522.186 203.518 522.083C202.076 521.877 207.225 493.849 207.225 491.891C207.225 489.933 207.225 486.223 205.783 486.223C204.342 486.223 177.158 487.047 176.952 483.956C176.849 483.235 176.334 482.41 175.716 481.792Z" fill="#D6D3D1"/>
<path d="M186.734 473.445C186.734 473.445 179.012 467.984 174.893 467.469C170.774 466.953 165.934 466.438 161.816 465.82C157.697 465.202 152.445 463.347 152.548 460.874C152.651 458.503 153.166 457.267 155.534 455.927C157.594 454.588 159.859 453.763 162.33 453.454C164.184 453.248 182.718 458.091 190.441 469.633L193.53 473.445H186.734Z" fill="#D6D3D1"/>
<path d="M159.859 459.946C159.859 459.946 166.964 459.843 170.877 461.08C173.966 462.213 176.849 463.553 179.732 465.201L191.368 473.342" fill="#D6D3D1"/>
<path d="M159.859 459.946C159.859 459.946 166.964 459.843 170.877 461.08C173.966 462.213 176.849 463.553 179.732 465.201L191.368 473.342" stroke="white" stroke-width="0.223259" stroke-miterlimit="10" stroke-linecap="round"/>
<path d="M194.869 473.136C194.869 473.136 185.808 460.873 182.307 457.473C178.806 453.969 174.687 450.054 171.289 446.447C167.891 442.84 163.669 437.688 165.42 435.524C167.17 433.36 168.509 431.917 171.804 432.433C174.378 432.742 176.849 433.669 179.012 435.112C180.865 436.245 197.237 451.908 199.606 469.839L201.974 473.445L194.869 473.136Z" fill="#D6D3D1"/>
<path d="M173.657 439.646C173.657 439.646 180.659 443.871 183.439 447.89C186.014 451.702 190.132 458.4 190.132 458.4L194.766 471.281" stroke="white" stroke-width="0.223259" stroke-miterlimit="10" stroke-linecap="round"/>
<path d="M199.399 473.651C199.399 473.651 188.897 450.775 186.94 446.241C184.984 441.707 176.952 434.906 175.099 430.269C173.348 425.631 172.215 422.334 174.069 419.758C175.922 417.182 180.762 415.121 183.851 416.666C186.734 418.109 190.544 422.437 192.192 424.601C193.427 426.353 202.077 457.37 201.356 464.583L203.003 473.754L199.399 473.651Z" fill="#E7E5E4"/>
<path d="M180.762 425.219C180.762 425.219 186.837 433.051 188.691 437.585C190.75 442.737 192.81 452.527 192.501 450.981L198.782 472.209" stroke="white" stroke-width="0.223259" stroke-miterlimit="10" stroke-linecap="round"/>
<path d="M193.633 473.548C193.633 473.548 184.366 462.934 179.835 460.874C175.305 458.813 170.156 456.546 165.729 454.279C161.301 452.012 156.049 448.302 156.873 446.035C157.8 443.768 158.727 442.84 161.919 442.428C164.699 441.913 167.582 442.016 170.362 442.634C172.422 443.149 191.78 454.897 196.722 468.808L198.988 473.651L193.633 473.548Z" fill="#E7E5E4"/>
<path d="M165.419 448.096C165.419 448.096 173.451 450.775 177.467 453.454C180.453 455.721 183.336 458.091 186.116 460.77L194.972 473.754" stroke="white" stroke-width="0.223259" stroke-miterlimit="10" stroke-linecap="round"/>
<path d="M217.831 473.754C217.831 473.754 226.275 468.602 230.702 468.087C235.13 467.572 240.279 467.159 244.809 466.541C249.34 465.923 254.9 464.171 254.797 461.904C254.694 459.637 254.179 458.503 251.502 457.164C249.237 455.927 246.766 455.103 244.191 454.794C242.235 454.588 222.053 459.225 213.712 470.251L210.314 473.857L217.831 473.754Z" fill="#D6D3D1"/>
<path d="M246.868 460.977C246.868 460.977 239.146 460.874 234.924 462.11C231.629 463.141 228.437 464.48 225.348 466.026L214.124 473.548" fill="#D6D3D1"/>
<path d="M246.868 460.977C246.868 460.977 239.146 460.874 234.924 462.11C231.629 463.141 228.437 464.48 225.348 466.026L214.124 473.548" stroke="white" stroke-width="0.223259" stroke-miterlimit="10" stroke-linecap="round"/>
<path d="M208.976 473.548C208.976 473.548 218.758 461.801 222.568 458.503C226.378 455.206 230.805 451.393 234.512 447.993C238.219 444.592 242.75 439.646 240.896 437.585C239.043 435.524 237.601 434.184 233.997 434.597C231.217 434.803 228.643 435.73 226.275 437.173C224.318 438.306 206.607 453.248 204.033 470.354L201.459 473.857L208.976 473.548Z" fill="#D6D3D1"/>
<path d="M231.938 441.501C231.938 441.501 224.318 445.52 221.332 449.332C218.552 452.939 214.021 459.431 214.021 459.431L208.976 471.693" stroke="white" stroke-width="0.223259" stroke-miterlimit="10" stroke-linecap="round"/>
<path d="M204.136 474.063C204.136 474.063 215.566 452.218 217.625 447.89C219.684 443.562 228.437 437.07 230.393 432.639C232.35 428.208 233.585 425.013 231.526 422.643C229.466 420.273 224.215 418.212 220.92 419.655C217.728 420.994 213.712 425.116 211.859 427.28C210.417 428.929 201.15 458.606 201.871 465.511L200.12 474.27L204.136 474.063Z" fill="#E7E5E4"/>
<path d="M203.004 473.754C203.004 473.754 203.93 452.424 206.093 445.52C207.534 440.882 208.976 433.154 210.932 428.826C212.889 424.498 209.903 418.727 207.946 416.254C205.99 413.781 200.738 414.296 197.34 415.739C194.148 417.079 192.398 421.51 191.986 423.88C191.677 426.044 199.194 451.702 198.37 461.183L198.988 473.96L203.004 473.754Z" fill="#D6D3D1"/>
<path d="M224.215 427.795C224.215 427.795 217.728 435.215 215.669 439.646C213.403 444.592 211.241 453.969 211.55 452.424L204.136 473.239" stroke="white" stroke-width="0.223259" stroke-miterlimit="10" stroke-linecap="round"/>
<path d="M210.417 473.96C210.417 473.96 220.508 463.862 225.348 461.904C230.187 459.946 235.851 457.782 240.587 455.618C245.324 453.454 251.09 449.951 250.163 447.787C249.237 445.623 248.207 444.798 244.706 444.386C241.72 443.974 238.631 443.974 235.645 444.592C233.379 445.107 212.477 456.236 207.122 469.529L204.651 474.064L210.417 473.96Z" fill="#E7E5E4"/>
<path d="M240.793 449.538C240.793 449.538 232.144 452.115 227.819 454.588C224.627 456.649 221.435 459.019 218.552 461.492L208.77 472.415" stroke="white" stroke-width="0.223259" stroke-miterlimit="10" stroke-linecap="round"/>
<path d="M200.944 420.273C200.944 420.273 202.694 438.512 201.665 443.459C201.253 445.52 201.459 458.4 201.459 458.4L201.15 472.724" stroke="white" stroke-width="0.223259" stroke-miterlimit="10" stroke-linecap="round"/>
<path d="M483.08 412.132H369.917V501.062H483.08V412.132Z" fill="white"/>
<path d="M424.079 464.068C427.832 464.068 430.875 461.023 430.875 457.267C430.875 453.511 427.832 450.466 424.079 450.466C420.325 450.466 417.283 453.511 417.283 457.267C417.283 461.023 420.325 464.068 424.079 464.068Z" fill="#F5F5F4"/>
<path d="M416.974 498.898C416.974 498.898 419.857 506.42 416.562 508.481C413.267 510.542 393.291 518.477 393.291 518.477C393.291 518.477 391.85 520.847 395.35 521.568C398.543 522.289 439.112 521.671 447.865 521.568C449.101 521.671 450.233 520.95 450.748 519.816C450.954 519.095 450.645 518.271 449.101 517.755C446.423 516.828 436.538 511.366 432.214 509.099C430.669 508.275 430.257 506.729 429.948 505.184C429.433 502.814 429.124 500.237 430.772 499.722C433.346 498.898 417.077 499.928 417.077 499.928" fill="white"/>
<path d="M331.2 402.961L625.487 402.549L624.972 353.293L314.519 355.663L314.313 402.961H331.2Z" fill="#F5F5F4"/>
<path d="M478.447 362.155V396.057L616.941 395.542V362.567L478.447 362.155Z" fill="#E7E5E4"/>
<path d="M330.377 362.155V396.057L468.871 395.542V362.567L330.377 362.155Z" fill="#E7E5E4"/>
<path d="M330.377 370.295H337.688V396.16L330.377 396.057V370.295Z" fill="white"/>
<path d="M337.79 374.829H342.63L342.836 396.057L337.688 396.16L337.79 374.829Z" fill="#F5F5F4"/>
<path d="M459.912 370.089H464.134V395.954L459.912 395.851V370.089Z" fill="white"/>
<path d="M464.237 374.623H469.076L469.282 395.851L464.134 395.954L464.237 374.623Z" fill="#F5F5F4"/>
<path d="M343.042 371.532H347.882L348.087 396.057L342.939 396.16L343.042 371.532Z" fill="#F5F5F4"/>
<path d="M347.778 377.406L350.25 375.448L362.915 393.79L360.135 396.057L347.778 377.406Z" fill="white"/>
<path d="M406.677 395.954H437.053L436.847 392.45L406.677 392.656V395.954Z" fill="white"/>
<path d="M411.723 392.553H442.099L441.996 389.153L411.723 389.359V392.553Z" fill="#F5F5F4"/>
<path d="M483.286 369.059H487.508L487.611 396.263L483.286 396.16V369.059Z" fill="white"/>
<path d="M487.611 374.829H492.45L492.656 396.057L487.611 396.16V374.829Z" fill="#F5F5F4"/>
<path d="M607.673 369.986H611.895L611.998 395.748H607.673V369.986Z" fill="white"/>
<path d="M611.895 374.108H616.941L617.146 395.542L611.998 395.645L611.895 374.108Z" fill="#F5F5F4"/>
<path d="M602.834 376.272H607.673L607.879 395.748L602.731 395.851L602.834 376.272Z" fill="#F5F5F4"/>
<path d="M478.344 371.532H483.286L483.389 396.16L478.344 396.263V371.532Z" fill="#F5F5F4"/>
<path d="M528.799 377.509L531.27 375.448L543.832 393.893L541.155 396.057L528.799 377.509Z" fill="white"/>
<path d="M508.205 395.954H538.581L538.375 392.553L508.205 392.759V395.954Z" fill="white"/>
<path d="M506.557 392.759H536.83L536.727 389.359L506.557 389.565V392.759Z" fill="#F5F5F4"/>
<path d="M625.281 350.716L624.972 311.249H900.93L901.548 405.64L625.487 407.907L625.281 354.323" fill="#F5F5F4"/>
<path d="M428.712 327.84C428.712 327.84 426.035 326.913 425.829 326.294C425.623 325.676 424.697 321.863 426.447 321.863H441.481C441.481 321.863 443.952 325.882 440.863 326.706C437.774 327.531 440.451 329.18 441.275 329.18C442.098 329.18 444.158 329.18 444.57 330.313C444.982 331.447 444.982 354.632 444.982 354.632H422.637V332.065C422.637 330.725 423.667 329.695 425.006 329.592H425.108C427.58 329.592 429.33 328.974 428.712 327.84Z" fill="#F5F5F4"/>
<path d="M441.686 336.805H426.035V346.491H441.686V336.805Z" fill="white"/>
<path d="M454.249 327.84C454.249 327.84 451.572 326.913 451.366 326.294C451.16 325.676 450.233 321.863 451.984 321.863H467.017C467.017 321.863 469.488 325.882 466.399 326.706C463.31 327.531 465.988 329.18 466.811 329.18C467.635 329.18 469.694 329.18 470.106 330.313C470.518 331.447 470.518 354.632 470.518 354.632H448.174V332.065C448.174 330.725 449.204 329.695 450.542 329.592H450.645C453.219 329.592 454.97 328.974 454.249 327.84Z" fill="#E7E5E4"/>
<path d="M467.223 336.805H451.572V346.491H467.223V336.805Z" fill="white"/>
<path d="M480.609 327.531C480.609 327.531 477.932 326.603 477.726 325.985C477.52 325.367 476.593 321.554 478.344 321.554H493.377C493.377 321.554 495.848 325.573 492.759 326.397C489.67 327.222 492.347 328.87 493.171 328.87C493.995 328.87 496.054 328.87 496.466 330.004C496.878 331.137 496.878 354.323 496.878 354.323H474.534V331.756C474.534 330.416 475.563 329.386 476.902 329.283H477.005C479.476 329.283 481.33 328.664 480.609 327.531Z" fill="#F5F5F4"/>
<path d="M493.583 336.496H477.932V346.182H493.583V336.496Z" fill="white"/>
<path d="M762.231 320.833H634.754V398.736H762.231V320.833Z" fill="#E7E5E4"/>
<path d="M775.926 367.41C778.997 367.41 781.486 364.919 781.486 361.845C781.486 358.772 778.997 356.281 775.926 356.281C772.855 356.281 770.365 358.772 770.365 361.845C770.365 364.919 772.855 367.41 775.926 367.41Z" fill="#E7E5E4"/>
<path d="M719.91 372.047C719.91 372.047 717.233 371.12 717.027 370.501C716.821 369.883 715.894 366.07 717.645 366.07H732.678C732.678 366.07 735.15 370.089 732.061 370.914C728.971 371.738 731.649 373.387 732.472 373.387C733.296 373.387 735.356 373.387 735.767 374.52C736.179 375.654 736.179 398.839 736.179 398.839H713.835V376.272C713.835 374.932 714.865 373.902 716.203 373.799H716.306C718.778 373.799 720.528 373.181 719.91 372.047Z" fill="white"/>
<path d="M732.781 381.012H717.13V390.699H732.781V381.012Z" fill="#F5F5F4"/>
<path d="M796.107 743.428L784.369 746.107C784.369 746.107 781.486 755.381 780.147 760.328C780.044 760.637 779.838 761.461 779.632 761.976C779.426 762.904 779.323 763.625 779.323 764.553C779.632 768.984 781.28 772.796 785.193 774.754C789.517 777.021 792.915 778.979 797.549 774.754C802.182 770.529 803.006 767.85 801.05 760.431C799.093 753.217 796.107 743.428 796.107 743.428Z" fill="#292524"/>
<path d="M864.273 758.885C856.345 756.412 852.947 746.622 852.947 746.622L837.089 745.798C837.089 745.798 836.78 755.794 836.266 761.152C835.751 768.365 837.089 771.56 841.826 771.148C848.21 770.632 874.364 772.899 878.483 770.323C883.837 767.026 871.584 761.152 864.273 758.885Z" fill="#292524"/>
<path d="M771.6 518.889C771.6 518.889 765.628 527.03 763.775 549.082C761.921 571.134 766.04 612.971 767.996 621.111C769.953 629.252 777.778 704.785 779.735 710.35C781.691 715.914 784.369 746.004 784.369 746.004L797.034 746.313C797.034 746.313 800.741 707.052 800.741 696.645C800.741 686.237 805.889 587.827 805.58 580.614C805.271 573.401 806.919 575.771 806.919 575.771C806.919 575.771 818.04 611.116 821.335 616.989C824.63 622.863 830.499 634.301 830.499 634.301C830.499 634.301 831.837 671.192 833.382 692.523C834.927 713.854 836.677 747.447 836.677 747.447L853.667 747.138C853.667 747.138 857.58 690.977 857.58 679.127C857.58 667.276 861.184 638.938 861.184 635.641C861.184 632.343 850.063 574.843 850.063 574.843L842.34 518.786L771.6 518.889Z" fill="#78716C"/>
<path d="M778.5 364.422C778.5 364.422 785.913 335.672 791.68 333.611C814.436 325.161 816.701 310.94 826.38 351.644C836.06 392.347 862.934 439.543 874.364 453.557C890.118 472.724 888.78 484.986 883.116 486.223C877.453 487.46 848.931 494.982 846.665 495.6C844.4 496.322 851.299 516.107 841.723 513.427C836.368 511.882 835.957 488.387 842.65 487.253C845.43 486.841 877.144 480.452 876.938 478.598C876.732 476.743 852.226 442.634 852.226 442.634L836.368 435.215L797.137 414.09L778.397 404.713L776.44 373.49L775.102 367.41L778.5 364.422Z" fill="url(#paint0_linear_91152_6664)"/>
<path d="M773.454 402.858C773.454 402.858 773.66 405.125 768.306 412.751C765.114 417.388 773.145 414.09 766.349 425.735C755.537 444.18 749.462 463.862 748.639 476.124C748.227 483.647 754.817 482.204 757.494 484.574C759.038 485.914 763.981 483.647 765.114 481.998L767.379 478.082C767.997 477.155 774.072 468.293 774.175 467.262C774.69 463.759 778.088 449.126 779.22 443.871C780.147 439.44 787.973 429.238 794.357 408.423C796.21 402.034 794.357 399.355 794.769 396.366C796.107 386.886 782.721 386.989 781.589 390.286C781.28 391.111 771.189 431.093 770.674 436.451C770.468 438.203 774.072 454.072 776.852 458.4C779.632 462.728 782.721 465.82 782.721 469.736C782.721 473.548 780.971 489.211 778.088 496.116C775.205 503.02 771.189 519.095 771.189 519.095L842.238 518.786C842.238 518.786 839.664 488.284 840.693 477.67C840.693 477.67 843.679 443.252 845.533 439.852C847.283 436.451 866.333 467.468 871.172 475.3C873.129 478.598 846.151 484.368 843.885 486.944C841.62 489.521 846.151 496.734 846.151 496.734C846.151 496.734 893.311 490.963 893.105 483.75C892.796 476.537 866.23 421.097 856.653 410.587C847.077 400.076 844.606 400.488 836.677 403.27C828.646 406.156 824.836 408.732 814.127 410.484C806.301 411.823 798.27 410.381 791.268 406.362C787.355 404.095 773.454 402.858 773.454 402.858Z" fill="#292524"/>
<path d="M763.775 430.269C764.599 429.135 765.423 428.002 766.04 426.662C766.658 425.528 767.07 424.807 767.379 424.292C770.88 418.418 778.706 405.022 780.044 399.148C780.765 396.881 781.28 394.408 781.692 392.038C782.001 390.389 782.001 388.741 781.898 387.195C781.486 384.207 775.308 371.532 776.234 370.398C776.337 370.192 777.161 366.689 778.294 367.822C779.632 369.162 788.385 374.005 789.003 374.829C790.65 377.818 791.989 381.012 793.018 384.31C793.636 386.268 794.151 391.935 794.357 392.45C796.211 397.191 794.048 400.694 794.254 403.167C794.357 404.095 794.357 407.598 794.769 408.01C796.005 408.938 797.652 409.659 798.373 408.835C799.094 407.907 798.785 405.434 798.888 402.961C799.3 390.08 796.931 378.23 793.945 372.047C790.959 365.864 783.854 353.602 788.694 346.595C793.533 339.587 803.521 334.023 803.933 332.271C804.345 330.519 804.654 339.072 810.008 342.06C815.363 345.049 822.777 353.19 822.777 354.838C822.777 356.487 824.527 362.361 819.482 372.459C814.436 382.558 810.42 395.439 817.422 404.919C824.424 414.399 842.135 427.899 843.371 430.887C844.606 433.875 843.371 447.374 842.959 454.897C842.547 462.419 857.271 442.016 856.757 432.123C856.242 422.231 857.992 418.006 848.004 402.961C837.913 387.916 831.426 361.949 831.117 355.663C830.808 349.377 827.925 331.962 821.85 326.913C815.775 321.863 815.26 317.123 798.476 318.772C798.476 318.772 784.369 319.287 780.353 333.095C776.337 346.904 775.72 366.277 775.514 369.265C775.308 372.459 776.749 392.038 774.999 398.118C773.248 404.198 764.908 417.285 763.363 422.643" fill="#1C1917"/>
<path opacity="0.07" d="M790.65 746.107C790.753 746.416 790.753 746.623 790.753 746.932C790.856 748.89 790.753 753.733 788.591 756.927C785.914 761.049 792.195 770.014 792.195 772.178C792.195 774.342 789.312 776.403 787.252 775.785C785.193 775.167 776.647 770.323 780.044 760.019C781.383 755.794 782.207 752.187 782.928 749.92C783.34 748.786 783.751 747.653 784.06 746.416C784.163 745.901 784.163 745.386 784.163 744.768C784.06 744.046 784.06 743.222 783.957 742.501C783.545 738.482 766.658 613.692 766.041 608.952C765.526 604.727 763.054 578.244 763.26 562.787C763.054 561.447 763.055 560.108 763.157 558.871C763.157 558.562 763.363 557.016 763.26 556.398C763.363 554.955 763.466 553.513 763.569 552.173C763.26 551.04 763.466 551.04 763.569 549.185C763.672 547.33 763.569 546.299 763.775 545.063C765.423 534.552 769.336 522.702 771.189 519.301L771.704 517.446C771.704 517.446 774.793 503.432 776.235 500.444C777.47 497.764 782.928 471.384 782.413 468.396C782.001 465.511 776.235 457.988 776.235 457.988L777.058 453.969C777.058 453.969 778.809 448.096 780.662 443.149C782.104 439.337 786.634 429.238 788.488 424.807C791.474 417.697 792.916 414.915 793.533 410.174C793.945 406.568 794.357 408.114 795.902 408.835C798.167 409.762 798.27 408.526 798.373 406.362C798.476 399.458 798.167 392.553 797.549 385.649C796.829 380.188 791.268 371.532 788.797 366.173C787.355 363.391 786.326 360.506 785.399 357.414C784.369 352.777 784.472 347.625 788.797 343.297C792.607 339.484 804.036 331.55 804.036 331.55C804.036 331.55 798.785 342.267 800.947 345.873C804.448 351.438 802.698 358.548 802.698 361.124C802.698 363.597 799.918 369.883 801.668 376.169C804.551 387.298 799.506 393.584 801.359 401.106C802.492 405.743 803.213 407.289 802.08 411.308C800.947 415.43 789.415 446.447 795.799 464.48C802.08 482.513 805.066 495.291 794.872 506.214C784.781 517.034 794.048 526.721 794.254 534.449C794.666 553.307 785.502 551.246 784.987 562.993C784.472 574.74 787.046 583.19 787.252 589.27C787.664 609.467 787.458 613.486 786.326 621.421C785.296 629.355 779.839 644.4 785.914 673.871C791.989 703.446 791.062 706.022 790.444 722.819C790.033 739.512 790.65 746.107 790.65 746.107Z" fill="black"/>
<path d="M773.66 358.445C776.028 356.796 778.602 355.251 781.28 353.911C784.575 352.571 786.119 357.518 786.943 359.682C787.87 361.949 792.297 375.551 792.503 376.684C792.606 377.096 791.885 376.993 789.62 378.848C789.311 379.157 788.693 378.951 787.973 377.303C787.664 376.375 786.428 374.314 785.089 373.593C784.575 373.284 776.234 370.398 776.131 371.223C776.028 372.047 778.087 377.096 779.117 379.982C779.22 380.291 780.662 383.176 780.353 383.691C780.25 383.794 780.456 383.691 780.456 383.691C780.456 383.691 778.911 384.207 778.499 383.691C778.088 383.176 773.763 369.368 772.218 364.113C771.909 362.979 771.086 361.33 771.909 360.609L773.66 358.445Z" fill="#EFEFEF"/>
<path d="M671.206 492.509C670.382 492.303 669.558 492.097 668.734 491.994C666.984 491.581 665.028 492.097 663.792 493.436C662.968 494.467 662.453 495.703 662.247 496.94C661.424 500.959 662.762 505.081 665.748 507.76C667.808 509.821 670.176 511.676 672.647 513.221C673.368 513.633 673.883 514.355 673.986 515.179C674.707 518.064 675.736 520.847 676.869 523.526C676.972 523.835 677.281 523.938 677.487 524.041C682.532 525.484 687.887 525.484 692.932 524.144C694.065 523.732 694.065 523.732 694.683 522.599C696.742 517.137 698.184 511.469 699.007 505.802C699.831 500.547 700.14 495.291 700.037 490.036C700.037 489.108 700.037 489.005 699.007 488.696C697.463 488.181 695.815 487.975 694.168 487.872C689.946 487.563 685.621 487.46 681.297 487.563C678.619 487.563 675.839 487.872 673.162 488.49C672.544 488.593 672.029 488.902 671.412 489.005C671.206 489.108 671 489.211 671 489.521C671.206 490.654 671.206 491.581 671.206 492.509ZM672.956 510.748H672.853C668.528 508.481 665.542 505.081 665.233 499.928C665.131 498.795 665.233 497.764 665.542 496.631C665.851 495.703 666.572 494.982 667.499 494.776C668.94 494.57 670.382 495.291 671.103 496.631V498.073C671.309 501.268 671.721 504.462 672.235 507.554C672.338 508.584 672.544 509.615 672.956 510.748Z" fill="#44403C"/>
<path d="M671.412 489.108C671.412 489.108 685.312 484.883 699.934 489.108C700.037 489.108 687.784 494.055 671.412 489.108Z" fill="#A8A29E"/>
<path d="M694.683 457.267C695.61 462.419 694.168 467.675 690.77 471.693C689.431 473.548 687.99 475.094 686.548 476.949C684.386 479.731 682.944 483.029 682.327 486.532C682.327 486.944 682.018 487.666 682.018 488.078C682.018 487.15 681.709 486.532 681.709 485.605C681.606 481.483 683.047 477.464 685.622 474.167C686.754 472.621 687.99 471.178 689.226 469.839C692.109 466.541 693.859 462.728 694.683 458.606" fill="#D6D3D1"/>
<path d="M676.56 482.616C676.56 482.101 676.457 481.689 676.251 481.277C676.148 477.876 677.281 474.476 679.546 471.9C680.782 470.457 681.914 468.911 682.841 467.365C684.077 465.408 684.901 463.244 685.312 460.977C685.415 460.667 685.518 459.431 685.518 460.255L685.621 460.461C685.724 461.08 685.827 461.698 685.93 462.316C685.93 465.408 684.798 468.396 682.841 470.766L679.546 474.888C678.31 476.537 677.487 478.391 676.972 480.452C676.869 480.659 676.869 480.968 676.869 481.174C676.972 481.689 676.766 482.204 676.56 482.616Z" fill="#D6D3D1"/>
<path d="M691.697 484.677C691.697 484.574 691.491 483.647 691.388 482.926C691.285 479.525 692.417 476.124 694.683 473.548C695.918 472.106 697.051 470.56 697.978 469.014C699.213 467.056 700.037 464.892 700.449 462.625C700.552 462.419 700.758 461.183 700.655 462.007V462.213C700.758 462.831 700.861 463.347 700.964 463.965C700.964 467.056 699.831 470.045 697.875 472.415L694.58 476.537C693.344 478.185 692.52 480.04 692.006 482.101C691.903 482.307 691.903 482.616 691.903 482.822C691.903 483.338 691.8 483.853 691.594 484.368L691.697 484.677Z" fill="#D6D3D1"/>
<path d="M121.967 734.36C121.967 734.36 128.454 699.221 94.3709 680.363C60.2881 661.506 58.7435 661.712 52.0505 659.651C48.1377 658.311 44.2248 661.094 48.6525 666.761C53.0802 672.429 50.6089 673.871 59.5673 676.344C68.5256 678.818 69.8642 689.741 74.3949 692.42C78.8226 695.099 82.7354 695.82 96.4303 701.797C108.89 707.155 119.393 722.303 119.393 727.662C119.393 733.02 131.543 734.772 131.543 734.772L121.967 734.36Z" fill="url(#paint1_linear_91152_6664)"/>
<path d="M120.731 729.414C120.731 729.414 129.38 697.057 99.6221 679.539C69.864 662.021 59.3611 662.227 53.4918 660.166C50.0939 658.93 59.3611 663.155 63.2739 668.307C67.1868 673.459 66.1571 672.326 73.159 676.241C81.2936 680.672 84.5886 685.104 89.4282 685.928C96.3271 687.267 94.2677 694.481 106.212 699.839C117.024 704.785 118.363 717.872 118.363 722.819C118.363 727.765 128.968 729.414 128.968 729.414H120.731Z" fill="url(#paint2_linear_91152_6664)"/>
<path d="M150.798 724.673L154.196 721.479C155.844 720.036 157.8 718.903 159.963 718.285C170.465 715.502 203.622 705.095 217.317 680.054C217.419 679.848 217.317 679.539 217.111 679.436H217.008C216.905 679.436 216.905 679.333 216.802 679.333C212.271 679.024 188.691 678.612 157.182 705.507C156.668 705.919 156.05 706.537 155.638 707.052C154.814 708.186 153.578 710.041 152.961 711.071C152.137 712.514 153.784 714.987 151.622 717.048C149.46 719.212 144.62 724.57 144.62 724.57L148.533 727.456L150.798 724.673Z" fill="url(#paint3_linear_91152_6664)"/>
<path d="M132.881 722.509C132.881 722.509 141.943 641.618 117.23 616.165C94.4739 592.774 94.165 614.31 94.2679 617.917C94.2679 618.226 94.3709 618.535 94.4739 618.844C99.8283 628.84 101.682 640.381 99.7253 651.51C97.357 663.258 114.141 661.712 115.583 673.253C117.024 684.794 122.893 702.518 122.276 710.762C121.658 718.903 121.658 726.837 121.658 726.837L130.719 727.147L132.881 722.509Z" fill="url(#paint4_linear_91152_6664)"/>
<path d="M132.779 722.819C132.882 722.613 132.882 722.406 132.985 722.303C133.499 717.048 141.119 640.793 117.333 616.165C94.783 592.877 94.4741 614.001 94.577 617.814C94.68 618.226 94.8859 618.741 95.0919 619.05C96.7394 621.524 104.153 632.034 110.846 630.901C129.072 627.603 113.009 649.655 122.894 661.403C130.822 670.677 128.145 702.724 127.63 710.968C127.218 715.605 126.498 720.139 125.262 724.673C125.056 725.807 125.777 726.94 126.909 727.147C127.012 727.147 127.012 727.147 127.115 727.147C127.321 727.147 127.424 727.25 127.527 727.25H129.175C130.204 727.353 131.028 726.837 131.543 725.91L132.779 722.819Z" fill="url(#paint5_linear_91152_6664)"/>
<path d="M141.634 727.559C141.634 727.559 143.282 705.095 156.359 691.492C159.963 687.783 164.596 685.103 169.745 683.97C173.658 683.043 180.042 679.951 185.602 669.44C185.602 669.44 196.105 654.499 206.711 649.965C217.214 645.43 206.711 644.915 206.711 644.915C206.711 644.915 176.541 650.686 157.285 668.307C156.05 669.44 154.814 670.471 153.373 671.295C148.327 674.696 134.529 687.68 135.147 725.292L141.634 727.559Z" fill="url(#paint6_linear_91152_6664)"/>
<path d="M167.788 725.704C167.788 725.704 168.2 723.025 164.596 723.025C161.507 723.128 108.272 722.819 108.272 722.819C108.272 722.819 105.801 722.819 105.904 724.673C106.109 726.528 114.141 770.838 114.862 771.869C115.171 772.384 115.789 772.899 116.406 773.002C117.436 773.312 154.711 773.105 154.711 773.105C155.638 773.002 156.256 772.281 156.359 771.354C156.359 771.354 167.891 726.219 167.788 725.704Z" fill="#44403C"/>
<path d="M302.884 463.244C302.884 463.244 313.696 504.771 311.945 509.409C310.195 514.046 301.443 514.973 297.53 515.901C293.617 516.828 258.401 526.617 254.797 526.823C251.194 527.03 251.502 527.545 249.958 527.545C248.413 527.545 228.746 520.538 228.128 518.065C227.408 515.591 226.893 513.943 227.408 510.851C228.025 507.76 236.881 468.19 239.352 467.365C241.823 466.541 302.884 463.244 302.884 463.244Z" fill="#292524"/>
<path d="M304.737 470.663C304.737 470.663 303.914 464.171 302.884 463.244C301.854 462.316 298.765 458.091 295.882 457.885C292.999 457.679 246.045 463.965 244.294 464.377C242.544 464.789 240.176 465.717 239.455 467.262C238.734 468.808 246.251 470.663 247.692 475.609C249.134 480.555 275.906 490.963 282.599 491.685C289.189 492.406 304.737 470.663 304.737 470.663Z" fill="#292524"/>
<path d="M289.395 459.534C289.395 459.534 284.35 447.89 281.879 445.726C279.716 443.768 272.096 439.543 267.36 445.829C262.108 452.939 262.623 461.183 262.623 462.213C262.623 463.244 267.772 462.316 267.772 462.316C267.772 462.316 266.124 453.866 267.566 450.981C268.904 448.302 269.728 445.107 274.568 445.416C279.407 445.726 281.158 448.611 282.599 451.29C283.835 453.969 284.865 456.752 285.688 459.637C285.997 459.946 289.395 459.534 289.395 459.534Z" fill="#44403C"/>
<path d="M281.364 460.255C281.364 460.255 276.318 446.035 273.847 443.356C271.684 440.985 263.55 436.245 258.916 443.871C253.665 452.527 254.694 462.213 254.694 463.347C254.694 464.48 259.843 463.553 259.843 463.553C259.843 463.553 258.298 453.248 259.74 449.641C261.079 446.344 261.902 442.428 266.639 442.84C271.376 443.252 273.229 446.653 274.671 450.054C275.906 453.351 276.936 456.752 277.76 460.255C277.863 460.77 281.364 460.255 281.364 460.255Z" fill="#44403C"/>
<path d="M249.752 478.495C249.752 478.495 254.179 518.374 253.665 521.053C253.047 523.732 251.605 527.545 250.576 527.545C249.546 527.545 247.795 527.339 248.413 526.411C250.679 523.011 251.605 518.786 250.987 514.767C250.267 508.275 247.692 475.609 247.692 475.609L249.752 478.495Z" fill="#44403C"/>
<path d="M283.732 494.57C285.21 494.57 286.409 493.278 286.409 491.685C286.409 490.091 285.21 488.799 283.732 488.799C282.253 488.799 281.055 490.091 281.055 491.685C281.055 493.278 282.253 494.57 283.732 494.57Z" fill="white"/>
</g>
<defs>
<linearGradient id="paint0_linear_91152_6664" x1="775.202" y1="418.84" x2="887.019" y2="418.84" gradientUnits="userSpaceOnUse">
<stop stop-color="#F87B58"/>
<stop offset="0.5" stop-color="#F8C548"/>
<stop offset="1" stop-color="#F89C51"/>
</linearGradient>
<linearGradient id="paint1_linear_91152_6664" x1="46.6912" y1="696.916" x2="131.523" y2="696.916" gradientUnits="userSpaceOnUse">
<stop stop-color="#93FD93"/>
<stop offset="0.51" stop-color="#21C2C1"/>
<stop offset="1" stop-color="#84F599"/>
</linearGradient>
<linearGradient id="paint2_linear_91152_6664" x1="78.4767" y1="670.105" x2="126.722" y2="729.21" gradientUnits="userSpaceOnUse">
<stop stop-color="#93FD93"/>
<stop offset="0.51" stop-color="#21C2C1"/>
<stop offset="1" stop-color="#84F599"/>
</linearGradient>
<linearGradient id="paint3_linear_91152_6664" x1="133.98" y1="736.98" x2="200.285" y2="685.716" gradientUnits="userSpaceOnUse">
<stop stop-color="#93FD93"/>
<stop offset="0.51" stop-color="#21C2C1"/>
<stop offset="1" stop-color="#84F599"/>
</linearGradient>
<linearGradient id="paint4_linear_91152_6664" x1="150.639" y1="710.92" x2="93.6694" y2="638.854" gradientUnits="userSpaceOnUse">
<stop stop-color="#93FD93"/>
<stop offset="0.51" stop-color="#21C2C1"/>
<stop offset="1" stop-color="#84F599"/>
</linearGradient>
<linearGradient id="paint5_linear_91152_6664" x1="94.4433" y1="666.235" x2="134.489" y2="666.235" gradientUnits="userSpaceOnUse">
<stop stop-color="#93FD93"/>
<stop offset="0.51" stop-color="#21C2C1"/>
<stop offset="1" stop-color="#84F599"/>
</linearGradient>
<linearGradient id="paint6_linear_91152_6664" x1="131.057" y1="731.712" x2="174.481" y2="668.959" gradientUnits="userSpaceOnUse">
<stop stop-color="#93FD93"/>
<stop offset="0.51" stop-color="#21C2C1"/>
<stop offset="1" stop-color="#84F599"/>
</linearGradient>
<clipPath id="clip0_91152_6664">
<rect width="963" height="717" fill="white" transform="translate(30 154)"/>
</clipPath>
</defs>
</svg>
