<svg width="1024" height="1024" viewBox="0 0 1024 1024" fill="none" xmlns="http://www.w3.org/2000/svg">
<g clip-path="url(#clip0_91176_10797)">
<path d="M85.0997 404.074C84.6883 402.839 84.2768 401.604 84.0711 400.368C80.4707 378.234 63.4975 253.668 157.519 211.768C203.809 191.179 256.271 157.206 426.003 220.004C626.286 294.126 757.237 168.53 788.097 168.53C818.957 168.53 888.907 123.233 971.201 211.768C1053.5 300.303 991.775 407.369 991.775 407.369C991.775 407.369 952.685 508.257 965.029 559.731C977.373 611.205 991.775 652.384 987.66 668.855C983.545 685.327 981.488 796.511 913.595 821.218C845.703 845.925 868.334 841.807 709.917 833.572C551.501 825.336 469.207 847.984 436.29 860.338C403.372 872.692 353.996 868.574 265.529 808.864C177.063 749.155 156.49 767.685 111.228 740.919C65.9664 714.152 -49.0396 566.114 47.4502 458.842C84.7911 417.457 86.0256 406.648 85.0997 404.074Z" fill="#F5F5F4"/>
<path d="M211.215 355.277C228.316 355.277 242.178 341.404 242.178 324.29C242.178 307.176 228.316 293.303 211.215 293.303C194.115 293.303 180.252 307.176 180.252 324.29C180.252 341.404 194.115 355.277 211.215 355.277Z" fill="white"/>
<path d="M244.75 345.291C256.396 345.291 265.838 335.842 265.838 324.187C265.838 312.531 256.396 303.083 244.75 303.083C233.103 303.083 223.662 312.531 223.662 324.187C223.662 335.842 233.103 345.291 244.75 345.291Z" fill="white"/>
<path d="M175.932 340.761C185.306 340.761 192.905 333.156 192.905 323.775C192.905 314.394 185.306 306.789 175.932 306.789C166.558 306.789 158.959 314.394 158.959 323.775C158.959 333.156 166.558 340.761 175.932 340.761Z" fill="white"/>
<path d="M818.134 306.171C835.234 306.171 849.097 292.298 849.097 275.184C849.097 258.07 835.234 244.197 818.134 244.197C801.034 244.197 787.171 258.07 787.171 275.184C787.171 292.298 801.034 306.171 818.134 306.171Z" fill="white"/>
<path d="M851.772 296.185C863.418 296.185 872.86 286.736 872.86 275.081C872.86 263.425 863.418 253.977 851.772 253.977C840.125 253.977 830.684 263.425 830.684 275.081C830.684 286.736 840.125 296.185 851.772 296.185Z" fill="white"/>
<path d="M782.851 291.655C792.225 291.655 799.824 284.05 799.824 274.669C799.824 265.288 792.225 257.683 782.851 257.683C773.477 257.683 765.877 265.288 765.877 274.669C765.877 284.05 773.477 291.655 782.851 291.655Z" fill="white"/>
<path d="M482.374 414.163C499.475 414.163 513.337 400.29 513.337 383.176C513.337 366.062 499.475 352.189 482.374 352.189C465.274 352.189 451.411 366.062 451.411 383.176C451.411 400.29 465.274 414.163 482.374 414.163Z" fill="white"/>
<path d="M535.38 391.084C539.837 380.316 534.728 367.97 523.967 363.51C513.207 359.049 500.871 364.163 496.414 374.931C491.957 385.7 497.067 398.045 507.827 402.506C518.587 406.967 530.923 401.853 535.38 391.084Z" fill="white"/>
<path d="M447.091 399.544C456.465 399.544 464.064 391.939 464.064 382.558C464.064 373.177 456.465 365.572 447.091 365.572C437.717 365.572 430.118 373.177 430.118 382.558C430.118 391.939 437.717 399.544 447.091 399.544Z" fill="white"/>
<path d="M34.0771 656.502C34.0771 656.502 53.622 627.676 55.6793 623.558C57.7367 619.441 56.708 602.969 56.708 602.969H49.5073C49.5073 602.969 55.6793 585.468 73.1668 585.468C90.6543 585.468 95.7977 593.704 97.855 597.822C99.9124 601.939 98.8837 603.998 98.8837 603.998H92.7117V620.47L122.543 669.885H134.887V750.184C134.887 750.184 61.8514 712.093 34.0771 656.502Z" fill="#D6D3D1"/>
<path d="M102.998 729.594H117.4V709.005C117.4 709.005 110.199 697.681 102.998 709.005V729.594Z" fill="white"/>
<path d="M107.525 687.798C112.524 687.798 116.577 683.742 116.577 678.738C116.577 673.735 112.524 669.679 107.525 669.679C102.526 669.679 98.4727 673.735 98.4727 678.738C98.4727 683.742 102.526 687.798 107.525 687.798Z" fill="#E7E5E4"/>
<path d="M40.0439 667.723C44.1586 664.84 49.8164 665.767 52.6967 669.885C55.5769 673.9 54.6511 679.459 50.7422 682.444" fill="#E7E5E4"/>
<path d="M75.0182 646.516C80.0176 646.516 84.0705 642.46 84.0705 637.456C84.0705 632.453 80.0176 628.397 75.0182 628.397C70.0187 628.397 65.9658 632.453 65.9658 637.456C65.9658 642.46 70.0187 646.516 75.0182 646.516Z" fill="#E7E5E4"/>
<path d="M59.8968 671.429C59.8968 669.061 60.8226 666.796 62.2628 665.046C65.1431 661.443 69.4635 659.281 74.0925 659.075C83.6592 658.869 87.8768 666.899 88.494 670.194C89.4198 675.135 89.2141 700.254 89.2141 700.254L66.7889 700.151L59.7939 692.739L59.8968 671.429Z" fill="white"/>
<path d="M132.521 638.177L134.887 750.287C134.887 750.287 177.269 766.141 195.168 769.847C213.067 773.553 254.625 797.334 254.625 797.334L253.905 638.589L132.521 637.765" fill="#E7E5E4"/>
<path d="M131.699 638.177L254.008 638.692L253.494 609.455H217.284C217.284 609.455 212.758 591.953 195.888 591.953C175.212 591.953 171.714 610.381 171.714 610.381L131.596 609.969L131.699 638.177Z" fill="#D6D3D1"/>
<path d="M166.262 654.752H144.66V678.224H166.262V654.752Z" fill="#D6D3D1"/>
<path d="M205.352 654.443H183.75V677.915H205.352V654.443Z" fill="#D6D3D1"/>
<path d="M243.927 654.752H222.325V678.224H243.927V654.752Z" fill="white"/>
<path d="M244.236 698.916H222.634V722.388H244.236V698.916Z" fill="#D6D3D1"/>
<path d="M244.545 750.287H222.942V773.759H244.545V750.287Z" fill="#D6D3D1"/>
<path d="M204.426 698.298H182.824V721.77H204.426V698.298Z" fill="#D6D3D1"/>
<path d="M204.426 698.298H182.824V721.77H204.426V698.298Z" fill="white"/>
<path d="M166.365 699.328H144.763V722.8H166.365V699.328Z" fill="#D6D3D1"/>
<path d="M145.277 753.787L145.071 746.89L166.056 747.301L166.159 761.096C166.159 761.199 150.626 756.052 145.277 753.787Z" fill="#D6D3D1"/>
<path d="M184.059 766.758L183.75 749.257L205.044 749.669L204.529 772.524L184.059 766.758Z" fill="#D6D3D1"/>
<path d="M194.757 626.441C201.347 626.441 206.689 621.094 206.689 614.499C206.689 607.904 201.347 602.557 194.757 602.557C188.167 602.557 182.824 607.904 182.824 614.499C182.824 621.094 188.167 626.441 194.757 626.441Z" fill="white"/>
<path d="M253.597 716.829L254.625 797.437C254.625 797.437 318.712 840.057 322.724 843.146C326.736 846.234 360.27 862.5 375.495 863.426L378.272 700.872L369.22 700.563L325.192 645.898L308.939 645.075L253.597 716.829Z" fill="#D6D3D1"/>
<path d="M253.597 716.829L309.042 647.133L315.111 647.339L322.106 647.751L326.015 648.163L369.323 700.563L378.272 700.872V697.784L369.631 697.372L328.176 646.619L328.381 627.059L308.322 626.029L307.602 646.104L254.317 671.738L253.597 716.829Z" fill="#E7E5E4"/>
<path d="M298.858 701.696H288.777V713.535H298.858V701.696Z" fill="white"/>
<path d="M343.297 701.799H333.216V713.638H343.297V701.799Z" fill="white"/>
<path d="M326.941 701.799H316.86V713.638H326.941V701.799Z" fill="white"/>
<path d="M313.568 701.696H303.487V713.535H313.568V701.696Z" fill="white"/>
<path d="M298.858 719.711H288.777V731.55H298.858V719.711Z" fill="white"/>
<path d="M343.297 719.814H333.216V731.653H343.297V719.814Z" fill="white"/>
<path d="M326.941 719.814H316.86V731.653H326.941V719.814Z" fill="white"/>
<path d="M313.568 719.711H303.487V731.55H313.568V719.711Z" fill="white"/>
<path d="M274.993 773.038H264.912V784.877H274.993V773.038Z" fill="white"/>
<path d="M288.058 759.449H277.977V771.288H288.058V759.449Z" fill="white"/>
<path d="M274.685 759.346H264.604V771.185H274.685V759.346Z" fill="white"/>
<path d="M288.16 773.141H278.079V784.98H288.16V773.141Z" fill="white"/>
<path d="M314.494 773.347H304.413V785.186H314.494V773.347Z" fill="white"/>
<path d="M327.559 759.758H317.478V771.597H327.559V759.758Z" fill="white"/>
<path d="M314.186 759.655H304.104V771.494H314.186V759.655Z" fill="white"/>
<path d="M327.661 773.45H317.58V785.289H327.661V773.45Z" fill="white"/>
<path d="M352.658 773.656H342.577V785.495H352.658V773.656Z" fill="white"/>
<path d="M365.722 760.067H355.641V771.906H365.722V760.067Z" fill="white"/>
<path d="M352.35 760.067H342.269V771.906H352.35V760.067Z" fill="white"/>
<path d="M365.928 773.862H355.847V785.701H365.928V773.862Z" fill="white"/>
<path d="M352.144 831.307H342.062V848.087H352.144V831.307Z" fill="white"/>
<path d="M365.208 817.718H355.127V829.557H365.208V817.718Z" fill="white"/>
<path d="M351.835 817.615H341.754V829.454H351.835V817.615Z" fill="white"/>
<path d="M325.604 817.409H315.523V829.248H325.604V817.409Z" fill="white"/>
<path d="M325.707 844.896L315.626 838.307L315.523 831.821H325.604L325.707 844.896Z" fill="white"/>
<path d="M312.231 817.306H302.15V829.145H312.231V817.306Z" fill="white"/>
<path d="M312.128 835.836L309.556 834.086L305.339 831.307H312.128V835.836Z" fill="white"/>
<path d="M365.414 831.41H355.333V848.19H365.414V831.41Z" fill="white"/>
<path d="M430.529 593.498H449.456L449.148 584.232L430.22 584.027L430.529 593.498Z" fill="#D6D3D1"/>
<path d="M377.449 680.488L375.598 863.426C375.598 863.426 408.207 868.471 437.627 861.059C467.047 853.646 500.993 845.616 500.993 845.616L502.125 682.239L482.374 672.561L450.28 615.631L449.457 593.395H430.426L429.809 615.631L396.068 671.429L377.449 680.488Z" fill="#E7E5E4"/>
<path d="M438.758 696.136H426.312V711.682H438.758V696.136Z" fill="#D6D3D1"/>
<path d="M456.452 696.445H443.182V711.682H456.452V696.445Z" fill="#D6D3D1"/>
<path d="M438.45 714.564H426.003V730.109H438.45V714.564Z" fill="#D6D3D1"/>
<path d="M456.143 714.873H442.873V730.109H456.143V714.873Z" fill="#D6D3D1"/>
<path d="M438.964 751.625H426.517V767.17H438.964V751.625Z" fill="#D6D3D1"/>
<path d="M409.647 751.522H397.2V767.067H409.647V751.522Z" fill="#D6D3D1"/>
<path d="M483.3 752.14H470.853V767.685H483.3V752.14Z" fill="#D6D3D1"/>
<path d="M483.712 820.6H471.265V836.145H483.712V820.6Z" fill="#D6D3D1"/>
<path d="M409.75 821.012H397.303V836.557H409.75V821.012Z" fill="#D6D3D1"/>
<path d="M456.76 751.831H443.49V767.067H456.76V751.831Z" fill="#D6D3D1"/>
<path d="M438.655 770.053H426.208V785.598H438.655V770.053Z" fill="#D6D3D1"/>
<path d="M456.452 770.259H443.182V785.495H456.452V770.259Z" fill="#D6D3D1"/>
<path d="M438.758 818.85H426.312V834.395H438.758V818.85Z" fill="#D6D3D1"/>
<path d="M456.452 819.159H443.182V834.395H456.452V819.159Z" fill="#D6D3D1"/>
<path d="M438.45 837.278H426.003V852.823H438.45V837.278Z" fill="#D6D3D1"/>
<path d="M456.246 837.586H442.976V852.823H456.246V837.586Z" fill="#D6D3D1"/>
<path d="M404.092 722.182C408.921 722.182 412.836 718.264 412.836 713.432C412.836 708.599 408.921 704.681 404.092 704.681C399.263 704.681 395.348 708.599 395.348 713.432C395.348 718.264 399.263 722.182 404.092 722.182Z" fill="#D6D3D1"/>
<path d="M474.762 724.138C479.591 724.138 483.506 720.22 483.506 715.388C483.506 710.555 479.591 706.637 474.762 706.637C469.933 706.637 466.018 710.555 466.018 715.388C466.018 720.22 469.933 724.138 474.762 724.138Z" fill="#D6D3D1"/>
<path d="M377.449 680.488H396.48L396.171 671.223L377.141 671.017L377.449 680.488Z" fill="#D6D3D1"/>
<path d="M483.094 682.239H502.125L501.816 672.973L482.786 672.767L483.094 682.239Z" fill="#D6D3D1"/>
<path d="M440.713 676.062C449.008 676.062 455.732 669.332 455.732 661.031C455.732 652.73 449.008 646.001 440.713 646.001C432.418 646.001 425.694 652.73 425.694 661.031C425.694 669.332 432.418 676.062 440.713 676.062Z" fill="#D6D3D1"/>
<path d="M494.307 682.959L495.438 761.92C495.438 761.92 498.318 846.543 498.627 846.234C505.416 839.234 609.827 832.13 621.862 831.821L619.085 667.105L610.033 666.796L565.903 612.028L549.649 611.205L494.307 682.959Z" fill="#D6D3D1"/>
<path d="M494.307 682.959L549.649 613.367L555.821 613.573L562.816 613.984L566.623 614.396L609.93 666.693L618.982 667.105V663.914L610.341 663.605L568.783 612.852L569.091 593.189L549.032 592.159L548.209 612.234L494.307 672.87V682.959Z" fill="#E7E5E4"/>
<path d="M539.568 667.929H529.487V679.768H539.568V667.929Z" fill="white"/>
<path d="M584.007 668.032H573.926V679.871H584.007V668.032Z" fill="white"/>
<path d="M567.651 667.929H557.57V679.768H567.651V667.929Z" fill="white"/>
<path d="M554.278 667.826H544.197V679.665H554.278V667.826Z" fill="white"/>
<path d="M539.568 685.945H529.487V697.784H539.568V685.945Z" fill="white"/>
<path d="M584.007 686.048H573.926V697.887H584.007V686.048Z" fill="white"/>
<path d="M567.651 685.945H557.57V697.784H567.651V685.945Z" fill="white"/>
<path d="M554.278 685.945H544.197V697.784H554.278V685.945Z" fill="white"/>
<path d="M515.909 747.713H505.828V759.552H515.909V747.713Z" fill="white"/>
<path d="M528.973 734.124H518.892V745.963H528.973V734.124Z" fill="white"/>
<path d="M515.6 734.021H505.519V745.86H515.6V734.021Z" fill="white"/>
<path d="M529.076 747.816H518.995V759.655H529.076V747.816Z" fill="white"/>
<path d="M555.307 747.919H545.226V759.758H555.307V747.919Z" fill="white"/>
<path d="M568.474 734.433H558.393V746.272H568.474V734.433Z" fill="white"/>
<path d="M554.998 734.33H544.917V746.169H554.998V734.33Z" fill="white"/>
<path d="M568.577 748.125H558.496V759.964H568.577V748.125Z" fill="white"/>
<path d="M593.574 748.331H583.493V760.17H593.574V748.331Z" fill="white"/>
<path d="M606.638 734.742H596.557V746.581H606.638V734.742Z" fill="white"/>
<path d="M593.265 734.742H583.184V746.581H593.265V734.742Z" fill="white"/>
<path d="M606.741 748.434H596.66V760.273H606.741V748.434Z" fill="white"/>
<path d="M516.115 799.393H506.034V811.232H516.115V799.393Z" fill="white"/>
<path d="M529.179 785.804H519.098V797.643H529.179V785.804Z" fill="white"/>
<path d="M515.806 785.804H505.725V797.643H515.806V785.804Z" fill="white"/>
<path d="M529.385 799.496H519.304V811.335H529.385V799.496Z" fill="white"/>
<path d="M555.616 799.702H545.535V811.541H555.616V799.702Z" fill="white"/>
<path d="M568.68 786.113H558.599V797.952H568.68V786.113Z" fill="white"/>
<path d="M555.307 786.01H545.226V797.849H555.307V786.01Z" fill="white"/>
<path d="M568.886 799.805H558.805V811.644H568.886V799.805Z" fill="white"/>
<path d="M593.882 800.114H583.801V811.952H593.882V800.114Z" fill="white"/>
<path d="M606.947 786.524H596.866V798.363H606.947V786.524Z" fill="white"/>
<path d="M593.574 786.422H583.493V798.26H593.574V786.422Z" fill="white"/>
<path d="M607.049 800.216H596.968V812.055H607.049V800.216Z" fill="white"/>
<path d="M630.709 645.383C630.709 645.383 657.352 602.969 659.409 598.851C661.466 594.733 660.438 578.262 660.438 578.262H653.237C653.237 578.262 659.409 560.76 676.897 560.76C694.384 560.76 699.527 568.996 701.585 573.114C703.642 577.232 702.613 579.291 702.613 579.291H696.441V595.763L726.273 645.177H738.617L742.629 835.527C742.629 835.527 625.257 830.071 622.788 831.718C621.965 832.233 622.068 826.88 621.965 825.953C621.451 821.938 617.028 676.371 619.291 645.589C619.291 645.589 630.812 645.383 630.709 645.383Z" fill="#E7E5E4"/>
<path d="M706.214 705.402H720.615V684.812C720.615 684.812 713.415 673.488 706.214 684.812V705.402Z" fill="white"/>
<path d="M637.087 707.049H651.488V686.459C651.488 686.459 644.288 675.135 637.087 686.459V707.049Z" fill="white"/>
<path d="M637.087 760.273H651.488V739.683C651.488 739.683 644.288 728.359 637.087 739.683V760.273Z" fill="white"/>
<path d="M671.444 760.89H685.846V740.301C685.846 740.301 678.645 728.977 671.444 740.301V760.89Z" fill="white"/>
<path d="M705.802 761.508H720.204V740.919C720.204 740.919 713.003 729.594 705.802 740.919V761.508Z" fill="white"/>
<path d="M637.91 811.129H652.311V790.539C652.311 790.539 645.11 779.215 637.91 790.539V811.129Z" fill="white"/>
<path d="M672.37 811.747H686.772V791.157C686.772 791.157 679.571 779.833 672.37 791.157V811.747Z" fill="white"/>
<path d="M706.728 812.364H721.129V791.775C721.129 791.775 713.929 780.451 706.728 791.775V812.364Z" fill="white"/>
<path d="M710.74 663.502C715.739 663.502 719.792 659.446 719.792 654.443C719.792 649.439 715.739 645.383 710.74 645.383C705.74 645.383 701.688 649.439 701.688 654.443C701.688 659.446 705.74 663.502 710.74 663.502Z" fill="#E7E5E4"/>
<path d="M645.728 662.164C650.727 662.164 654.78 658.108 654.78 653.104C654.78 648.101 650.727 644.045 645.728 644.045C640.728 644.045 636.675 648.101 636.675 653.104C636.675 658.108 640.728 662.164 645.728 662.164Z" fill="#E7E5E4"/>
<path d="M678.954 707.049C683.953 707.049 688.006 702.993 688.006 697.99C688.006 692.986 683.953 688.93 678.954 688.93C673.954 688.93 669.901 692.986 669.901 697.99C669.901 702.993 673.954 707.049 678.954 707.049Z" fill="#E7E5E4"/>
<path d="M678.233 622.323C683.233 622.323 687.286 618.267 687.286 613.264C687.286 608.26 683.233 604.204 678.233 604.204C673.234 604.204 669.181 608.26 669.181 613.264C669.181 618.267 673.234 622.323 678.233 622.323Z" fill="#E7E5E4"/>
<path d="M663.112 647.133C663.112 644.766 664.038 642.501 665.478 640.751C668.358 637.147 672.679 634.986 677.205 634.78C686.772 634.574 690.989 642.604 691.504 645.898C692.429 650.84 692.224 675.959 692.224 675.959H662.701L662.906 668.547L663.112 647.133Z" fill="white"/>
<path d="M739.132 681.209L742.218 835.836C742.218 835.836 776.061 836.145 796.841 838.719C814.945 840.984 858.561 838.925 858.561 838.925L860.618 681.724L739.235 680.9" fill="#D6D3D1"/>
<path d="M738.309 681.209L860.618 681.724L860.104 652.487H823.895C823.895 652.487 819.369 634.986 802.498 634.986C781.822 634.986 778.324 653.413 778.324 653.413L738.206 653.001L738.309 681.209Z" fill="#D6D3D1"/>
<path d="M772.77 697.784H751.167V721.256H772.77V697.784Z" fill="white"/>
<path d="M811.859 697.475H790.257V720.947H811.859V697.475Z" fill="white"/>
<path d="M850.435 697.784H828.833V721.256H850.435V697.784Z" fill="white"/>
<path d="M850.743 741.948H829.141V765.42H850.743V741.948Z" fill="white"/>
<path d="M851.052 793.319H829.45V816.791H851.052V793.319Z" fill="white"/>
<path d="M811.859 792.392H790.257V815.864H811.859V792.392Z" fill="white"/>
<path d="M772.77 791.878H751.167V815.35H772.77V791.878Z" fill="white"/>
<path d="M811.036 741.228H789.434V764.7H811.036V741.228Z" fill="white"/>
<path d="M811.036 741.228H789.434V764.7H811.036V741.228Z" fill="white"/>
<path d="M772.975 742.257H751.373V765.729H772.975V742.257Z" fill="white"/>
<path d="M801.264 669.473C807.854 669.473 813.196 664.127 813.196 657.531C813.196 650.936 807.854 645.589 801.264 645.589C794.674 645.589 789.331 650.936 789.331 657.531C789.331 664.127 794.674 669.473 801.264 669.473Z" fill="white"/>
<path d="M913.081 548.716H932.008L931.802 539.45L912.772 539.141L913.081 548.716Z" fill="white"/>
<path d="M860.001 635.706L857.738 839.131C857.738 839.131 898.371 828.836 924.19 816.07C948.57 803.923 960.194 777.259 962.971 772.112C963.28 771.597 963.486 770.979 963.691 770.362L977.784 728.359C978.196 727.227 978.504 725.991 978.607 724.859L985.088 683.474L988.174 664.532C988.38 663.399 988.38 662.164 988.174 661.031L984.779 638.486C984.676 637.971 984.368 637.559 983.956 637.25L964.926 627.882L932.831 570.849L932.008 548.613H912.978L912.361 570.849L878.62 626.647L860.001 635.706Z" fill="#E7E5E4"/>
<path d="M921.31 651.354H908.863V666.899H921.31V651.354Z" fill="white"/>
<path d="M939.003 651.663H925.733V666.899H939.003V651.663Z" fill="white"/>
<path d="M921.001 669.782H908.554V685.327H921.001V669.782Z" fill="white"/>
<path d="M938.695 670.091H925.425V685.327H938.695V670.091Z" fill="white"/>
<path d="M921.516 706.74H909.069V722.285H921.516V706.74Z" fill="white"/>
<path d="M892.198 706.74H879.751V722.285H892.198V706.74Z" fill="white"/>
<path d="M965.954 707.358H953.507V722.903H965.954V707.358Z" fill="white"/>
<path d="M957.519 782.818L953.713 788.275L954.228 774.583L961.737 774.274L957.519 782.818Z" fill="white"/>
<path d="M892.302 776.23H879.854V791.775H892.302V776.23Z" fill="white"/>
<path d="M939.312 707.049H926.042V722.285H939.312V707.049Z" fill="white"/>
<path d="M921.31 725.271H908.863V740.816H921.31V725.271Z" fill="white"/>
<path d="M939.003 725.477H925.733V740.713H939.003V725.477Z" fill="white"/>
<path d="M921.31 774.068H908.863V789.613H921.31V774.068Z" fill="white"/>
<path d="M939.003 774.377H925.733V789.613H939.003V774.377Z" fill="white"/>
<path d="M921.104 792.495H908.657V808.04H921.104V792.495Z" fill="white"/>
<path d="M937.769 806.908L936.328 808.04H925.527V792.804H938.797V805.982L937.769 806.908Z" fill="white"/>
<path d="M886.644 677.4C891.473 677.4 895.387 673.482 895.387 668.649C895.387 663.817 891.473 659.899 886.644 659.899C881.815 659.899 877.9 663.817 877.9 668.649C877.9 673.482 881.815 677.4 886.644 677.4Z" fill="white"/>
<path d="M957.314 679.356C962.143 679.356 966.057 675.438 966.057 670.605C966.057 665.773 962.143 661.855 957.314 661.855C952.485 661.855 948.57 665.773 948.57 670.605C948.57 675.438 952.485 679.356 957.314 679.356Z" fill="white"/>
<path d="M860.001 635.706H879.031L878.723 626.441L859.692 626.235L860.001 635.706Z" fill="white"/>
<path d="M965.749 637.456H984.676L983.442 631.588L982.619 628.088L965.44 627.985L965.749 637.456Z" fill="white"/>
<path d="M923.264 631.28C931.559 631.28 938.283 624.55 938.283 616.249C938.283 607.948 931.559 601.219 923.264 601.219C914.97 601.219 908.246 607.948 908.246 616.249C908.246 624.55 914.97 631.28 923.264 631.28Z" fill="white"/>
</g>
<defs>
<clipPath id="clip0_91176_10797">
<rect width="1004" height="709" fill="white" transform="translate(10 157)"/>
</clipPath>
</defs>
</svg>
