<svg width="1024" height="1024" viewBox="0 0 1024 1024" fill="none" xmlns="http://www.w3.org/2000/svg">
<rect width="1024" height="1024" fill="white"/>
<g clip-path="url(#clip0_91125_4789)">
<path d="M336.429 528.487C325.692 525.598 314.806 523.303 303.818 521.611C292.258 518.994 280.222 519.353 268.839 522.654C257.456 525.955 247.095 532.09 238.727 540.486C227.722 553.652 220.584 569.613 218.108 586.594C212.861 612.195 214.364 638.721 222.469 663.564C230.573 688.408 245 710.714 264.332 728.29C291.784 755.519 322.206 779.577 355.026 800.014C359.702 802.624 363.691 806.307 366.666 810.76C369.642 815.213 371.518 820.31 372.141 825.63C382.091 862.914 394.656 899.451 409.74 934.968C410.549 936.69 411.751 938.197 413.249 939.367C414.747 940.538 416.5 941.341 418.365 941.709C484.395 960.237 554.166 960.842 620.508 943.462C635.871 938.339 635.869 938.339 642.877 922.969C669.332 851.701 688.302 777.872 699.478 702.675C710.011 634.31 714.521 565.151 712.954 495.996C712.954 484.132 712.954 482.514 699.478 479.009C678.843 472.903 657.511 469.46 636.004 468.762C580.154 464.223 524.082 463.052 468.091 465.257C432.396 465.921 396.843 469.938 361.899 477.256C353.274 479.009 346.536 482.379 339.528 484.132C336.159 485.75 334.407 487.502 334.407 490.873C335.996 503.345 336.672 515.916 336.429 528.487ZM358.665 767.388H357.048C300.044 737.458 261.771 693.506 257.459 625.287C256.339 610.925 257.893 596.48 262.04 582.685C263.87 576.791 267.167 571.459 271.622 567.19C276.078 562.922 281.545 559.856 287.51 558.283C296.935 556.812 306.584 558.45 314.996 562.95C323.408 567.45 330.127 574.566 334.139 583.224V602.099C336.561 643.854 341.602 685.415 349.232 726.537C350.849 738.536 354.487 752.018 357.99 766.983L358.665 767.388Z" fill="url(#paint0_linear_91125_4789)"/>
<path d="M339.529 484.132C339.529 484.132 520.919 428.721 713.09 484.132C713.09 483.727 553.261 548.171 339.529 484.132Z" fill="#44403C"/>
<path d="M643.552 67C649.765 100.173 648.398 134.321 639.553 166.891C630.708 199.46 614.614 229.606 592.477 255.073C574.284 278.936 555.957 299.833 537.765 323.697C509.503 360.356 490.71 403.421 483.05 449.079C483.05 455.011 479.412 464.044 479.412 469.976C479.412 457.977 475.773 449.079 475.773 437.08C474.538 382.842 492.645 329.935 526.848 287.834C541.572 268.031 557.41 249.08 574.284 231.076C609.23 188.856 633.086 138.576 643.687 84.7963" fill="url(#paint1_linear_91125_4789)"/>
<path d="M406.237 398.386C405.706 392.291 404.485 386.276 402.598 380.456C400.628 335.489 416.352 291.542 446.396 258.04C462.862 239.571 477.528 219.572 490.194 198.314C506.31 172.768 517.465 144.409 523.075 114.726C523.748 111.221 526.041 95.1775 526.041 105.424L526.714 108.794C528.562 116.639 529.779 124.618 530.352 132.657C529.988 173.022 515.708 212.025 489.924 243.074L446.126 297.002C430.578 318.878 419.16 343.415 412.436 369.4C411.719 372.632 411.358 375.932 411.358 379.242C411.33 386.019 409.517 392.669 406.102 398.521L406.237 398.386Z" fill="url(#paint2_linear_91125_4789)"/>
<path d="M604.606 425.08C604.606 423.732 601.641 412.272 600.698 402.161C598.727 357.195 614.451 313.247 644.495 279.745C660.961 261.276 675.627 241.277 688.293 220.02C704.409 194.473 715.566 166.115 721.176 136.432C721.984 133.331 725.758 117.827 724.545 128.747V131.713C726.216 139.182 727.431 146.746 728.184 154.363C727.82 194.728 713.539 233.73 687.755 264.78L643.958 318.708C628.41 340.584 616.992 365.12 610.267 391.106C609.55 394.338 609.188 397.638 609.188 400.948C608.946 407.828 607.72 414.638 605.549 421.171L604.606 425.08Z" fill="url(#paint3_linear_91125_4789)"/>
</g>
<defs>
<linearGradient id="paint0_linear_91125_4789" x1="793.272" y1="604.93" x2="-18.609" y2="886.892" gradientUnits="userSpaceOnUse">
<stop stop-color="#44403C"/>
<stop offset="1" stop-color="#1C1917"/>
</linearGradient>
<linearGradient id="paint1_linear_91125_4789" x1="546.119" y1="303.339" x2="473.026" y2="464.695" gradientUnits="userSpaceOnUse">
<stop stop-color="#E7E5E4"/>
<stop offset="1" stop-color="#D6D3D1"/>
</linearGradient>
<linearGradient id="paint2_linear_91125_4789" x1="459.603" y1="271.117" x2="414.288" y2="394.329" gradientUnits="userSpaceOnUse">
<stop stop-color="#E7E5E4"/>
<stop offset="1" stop-color="#D6D3D1"/>
</linearGradient>
<linearGradient id="paint3_linear_91125_4789" x1="657.298" y1="295.519" x2="611.445" y2="420.349" gradientUnits="userSpaceOnUse">
<stop stop-color="#E7E5E4"/>
<stop offset="1" stop-color="#D6D3D1"/>
</linearGradient>
<clipPath id="clip0_91125_4789">
<rect width="514" height="889" fill="white" transform="translate(215 67)"/>
</clipPath>
</defs>
</svg>
