<svg width="1024" height="1024" viewBox="0 0 1024 1024" fill="none" xmlns="http://www.w3.org/2000/svg">
<g clip-path="url(#clip0_91175_9918)">
<g clip-path="url(#clip1_91175_9918)">
<path d="M1017.3 447.567C1017.3 447.567 1073.46 664.017 861.586 778.32C811.509 805.334 701.156 748.605 611.351 754.177C441.483 764.813 312.712 828.972 228.996 790.983C135.386 748.605 100.834 707.408 86.6788 678.537C83.0257 670.939 77.8505 663.173 74.0453 655.913C49.6915 611.34 -26.7186 445.203 59.2808 336.302C132.494 243.441 276.486 243.779 348.33 250.701C374.054 253.234 399.016 261.001 422.152 273.832C467.359 298.82 549.705 342.887 584.562 352.68C650.165 371.083 660.211 367.875 782.436 309.964C904.662 252.052 992.945 254.754 1017.3 447.567Z" fill="#FAFAF9"/>
<path d="M138.278 608.132C138.278 608.132 229.605 411.773 334.631 408.227C439.657 404.682 438.134 537.726 468.12 558.156C498.106 578.585 529.918 573.013 553.206 528.609C576.494 484.204 603.131 401.643 653.209 405.357C703.286 409.071 760.213 582.299 790.199 582.299C820.185 582.299 875.437 450.099 924.906 452.125C976.049 454.151 1011.21 608.638 1011.21 608.638L932.212 608.3L138.278 608.132Z" fill="#F5F5F4"/>
<path d="M44.8208 607.963L348.026 612.184C348.026 612.184 373.293 610.495 399.169 588.546C418.804 571.832 425.653 559.844 425.653 548.025C425.653 536.207 415.76 475.425 319.105 463.606L23.2068 457.528C23.2068 457.528 20.6192 467.658 19.2493 487.75C18.7927 497.036 18.9449 506.491 19.8582 515.777C20.9237 526.583 22.4458 537.389 24.4245 548.025C30.0563 576.39 37.6669 594.962 44.8208 607.963Z" fill="#E7E5E4"/>
<path d="M313.626 526.245C345.991 526.245 372.227 518.308 372.227 508.517C372.227 498.726 345.991 490.789 313.626 490.789C281.261 490.789 255.025 498.726 255.025 508.517C255.025 518.308 281.261 526.245 313.626 526.245Z" fill="white"/>
<path d="M80.7429 553.259C89.5696 553.259 96.7251 545.322 96.7251 535.531C96.7251 525.741 89.5696 517.803 80.7429 517.803C71.9162 517.803 64.7607 525.741 64.7607 535.531C64.7607 545.322 71.9162 553.259 80.7429 553.259Z" fill="white"/>
<path d="M127.167 554.948C136.414 554.948 143.91 546.633 143.91 536.376C143.91 526.119 136.414 517.803 127.167 517.803C117.92 517.803 110.424 526.119 110.424 536.376C110.424 546.633 117.92 554.948 127.167 554.948Z" fill="white"/>
<path d="M127.167 554.948C136.414 554.948 143.91 546.633 143.91 536.376C143.91 526.119 136.414 517.803 127.167 517.803C117.92 517.803 110.424 526.119 110.424 536.376C110.424 546.633 117.92 554.948 127.167 554.948Z" fill="white"/>
<path d="M175.875 554.948C185.122 554.948 192.618 546.633 192.618 536.376C192.618 526.119 185.122 517.803 175.875 517.803C166.628 517.803 159.131 526.119 159.131 536.376C159.131 546.633 166.628 554.948 175.875 554.948Z" fill="white"/>
<path d="M556.403 474.581C569.769 474.581 580.604 462.562 580.604 447.736C580.604 432.909 569.769 420.89 556.403 420.89C543.037 420.89 532.201 432.909 532.201 447.736C532.201 462.562 543.037 474.581 556.403 474.581Z" fill="white"/>
<path d="M530.527 471.204C541.203 471.204 549.858 461.604 549.858 449.762C549.858 437.919 541.203 428.319 530.527 428.319C519.851 428.319 511.196 437.919 511.196 449.762C511.196 461.604 519.851 471.204 530.527 471.204Z" fill="white"/>
<path d="M844.539 418.358C860.006 418.358 872.545 404.449 872.545 387.292C872.545 370.134 860.006 356.225 844.539 356.225C829.071 356.225 816.532 370.134 816.532 387.292C816.532 404.449 829.071 418.358 844.539 418.358Z" fill="white"/>
<path d="M874.524 409.409C883.939 409.409 891.572 400.943 891.572 390.499C891.572 380.056 883.939 371.59 874.524 371.59C865.109 371.59 857.477 380.056 857.477 390.499C857.477 400.943 865.109 409.409 874.524 409.409Z" fill="white"/>
<path d="M815.466 412.617C824.881 412.617 832.514 404.151 832.514 393.707C832.514 383.264 824.881 374.798 815.466 374.798C806.051 374.798 798.418 383.264 798.418 393.707C798.418 404.151 806.051 412.617 815.466 412.617Z" fill="white"/>
<path d="M223.06 554.948C232.307 554.948 239.803 546.633 239.803 536.376C239.803 526.119 232.307 517.803 223.06 517.803C213.813 517.803 206.317 526.119 206.317 536.376C206.317 546.633 213.813 554.948 223.06 554.948Z" fill="white"/>
<path d="M51.5183 625.86L1008.77 626.704C1008.77 626.704 975.897 738.475 952.913 759.917C929.929 781.359 974.071 884.52 804.355 817.997C634.64 751.475 540.877 820.023 491.257 828.803C441.636 837.583 311.039 908.157 257.917 873.714C204.795 839.271 229.605 798.412 130.516 796.386C31.4264 794.36 36.7538 684.615 36.7538 684.615L51.5183 625.86Z" fill="#F5F5F4"/>
<path d="M1008.77 626.535L51.5181 625.86L44.2119 607.963L1012.88 608.301L1008.77 626.535Z" fill="white"/>
<path d="M187.595 610.158H178.615L178.462 261.845L187.595 259.65V610.158Z" fill="white"/>
<path d="M447.267 614.041H438.287V282.612L447.115 287.339L447.267 614.041Z" fill="white"/>
<path d="M701.612 618.093H692.632V350.147L701.612 346.77V618.093Z" fill="white"/>
<path d="M943.019 614.041H934.039V283.456L943.171 287.508L943.019 614.041Z" fill="white"/>
<path d="M615.885 714.837H640.685V695.927H882.276V715.85H904.039V665.03L615.885 666.043V714.837Z" fill="#E7E5E4"/>
<path d="M616.56 657.263L904.208 656.588V644.263L615.885 644.938L616.56 657.263Z" fill="#E7E5E4"/>
<path d="M615.885 639.029L903.533 638.354V626.197L615.21 626.704L615.885 639.029Z" fill="#E7E5E4"/>
<path d="M616.56 620.288L904.208 619.613V607.287L615.885 607.963L616.56 620.288Z" fill="#E7E5E4"/>
<path d="M616.56 600.872L904.208 600.196V588.04L615.885 588.546L616.56 600.872Z" fill="#E7E5E4"/>
</g>
</g>
<defs>
<clipPath id="clip0_91175_9918">
<rect width="1024" height="1024" fill="white"/>
</clipPath>
<clipPath id="clip1_91175_9918">
<rect width="1114" height="635" fill="white" transform="translate(-90 248)"/>
</clipPath>
</defs>
</svg>
