<svg width="1024" height="1024" viewBox="0 0 1024 1024" fill="none" xmlns="http://www.w3.org/2000/svg">
<g clip-path="url(#clip0_91176_10344)">
<path d="M57.8323 695.301C57.1449 690.29 64.4116 669.165 66.3756 664.547C78.2576 637.135 119.894 532.593 68.3396 489.951C10.1079 441.708 -19.057 335.201 79.2396 291.97C155.147 258.662 203.166 133.88 346.928 217.101C490.691 300.321 587.22 202.166 650.951 207.079C714.681 211.991 845.678 210.419 874.843 311.915C904.008 413.411 1084.2 456.643 973.14 594.689C862.077 732.735 965.873 796.011 831.145 820.869C696.417 845.727 716.449 800.923 574.454 809.275C432.459 817.627 425.193 834.231 281.332 835.902C146.604 837.474 64.608 744.035 57.8323 695.301Z" fill="#FAFAF9"/>
<path d="M92.4963 592.429L972.452 595.966L995.333 560.89C995.333 560.89 910.685 485.726 814.549 517.658C732.259 545.071 632.195 494.765 586.827 492.898C476.747 488.379 447.091 557.255 381.003 557.255C314.916 557.255 287.715 488.968 212.888 499.973C138.06 510.977 92.4963 592.429 92.4963 592.429Z" fill="#F5F5F4"/>
<path d="M302.15 592.626C302.15 592.626 317.371 593.608 319.826 592.626C322.281 591.643 318.942 588.99 313.934 588.99C308.926 588.99 306.569 588.892 304.016 589.58C302.739 589.875 301.855 591.152 302.15 592.429C302.15 592.429 302.15 592.528 302.15 592.626Z" fill="#E7E5E4"/>
<path d="M307.453 588.401C307.453 588.401 300.677 581.916 303.427 581.72C306.176 581.523 308.729 583.193 309.122 584.471C309.515 585.748 309.515 579.656 311.282 579.853C313.05 580.049 314.032 582.014 313.345 584.667C313.345 584.667 315.701 582.604 317.96 582.604C320.218 582.604 319.826 585.355 318.549 586.338C317.273 587.32 313.443 589.678 313.443 589.678H307.355L307.453 588.401Z" fill="#E7E5E4"/>
<path d="M789.312 593.903C789.312 593.903 804.533 594.886 806.988 593.903C809.443 592.921 806.104 590.268 801.096 590.268C796.088 590.268 793.633 590.17 791.178 590.857C789.901 591.152 789.018 592.429 789.312 593.707C789.312 593.805 789.312 593.805 789.312 593.903Z" fill="#E7E5E4"/>
<path d="M794.615 589.678C794.615 589.678 787.839 583.193 790.589 582.997C793.338 582.8 795.892 584.471 796.284 585.748C796.677 587.025 796.677 580.934 798.445 581.13C800.212 581.327 801.194 583.292 800.507 585.945C800.507 585.945 802.864 583.881 805.122 583.881C807.381 583.881 806.988 586.632 805.712 587.615C804.435 588.597 800.605 590.956 800.605 590.956H794.517L794.615 589.678Z" fill="#E7E5E4"/>
<path d="M191.971 594.493C191.971 594.493 207.192 595.475 209.647 594.493C212.102 593.51 208.763 590.857 203.755 590.857C198.747 590.857 196.39 590.759 193.837 591.447C192.561 591.742 191.677 593.019 191.971 594.296C191.873 594.394 191.971 594.493 191.971 594.493Z" fill="#E7E5E4"/>
<path d="M197.274 590.366C197.274 590.366 190.498 583.881 193.248 583.685C195.997 583.488 198.551 585.159 198.943 586.436C199.336 587.713 199.336 581.621 201.104 581.818C202.871 582.014 203.853 583.979 203.166 586.632C203.166 586.632 205.523 584.569 207.781 584.569C210.04 584.569 209.647 587.32 208.37 588.303C207.094 589.285 203.264 591.643 203.264 591.643H197.176L197.274 590.366Z" fill="#E7E5E4"/>
<path d="M857.757 595.377C857.757 595.377 872.977 596.359 875.432 595.377C877.887 594.394 874.549 591.742 869.54 591.742C864.532 591.742 862.077 591.643 859.622 592.331C858.346 592.626 857.462 593.903 857.757 595.18C857.757 595.18 857.757 595.279 857.757 595.377Z" fill="#E7E5E4"/>
<path d="M863.059 591.152C863.059 591.152 856.284 584.667 859.033 584.471C861.783 584.274 864.336 585.945 864.729 587.222C865.122 588.499 865.122 582.407 866.889 582.604C868.657 582.8 869.639 584.766 868.951 587.418C868.951 587.418 871.308 585.355 873.567 585.355C875.825 585.355 875.432 588.106 874.156 589.089C872.879 590.071 869.05 592.429 869.05 592.429H862.961L863.059 591.152Z" fill="#E7E5E4"/>
<path d="M129.91 592.921C129.91 592.921 145.131 593.903 147.586 592.921C150.041 591.938 146.702 589.285 141.694 589.285C136.686 589.285 134.329 589.187 131.776 589.875C130.499 590.169 129.615 591.447 129.91 592.724C129.812 592.822 129.812 592.822 129.91 592.921Z" fill="#E7E5E4"/>
<path d="M135.114 588.696C135.114 588.696 128.339 582.211 131.088 582.014C133.838 581.818 136.391 583.488 136.784 584.766C137.177 586.043 137.177 579.951 138.944 580.148C140.712 580.344 141.694 582.309 141.006 584.962C141.006 584.962 143.363 582.899 145.622 582.899C147.88 582.899 147.487 585.65 146.211 586.632C144.934 587.615 141.105 589.973 141.105 589.973H135.016L135.114 588.696Z" fill="#E7E5E4"/>
<path d="M896.741 595.672C896.741 595.672 911.962 596.654 914.417 595.672C916.872 594.689 913.533 592.036 908.525 592.036C903.517 592.036 901.062 591.938 898.607 592.626C897.331 592.921 896.447 594.198 896.741 595.475C896.741 595.475 896.741 595.573 896.741 595.672Z" fill="#E7E5E4"/>
<path d="M902.044 591.447C902.044 591.447 895.268 584.962 898.018 584.766C900.767 584.569 903.321 586.239 903.713 587.517C904.106 588.794 904.106 582.702 905.874 582.899C907.641 583.095 908.623 585.06 907.936 587.713C907.936 587.713 910.293 585.65 912.551 585.65C914.81 585.65 914.417 588.401 913.14 589.383C911.864 590.366 908.034 592.724 908.034 592.724H901.946L902.044 591.447Z" fill="#E7E5E4"/>
<path d="M710.655 594.787L709.772 566.097C709.772 566.097 674.518 564.427 689.641 536.916C689.641 536.916 693.274 536.425 693.274 531.709C693.274 526.992 684.927 526.992 684.436 523.947C683.945 520.901 683.945 514.121 692.194 508.324C700.443 502.527 681.785 489.656 681.294 487.494C680.803 485.333 681.294 480.224 686.989 475.016C692.685 469.809 694.256 464.11 693.765 458.903C693.274 453.695 679.232 446.916 685.418 441.708C691.605 436.501 704.665 432.374 705.647 428.149C706.629 423.924 705.156 405.256 717.627 409.972C730.099 414.689 757.594 408.892 763.29 409.481C771.244 409.972 778.609 414.197 783.028 420.879C789.214 429.721 793.437 423.433 795.99 429.721C798.543 436.01 792.847 456.25 797.561 461.457C802.274 466.665 809.541 470.791 806.399 480.125C803.256 489.46 791.865 495.158 791.865 498.794C791.865 502.429 797.07 514.907 797.07 518.543C797.07 522.178 795.008 527.877 788.723 528.957C782.438 530.038 781.947 533.084 781.947 539.864C781.947 546.643 777.234 541.436 777.234 541.436L778.314 592.822H770.556C770.556 592.822 770.556 545.562 768.985 540.355H763.781L764.272 592.822H758.085L757.594 546.054C757.594 546.054 749.836 536.719 746.694 536.228C743.552 535.737 748.756 593.903 748.756 593.903H743.061L741.49 540.944C741.49 540.944 738.936 551.359 736.285 551.359C733.634 551.359 737.365 593.412 737.365 593.412H731.67L729.608 550.77C729.608 550.77 726.465 545.071 723.912 552.342C721.359 559.613 719.493 553.816 719.984 556.861C720.475 559.907 720.672 594.689 720.672 594.689L710.655 594.787Z" fill="#E7E5E4"/>
<path d="M264.245 591.84L272.494 592.135L272.101 563.15C272.101 563.15 279.859 555.388 285.063 555.879C290.268 556.37 302.15 559.023 308.827 552.244C315.505 545.464 310.399 538.292 314.032 538.292C317.665 538.292 310.89 530.038 310.89 526.403C310.89 524.045 317.764 487.101 302.641 490.737C289.286 493.881 283.296 469.514 268.763 478.848C257.273 486.217 241.856 481.894 240.776 489.067C238.223 506.359 223.395 500.857 225.555 510.879C228.698 525.42 226.537 531.61 232.724 533.182C238.91 534.754 231.153 541.436 233.706 546.643C236.259 551.851 234.197 556.96 241.463 556.96C248.73 556.96 253.345 559.023 258.059 560.104C262.772 561.185 263.754 563.739 263.754 563.739L264.245 591.84Z" fill="#E7E5E4"/>
<path d="M928.263 594.984L936.512 595.279L936.119 566.294C936.119 566.294 943.877 558.532 949.081 559.023C954.286 559.514 966.168 562.167 972.845 555.388C979.523 548.608 974.416 541.436 978.05 541.436C981.683 541.436 974.907 533.182 974.907 529.547C974.907 527.189 981.879 490.246 966.659 493.881C953.304 497.025 947.314 472.658 932.78 481.992C921.291 489.361 905.874 485.038 904.794 492.211C902.241 509.503 887.413 504.001 889.573 514.023C892.715 528.564 890.555 534.754 896.741 536.327C902.928 537.899 895.17 544.58 897.822 549.787C900.473 554.995 898.313 560.104 905.579 560.104C912.846 560.104 917.461 562.167 922.175 563.248C926.888 564.329 927.87 566.883 927.87 566.883L928.263 594.984Z" fill="#E7E5E4"/>
<path d="M174.099 591.742L182.348 592.135L181.955 556.272C181.955 556.272 189.713 546.643 194.917 547.331C200.122 548.019 212.004 551.163 218.681 542.811C225.359 534.46 220.253 525.519 223.886 525.519C227.519 525.519 220.744 515.3 220.744 510.781C220.744 507.833 227.617 462.145 212.495 466.665C199.14 470.595 193.15 440.333 178.616 451.927C167.127 461.064 151.71 455.66 150.63 464.601C148.077 486.021 133.249 479.241 135.409 491.621C138.551 509.602 136.391 517.265 142.578 519.23C148.764 521.195 141.006 529.449 143.56 535.934C146.113 542.418 144.051 548.706 151.317 548.706C158.584 548.706 163.199 551.261 167.913 552.538C172.626 553.816 173.608 557.058 173.608 557.058L174.099 591.742Z" fill="#E7E5E4"/>
<path d="M229.189 591.84L240.481 592.135V447.21C240.481 447.21 270.235 452.123 273.574 445.54C276.913 438.957 276.324 436.697 286.242 436.697C296.16 436.697 299.99 436.108 295.08 427.363C290.17 418.619 283.001 428.444 290.17 418.52C297.338 408.597 312.166 402.603 302.248 396.512C292.33 390.42 275.833 401.424 275.833 389.929C275.833 378.433 270.923 380.595 273.672 369.001C276.422 357.407 277.502 358.487 277.011 346.992C276.52 335.496 277.6 329.896 278.091 326.555C278.582 323.214 270.432 317.221 264.344 311.129C258.255 305.038 257.175 297.374 245.588 299.044C234 300.714 230.171 301.206 233.509 311.129C236.848 321.053 221.922 313.291 219.761 316.631C217.601 319.972 221.431 323.214 214.852 325.474C208.272 327.734 210.433 327.145 217.601 331.566C224.77 335.987 219.761 339.819 214.852 339.819C209.942 339.819 204.344 329.896 203.264 334.317C202.184 338.738 195.605 336.479 199.925 348.662C204.246 360.846 204.344 358.586 202.086 360.747C199.827 362.909 199.336 362.909 202.086 365.66C204.835 368.411 189.418 363.498 189.418 369.492C189.418 375.485 188.338 387.178 192.168 395.431C195.997 403.684 176.751 397.101 177.34 400.933C177.929 404.765 178.42 408.695 182.25 409.776C186.079 410.857 196.587 410.857 189.909 413.608C183.232 416.359 169.484 425.202 169.484 427.363C169.484 429.525 170.073 434.536 177.143 436.697C184.214 438.859 177.733 446.621 184.312 447.21C190.891 447.8 200.318 447.21 207.978 444.459C215.637 441.708 225.653 441.119 227.225 445.54C228.796 449.962 232.134 446.621 232.134 446.621L229.189 591.84Z" fill="#D6D3D1"/>
<path d="M847.151 595.475L837.037 595.77V468.139C837.037 468.139 810.327 472.56 807.283 466.665C804.239 460.77 804.828 458.903 795.892 458.903C786.956 458.903 783.519 458.411 787.938 450.649C792.357 442.887 798.838 451.632 792.357 442.887C785.875 434.143 783.126 427.56 791.964 422.254C800.802 416.948 797.561 418.619 797.561 408.4C797.561 398.182 809.64 409.383 807.185 399.164C804.73 388.946 795.99 390.125 796.481 379.907C796.972 369.688 803.748 364.677 803.257 361.73C802.766 358.782 810.229 353.477 815.63 348.171C821.031 342.865 822.111 335.987 832.52 337.461C842.929 338.935 846.366 339.426 843.42 348.171C840.474 356.915 853.829 350.136 855.793 352.985C857.757 355.835 854.32 358.782 860.212 360.747C866.104 362.712 864.14 362.221 857.757 366.053C851.374 369.885 855.793 373.324 860.212 373.324C864.631 373.324 869.639 364.579 870.621 368.509C871.603 372.439 877.593 370.474 873.567 381.086C869.541 391.697 869.639 389.83 871.603 391.795C873.567 393.761 874.058 393.761 871.603 396.217C869.148 398.673 882.994 394.252 882.994 399.656C882.994 405.06 883.976 415.18 880.539 422.451C877.102 429.721 894.385 423.924 893.894 427.265C893.403 430.606 892.912 434.044 889.475 435.027C886.038 436.01 876.611 436.01 882.503 438.466C888.395 440.922 888.1 446.031 888.1 447.997C888.1 449.962 892.126 456.643 885.743 458.51C879.36 460.376 893.501 467.549 887.511 468.04C880.342 468.63 873.076 467.844 866.202 465.584C859.23 463.128 850.294 462.636 848.821 466.566C847.348 470.497 844.402 467.549 844.402 467.549L847.151 595.475Z" fill="#D6D3D1"/>
<path d="M330 632V656H712V633L330 632Z" fill="#D6D3D1"/>
<path d="M370.615 552L370 632H382L381.897 552H370.615Z" fill="#E7E5E4"/>
<path d="M659 552L659.893 631H671L670.901 552H659Z" fill="#E7E5E4"/>
<path d="M350.169 551.949C350.169 551.949 353.115 541.141 360.971 541.141L678.446 541.239C679.526 541.239 680.607 541.534 681.49 542.025C684.142 543.499 689.444 546.938 690.917 551.949H350.169Z" fill="#D6D3D1"/>
<path d="M348.5 563.936V573.073L690.623 573.27L690.328 564.427L348.5 563.936Z" fill="#D6D3D1"/>
<path d="M348.5 583.586V592.724L690.623 592.921L690.328 584.078L348.5 583.586Z" fill="#D6D3D1"/>
<path d="M348.5 606.185V615.322L690.623 615.519L690.328 606.676L348.5 606.185Z" fill="#D6D3D1"/>
<path d="M348.5 623.87V633.008L690.623 633.205L690.328 624.362L348.5 623.87Z" fill="#D6D3D1"/>
<path d="M364.31 656.098L364.506 715.639H391.609L392.394 656.098H364.31Z" fill="#D6D3D1"/>
<path d="M650.46 656.098L650.951 716.425H679.33L678.839 655.901L650.46 656.098Z" fill="#D6D3D1"/>
<path d="M377.174 363.4C391.003 363.4 402.214 352.183 402.214 338.346C402.214 324.508 391.003 313.291 377.174 313.291C363.344 313.291 352.133 324.508 352.133 338.346C352.133 352.183 363.344 363.4 377.174 363.4Z" fill="#E7E5E4"/>
</g>
<defs>
<clipPath id="clip0_91176_10344">
<rect width="994" height="647" fill="white" transform="translate(15 189)"/>
</clipPath>
</defs>
</svg>
