<svg width="1024" height="1024" viewBox="0 0 1024 1024" fill="none" xmlns="http://www.w3.org/2000/svg">
<g clip-path="url(#clip0_91174_7781)">
<path d="M55.8318 692.301C55.1445 687.29 62.4111 666.165 64.3751 661.547C76.2571 634.135 117.893 529.593 66.3391 486.951C8.10742 438.708 -21.0575 332.201 77.2391 288.97C153.146 255.662 201.165 130.88 344.928 214.101C488.69 297.321 585.219 199.166 648.95 204.079C712.681 208.991 843.678 207.419 872.843 308.915C902.008 410.411 1082.2 453.643 971.139 591.689C860.077 729.735 963.873 793.011 829.144 817.869C694.416 842.727 714.449 797.923 572.454 806.275C430.459 814.627 423.192 831.231 279.331 832.902C144.603 834.474 62.6075 741.035 55.8318 692.301Z" fill="#FAFAF9"/>
<path d="M90.4961 589.429L970.452 592.966L993.332 557.89C993.332 557.89 908.685 482.726 812.549 514.658C730.259 542.071 630.195 491.765 584.827 489.898C474.746 485.379 445.091 554.255 379.003 554.255C312.916 554.255 285.715 485.968 210.887 496.973C136.06 507.977 90.4961 589.429 90.4961 589.429Z" fill="#F5F5F4"/>
<path d="M300.15 589.626C300.15 589.626 315.37 590.608 317.825 589.626C320.28 588.643 316.942 585.99 311.933 585.99C306.925 585.99 304.569 585.892 302.015 586.58C300.739 586.875 299.855 588.152 300.15 589.429C300.15 589.429 300.15 589.528 300.15 589.626Z" fill="#E7E5E4"/>
<path d="M305.452 585.401C305.452 585.401 298.677 578.916 301.426 578.72C304.176 578.523 306.729 580.193 307.122 581.471C307.514 582.748 307.514 576.656 309.282 576.853C311.05 577.049 312.031 579.014 311.344 581.667C311.344 581.667 313.701 579.604 315.959 579.604C318.218 579.604 317.825 582.355 316.549 583.338C315.272 584.32 311.442 586.678 311.442 586.678H305.354L305.452 585.401Z" fill="#E7E5E4"/>
<path d="M787.313 590.903C787.313 590.903 802.533 591.886 804.988 590.903C807.443 589.921 804.105 587.268 799.097 587.268C794.088 587.268 791.633 587.17 789.179 587.857C787.902 588.152 787.018 589.429 787.313 590.707C787.313 590.805 787.313 590.805 787.313 590.903Z" fill="#E7E5E4"/>
<path d="M792.615 586.678C792.615 586.678 785.84 580.193 788.589 579.997C791.339 579.8 793.892 581.471 794.285 582.748C794.677 584.025 794.677 577.934 796.445 578.13C798.213 578.327 799.195 580.292 798.507 582.945C798.507 582.945 800.864 580.881 803.123 580.881C805.381 580.881 804.988 583.632 803.712 584.615C802.435 585.597 798.605 587.956 798.605 587.956H792.517L792.615 586.678Z" fill="#E7E5E4"/>
<path d="M189.971 591.493C189.971 591.493 205.192 592.475 207.647 591.493C210.102 590.51 206.763 587.857 201.755 587.857C196.747 587.857 194.39 587.759 191.837 588.447C190.56 588.742 189.676 590.019 189.971 591.296C189.873 591.394 189.971 591.493 189.971 591.493Z" fill="#E7E5E4"/>
<path d="M195.274 587.366C195.274 587.366 188.499 580.881 191.248 580.685C193.998 580.488 196.551 582.159 196.944 583.436C197.337 584.713 197.337 578.621 199.104 578.818C200.872 579.014 201.854 580.979 201.166 583.632C201.166 583.632 203.523 581.569 205.782 581.569C208.04 581.569 207.647 584.32 206.371 585.303C205.094 586.285 201.265 588.643 201.265 588.643H195.176L195.274 587.366Z" fill="#E7E5E4"/>
<path d="M855.757 592.377C855.757 592.377 870.978 593.359 873.433 592.377C875.888 591.394 872.549 588.742 867.541 588.742C862.533 588.742 860.078 588.643 857.623 589.331C856.346 589.626 855.462 590.903 855.757 592.18C855.757 592.18 855.757 592.279 855.757 592.377Z" fill="#E7E5E4"/>
<path d="M861.06 588.152C861.06 588.152 854.284 581.667 857.034 581.471C859.783 581.274 862.336 582.945 862.729 584.222C863.122 585.499 863.122 579.407 864.889 579.604C866.657 579.8 867.639 581.766 866.952 584.418C866.952 584.418 869.308 582.355 871.567 582.355C873.825 582.355 873.433 585.106 872.156 586.089C870.88 587.071 867.05 589.429 867.05 589.429H860.961L861.06 588.152Z" fill="#E7E5E4"/>
<path d="M127.91 589.921C127.91 589.921 143.13 590.903 145.585 589.921C148.04 588.938 144.702 586.285 139.693 586.285C134.685 586.285 132.329 586.187 129.775 586.875C128.499 587.169 127.615 588.447 127.91 589.724C127.811 589.822 127.811 589.822 127.91 589.921Z" fill="#E7E5E4"/>
<path d="M133.114 585.696C133.114 585.696 126.339 579.211 129.088 579.014C131.838 578.818 134.391 580.488 134.784 581.766C135.177 583.043 135.176 576.951 136.944 577.148C138.712 577.344 139.694 579.309 139.006 581.962C139.006 581.962 141.363 579.899 143.622 579.899C145.88 579.899 145.487 582.65 144.211 583.632C142.934 584.615 139.104 586.973 139.104 586.973H133.016L133.114 585.696Z" fill="#E7E5E4"/>
<path d="M894.741 592.672C894.741 592.672 909.962 593.654 912.417 592.672C914.872 591.689 911.533 589.036 906.525 589.036C901.517 589.036 899.062 588.938 896.607 589.626C895.331 589.921 894.447 591.198 894.741 592.475C894.741 592.475 894.741 592.573 894.741 592.672Z" fill="#E7E5E4"/>
<path d="M900.044 588.447C900.044 588.447 893.268 581.962 896.018 581.766C898.767 581.569 901.321 583.239 901.713 584.517C902.106 585.794 902.106 579.702 903.874 579.899C905.641 580.095 906.623 582.06 905.936 584.713C905.936 584.713 908.293 582.65 910.551 582.65C912.81 582.65 912.417 585.401 911.14 586.383C909.864 587.366 906.034 589.724 906.034 589.724H899.946L900.044 588.447Z" fill="#E7E5E4"/>
<path d="M708.656 591.787L707.772 563.097C707.772 563.097 672.519 561.427 687.641 533.916C687.641 533.916 691.275 533.425 691.275 528.709C691.275 523.992 682.928 523.992 682.437 520.947C681.946 517.901 681.946 511.121 690.194 505.324C698.443 499.527 679.785 486.656 679.294 484.494C678.803 482.333 679.294 477.224 684.99 472.016C690.685 466.809 692.257 461.11 691.766 455.903C691.275 450.695 677.232 443.916 683.419 438.708C689.605 433.501 702.666 429.374 703.648 425.149C704.63 420.924 703.157 402.256 715.628 406.972C728.099 411.689 755.595 405.892 761.29 406.481C769.244 406.972 776.609 411.197 781.028 417.879C787.215 426.721 791.437 420.433 793.99 426.721C796.543 433.01 790.848 453.25 795.561 458.457C800.275 463.665 807.542 467.791 804.399 477.125C801.257 486.46 789.866 492.158 789.866 495.794C789.866 499.429 795.07 511.907 795.07 515.543C795.07 519.178 793.008 524.877 786.724 525.957C780.439 527.038 779.948 530.084 779.948 536.864C779.948 543.643 775.234 538.436 775.234 538.436L776.314 589.822H768.557C768.557 589.822 768.557 542.562 766.986 537.355H761.781L762.272 589.822H756.086L755.595 543.054C755.595 543.054 747.837 533.719 744.695 533.228C741.552 532.737 746.757 590.903 746.757 590.903H741.061L739.49 537.944C739.49 537.944 736.937 548.359 734.286 548.359C731.634 548.359 735.366 590.412 735.366 590.412H729.67L727.608 547.77C727.608 547.77 724.466 542.071 721.913 549.342C719.359 556.613 717.494 550.816 717.985 553.861C718.476 556.907 718.672 591.689 718.672 591.689L708.656 591.787Z" fill="#E7E5E4"/>
<path d="M262.245 588.84L270.494 589.135L270.101 560.15C270.101 560.15 277.859 552.388 283.063 552.879C288.268 553.37 300.15 556.023 306.827 549.244C313.505 542.464 308.399 535.292 312.032 535.292C315.665 535.292 308.89 527.038 308.89 523.403C308.89 521.045 315.763 484.101 300.641 487.737C287.286 490.881 281.296 466.514 266.762 475.848C255.273 483.217 239.856 478.894 238.776 486.066C236.223 503.359 221.395 497.857 223.555 507.879C226.697 522.42 224.537 528.61 230.724 530.182C236.91 531.754 229.152 538.436 231.706 543.643C234.259 548.851 232.197 553.96 239.463 553.96C246.73 553.96 251.345 556.023 256.059 557.104C260.772 558.185 261.754 560.739 261.754 560.739L262.245 588.84Z" fill="#E7E5E4"/>
<path d="M926.263 591.984L934.512 592.279L934.119 563.294C934.119 563.294 941.876 555.532 947.081 556.023C952.285 556.514 964.167 559.167 970.845 552.388C977.522 545.608 972.416 538.436 976.049 538.436C979.683 538.436 972.907 530.182 972.907 526.547C972.907 524.189 979.879 487.246 964.658 490.881C951.303 494.025 945.313 469.658 930.78 478.992C919.291 486.361 903.874 482.038 902.793 489.211C900.24 506.503 885.412 501.001 887.573 511.023C890.715 525.564 888.555 531.754 894.741 533.327C900.928 534.899 893.17 541.58 895.821 546.787C898.473 551.995 896.312 557.104 903.579 557.104C910.846 557.104 915.461 559.167 920.175 560.248C924.888 561.329 925.87 563.883 925.87 563.883L926.263 591.984Z" fill="#E7E5E4"/>
<path d="M172.099 588.742L180.347 589.135L179.955 553.272C179.955 553.272 187.712 543.643 192.917 544.331C198.121 545.019 210.003 548.163 216.681 539.811C223.358 531.46 218.252 522.519 221.885 522.519C225.519 522.519 218.743 512.3 218.743 507.781C218.743 504.833 225.617 459.145 210.494 463.665C197.139 467.595 191.149 437.333 176.616 448.927C165.127 458.064 149.71 452.66 148.629 461.601C146.076 483.021 131.248 476.241 133.409 488.621C136.551 506.602 134.391 514.265 140.577 516.23C146.764 518.195 139.006 526.449 141.559 532.934C144.112 539.418 142.05 545.706 149.317 545.706C156.583 545.706 161.199 548.261 165.912 549.538C170.626 550.816 171.608 554.058 171.608 554.058L172.099 588.742Z" fill="#E7E5E4"/>
<path d="M227.189 588.84L238.482 589.135V444.21C238.482 444.21 268.236 449.123 271.575 442.54C274.913 435.957 274.324 433.697 284.242 433.697C294.16 433.697 297.99 433.108 293.08 424.363C288.17 415.619 281.002 425.444 288.17 415.52C295.339 405.597 310.167 399.603 300.249 393.512C290.331 387.42 273.833 398.424 273.833 386.929C273.833 375.433 268.923 377.595 271.673 366.001C274.422 354.407 275.503 355.488 275.012 343.992C274.521 332.496 275.601 326.896 276.092 323.555C276.583 320.214 268.432 314.221 262.344 308.129C256.256 302.038 255.176 294.374 243.588 296.044C232.001 297.714 228.171 298.206 231.51 308.129C234.848 318.053 219.922 310.291 217.762 313.631C215.602 316.972 219.431 320.214 212.852 322.474C206.273 324.734 208.433 324.145 215.602 328.566C222.77 332.987 217.762 336.819 212.852 336.819C207.942 336.819 202.345 326.896 201.265 331.317C200.184 335.739 193.605 333.479 197.926 345.662C202.247 357.846 202.345 355.586 200.086 357.747C197.828 359.909 197.337 359.909 200.086 362.66C202.836 365.411 187.419 360.498 187.419 366.492C187.419 372.485 186.338 384.178 190.168 392.431C193.998 400.684 174.751 394.101 175.34 397.933C175.929 401.765 176.42 405.695 180.25 406.776C184.08 407.857 194.587 407.857 187.91 410.608C181.232 413.359 167.484 422.202 167.484 424.363C167.484 426.525 168.074 431.536 175.144 433.697C182.214 435.859 175.733 443.621 182.312 444.21C188.892 444.8 198.319 444.211 205.978 441.459C213.638 438.708 223.654 438.119 225.225 442.54C226.796 446.962 230.135 443.621 230.135 443.621L227.189 588.84Z" fill="#D6D3D1"/>
<path d="M845.152 592.475L835.037 592.77V465.139C835.037 465.139 808.327 469.56 805.283 463.665C802.239 457.77 802.828 455.903 793.892 455.903C784.956 455.903 781.519 455.411 785.938 447.649C790.357 439.887 796.838 448.632 790.357 439.887C783.876 431.143 781.126 424.56 789.964 419.254C798.802 413.948 795.561 415.619 795.561 405.4C795.561 395.182 807.64 406.383 805.185 396.164C802.73 385.946 793.99 387.125 794.481 376.907C794.972 366.688 801.748 361.677 801.257 358.73C800.766 355.782 808.229 350.477 813.63 345.171C819.031 339.865 820.111 332.987 830.52 334.461C840.929 335.935 844.366 336.426 841.42 345.171C838.474 353.915 851.829 347.136 853.793 349.985C855.757 352.835 852.32 355.782 858.212 357.747C864.104 359.712 862.14 359.221 855.757 363.053C849.374 366.885 853.793 370.324 858.212 370.324C862.631 370.324 867.639 361.579 868.621 365.509C869.603 369.439 875.593 367.474 871.567 378.086C867.541 388.697 867.639 386.83 869.603 388.795C871.567 390.761 872.058 390.761 869.603 393.217C867.148 395.673 880.994 391.252 880.994 396.656C880.994 402.06 881.976 412.18 878.539 419.451C875.102 426.721 892.385 420.924 891.894 424.265C891.403 427.606 890.912 431.044 887.475 432.027C884.038 433.01 874.611 433.01 880.503 435.466C886.395 437.922 886.1 443.031 886.1 444.997C886.1 446.962 890.126 453.643 883.744 455.51C877.361 457.376 891.501 464.549 885.511 465.04C878.343 465.63 871.076 464.844 864.202 462.584C857.23 460.128 848.294 459.636 846.821 463.566C845.348 467.497 842.402 464.549 842.402 464.549L845.152 592.475Z" fill="#D6D3D1"/>
<path d="M328 629V653H710V630L328 629Z" fill="#D6D3D1"/>
<path d="M368.615 549L368 629H380L379.897 549H368.615Z" fill="#E7E5E4"/>
<path d="M657 549L657.893 628H669L668.901 549H657Z" fill="#E7E5E4"/>
<path d="M348.169 548.949C348.169 548.949 351.115 538.141 358.971 538.141L676.446 538.239C677.526 538.239 678.607 538.534 679.49 539.025C682.142 540.499 687.444 543.938 688.917 548.949H348.169Z" fill="#D6D3D1"/>
<path d="M346.5 560.936V570.073L688.623 570.27L688.329 561.427L346.5 560.936Z" fill="#D6D3D1"/>
<path d="M346.5 580.586V589.724L688.623 589.921L688.329 581.078L346.5 580.586Z" fill="#D6D3D1"/>
<path d="M346.5 603.185V612.322L688.623 612.519L688.329 603.676L346.5 603.185Z" fill="#D6D3D1"/>
<path d="M346.5 620.87V630.008L688.623 630.205L688.329 621.362L346.5 620.87Z" fill="#D6D3D1"/>
<path d="M362.31 653.098L362.506 712.639H389.609L390.394 653.098H362.31Z" fill="#D6D3D1"/>
<path d="M648.46 653.098L648.951 713.425H677.33L676.839 652.901L648.46 653.098Z" fill="#D6D3D1"/>
<path d="M375.173 360.4C389.003 360.4 400.214 349.183 400.214 335.346C400.214 321.508 389.003 310.291 375.173 310.291C361.344 310.291 350.133 321.508 350.133 335.346C350.133 349.183 361.344 360.4 375.173 360.4Z" fill="#E7E5E4"/>
</g>
<path d="M560.35 645.87C557.1 640.487 554.523 639.141 546.567 638.917C538.611 638.693 528.078 638.805 528.078 638.805L527.966 650.132C527.966 650.132 536.706 655.178 541.412 657.757C541.636 657.87 542.421 658.318 542.981 658.655C543.766 658.991 544.662 659.328 545.558 659.552C550.153 660.561 554.411 660 557.436 657.085C560.686 653.72 563.599 651.253 560.35 645.87Z" fill="#1C1917"/>
<path d="M500.402 635.889C500.178 636.113 499.393 636.674 498.945 637.01C498.273 637.571 497.712 638.356 497.152 639.029C494.575 642.954 493.342 646.991 495.135 650.917C497.04 655.178 498.273 658.879 504.324 657.757C510.375 656.748 512.728 654.842 515.977 647.664C519.227 640.487 523.037 630.506 522.925 630.506L512.504 626.244C512.392 626.244 504.436 632.524 500.402 635.889Z" fill="#1C1917"/>
<path d="M528.864 639.253C528.864 639.253 528.976 650.692 527.183 650.917C525.278 651.141 499.73 647.44 489.533 646.991C479.336 646.431 456.253 639.814 444.935 627.029C435.074 615.927 436.643 603.703 443.927 603.703C451.21 603.703 457.821 597.535 476.198 606.282C494.575 615.03 514.073 616.488 525.054 615.703C536.035 614.805 566.738 609.198 569.091 607.404C571.445 605.609 582.986 600.675 599.01 602.357C615.034 604.039 607.414 616.824 604.052 621.758C599.346 628.599 588.141 635.889 578.728 636.225C569.316 636.562 528.864 639.253 528.864 639.253Z" fill="#57534E"/>
<path d="M509.814 439.969C504.436 441.987 497.6 468.678 497.6 468.678L497.488 468.566L496.704 472.267L495.808 477.089L497.6 506.135L515.081 514.883L555.084 525.649L566.178 541.461C566.178 541.461 590.942 566.694 591.166 568.489C591.278 570.283 564.497 579.143 561.92 579.479C555.757 580.376 601.363 569.274 586.684 551.555C580.521 543.929 571.332 521.163 553.292 506.023C542.871 497.276 545.784 472.491 542.086 456.791C537.492 437.165 534.578 431.221 529.984 431.221C525.838 431.221 520.011 436.156 509.814 439.969Z" fill="url(#paint0_linear_91174_7781)"/>
<path d="M566.513 503.444C558.109 495.706 555.307 493.911 547.912 496.491C540.516 499.07 536.931 501.537 526.958 503.107C520.795 504.229 514.408 503.332 508.693 500.864L488.075 502.883C485.498 502.547 456.139 557.723 455.355 569.162C454.907 576.227 470.93 587.105 475.301 588.114C477.093 588.563 480.343 571.18 481.352 569.61L474.628 567.592C475.861 564.564 479.895 557.162 482.584 553.237C483.369 552.003 489.756 541.462 490.652 537.424C490.764 537.761 491.773 545.387 492.669 547.854C494.35 552.34 496.591 554.919 496.591 558.508C496.591 562.096 496.143 576.451 493.565 582.844C490.988 589.236 487.178 604.151 487.178 604.151L553.178 603.815C553.178 603.815 550.825 575.442 551.722 565.685C551.722 565.685 550.713 561.76 552.618 556.041C555.868 546.62 556.764 532.714 556.204 530.471C555.42 526.995 575.589 556.153 580.071 563.442C581.976 566.47 556.764 571.853 554.747 574.208C552.618 576.676 556.876 583.292 556.876 583.292C556.876 583.292 600.69 577.909 600.465 571.292C600.241 564.676 576.262 512.303 566.513 503.444Z" fill="#A8A29E"/>
<path d="M515.082 424.268C515.082 424.268 502.868 424.717 499.282 437.614C495.696 450.511 495.248 468.454 495.136 471.258C495.024 474.174 496.369 491.444 489.757 498.621C484.043 504.79 486.396 510.845 484.939 515.78L484.267 523.967C484.379 524.976 485.051 525.761 486.059 526.097C486.956 526.322 489.981 524.976 490.542 524.752C498.161 521.724 498.161 519.256 501.075 516.789C503.428 514.771 510.039 510.06 512.056 508.266C514.073 506.36 515.418 504.79 515.53 502.434C515.866 490.547 513.849 479.444 511.272 473.613C508.694 467.781 503.652 457.912 507.798 451.408C511.944 444.903 519.564 438.287 520.012 436.717C520.46 435.146 520.684 442.997 525.279 445.8C529.873 448.604 533.795 452.417 535.251 456.23C536.484 459.37 538.053 464.753 533.683 474.173C529.312 483.482 525.727 495.481 531.89 504.341C538.053 513.201 551.051 522.845 553.18 527.331C555.533 532.265 553.292 543.929 552.844 550.994C552.396 558.059 566.627 538.77 566.178 529.574C565.73 520.378 567.299 516.453 558.447 502.434C549.594 488.416 543.992 464.305 543.768 458.473C543.543 452.641 540.966 436.492 535.7 431.782C531.105 427.857 530.097 424.044 520.796 424.044C518.779 423.932 516.986 424.044 515.082 424.268Z" fill="#1C1917"/>
<path opacity="0.07" d="M487.18 619.291L549.034 619.628C549.034 619.628 541.75 625.347 538.277 625.908C534.803 626.469 519.9 633.982 514.297 631.179C510.487 629.048 487.18 619.291 487.18 619.291Z" fill="black"/>
<path opacity="0.07" d="M521.692 480.117C521.692 480.117 527.519 481.575 529.872 478.211C535.251 470.585 530.321 482.136 530.321 482.136C530.321 482.136 528.752 486.622 528.864 488.865C528.976 491.108 522.701 480.454 521.692 480.117Z" fill="black"/>
<path opacity="0.07" d="M498.608 519.369C497.936 520.266 496.816 520.939 496.367 523.182C495.471 526.77 494.462 530.808 491.997 534.508C490.541 536.639 491.325 545.162 493.79 550.433C494.462 552.003 496.704 555.928 496.591 556.826L496.479 564.564H503.091C503.091 564.564 508.805 565.124 507.573 560.526C506.564 556.377 501.186 540.901 504.771 537.536C511.607 531.256 502.979 518.696 506.228 514.658C509.03 511.182 512.951 508.715 512.951 507.481C512.951 507.032 511.943 508.49 511.159 508.939C509.814 509.948 509.142 510.733 507.909 511.406C506.676 512.191 504.771 513.537 503.539 514.546C501.634 516.116 500.065 517.686 498.608 519.369Z" fill="black"/>
<path d="M472.725 569.05C472.725 569.05 472.725 565.012 476.647 564.9C480.569 564.788 564.834 564.9 564.834 564.9C564.834 564.9 568.532 565.349 568.644 568.377C568.756 571.405 568.756 615.927 568.756 615.927C568.756 615.927 568.756 619.403 565.17 619.516C561.584 619.628 475.638 619.628 475.638 619.628C475.638 619.628 472.389 618.843 472.501 615.59C472.501 612.226 472.725 569.05 472.725 569.05Z" fill="white"/>
<path d="M520.908 595.853C522.95 595.853 524.606 594.196 524.606 592.152C524.606 590.108 522.95 588.451 520.908 588.451C518.866 588.451 517.21 590.108 517.21 592.152C517.21 594.196 518.866 595.853 520.908 595.853Z" fill="#D6D3D1"/>
<g clip-path="url(#clip1_91174_7781)">
<path d="M745.651 661.211C745.651 661.211 756.573 700.471 754.802 704.854C753.031 709.238 744.175 710.115 740.239 710.992C736.304 711.869 700.586 721.123 696.946 721.318C693.305 721.513 693.6 722 692.026 722C690.451 722 670.576 715.376 669.887 713.038C669.198 710.7 668.608 709.141 669.198 706.218C669.788 703.296 678.841 665.887 681.301 665.108C683.761 664.329 745.651 661.211 745.651 661.211Z" fill="url(#paint1_linear_91174_7781)"/>
<path d="M684.396 662.879C684.386 662.871 684.379 662.865 684.374 662.86C684.373 662.86 684.373 662.861 684.373 662.861C684.378 662.865 684.385 662.871 684.396 662.879ZM689.487 665.863C689.38 665.878 689.275 665.892 689.174 665.906C690.81 667.149 692.574 668.911 693.45 671.322C693.531 671.405 693.68 671.547 693.929 671.746C694.581 672.268 695.575 672.915 696.909 673.658C699.559 675.133 703.129 676.751 706.957 678.285C710.767 679.812 714.735 681.216 718.14 682.274C721.594 683.349 724.176 683.973 725.432 684.113C725.469 684.106 725.734 684.069 726.288 683.812C727.006 683.479 727.917 682.912 728.999 682.093C731.158 680.457 733.579 678.134 735.904 675.671C738.209 673.231 740.325 670.755 741.87 668.881C742.433 668.198 742.918 667.598 743.306 667.113C743.239 666.716 743.16 666.28 743.071 665.839C742.917 665.077 742.752 664.397 742.594 663.908C742.582 663.871 742.57 663.837 742.56 663.805C742.27 663.527 741.987 663.232 741.766 663.002C741.716 662.95 741.67 662.902 741.627 662.858C741.149 662.363 740.66 661.866 740.144 661.405C739.621 660.937 739.156 660.586 738.763 660.358C738.484 660.197 738.331 660.15 738.289 660.138C738.28 660.139 738.265 660.139 738.247 660.141C738.051 660.151 737.34 660.19 735.91 660.321C734.36 660.462 732.282 660.677 729.842 660.944C724.965 661.477 718.71 662.212 712.481 662.966C706.253 663.72 700.064 664.492 695.323 665.1C692.952 665.404 690.949 665.666 689.487 665.863ZM684.761 667.138C684.757 667.141 684.755 667.143 684.756 667.143C684.756 667.143 684.757 667.141 684.761 667.138Z" fill="url(#paint2_linear_91174_7781)" stroke="#1C1917" stroke-width="8"/>
<path d="M731.975 657.704C731.975 657.704 726.858 646.696 724.398 644.65C722.233 642.799 714.46 638.805 709.737 644.748C704.424 651.47 704.916 659.263 704.916 660.237C704.916 661.211 710.131 660.335 710.131 660.335C710.131 660.335 708.458 652.346 709.934 649.619C711.312 647.086 712.099 644.066 717.019 644.358C721.938 644.65 723.709 647.378 725.185 649.911C726.464 652.444 727.448 655.074 728.334 657.802C728.531 658.094 731.975 657.704 731.975 657.704Z" fill="#1C1917"/>
<path d="M723.808 658.386C723.808 658.386 718.691 644.942 716.231 642.41C714.067 640.169 705.801 635.688 701.078 642.897C695.765 651.08 696.847 660.237 696.847 661.309C696.847 662.38 702.062 661.503 702.062 661.503C702.062 661.503 700.488 651.762 701.964 648.352C703.341 645.235 704.129 641.533 708.95 641.923C713.771 642.312 715.641 645.527 717.117 648.742C718.396 651.859 719.38 655.074 720.265 658.386C720.265 658.873 723.808 658.386 723.808 658.386Z" fill="#1C1917"/>
<path d="M691.829 675.629C691.829 675.629 696.356 713.33 695.765 715.863C695.175 718.396 693.699 722 692.617 722C691.534 722 689.763 721.805 690.452 720.928C692.715 717.714 693.699 713.72 693.109 709.92C692.42 703.783 689.763 672.901 689.763 672.901L691.829 675.629Z" fill="#1C1917"/>
<path d="M726.267 690.826C724.746 690.826 723.512 689.605 723.512 688.099C723.512 686.592 724.746 685.371 726.267 685.371C727.789 685.371 729.022 686.592 729.022 688.099C729.022 689.605 727.789 690.826 726.267 690.826Z" fill="white"/>
</g>
<defs>
<linearGradient id="paint0_linear_91174_7781" x1="495.789" y1="505.325" x2="591.094" y2="505.325" gradientUnits="userSpaceOnUse">
<stop stop-color="#F87B58"/>
<stop offset="0.5" stop-color="#F8C548"/>
<stop offset="1" stop-color="#F89C51"/>
</linearGradient>
<linearGradient id="paint1_linear_91174_7781" x1="770.709" y1="661.601" x2="687.242" y2="700.649" gradientUnits="userSpaceOnUse">
<stop stop-color="#292524"/>
<stop offset="1" stop-color="#292524"/>
</linearGradient>
<linearGradient id="paint2_linear_91174_7781" x1="757.77" y1="651.463" x2="702.295" y2="677.419" gradientUnits="userSpaceOnUse">
<stop stop-color="#292524"/>
<stop offset="1" stop-color="#292524"/>
</linearGradient>
<clipPath id="clip0_91174_7781">
<rect width="994" height="647" fill="white" transform="translate(13 186)"/>
</clipPath>
<clipPath id="clip1_91174_7781">
<rect width="86" height="83" fill="white" transform="matrix(-1 0 0 1 755 639)"/>
</clipPath>
</defs>
</svg>
