<svg width="1024" height="1024" viewBox="0 0 1024 1024" fill="none" xmlns="http://www.w3.org/2000/svg">
<rect width="1024" height="1024" fill="white"/>
<g clip-path="url(#clip0_91127_4937)">
<path d="M573.895 732.47L602.815 723.691L616.6 958.003L605.248 963L573.895 732.47Z" fill="#E7E5E4"/>
<path d="M792.151 664.809L836.073 651.034L889.995 865.359L877.427 869.005L792.151 664.809Z" fill="#E7E5E4"/>
<path d="M276.039 714.778L220.63 891.694L205.764 884.941L231.441 708.025L276.039 714.778Z" fill="#E7E5E4"/>
<path d="M535.109 740.033H551.326L573.895 732.47L605.248 963L591.463 959.354L535.109 740.033Z" fill="#E7E5E4"/>
<path d="M479.024 65.9967L737.283 64.7812L732.283 637.259L515.378 657.246L484.43 669.671L231.847 654.41L232.523 638.204L509.161 603.496L479.024 65.9967Z" fill="url(#paint0_linear_91127_4937)"/>
<path d="M390.235 66.9424L479.024 65.9971L520.783 625.375L216.305 641.446L199.142 518.28L269.282 504.64L427.129 495.997L390.235 66.9424Z" fill="url(#paint1_linear_91127_4937)"/>
<path d="M164.005 651.305L165.492 689.254C165.492 689.254 164.816 704.92 184.817 705.595C204.818 706.27 534.973 739.898 534.973 739.898C534.973 739.898 561.462 746.92 602.68 723.557L840.668 648.198C840.668 648.198 848.911 647.523 848.101 633.343C847.29 619.163 888.779 79.5023 888.779 78.0168C888.779 76.5312 883.373 70.9942 872.697 70.3189C862.966 69.7787 760.933 63.5664 760.933 63.5664L761.474 473.984C761.474 473.984 764.177 511.663 747.013 513.148C707.687 516.525 547.271 514.094 526.595 530.57C512.675 541.779 544.028 637.8 547.271 657.382C548.218 663.459 505.377 660.758 491.998 664.405C481.186 667.511 164.005 651.305 164.005 651.305Z" fill="url(#paint2_linear_91127_4937)"/>
<path d="M501.998 516.929C501.998 516.929 477.943 516.929 476.997 533.676C476.051 547.721 475.51 634.018 475.375 661.433C475.375 665.35 475.105 669.131 474.294 672.912C473.348 677.639 478.484 687.633 490.511 687.903C513.621 688.578 539.568 687.903 539.568 687.903C539.568 687.903 550.65 684.527 548.623 665.755C546.596 646.983 525.919 550.287 525.919 550.287C525.919 550.287 519.702 527.328 541.595 527.328C563.489 527.328 737.824 514.769 737.824 514.769C737.824 514.769 761.879 515.849 762.825 493.836C763.771 471.823 768.096 79.6371 768.096 79.6371C768.096 79.6371 771.204 62.8908 756.609 61.9455C742.013 61.0001 712.822 63.9712 712.822 63.9712C712.822 63.9712 703.362 65.0516 703.362 78.5567C703.362 92.0617 719.85 483.032 717.958 491C715.12 503.289 684.983 506.125 669.306 507.206C653.629 508.286 501.998 516.929 501.998 516.929Z" fill="#44403C"/>
<path d="M335.772 86.9301C335.772 86.9301 333.069 59.3798 351.719 61.0004C364.693 62.2159 377.531 64.2416 390.37 66.8076C390.37 66.8076 398.344 65.7272 399.83 74.7755C401.317 83.8239 462.266 496.402 458.077 498.023C453.887 499.643 241.848 511.933 237.118 511.933C232.388 511.933 214.954 511.393 217.116 525.168C219.279 538.943 232.658 634.423 232.658 638.205C232.658 641.986 234.415 656.031 230.766 657.112C227.117 658.192 164.14 655.221 164.14 655.221L168.87 525.573C168.87 525.573 168.6 503.56 181.303 501.939C194.007 500.319 414.155 491.675 416.723 489.109C419.291 486.543 412.534 464.26 409.831 454.266C408.479 448.594 335.772 86.9301 335.772 86.9301Z" fill="#44403C"/>
</g>
<defs>
<linearGradient id="paint0_linear_91127_4937" x1="237.118" y1="139.166" x2="679.212" y2="533.384" gradientUnits="userSpaceOnUse">
<stop stop-color="#44403C"/>
<stop offset="1" stop-color="#1C1917"/>
</linearGradient>
<linearGradient id="paint1_linear_91127_4937" x1="672.797" y1="-61.7042" x2="368.133" y2="511.029" gradientUnits="userSpaceOnUse">
<stop stop-color="#44403C"/>
<stop offset="1" stop-color="#1C1917"/>
</linearGradient>
<linearGradient id="paint2_linear_91127_4937" x1="229.762" y1="264.327" x2="912.247" y2="547.361" gradientUnits="userSpaceOnUse">
<stop stop-color="#44403C"/>
<stop offset="1" stop-color="#1C1917"/>
</linearGradient>
<clipPath id="clip0_91127_4937">
<rect width="726" height="902" fill="white" transform="translate(164 61)"/>
</clipPath>
</defs>
</svg>
