<svg width="1024" height="1500" viewBox="0 0 1024 1500" fill="none" xmlns="http://www.w3.org/2000/svg">
<path d="M501.467 1282.03H494.701L459.072 1282.48C459.072 1282.48 451.405 1319.03 446.894 1334.38C446.894 1335.28 445.541 1337.99 445.541 1339.79C445.09 1342.5 444.639 1345.21 444.639 1347.92C445.541 1361.91 450.502 1373.64 463.131 1379.96C476.661 1386.73 487.034 1393.04 501.918 1379.96C516.35 1366.87 518.154 1358.29 512.742 1335.28C506.879 1311.81 504.624 1282.48 501.467 1282.03Z" fill="#1C1917"/>
<path d="M650.751 1327.61C625.945 1319.94 609.709 1286.09 609.709 1286.09L567.765 1283.38C567.765 1283.38 565.51 1317.23 564.157 1334.83C562.804 1357.84 566.412 1367.77 581.746 1366.87C601.591 1365.52 682.322 1372.74 695.401 1364.16C712.088 1353.78 673.752 1334.83 650.751 1327.61Z" fill="#1C1917"/>
<path d="M398.636 677.767V727.859L459.522 1282.48H502.368C502.368 1282.48 517.252 902.052 517.252 888.965C517.252 875.878 520.86 834.36 520.86 834.36C520.86 834.36 574.981 990.503 575.883 1003.59C576.785 1016.68 567.314 1285.64 567.314 1285.64L610.16 1287.44C610.16 1287.44 647.593 1105.58 647.593 1088.43C647.593 1071.28 660.222 981.928 658.418 964.329C656.614 947.18 624.592 679.121 624.592 679.121L558.744 677.315L398.636 677.767Z" fill="#78716C"/>
<path d="M677.36 619.552L676.909 618.649C676.909 619.1 676.909 619.552 677.36 619.552ZM551.077 570.814L527.174 580.742L525.821 614.136L552.43 624.516L581.295 623.162C581.295 621.808 592.57 622.259 597.982 625.418L688.184 594.28L691.341 572.619C691.341 572.619 698.106 599.695 667.889 545.091L551.077 570.814ZM658.418 460.702L656.614 449.871L652.104 448.968L658.418 460.702ZM491.995 171.432C480.72 175.945 475.759 192.191 475.759 192.191C475.759 192.191 470.347 189.032 470.347 198.058C470.347 207.083 474.857 227.842 478.014 233.257C483.877 242.283 488.838 251.308 493.348 260.785C497.858 270.262 496.054 289.667 491.544 292.826C487.034 295.534 404.95 369.092 404.95 369.092L337.299 576.229V584.352L347.672 587.962L358.496 596.988C359.398 596.988 372.929 604.66 374.733 606.013C385.557 611.429 396.832 615.49 408.558 618.198C416.226 619.552 450.051 619.1 450.051 619.1L484.328 618.198L478.465 574.424L427.952 573.973L358.947 570.362L428.854 408.805L650.299 448.517C611.062 377.215 566.863 297.339 562.804 289.216C559.647 282.447 562.804 265.749 565.059 257.175C566.863 249.503 570.471 239.575 574.079 236.867C577.687 234.16 584.001 221.524 584.001 215.657C584.001 209.791 585.354 188.581 580.844 193.093C579.491 194.447 574.079 186.324 572.275 178.201C569.118 166.468 561 157.894 551.528 150.222C551.528 150.222 502.819 166.468 491.995 170.981" fill="url(#paint0_linear_91155_7064)"/>
<path d="M407.656 324.416C396.832 331.636 386.91 341.564 383.302 354.2C379.694 366.836 353.986 465.214 350.378 477.399C341.809 507.635 336.848 516.66 326.926 552.311C314.748 596.085 342.711 602.854 371.576 609.624C401.342 616.393 401.793 619.1 408.558 619.1C409.911 619.1 445.09 626.321 445.992 606.465C446.894 593.829 444.639 573.973 439.678 574.424C428.854 575.778 393.675 566.752 391.871 565.398C389.616 564.044 399.538 536.516 405.401 519.368C409.46 506.732 425.697 454.384 429.305 444.456C431.109 439.04 420.285 495.45 413.519 550.506C413.519 552.762 410.813 573.973 411.264 573.973C419.383 573.973 441.482 574.424 448.247 575.326C479.367 578.937 485.23 593.829 483.426 605.562C479.818 626.321 404.499 616.844 404.95 619.552C404.95 619.552 391.871 678.218 399.087 681.828C405.401 684.987 489.74 720.187 507.78 726.956C509.585 727.859 511.84 726.956 512.742 724.7L524.017 691.756C524.017 691.305 524.468 691.305 524.919 691.305C524.919 691.305 525.37 691.305 525.37 691.756L536.194 727.859C536.194 728.761 537.096 729.664 537.998 730.115H542.959L636.769 709.807C636.769 709.807 636.318 672.803 636.318 625.418C636.318 620.454 635.416 602.854 632.259 606.465C628.651 609.624 550.626 620.003 542.057 616.393C524.017 608.721 528.527 589.767 534.841 582.096C542.057 573.07 634.514 568.557 634.965 562.239C636.318 533.358 634.063 457.091 632.71 466.117C630.455 480.558 576.334 558.629 576.334 572.619C576.334 586.608 575.432 620.454 575.432 620.454L664.281 613.685C664.281 613.685 694.047 603.306 696.753 586.157C699.46 569.009 696.302 561.337 694.949 535.614C694.047 519.368 671.046 421.44 664.732 393.912C663.83 389.851 663.379 385.338 662.928 381.277C662.026 369.995 657.516 342.918 632.71 331.185C602.041 316.744 578.138 305.011 572.275 305.011C566.412 305.011 551.077 339.308 542.508 349.236C538.9 353.749 539.802 355.554 534.841 362.323C532.135 365.933 527.625 366.384 524.468 364.128C523.566 363.677 523.115 362.774 522.664 361.872C519.958 358.261 517.703 353.749 515.448 349.687C511.84 342.467 483.877 300.949 483.877 300.949C483.877 300.949 418.029 317.195 407.656 324.416Z" fill="#1C1917"/>
<path d="M551.98 151.125C551.98 151.125 491.995 173.688 487.936 176.847C483.877 180.006 475.759 192.191 475.759 192.191C475.759 192.191 471.7 189.935 470.798 196.252C470.798 196.252 464.484 183.617 464.033 176.396C463.131 169.176 464.033 151.125 475.308 138.94C486.583 126.756 510.036 110.961 524.017 113.217C537.998 115.474 544.312 116.827 553.333 125.853C562.353 134.879 570.02 137.586 572.726 138.94C575.432 140.294 585.805 147.514 587.609 161.504C589.413 175.494 584.452 203.473 584.452 203.473C584.452 203.473 585.805 192.642 581.295 195.801C578.138 198.058 573.628 188.129 572.726 182.263C570.922 176.847 555.588 152.478 551.98 151.125Z" fill="#1C1917"/>
<path d="M465.386 536.516L566.412 549.152C568.667 549.604 570.02 551.86 569.569 554.116L566.863 645.726C566.863 648.434 565.059 652.495 562.353 651.593L461.778 632.188C459.974 631.736 458.621 629.931 458.621 627.675L458.17 617.747L469.445 615.039C472.151 614.136 474.857 612.783 477.112 610.977C477.563 610.526 478.014 610.075 478.465 609.624L480.72 606.013C481.622 605.111 481.622 603.757 481.622 602.403C481.171 600.147 480.72 597.439 480.269 596.085C480.269 595.634 479.818 594.731 479.818 594.731L477.112 589.316C475.759 586.608 473.955 584.803 471.7 583.901L470.347 582.998L459.523 577.132L460.425 541.481C460.425 538.773 462.68 536.968 464.935 536.968C464.935 536.517 465.386 536.516 465.386 536.516Z" fill="white"/>
<defs>
<linearGradient id="paint0_linear_91155_7064" x1="338.144" y1="388.036" x2="691.701" y2="388.036" gradientUnits="userSpaceOnUse">
<stop stop-color="#F87B58"/>
<stop offset="0.41" stop-color="#F89453"/>
<stop offset="0.71" stop-color="#F8C548"/>
<stop offset="1" stop-color="#F89C51"/>
</linearGradient>
</defs>
</svg>
