<svg width="1024" height="1024" viewBox="0 0 1024 1024" fill="none" xmlns="http://www.w3.org/2000/svg">
<g clip-path="url(#clip0_91174_7573)">
<path d="M59.7004 477.403C45.5241 451.309 41.4514 420.826 48.422 391.988C68.2375 310.257 124.316 166.776 272.736 187.071C478.723 215.282 538.639 222.334 623.148 195.848C707.657 169.362 853.806 169.44 899.546 229.309C927.272 265.59 1021.02 428.349 961.185 484.769C901.347 541.19 990.164 652.778 992.906 712.02C995.647 771.261 910.198 778.941 802.74 780.743C695.283 782.546 71.0571 762.015 71.0571 762.015C71.0571 762.015 -8.98791 623.94 54.4528 574.651C93.6921 544.089 76.0697 507.573 59.7004 477.403Z" fill="#FAFAF9"/>
<path d="M122.123 697.444C108.417 696.974 56.9594 704.026 53.9049 706.691C53.1216 707.396 41.8433 740.935 91.421 784.191C170.683 853.463 383.875 855.814 452.955 829.484C553.207 791.243 663.093 862.945 890.774 835.518C963.535 826.742 1012.17 715.232 979.121 700.735C959.306 692.115 935.574 714.997 915.681 704.967C892.732 693.369 846.287 686.16 817.543 695.015C816.368 695.328 815.664 696.582 815.977 697.757C816.29 698.854 817.387 699.56 818.561 699.325L803.445 704.183C786.606 716.721 790.366 700.03 750.891 697.914L634.505 695.015C592.916 696.269 432.748 703.321 370.09 700.814H335.629C312.602 697.914 252.999 696.582 250.806 696.504L122.123 697.444Z" fill="#F5F5F4"/>
<path d="M169.508 526.85H204.753C204.753 526.85 215.718 528.417 216.501 536.253C217.284 544.089 216.266 646.038 216.266 646.038L286.991 645.177C286.991 645.177 294.04 647.527 294.04 655.364C294.04 663.2 288.557 666.334 288.557 666.334L181.099 665.864L169.508 526.85Z" fill="#E7E5E4"/>
<path d="M169.507 526.85C169.507 526.85 159.326 528.417 158.542 544.089C157.759 559.762 158.542 665.551 158.542 665.551L265.922 666.334C267.488 666.334 268.976 665.707 269.994 664.532C271.561 662.808 273.676 660.144 273.676 657.714C273.676 653.483 272.109 646.744 263.494 646.744C254.878 646.744 182.039 645.96 182.039 645.96L180.473 536.253C180.473 536.331 180.473 528.417 169.507 526.85Z" fill="#D6D3D1"/>
<path d="M214.465 666.099C214.465 666.099 212.585 674.954 218.851 674.954H229.032C229.816 674.954 233.183 670.252 231.069 666.334C228.954 662.416 214.465 666.099 214.465 666.099Z" fill="#F5F5F4"/>
<path d="M218.851 675.032L219.634 763.503H226.683L227.074 674.484L218.851 675.032Z" fill="#E7E5E4"/>
<path d="M189.871 761.936L257.228 762.72V768.989L189.871 768.205V761.936Z" fill="#E7E5E4"/>
<path d="M323.019 769.772L319.886 605.995H336.333L335.55 769.772H323.019Z" fill="white"/>
<path d="M680.949 606.779H698.963L692.698 770.556L680.949 771.34V606.779Z" fill="white"/>
<path d="M307.354 577.785L308.137 604.428L706.795 606.779L707.265 577.001L307.354 577.785Z" fill="#E7E5E4"/>
<path d="M283.074 562.896L731.075 564.463V579.352L283.857 578.569L283.074 562.896Z" fill="#F5F5F4"/>
<path d="M831.093 702.224L831.876 768.832L921.163 767.265V702.224H831.093Z" fill="#E7E5E4"/>
<path d="M901.583 767.578L901.661 702.224H895.943" fill="white"/>
<path d="M854.276 702.067C854.276 702.067 852.162 662.573 870.802 651.367C889.443 640.161 873.465 613.988 877.225 600.118C880.984 586.248 898.528 576.061 898.528 565.404C898.528 554.747 896.962 524.812 917.169 515.801C937.376 506.789 953.432 518.465 947.088 536.096C940.744 553.728 935.888 574.024 928.917 580.371C921.946 586.718 924.688 596.905 925.706 609.208C926.724 621.511 917.169 641.729 911.843 649.251C906.517 656.774 911.843 669.547 910.277 682.869C910.277 682.869 907.379 701.519 904.402 702.146C901.426 702.773 854.276 702.067 854.276 702.067Z" fill="#F5F5F4"/>
<path d="M895.943 703.321C895.943 703.321 898.293 684.514 877.46 679.186C856.626 673.857 874.483 661.397 870.332 654.815C866.181 648.233 846.522 643.374 846.522 638.359C846.522 633.344 848.324 619.082 825.689 614.772C803.054 610.462 785.196 616.026 792.324 624.411C799.451 632.795 804.855 642.434 812.531 645.49C820.206 648.546 817.308 653.326 816.134 659.203C814.959 665.08 825.689 674.719 831.641 678.245C837.594 681.772 831.641 687.884 833.443 694.231C833.443 694.231 836.732 703.086 839.943 703.4C843.155 703.713 895.943 703.321 895.943 703.321Z" fill="#F5F5F4"/>
<path d="M878.556 703.243C878.556 703.243 876.912 683.574 891.401 678.01C905.891 672.446 893.516 659.438 896.335 652.542C899.155 645.647 912.94 640.631 912.94 635.303C912.94 629.974 911.686 615.164 927.429 610.619C943.172 606.074 955.625 611.951 950.612 620.727C945.6 629.504 941.919 639.534 936.514 642.747C931.11 645.96 933.225 650.975 934.008 657.087C934.791 663.2 927.351 673.308 923.2 676.991C919.049 680.674 923.2 687.1 921.947 693.683C921.947 693.683 919.675 702.929 917.404 703.243C915.133 703.556 878.556 703.243 878.556 703.243Z" fill="#F5F5F4"/>
<path d="M376.12 324.518L376.668 474.817L794.516 474.19V325.694L376.12 324.518Z" fill="white"/>
<path d="M450.839 371.536V390.029L621.972 389.246V371.536H450.839Z" fill="#F5F5F4"/>
<path d="M450.839 423.02V441.513L621.972 440.73V423.02H450.839Z" fill="#F5F5F4"/>
<path d="M421.939 396.455C429.033 396.455 434.783 390.701 434.783 383.604C434.783 376.506 429.033 370.752 421.939 370.752C414.845 370.752 409.094 376.506 409.094 383.604C409.094 390.701 414.845 396.455 421.939 396.455Z" fill="#F5F5F4"/>
<path d="M421.939 444.491C429.033 444.491 434.783 438.737 434.783 431.64C434.783 424.542 429.033 418.788 421.939 418.788C414.845 418.788 409.094 424.542 409.094 431.64C409.094 438.737 414.845 444.491 421.939 444.491Z" fill="#F5F5F4"/>
<path d="M770.314 391.753H668.73V441.356H770.314V391.753Z" fill="#E7E5E4"/>
<path d="M667.086 439.006C667.086 439.006 674.996 421.688 682.515 423.568C690.034 425.449 691.914 433.364 697.553 429.994C703.192 426.624 706.873 412.989 712.356 410.795C720.188 407.739 722.773 411.109 733.346 417.143C743.92 423.176 748.384 421.844 752.692 417.378C756.686 413.303 764.048 402.254 772.194 397.317" stroke="#F5F5F4" stroke-width="0.679273" stroke-linecap="round" stroke-linejoin="round"/>
<path d="M343.538 326.478H192.377V470.272H343.538V326.478Z" fill="white"/>
<path d="M266 452.641C287.584 452.641 305.082 435.134 305.082 413.538C305.082 391.942 287.584 374.435 266 374.435C244.415 374.435 226.917 391.942 226.917 413.538C226.917 435.134 244.415 452.641 266 452.641Z" stroke="#F5F5F4" stroke-width="1.35855" stroke-linecap="round" stroke-linejoin="round"/>
<path d="M240.78 338.937H202.324V348.027H240.78V338.937Z" fill="#F5F5F4"/>
<path d="M240.78 353.199H202.324V362.289H240.78V353.199Z" fill="#F5F5F4"/>
<path d="M314.716 539.544H434C434 539.544 438.465 539.309 438.465 534.137V523.872H310.017V536.331C310.643 538.29 312.523 539.623 314.716 539.544Z" fill="#D6D3D1"/>
<path d="M310.017 446.293L309.938 527.79L438.465 526.615V443.942C438.465 443.942 439.248 439.241 434.235 439.241H314.873C314.873 439.241 309.469 439.241 310.017 446.293Z" fill="#D6D3D1"/>
<path d="M364.059 561.407V538.761L382.856 539.544V559.448L364.059 561.407Z" fill="#D6D3D1"/>
<path d="M334.218 559.135H412.305L412.383 563.053H334.218V559.135Z" fill="#D6D3D1"/>
<path d="M373.066 529.436C375.181 529.436 376.826 531.081 376.826 533.197C376.826 535.313 375.181 536.958 373.066 536.958C370.951 536.958 369.307 535.313 369.307 533.197C369.307 531.081 371.03 529.436 373.066 529.436Z" fill="white"/>
<path d="M434.548 443.159H313.933V522.305H434.548V443.159Z" fill="#FAFAF9"/>
<path d="M319.964 447.234C320.982 447.234 321.843 448.096 321.843 449.114C321.843 450.133 320.982 450.995 319.964 450.995C318.946 450.995 318.084 450.133 318.084 449.114C318.084 448.096 318.946 447.234 319.964 447.234Z" fill="#FA5F5D"/>
<path d="M326.387 447.234C327.405 447.234 328.266 448.096 328.266 449.114C328.266 450.133 327.405 450.995 326.387 450.995C325.368 450.995 324.507 450.133 324.507 449.114C324.507 448.096 325.368 447.234 326.387 447.234Z" fill="#FDBC4E"/>
<path d="M333.122 447.234C334.14 447.234 335.002 448.096 335.002 449.114C335.002 450.133 334.14 450.995 333.122 450.995C332.104 450.995 331.242 450.133 331.242 449.114C331.242 448.096 332.104 447.234 333.122 447.234Z" fill="#37CD58"/>
<path d="M359.36 461.025C359.282 462.044 358.42 462.828 357.402 462.749H334.297C333.122 462.749 331.947 461.966 331.947 461.025V457.499C331.947 456.559 333.044 455.697 334.297 455.697H357.324C358.342 455.618 359.282 456.402 359.36 457.421V457.499V461.025Z" fill="#A8A29E"/>
<path d="M414.968 484.377C414.89 485.474 413.95 486.336 412.854 486.258H334.297C333.122 486.258 331.947 485.396 331.947 484.377V466.981C331.947 465.962 333.122 465.1 334.297 465.1H412.854C413.95 465.022 414.89 465.884 414.968 466.981V484.377Z" fill="#D6D3D1"/>
<path d="M357.793 499.266C357.793 500.285 356.932 501.147 355.914 501.147H334.297C333.044 501.147 331.947 500.285 331.947 499.266V489.706C331.947 488.687 333.122 487.825 334.297 487.825H355.757C356.775 487.747 357.715 488.53 357.793 489.628V489.706V499.266Z" fill="#D6D3D1"/>
<path d="M385.989 499.266C385.989 500.285 385.127 501.147 384.109 501.147H362.492C361.239 501.147 360.143 500.285 360.143 499.266V489.706C360.143 488.687 361.317 487.825 362.492 487.825H383.952C384.971 487.747 385.91 488.53 385.989 489.628V489.706V499.266Z" fill="#D6D3D1"/>
<path d="M414.968 499.266C414.89 500.363 413.95 501.225 412.854 501.147H391.393C390.219 501.225 389.279 500.363 389.122 499.266V489.706C389.2 488.531 390.219 487.747 391.393 487.825H412.854C413.95 487.747 414.968 488.609 415.047 489.706L414.968 499.266Z" fill="#D6D3D1"/>
<path d="M385.989 504.673C385.832 505.065 385.519 505.3 385.127 505.378C385.049 505.378 385.049 505.378 384.971 505.065H361.317C360.847 505.378 360.143 505.065 360.143 504.673V504.36C360.143 503.968 360.847 503.576 361.317 503.498H384.971C385.362 503.576 385.597 503.889 385.676 504.203C385.676 504.281 385.676 504.281 385.91 504.36L385.989 504.673Z" fill="#D6D3D1"/>
<path d="M385.989 507.729C385.832 508.121 385.519 508.435 385.127 508.513C385.127 508.513 385.049 508.513 385.049 508.199H361.317C360.847 508.513 360.143 508.199 360.143 507.729V507.416C360.143 507.024 360.847 506.711 361.317 506.632H384.971C385.362 506.711 385.754 507.024 385.91 507.416L385.989 507.729Z" fill="#D6D3D1"/>
<path d="M385.989 510.864C385.832 511.334 385.441 511.647 385.049 511.726C385.049 511.569 385.049 511.491 385.049 511.334H361.317C360.926 511.569 360.456 511.491 360.221 511.099C360.143 511.02 360.143 510.942 360.143 510.864V510.55C360.143 510.158 360.847 509.923 361.317 509.767H384.971C385.362 509.845 385.754 510.158 385.91 510.55L385.989 510.864Z" fill="#D6D3D1"/>
<path d="M385.989 513.92C385.754 514.39 385.441 514.86 385.049 515.252H361.317C360.847 514.86 360.143 514.39 360.143 513.92V513.606C360.143 513.215 360.847 512.744 361.317 512.901H384.971C385.284 512.823 385.597 513.058 385.676 513.371C385.676 513.45 385.676 513.528 385.676 513.606C385.676 513.606 385.676 513.606 385.91 513.685L385.989 513.92Z" fill="#D6D3D1"/>
<path d="M372.831 517.054C372.831 517.446 372.596 517.603 372.126 517.603H361.239C360.769 517.603 360.143 517.446 360.143 517.054V516.741C360.143 516.349 360.769 516.036 361.239 516.036H372.126C372.517 516.036 372.831 516.349 372.831 516.741V517.054Z" fill="#D6D3D1"/>
<path d="M414.968 504.673C414.498 505.065 414.576 505.378 414.106 505.065H390.453C390.062 505.378 389.67 505.143 389.67 504.751C389.67 504.751 389.67 504.751 389.905 504.673V504.36C389.67 503.968 389.983 503.576 390.453 503.498H414.106C414.576 503.654 414.498 503.968 414.968 504.36V504.673Z" fill="#D6D3D1"/>
<path d="M414.968 507.729C414.498 508.121 414.576 508.513 414.107 508.199H390.453C389.983 508.513 389.67 508.199 389.905 507.729V507.416C389.67 507.024 389.983 506.711 390.453 506.632H414.107C414.576 506.789 414.498 507.024 414.968 507.416V507.729Z" fill="#D6D3D1"/>
<path d="M414.968 510.864C414.498 511.256 414.576 511.726 414.107 511.334H390.453C389.983 511.647 389.67 511.334 389.905 510.864V510.55C389.67 510.158 389.983 509.923 390.453 509.767H414.107C414.576 509.923 414.498 510.158 414.968 510.55V510.864Z" fill="#D6D3D1"/>
<path d="M414.969 513.92C414.499 514.312 414.577 514.86 414.107 515.252H390.454C389.984 514.782 389.671 514.39 389.906 513.92V513.606C389.749 513.45 389.749 513.136 389.906 512.98C390.062 512.901 390.219 512.823 390.376 512.901H414.107C414.577 512.744 414.499 513.215 414.969 513.606V513.92Z" fill="#D6D3D1"/>
<path d="M401.967 517.054C401.967 517.446 401.967 517.603 401.575 517.603H390.61C390.14 517.603 389.905 517.446 389.905 517.054V516.741C389.905 516.349 390.219 516.036 390.61 516.036H401.497C401.967 516.036 401.889 516.349 401.889 516.741L401.967 517.054Z" fill="#D6D3D1"/>
<path d="M357.01 504.673C357.324 505.065 357.167 505.378 356.697 505.065H332.965C332.652 505.3 332.261 505.222 332.104 504.987C332.026 504.908 332.026 504.83 331.947 504.673V504.36C332.104 503.889 332.496 503.576 332.965 503.498H356.619C357.089 503.654 357.245 503.968 356.932 504.36L357.01 504.673Z" fill="#D6D3D1"/>
<path d="M357.01 507.729C357.324 508.121 357.167 508.513 356.697 508.199H332.965C332.496 508.591 332.104 508.199 331.947 507.729V507.416C332.026 507.024 332.496 506.711 332.965 506.632H356.619C357.089 506.789 357.245 507.024 356.932 507.416L357.01 507.729Z" fill="#D6D3D1"/>
<path d="M357.01 510.864C357.324 511.256 357.167 511.726 356.697 511.334H332.965C332.496 511.726 332.104 511.334 331.947 510.864V510.55C332.026 510.158 332.496 509.923 332.965 509.767H356.619C357.089 509.923 357.245 510.158 356.932 510.55L357.01 510.864Z" fill="#D6D3D1"/>
<path d="M349.961 512.901H356.697C357.167 512.744 357.324 513.215 357.01 513.606V513.92C357.324 514.312 357.167 514.86 356.697 515.252H332.965C332.496 514.939 332.182 514.468 331.947 513.92V513.606C332.026 513.136 332.496 512.823 332.965 512.901H349.961Z" fill="#D6D3D1"/>
<path d="M345.262 517.054C345.262 517.446 345.027 517.603 344.557 517.603H332.809C332.339 517.603 331.947 517.446 331.947 517.054V516.741C332.026 516.349 332.417 516.036 332.809 516.036H344.557C344.949 516.036 345.262 516.349 345.262 516.663C345.262 516.663 345.262 516.663 345.262 516.741V517.054Z" fill="#D6D3D1"/>
<path d="M95.2587 767.108C95.2587 767.108 102.151 729.651 65.8097 709.59C29.5466 689.529 27.8236 689.765 20.6179 687.492C16.4669 686.082 12.2375 689.059 17.0151 695.015C21.7928 701.049 19.0515 702.538 28.6068 705.202C38.162 707.866 39.5718 719.464 44.3495 722.363C49.1271 725.263 53.2782 726.046 67.846 732.315C81.0824 738.036 92.3608 754.178 92.3608 759.82C92.3608 765.462 105.284 767.421 105.284 767.421L95.2587 767.108Z" fill="url(#paint0_linear_91174_7573)"/>
<path d="M94.0059 761.858C94.0059 761.858 103.248 727.378 71.4492 708.728C39.6505 690.078 28.6071 690.313 22.263 688.041C18.6602 686.708 28.5288 691.253 32.6799 696.739C36.8309 702.302 35.8127 701.049 43.2533 705.124C51.8687 709.904 55.4715 714.527 60.5624 715.467C67.9247 716.878 65.7317 724.557 78.4982 730.278C90.0115 735.528 91.4996 749.555 91.4996 754.805C91.4996 760.134 102.778 761.858 102.778 761.858H94.0059Z" fill="url(#paint1_linear_91174_7573)"/>
<path d="M125.961 756.764L129.564 753.316C131.287 751.749 133.402 750.574 135.673 749.947C146.873 746.969 182.196 735.92 196.842 709.198C196.999 708.963 196.842 708.65 196.607 708.571H196.529C196.451 708.571 196.372 708.493 196.372 708.493C191.516 708.101 166.375 707.709 132.775 736.39C132.148 736.86 131.6 737.487 131.13 738.036C130.269 739.211 128.859 741.248 128.232 742.267C127.371 743.834 129.094 746.42 126.744 748.693C124.395 750.965 119.304 756.686 119.304 756.686L123.455 759.742L125.961 756.764Z" fill="url(#paint2_linear_91174_7573)"/>
<path d="M106.85 754.57C106.85 754.57 116.484 668.293 90.1679 641.18C65.9664 616.261 65.5748 639.143 65.6531 643.061C65.6531 643.452 65.8098 643.688 65.8881 644.001C71.6056 654.658 73.5636 666.961 71.5273 678.872C69.021 691.332 86.8783 689.686 88.4448 701.989C90.0112 714.292 96.1987 733.256 95.5721 741.954C94.9455 750.652 94.8672 759.115 94.8672 759.115L104.579 759.428L106.85 754.57Z" fill="url(#paint3_linear_91174_7573)"/>
<path d="M106.772 754.805C106.851 754.648 106.929 754.413 106.929 754.178C107.555 748.536 115.623 667.275 90.2463 641.102C66.2015 616.261 65.8099 638.751 65.9665 642.826C66.0448 643.296 66.2798 643.766 66.5148 644.158C68.3162 646.744 76.2267 658.028 83.2757 656.774C102.778 653.326 85.547 676.756 96.1205 689.294C104.579 699.168 101.76 733.334 101.133 742.11C100.741 747.047 99.8799 751.906 98.6268 756.686C98.3918 757.94 99.2533 759.115 100.428 759.35C100.506 759.35 100.585 759.35 100.585 759.35C100.741 759.35 100.898 759.429 101.055 759.429H102.856C103.953 759.507 104.893 758.958 105.362 758.018L106.772 754.805Z" fill="url(#paint4_linear_91174_7573)"/>
<path d="M116.249 759.82C116.249 759.82 117.972 735.92 131.913 721.344C135.829 717.348 140.764 714.605 146.168 713.352C150.319 712.411 157.133 709.042 163.085 697.836C163.085 697.836 174.285 681.928 185.564 677.148C196.764 672.29 185.564 671.741 185.564 671.741C185.564 671.741 153.452 677.853 132.853 696.66C131.522 697.836 130.19 698.933 128.702 699.873C123.376 703.556 108.573 717.27 109.2 757.469L116.249 759.82Z" fill="url(#paint5_linear_91174_7573)"/>
<path d="M144.131 757.94C144.131 757.94 144.601 755.04 140.764 755.119C137.396 755.275 80.6907 754.805 80.6907 754.805C80.6907 754.805 78.0277 754.805 78.1844 756.843C78.341 758.88 86.9564 806.132 87.7397 807.073C88.1313 807.7 88.6795 808.17 89.3844 808.326C90.4809 808.64 130.268 808.405 130.268 808.405C131.208 808.248 131.913 807.543 131.992 806.603C131.992 806.603 144.21 758.488 144.131 757.94Z" fill="#57534E"/>
<path d="M723.321 801.744C721.207 792.811 720.502 781.37 719.092 781.135H717.526L702.566 781.292C702.566 781.292 699.433 795.554 697.867 801.509C697.71 801.901 697.475 802.92 697.162 803.625C696.849 804.643 696.849 805.741 696.849 806.759C697.162 812.166 699.277 816.79 704.054 819.219C709.458 821.883 713.531 824.469 719.014 819.219C724.575 813.89 725.436 810.677 723.321 801.744Z" fill="#1C1917"/>
<path d="M675.937 782.545L656.983 783.564C656.983 783.564 649.464 796.572 638.499 799.707C628.16 802.684 611.086 809.894 618.683 813.969C624.323 817.26 660.821 814.282 669.671 814.987C676.328 815.536 678.13 811.461 677.425 802.528C676.955 795.789 675.937 782.545 675.937 782.545Z" fill="#1C1917"/>
<path d="M653.223 545.813C653.223 545.813 640.535 650.427 639.674 657.244C638.812 664.062 644.06 698.933 644.06 705.594C644.06 712.254 656.513 783.642 656.513 783.642L676.328 782.78C676.328 782.78 672.334 677.697 672.804 672.603C673.195 667.51 694.891 606.544 694.891 606.544C694.891 606.544 696.457 622.687 696.457 627.78C696.457 632.874 702.41 781.527 702.41 781.527H719.64L744.077 562.583L743.685 558.351L653.223 545.813Z" fill="#78716C"/>
<path d="M711.417 343.717C711.417 343.717 692.463 351.083 688.233 352.729C684.004 354.453 681.576 359.625 681.576 359.625C681.576 359.625 679.461 358.371 679.461 361.897C679.461 365.424 681.184 373.495 682.594 375.611C684.866 379.137 686.824 382.663 688.703 386.346C690.426 390.029 689.8 397.63 687.998 398.806C686.197 399.903 654.242 428.819 654.242 428.819L627.612 510.707L631.137 536.566L636.541 562.034C636.541 562.034 635.444 563.837 637.637 566.031C639.909 568.146 649.542 583.976 649.542 583.976L652.832 560.624L641.945 525.988L638.107 496.837L663.562 444.804L751.753 460.477L761.386 517.211L743.529 565.56L740.396 589.148L755.355 575.983C756.217 575.277 757.862 571.594 758.723 569.635L767.652 544.481L774.309 504.281C774.309 504.281 718.622 403.899 715.803 397.944C714.55 395.28 715.959 388.775 716.664 385.484C717.369 382.506 718.779 378.667 720.189 377.57C722.303 375.297 723.322 372.084 723.87 369.107C723.87 366.991 724.731 358.763 722.617 360.8C722.225 361.349 720.659 358.841 719.954 355.55C718.622 350.77 715.255 346.773 711.417 343.717Z" fill="url(#paint6_linear_91174_7573)"/>
<path d="M704.211 425.606C702.801 426.859 700.687 426.703 699.433 425.449C698.415 423.882 697.475 422.314 696.77 420.747C695.361 417.926 684.474 401.94 684.474 401.94C684.474 401.94 658.628 408.601 654.477 411.265C650.247 414.086 646.41 417.926 645 422.863C643.59 427.8 623.618 485.945 622.678 489.471C621.66 492.997 616.569 498.639 618.997 512.979C621.425 527.32 634.818 563.915 636.228 564.307C637.637 564.699 651.892 557.646 651.892 557.646C651.892 557.646 640.614 512.117 640.614 507.572C640.614 503.027 650.796 490.176 654.868 481.4C658.941 472.623 661.917 465.022 663.327 461.182C664.737 457.342 651.187 536.88 651.187 536.88C651.187 536.88 650.874 551.299 653.615 552.709C656.121 553.963 686.51 565.56 693.638 568.303C694.342 568.617 695.204 568.146 695.596 567.441L700.138 554.59C700.138 554.433 700.295 554.276 700.452 554.433C700.608 554.433 700.608 554.59 700.608 554.59L704.838 568.617C704.994 569.322 705.856 569.714 706.561 569.635L743.999 561.564C743.999 561.564 743.45 492.449 744.155 480.851C744.703 469.567 743.294 463.141 745.408 466.276C747.68 469.645 757.157 500.755 757.157 506.005C757.157 511.256 746.583 557.176 746.583 557.176L760.603 564.934C760.603 564.934 779.557 514.468 780.497 507.808C781.515 501.147 781.906 497.621 778.773 490.96C775.641 484.299 758.41 423.96 758.41 423.96C758.41 423.96 756.687 416.594 743.999 412.754C731.31 408.915 721.834 403.272 719.562 403.429C717.291 403.586 710.242 416.829 707.109 420.826C705.621 422.314 705.934 423.02 704.211 425.606Z" fill="#292524"/>
<path d="M711.26 343.796C711.26 343.796 689.878 351.553 685.57 354.845C682.281 357.274 681.576 359.546 681.576 359.546C681.576 359.546 679.305 358.528 679.461 361.819C679.618 365.11 676.955 356.725 676.172 354.061C675.624 351.397 675.467 343.874 681.263 338.389C687.059 332.903 693.403 328.75 698.807 329.064C704.211 329.377 708.597 330.866 712.826 335.019C717.056 339.094 718.074 338.859 718.936 339.251C719.797 339.642 724.183 344.344 724.731 349.438C725.28 354.531 723.713 362.054 723.713 362.054C723.713 362.054 722.695 360.957 721.598 361.741C720.502 362.524 720.189 356.96 716.508 349.986C713.845 344.814 711.26 343.796 711.26 343.796Z" fill="#1C1917"/>
<path opacity="0.07" d="M697.711 595.808C695.283 602.861 685.806 616.731 679.618 625.116C673.431 633.422 654.32 650.975 655.573 672.368C656.827 693.761 669.671 748.771 669.671 753.708C669.671 758.645 664.894 781.997 661.213 789.206C657.532 796.415 655.808 809.267 657.688 809.267C661.056 809.11 664.58 808.718 668.027 807.856C671.16 807.151 674.214 806.446 677.19 805.427C678.443 804.879 678.757 800.725 678.757 800.725C678.913 799.001 678.6 797.199 678.208 795.632C677.347 792.968 676.642 790.225 676.25 787.561C675.546 767.5 673.744 720.953 674.136 717.662C674.841 711.549 669.906 680.91 674.449 665.786C678.913 650.74 697.711 595.808 697.711 595.808Z" fill="black"/>
<path opacity="0.07" d="M651.892 557.646L648.603 582.8C648.603 582.8 651.892 588.05 652.832 583.662C653.85 579.274 660.586 571.046 656.356 565.169C652.127 559.292 651.892 557.646 651.892 557.646Z" fill="black"/>
<path opacity="0.07" d="M743.763 564.62L742.667 576.61L741.257 588.207C741.257 588.207 736.479 591.734 736.557 587.188C736.714 582.643 728.49 575.904 734.756 571.359C741.022 566.814 743.763 564.62 743.763 564.62Z" fill="black"/>
<path opacity="0.07" d="M684.317 402.097C685.178 401.94 680.244 403.194 684.63 401.784C692.149 399.354 689.016 385.249 689.016 385.249C689.016 385.249 689.721 390.499 696.77 392.615C703.819 394.731 705.699 393.164 695.047 398.101C684.473 403.037 689.956 404.761 690.661 411.265" fill="black"/>
<path opacity="0.07" d="M663.091 466.041L651.187 538.134C651.187 538.134 651.343 550.985 653.615 552.866C655.886 554.668 663.483 556 665.206 557.254C666.929 558.508 685.257 564.62 680.479 554.276C679.382 552.004 654.633 538.134 665.676 523.558C676.719 508.983 674.683 488.922 669.514 474.895C666.381 466.667 664.815 457.891 665.284 449.193L663.091 466.041Z" fill="black"/>
</g>
<defs>
<linearGradient id="paint0_linear_91174_7573" x1="15.0037" y1="727.212" x2="105.462" y2="727.212" gradientUnits="userSpaceOnUse">
<stop stop-color="#93FD93"/>
<stop offset="0.51" stop-color="#21C2C1"/>
<stop offset="1" stop-color="#84F599"/>
</linearGradient>
<linearGradient id="paint1_linear_91174_7573" x1="48.8979" y1="698.629" x2="100.328" y2="761.651" gradientUnits="userSpaceOnUse">
<stop stop-color="#93FD93"/>
<stop offset="0.51" stop-color="#21C2C1"/>
<stop offset="1" stop-color="#84F599"/>
</linearGradient>
<linearGradient id="paint2_linear_91174_7573" x1="108.082" y1="769.923" x2="178.771" y2="715.255" gradientUnits="userSpaceOnUse">
<stop stop-color="#93FD93"/>
<stop offset="0.51" stop-color="#21C2C1"/>
<stop offset="1" stop-color="#84F599"/>
</linearGradient>
<linearGradient id="paint3_linear_91174_7573" x1="125.846" y1="742.141" x2="65.1155" y2="665.3" gradientUnits="userSpaceOnUse">
<stop stop-color="#93FD93"/>
<stop offset="0.51" stop-color="#21C2C1"/>
<stop offset="1" stop-color="#84F599"/>
</linearGradient>
<linearGradient id="paint4_linear_91174_7573" x1="65.9229" y1="694.504" x2="108.625" y2="694.504" gradientUnits="userSpaceOnUse">
<stop stop-color="#93FD93"/>
<stop offset="0.51" stop-color="#21C2C1"/>
<stop offset="1" stop-color="#84F599"/>
</linearGradient>
<linearGradient id="paint5_linear_91174_7573" x1="104.964" y1="764.307" x2="151.254" y2="697.397" gradientUnits="userSpaceOnUse">
<stop stop-color="#93FD93"/>
<stop offset="0.51" stop-color="#21C2C1"/>
<stop offset="1" stop-color="#84F599"/>
</linearGradient>
<linearGradient id="paint6_linear_91174_7573" x1="627.614" y1="466.443" x2="774.331" y2="466.443" gradientUnits="userSpaceOnUse">
<stop stop-color="#F87B58"/>
<stop offset="0.41" stop-color="#F89453"/>
<stop offset="0.71" stop-color="#F8C548"/>
<stop offset="1" stop-color="#F89C51"/>
</linearGradient>
<clipPath id="clip0_91174_7573">
<rect width="963" height="666" fill="white" transform="translate(30 179)"/>
</clipPath>
</defs>
</svg>
