<svg width="1024" height="1024" viewBox="0 0 1024 1024" fill="none" xmlns="http://www.w3.org/2000/svg">
<rect width="1024" height="1024" fill="white"/>
<g clip-path="url(#clip0_91125_4797)">
<path d="M440.01 518.237C440.01 518.237 408.252 632.111 416.994 669.712C424.845 703.749 441.437 721.57 451.785 725.312C462.133 729.055 580.065 725.312 580.065 725.312" fill="white"/>
<path d="M580.243 725.49C580.243 725.49 607.898 699.294 612.18 670.603C616.462 641.199 620.387 568.491 593.981 523.583C578.459 497.209 437.155 520.554 437.155 520.554" fill="white"/>
<path d="M503.704 651.179C503.704 651.179 516.55 657.594 518.155 650.288C519.761 642.981 505.309 591.836 510.127 587.916C514.944 583.995 518.869 571.877 538.138 581.5C557.406 591.123 580.6 643.872 580.6 665.435C580.6 686.998 581.492 708.561 570.252 724.599C559.012 740.638 479.796 726.203 479.796 726.203C479.796 726.203 460.528 710.165 463.025 678.266C465.523 646.367 472.66 632.645 475.871 628.725C479.083 624.804 484.613 620.706 490.323 627.834C496.032 634.962 503.704 651.179 503.704 651.179Z" fill="url(#paint0_linear_91125_4797)"/>
<path d="M386.842 432.698C386.842 432.698 373.997 374.069 388.27 342.705C402.543 311.34 412.356 269.819 414.853 252.176C417.351 234.534 421.276 161.648 432.516 147.391C443.757 133.135 455.353 89.8308 500.135 87.3359L500.849 77.1782C500.849 77.1782 462.847 75.5744 430.197 118.344C397.547 161.113 404.684 236.85 402.721 250.216C400.759 263.581 380.063 325.419 374.532 337.18C369.001 348.942 362.221 395.275 369.179 425.748C376.138 456.222 381.49 444.46 381.49 444.46L386.842 432.698Z" fill="#44403C"/>
<path d="M637.336 432.698C637.336 432.698 652.858 374.069 635.552 342.705C618.246 311.34 606.292 269.818 603.259 252.176C600.226 234.534 595.587 161.648 581.849 147.391C568.111 133.135 554.552 89.8308 500.314 87.3359L500.849 77C500.849 77 545.631 75.5743 585.061 118.344C624.49 161.113 616.105 236.85 618.424 250.216C620.743 263.581 645.9 325.419 652.501 337.358C659.103 349.298 667.488 395.453 659.103 425.927C650.717 456.4 644.116 444.638 644.116 444.638L637.336 432.698Z" fill="#44403C"/>
<path d="M510.662 723.886L510.484 946.643H373.104C373.104 946.643 367.93 930.961 384.88 924.902C401.829 918.843 398.618 902.448 398.975 895.142C399.153 890.331 400.58 866.986 388.448 862.887C376.316 858.788 358.118 860.927 344.201 847.383C327.966 831.523 325.289 792.674 326.36 775.031C328.144 744.024 335.102 659.911 339.027 633.358C342.596 609.122 358.296 505.941 360.437 497.209C363.292 485.626 374.71 432.164 401.472 420.046C428.235 407.928 433.409 411.848 438.761 411.314C444.113 410.779 445.362 401.156 445.362 395.097C445.362 389.038 450.001 384.405 457.494 384.405C463.204 384.405 467.842 379.95 468.199 374.425C468.199 371.039 460.884 344.308 470.876 339.853C485.327 334.685 500.849 333.616 515.836 337.002L517.442 515.564C517.442 515.564 503.882 513.604 471.589 519.485C451.964 523.049 438.583 526.078 430.554 521.267C421.098 515.386 429.662 504.337 432.873 500.595C436.798 495.961 437.69 486.16 436.977 479.388C436.263 472.616 439.118 464.241 431.981 462.102C425.737 460.142 421.99 464.419 417.351 473.864C411.999 484.913 406.111 536.414 399.867 565.996C393.801 594.153 380.598 689.849 374.532 742.954C369.358 788.931 372.748 808.178 392.373 817.266C403.97 822.612 418.065 822.612 426.094 817.266C434.122 811.92 430.554 785.724 442.508 778.239C454.461 770.754 441.972 757.745 438.583 754.36C435.193 750.974 419.492 723.174 441.08 722.461C462.133 721.392 510.662 723.886 510.662 723.886Z" fill="url(#paint1_linear_91125_4797)"/>
<path d="M510.662 724.065L509.948 947L653.393 946.644C653.393 946.644 658.211 930.962 642.332 924.903C626.453 918.844 629.307 902.449 628.951 895.142C628.772 890.331 627.523 866.986 638.942 862.887C650.36 858.788 667.666 860.927 680.869 847.383C696.213 831.523 698.889 792.674 697.818 775.032C696.034 744.024 689.433 659.911 685.865 633.358C682.475 609.122 667.666 505.941 665.526 497.209C662.849 485.626 652.144 432.164 626.631 420.046C601.118 407.928 596.479 412.027 591.305 411.314C586.131 410.601 585.061 401.156 585.061 395.097C585.061 389.038 580.6 384.405 573.642 384.405C566.684 384.405 563.473 377.633 563.473 374.425C563.473 371.218 570.252 344.309 560.975 339.853C546.345 334.685 530.644 333.794 515.479 337.002L517.085 515.564C517.085 515.564 529.931 513.604 560.439 519.485C578.995 523.049 591.662 526.078 599.334 521.267C608.433 515.386 600.226 504.337 597.193 500.595C593.625 495.962 592.554 486.16 593.268 479.388C593.981 472.617 591.305 464.241 598.085 462.103C603.973 460.142 607.541 464.419 611.823 473.864C616.818 484.913 622.528 536.414 628.415 565.996C634.125 594.153 646.614 689.849 652.323 742.955C657.318 788.932 654.107 808.178 635.373 817.266C624.312 822.613 611.109 822.613 603.437 817.266C595.766 811.92 599.334 785.724 587.737 778.239C576.14 770.755 588.272 757.746 591.305 754.36C594.338 750.974 609.325 723.174 588.986 722.461C569.182 721.392 510.662 724.065 510.662 724.065Z" fill="url(#paint2_linear_91125_4797)"/>
</g>
<defs>
<linearGradient id="paint0_linear_91125_4797" x1="462.641" y1="655.123" x2="580.577" y2="655.123" gradientUnits="userSpaceOnUse">
<stop stop-color="#F8C547"/>
<stop offset="0.51" stop-color="#F71D69"/>
<stop offset="1" stop-color="#F8B14B"/>
</linearGradient>
<linearGradient id="paint1_linear_91125_4797" x1="326.069" y1="640.746" x2="517.156" y2="640.746" gradientUnits="userSpaceOnUse">
<stop stop-color="#44403C"/>
<stop offset="1" stop-color="#1C1917"/>
</linearGradient>
<linearGradient id="paint2_linear_91125_4797" x1="326.069" y1="640.747" x2="517.156" y2="640.747" gradientUnits="userSpaceOnUse">
<stop stop-color="#44403C"/>
<stop offset="1" stop-color="#1C1917"/>
</linearGradient>
<clipPath id="clip0_91125_4797">
<rect width="372" height="870" fill="white" transform="translate(326 77)"/>
</clipPath>
</defs>
</svg>
