<svg width="1024" height="1024" viewBox="0 0 1024 1024" fill="none" xmlns="http://www.w3.org/2000/svg">
<rect width="1024" height="1024" fill="white"/>
<g clip-path="url(#clip0_91149_5516)">
<path d="M416.303 206.4L530.259 197.981L553.698 495.656H449.474L416.303 206.4Z" fill="#F5F5F4"/>
<path d="M480.342 257.021L433.243 260.732L433.801 267.797L480.9 264.086L480.342 257.021Z" fill="#57534E"/>
<path d="M467.199 279.078L436.761 281.477L437.319 288.541L467.757 286.143L467.199 279.078Z" fill="#57534E"/>
<path d="M468.762 298.622L438.324 301.021L438.882 308.085L469.32 305.686L468.762 298.622Z" fill="#57534E"/>
<path d="M490.698 341.405L443.599 345.116L444.157 352.18L491.256 348.469L490.698 341.405Z" fill="#57534E"/>
<path d="M470.056 320.194L439.619 322.592L440.176 329.656L470.614 327.258L470.056 320.194Z" fill="#57534E"/>
<path d="M477.187 364.536L446.749 366.935L447.307 373.999L477.744 371.601L477.187 364.536Z" fill="#57534E"/>
<path d="M479.271 388.562L448.833 390.96L449.391 398.024L479.828 395.626L479.271 388.562Z" fill="#57534E"/>
<path d="M499.062 430.692L451.963 434.403L452.521 441.468L499.62 437.757L499.062 430.692Z" fill="#57534E"/>
<path d="M481.662 410.018L451.224 412.416L451.782 419.48L482.219 417.082L481.662 410.018Z" fill="#57534E"/>
<path d="M486.141 471.44L455.703 473.838L456.261 480.902L486.698 478.504L486.141 471.44Z" fill="url(#paint0_linear_91149_5516)"/>
<path d="M486.143 490.937L455.706 493.335L456.263 500.399L486.701 498.001L486.143 490.937Z" fill="url(#paint1_linear_91149_5516)"/>
<path d="M484.843 450.572L454.405 452.971L454.963 460.035L485.401 457.637L484.843 450.572Z" fill="url(#paint2_linear_91149_5516)"/>
<path d="M347.606 495.627H642.144C646.007 495.631 649.822 496.488 653.314 498.137C656.807 499.787 659.891 502.187 662.345 505.167C664.799 508.147 666.563 511.633 667.511 515.374C668.458 519.115 668.565 523.019 667.824 526.806L579.69 966.855C578.512 972.761 575.325 978.079 570.671 981.907C566.017 985.734 560.181 987.837 554.152 987.858H428.022C421.896 987.865 415.961 985.724 411.252 981.808C406.544 977.892 403.361 972.45 402.257 966.43L321.813 526.466C321.121 522.693 321.27 518.815 322.248 515.106C323.226 511.397 325.009 507.948 327.47 505.005C329.932 502.062 333.012 499.696 336.492 498.075C339.972 496.454 343.767 495.618 347.606 495.627Z" fill="url(#paint3_linear_91149_5516)"/>
<path opacity="0.1" d="M552.109 987.972H439.061C439.061 987.972 528.131 965.835 545.582 847.355C563.033 728.875 652.586 544.777 668.307 521.393C667.853 523.66 668.08 525.701 667.626 527.969C650.004 615.61 634.171 685.536 631.929 703.705C625.999 752.145 602.589 817.65 581.988 951.067C581.988 951.861 581.648 952.995 581.591 954.384C580.286 980.744 566.268 987.972 552.109 987.972Z" fill="black"/>
<path d="M294.005 243.106L371.272 495.656H432.648L350.103 221.961L294.005 243.106Z" fill="url(#paint4_linear_91149_5516)"/>
<path d="M294.005 159.064V243.105L350.103 221.96L307.086 152.828L294.005 159.064Z" fill="#F5F5F4"/>
<path d="M294.005 159.064L307.086 152.828L294.005 137.891V159.064Z" fill="url(#paint5_linear_91149_5516)"/>
<path d="M598.106 495.656L668.307 262.409L598.106 249.427L563.658 495.656H598.106Z" fill="url(#paint6_linear_91149_5516)"/>
<path d="M598.105 249.426L607.952 206.428L674.067 218.843L668.307 262.408" fill="#F5F5F4"/>
<path d="M626.453 35C626.453 35 648.728 64.7618 615.982 102.687C583.237 140.612 581.761 148.832 607.952 206.399L674.067 218.843C674.067 218.843 726.42 206.598 729.797 155.238C733.514 100.986 686.694 55.9183 626.453 35Z" fill="url(#paint7_linear_91149_5516)"/>
<path d="M719.893 110.623C719.893 110.623 719.893 215.866 639.534 212.522L719.893 110.623Z" fill="#E7E5E4"/>
</g>
<defs>
<linearGradient id="paint0_linear_91149_5516" x1="452.74" y1="480.986" x2="483.388" y2="480.104" gradientUnits="userSpaceOnUse">
<stop stop-color="#57534E"/>
<stop offset="1" stop-color="#1C1917"/>
</linearGradient>
<linearGradient id="paint1_linear_91149_5516" x1="452.772" y1="500.529" x2="483.403" y2="499.647" gradientUnits="userSpaceOnUse">
<stop stop-color="#78716C"/>
<stop offset="1" stop-color="#1C1917"/>
</linearGradient>
<linearGradient id="paint2_linear_91149_5516" x1="451.422" y1="460.063" x2="482.071" y2="459.18" gradientUnits="userSpaceOnUse">
<stop stop-color="#57534E"/>
<stop offset="1" stop-color="#1C1917"/>
</linearGradient>
<linearGradient id="paint3_linear_91149_5516" x1="321.387" y1="741.799" x2="668.335" y2="741.799" gradientUnits="userSpaceOnUse">
<stop stop-color="#57534E"/>
<stop offset="1" stop-color="#1C1917"/>
</linearGradient>
<linearGradient id="paint4_linear_91149_5516" x1="294.005" y1="358.808" x2="432.648" y2="358.808" gradientUnits="userSpaceOnUse">
<stop stop-color="#57534E"/>
<stop offset="1" stop-color="#1C1917"/>
</linearGradient>
<linearGradient id="paint5_linear_91149_5516" x1="294.005" y1="148.463" x2="307.086" y2="148.463" gradientUnits="userSpaceOnUse">
<stop stop-color="#57534E"/>
<stop offset="1" stop-color="#1C1917"/>
</linearGradient>
<linearGradient id="paint6_linear_91149_5516" x1="568.964" y1="372.045" x2="663.426" y2="376.079" gradientUnits="userSpaceOnUse">
<stop stop-color="#57534E"/>
<stop offset="1" stop-color="#1C1917"/>
</linearGradient>
<linearGradient id="paint7_linear_91149_5516" x1="589.735" y1="126.921" x2="729.995" y2="126.921" gradientUnits="userSpaceOnUse">
<stop stop-color="#57534E"/>
<stop offset="1" stop-color="#1C1917"/>
</linearGradient>
<clipPath id="clip0_91149_5516">
<rect width="436" height="953" fill="white" transform="translate(294 35)"/>
</clipPath>
</defs>
</svg>
