<?xml version="1.0" encoding="UTF-8"?>
<svg width="600px" height="230px" viewBox="0 0 600 230" version="1.1" xmlns="http://www.w3.org/2000/svg" xmlns:xlink="http://www.w3.org/1999/xlink">
    <title>logo-netflix</title>
    <g id="logo-netflix" stroke="none" stroke-width="1" fill="none" fill-rule="evenodd">
        <g id="netflix-3" transform="translate(32.000000, 49.000000)" fill="#E50914" fill-rule="nonzero">
            <path d="M508.272965,69.0198319 L537,145 C528.533865,143.792095 520.072403,142.279003 511.456746,140.915879 L495.273842,98.9338721 L478.646459,137.450299 C470.48521,136.087175 462.468811,135.63319 454.306979,134.574668 L483.484333,68.1165288 L457.020581,0 L481.51484,0 L496.328093,38.0577734 L512.206111,0 L536.995327,0 L508.272965,69.0198319 Z M437.679595,0 L415.454459,0 L415.454459,131.708372 C422.711563,132.162941 430.267712,132.462292 437.679595,133.366179 L437.679595,0 Z M396.253067,130.195865 C375.997423,128.837409 355.735939,127.634171 335.025303,127.174934 L335.025303,0.000583529184 L357.70076,0.000583529184 L357.70076,105.729069 C370.704556,106.029003 383.703679,107.082857 396.253067,107.68681 L396.253067,130.195865 Z M310.831257,51.5087046 L310.831257,74.1624746 L279.840357,74.1624746 L279.840357,125.666511 L257.47037,125.666511 L257.47037,0 L320.966672,0 L320.966672,22.65377 L279.845029,22.65377 L279.845029,51.5092882 L310.83593,51.5092882 L310.831257,51.5087046 Z M219.367215,22.65377 L219.367215,126.875 C211.805809,126.875 204.099553,126.875 196.68767,127.174934 L196.68767,22.65377 L173.253503,22.65377 L173.253503,0 L242.946233,0 L242.946233,22.65377 L219.367215,22.65377 Z M148.7645,75.3662954 C138.788537,75.3662954 126.993772,75.3662954 118.527637,75.8255328 L118.527637,109.50392 C131.831647,108.595365 145.135656,107.541511 158.589188,107.087525 L158.589188,128.837409 L95.8527647,133.825416 L95.8527647,0 L158.5851,0 L158.5851,22.65377 L118.527053,22.65377 L118.527053,53.1665111 C127.298074,53.1665111 140.75219,52.7125254 148.763332,52.7125254 L148.763332,75.3709636 L148.7645,75.3662954 Z M23.1251928,62.6786203 L23.1251928,141.824434 C14.9686167,142.732989 7.70684007,143.791511 0,145 L0,0 L21.6206214,0 L51.0981895,82.3219632 L51.0981895,0 L73.7777348,0 L73.7777348,135.63319 C65.7660087,136.996314 57.6000874,137.450299 48.9838461,138.65412 L23.1251928,62.6786203 Z" id="Shape"></path>
        </g>
    </g>
</svg>