<?xml version="1.0" encoding="UTF-8"?>
<svg width="600px" height="230px" viewBox="0 0 600 230" version="1.1" xmlns="http://www.w3.org/2000/svg" xmlns:xlink="http://www.w3.org/1999/xlink">
    <title>logo-coinbase</title>
    <g id="logo-coinbase" stroke="none" stroke-width="1" fill="none" fill-rule="evenodd">
        <g id="coinbase-1" transform="translate(9.000000, 58.000000)" fill="#0052FF" fill-rule="nonzero">
            <path d="M117.462946,29.0348087 C96.3202498,29.0348087 79.800207,45.090096 79.800207,66.5834646 C79.800207,88.0768332 95.9028902,103.994715 117.462946,103.994715 C139.023002,103.994715 155.405686,87.8020225 155.405686,66.4460593 C155.405686,45.2275014 139.303003,29.0348087 117.462946,29.0348087 L117.462946,29.0348087 Z M117.605588,88.5049037 C105.565557,88.5049037 96.7428924,79.1507699 96.7428924,66.5887494 C96.7428924,53.8840388 105.422915,44.5351898 117.462946,44.5351898 C129.645619,44.5351898 138.463001,54.026729 138.463001,66.5887494 C138.463001,79.1507699 129.645619,88.5049037 117.605588,88.5049037 Z M160.023057,45.3701916 L170.525725,45.3701916 L170.525725,102.604807 L187.325769,102.604807 L187.325769,30.4300015 L160.023057,30.4300015 L160.023057,45.3701916 Z M37.5200973,44.529905 C46.3427617,44.529905 53.3427799,49.973271 56.0001452,58.0696174 L73.7828329,58.0696174 C70.560183,40.7618273 56.280146,29.0348087 37.6627392,29.0348087 C16.5200428,29.0348087 0,45.090096 0,66.5887494 C0,88.0874028 16.1026833,104 37.6627392,104 C55.8627864,104 70.4228242,92.2729814 73.645474,74.8225011 L56.0001452,74.8225011 C53.4801387,82.9188475 46.4801205,88.5049037 37.6574562,88.5049037 C25.4747831,88.5049037 16.9374024,79.1507699 16.9374024,66.5887494 C16.9426855,53.8840388 25.3427072,44.529905 37.5200973,44.529905 Z M479.23445,59.6075004 L466.914419,57.7948066 C461.034403,56.9598049 456.834392,55.004421 456.834392,50.3960567 C456.834392,45.3701916 462.297048,42.8599014 469.714426,42.8599014 C477.834447,42.8599014 483.017102,46.3478835 484.137105,52.0713451 L500.377147,52.0713451 C498.554501,37.5539407 487.354472,29.0400935 470.137068,29.0400935 C452.354381,29.0400935 440.59435,38.1141318 440.59435,50.9562478 C440.59435,63.2381727 448.297012,70.3621119 463.834411,72.5923065 L476.154442,74.4050003 C482.1771,75.240002 485.537108,77.6181717 485.537108,82.0838457 C485.537108,87.8073073 479.657093,90.1801921 471.537072,90.1801921 C461.594405,90.1801921 455.99439,86.1320189 455.154388,79.9910565 L438.634345,79.9910565 C440.176991,94.0909599 451.234378,104 471.39443,104 C489.737119,104 501.914509,95.6235581 501.914509,81.2435591 C501.914509,68.4014432 493.097128,61.7002896 479.23445,59.6075004 L479.23445,59.6075004 Z M178.925747,0.697596423 C172.765731,0.697596423 168.143078,5.16327049 168.143078,11.3042329 C168.143078,17.4451954 172.760448,21.9108695 178.925747,21.9108695 C185.085763,21.9108695 189.708417,17.4451954 189.708417,11.3042329 C189.708417,5.16327049 185.085763,0.697596423 178.925747,0.697596423 Z M425.474311,55.1418263 C425.474311,39.5093247 415.954286,29.0400935 395.794234,29.0400935 C376.754185,29.0400935 366.114157,38.6743229 364.01151,53.4718228 L380.674195,53.4718228 C381.514197,47.7483612 385.994209,43.0025916 395.514233,43.0025916 C404.056897,43.0025916 408.256908,46.7706692 408.256908,51.3790335 C408.256908,57.3825906 400.554246,58.9151888 391.034222,59.8928807 C378.154188,61.2880736 362.194147,65.7537476 362.194147,82.5066314 C362.194147,95.4914376 371.856813,103.862595 387.256853,103.862595 C399.296885,103.862595 406.856904,98.8367295 410.639556,90.8777885 C411.199557,97.9964429 416.519571,102.604807 423.942232,102.604807 L433.742257,102.604807 L433.742257,87.6699019 L425.479594,87.6699019 L425.479594,55.1418263 L425.474311,55.1418263 Z M408.954268,73.2899029 C408.954268,82.9241323 400.554246,90.0427867 390.331578,90.0427867 C384.028921,90.0427867 378.708907,87.3898064 378.708907,81.809035 C378.708907,74.6903806 387.25157,72.7349967 395.091591,71.8999949 C402.65161,71.2023985 406.851621,69.5271101 408.954268,66.3139387 L408.954268,73.2899029 Z M319.771395,29.0348087 C310.38873,29.0348087 302.548709,32.9455765 296.948695,39.5040398 L296.948695,0 L280.148651,0 L280.148651,102.604807 L296.668694,102.604807 L296.668694,93.113268 C302.268708,99.9518268 310.251371,104 319.771395,104 C339.931448,104 355.194129,88.0874028 355.194129,66.5887494 C355.194129,45.090096 339.651447,29.0348087 319.771395,29.0348087 Z M317.251389,88.5049037 C305.211358,88.5049037 296.388693,79.1507699 296.388693,66.5887494 C296.388693,54.026729 305.348716,44.5351898 317.388748,44.5351898 C329.571421,44.5351898 338.108801,53.8893236 338.108801,66.5887494 C338.108801,79.1507699 329.29142,88.5049037 317.251389,88.5049037 Z M239.965905,29.0348087 C229.045877,29.0348087 221.903217,33.5004827 217.703206,39.7841354 L217.703206,30.4300015 L201.040521,30.4300015 L201.040521,102.599522 L217.840565,102.599522 L217.840565,63.375578 C217.840565,52.3461558 224.840583,44.529905 235.20061,44.529905 C244.863277,44.529905 250.880651,51.3684638 250.880651,61.2827888 L250.880651,102.604807 L267.680696,102.604807 L267.680696,60.0302861 C267.685977,41.8769246 258.308594,29.0348087 239.965905,29.0348087 L239.965905,29.0348087 Z M582,64.2158646 C582,43.5574978 566.879961,29.0400935 546.577267,29.0400935 C525.017211,29.0400935 509.194528,45.2327862 509.194528,66.5887494 C509.194528,89.0650948 526.137214,104 546.857267,104 C564.359954,104 578.07999,93.6681742 581.577357,79.0133645 L564.07467,79.0133645 C561.554664,85.4344225 555.394648,89.0650948 547.131985,89.0650948 C536.349316,89.0650948 528.229295,82.3639413 526.411931,70.6369226 L581.994717,70.6369226 L581.994717,64.2158646 L582,64.2158646 Z M527.394575,58.6298084 C530.057224,48.5780782 537.617243,43.6949032 546.297266,43.6949032 C555.817291,43.6949032 563.097309,49.1382692 564.777314,58.6298084 L527.394575,58.6298084 Z" id="Shape"></path>
        </g>
    </g>
</svg>