<?xml version="1.0" encoding="UTF-8"?>
<svg width="600px" height="230px" viewBox="0 0 600 230" version="1.1" xmlns="http://www.w3.org/2000/svg" xmlns:xlink="http://www.w3.org/1999/xlink">
    <title>logo-spotify</title>
    <g id="logo-spotify" stroke="none" stroke-width="1" fill="none" fill-rule="evenodd">
        <g id="spotify-logo-with-text-1" transform="translate(21.000000, 31.000000)" fill="#1ED760" fill-rule="nonzero">
            <path d="M83.743,4.88498131e-15 C37.494,4.88498131e-15 1.40998324e-14,37.493 1.40998324e-14,83.742 C1.40998324e-14,129.993 37.494,167.483 83.743,167.483 C129.997,167.483 167.487,129.993 167.487,83.742 C167.487,37.496 129.997,0.004 83.742,0.004 L83.743,4.88498131e-15 L83.743,4.88498131e-15 Z M122.147,120.78 C121.425265,121.962647 120.262745,122.809634 118.915812,123.134174 C117.568879,123.458713 116.148171,123.234147 114.967,122.51 C95.305,110.5 70.553,107.78 41.403,114.44 C38.5923566,115.079143 35.7953931,113.320131 35.154,110.51 C34.8441544,109.160458 35.0839449,107.74309 35.820473,106.570574 C36.5570012,105.398057 37.7297471,104.566735 39.08,104.26 C70.98,96.972 98.343,100.11 120.417,113.6 C122.877,115.11 123.657,118.32 122.147,120.78 L122.147,120.78 Z M132.397,97.978 C130.507,101.05 126.487,102.02 123.417,100.13 C100.907,86.294 66.594,82.287 39.969,90.369 C36.516,91.412 32.869,89.466 31.821,86.019 C30.7798086,82.5685547 32.7273084,78.9262738 36.175,77.876 C66.588,68.648 104.397,73.118 130.247,89.003 C133.317,90.893 134.287,94.913 132.397,97.979 L132.397,97.978 Z M133.277,74.234 C106.287,58.203 61.757,56.729 35.988,64.55 C31.85,65.805 27.474,63.469 26.22,59.331 C24.9643714,55.1911541 27.3015959,50.8170841 31.441,49.56 C61.022,40.58 110.197,42.315 141.271,60.762 C143.059642,61.8201079 144.353764,63.5464226 144.867811,65.5600232 C145.381858,67.5736239 145.07358,69.7090111 144.011,71.495 C141.811,75.217 136.991,76.444 133.281,74.234 L133.277,74.234 Z M227.837,77.306 C213.377,73.858 210.807,71.438 210.807,66.353 C210.807,61.549 215.327,58.316 222.057,58.316 C228.577,58.316 235.037,60.771 241.817,65.825 C242.017,65.978 242.277,66.039 242.527,65.999 C242.781169,65.962508 243.009064,65.8228775 243.157,65.613 L250.217,55.661 C250.506329,55.2514459 250.427523,54.6875437 250.037,54.373 C241.967,47.9 232.887,44.753 222.267,44.753 C206.657,44.753 195.747,54.122 195.747,67.527 C195.747,81.902 205.157,86.992 221.417,90.921 C235.247,94.108 237.587,96.778 237.587,101.55 C237.587,106.84 232.867,110.13 225.267,110.13 C216.827,110.13 209.937,107.28 202.237,100.62 C202.045018,100.457663 201.797988,100.375319 201.547,100.39 C201.287,100.41 201.057,100.53 200.897,100.72 L192.977,110.14 C192.647,110.54 192.687,111.12 193.067,111.46 C202.027,119.46 213.047,123.68 224.947,123.68 C241.767,123.68 252.637093,114.49 252.637093,100.26 C252.667,88.253 245.477,81.603 227.867,77.319 L227.837,77.306 Z M290.697,63.046 C283.407,63.046 277.427,65.918 272.487,71.803 L272.487,65.179 C272.489215,64.6574776 272.06852,64.2327547 271.547,64.23 L258.597,64.23 C258.077,64.23 257.657,64.656 257.657,65.179 L257.657,138.78 C257.657,139.3 258.077,139.73 258.597,139.73 L271.547,139.73 C272.067,139.73 272.487,139.3 272.487,138.78 L272.487,115.55 C277.427,121.08 283.407,123.79 290.697,123.79 C304.247,123.79 317.967022,113.36 317.967022,93.421 C317.987,73.478 304.267,63.045 290.707,63.045 L290.697,63.046 Z M302.907,93.421 C302.907,103.57 296.657,110.66 287.697,110.66 C278.847,110.66 272.167,103.25 272.167,93.421 C272.167,83.591 278.847,76.183 287.697,76.183 C296.507,76.182 302.907,83.43 302.907,93.42 L302.907,93.421 Z M353.117,63.046 C335.667,63.046 321.997,76.482 321.997,93.638 C321.997,110.61 335.577,123.9 352.907,123.9 C370.417,123.9 384.127,110.51 384.127,93.421 C384.127,76.39 370.507,63.048 353.117,63.048 L353.117,63.046 Z M353.117,110.76 C343.837,110.76 336.837,103.3 336.837,93.416 C336.837,83.487 343.597,76.282 352.907,76.282 C362.247,76.282 369.287,83.739 369.287,93.633 C369.287,103.56 362.487,110.76 353.117,110.76 L353.117,110.76 Z M421.387,64.23 L407.137,64.23 L407.137,49.664 C407.138063,49.413635 407.039624,49.1731021 406.86334,48.9953172 C406.687055,48.8175322 406.447365,48.7170586 406.197,48.716 L393.247,48.716 C392.727,48.716 392.297,49.142 392.297,49.664 L392.297,64.23 L386.077,64.23 C385.557,64.23 385.137,64.656 385.137,65.179 L385.137,76.306 C385.137,76.828 385.557,77.255 386.077,77.255 L392.297,77.255 L392.297,106.05 C392.297,117.68 398.087,123.58 409.517,123.58 C414.157,123.58 418.007,122.62 421.637,120.56 C421.937,120.4 422.117,120.08 422.117,119.74 L422.117,109.14 C422.117,108.82 421.947,108.51 421.667,108.34 C421.389681,108.162695 421.038661,108.147433 420.747,108.3 C418.257,109.55 415.847,110.13 413.147,110.13 C408.997,110.13 407.137,108.24 407.137,104.02 L407.137,77.26 L421.387,77.26 C421.907,77.26 422.327,76.834 422.327,76.311 L422.327,65.185 C422.335501,64.9341089 422.240885,64.6906815 422.065181,64.5113871 C421.889476,64.3320928 421.648012,64.2325745 421.397,64.236 L421.387,64.23 Z M471.027,64.287 L471.027,62.498 C471.027,57.235 473.047,54.888 477.567,54.888 C480.267,54.888 482.437,55.424 484.867,56.234 C485.167,56.328 485.477,56.281 485.717,56.102 C485.96412,55.9237177 486.109489,55.6367078 486.107,55.332 L486.107,44.422 C486.111838,44.0033392 485.838339,43.6322782 485.437,43.513 C482.877,42.75 479.597,41.967 474.677,41.967 C462.727,41.967 456.397,48.701 456.397,61.434 L456.397,64.174 L450.177,64.174 C449.657,64.174 449.227,64.6 449.227,65.122 L449.227,76.306 C449.227,76.828 449.657,77.255 450.177,77.255 L456.397,77.255 L456.397,121.66 C456.397,122.19 456.827,122.61 457.347,122.61 L470.287,122.61 C470.817,122.61 471.237,122.19 471.237,121.66 L471.237,77.258 L483.327,77.258 L501.847,121.66 C499.747,126.32 497.677,127.25 494.857,127.25 C492.577,127.25 490.167,126.57 487.717,125.22 C487.484805,125.10281 487.216871,125.077803 486.967,125.15 C486.717,125.24 486.507,125.42 486.407,125.66 L482.017,135.29 C481.807,135.75 481.987,136.28 482.427,136.52 C487.007,139 491.137,140.06 496.247,140.06 C505.807,140.06 511.097,135.6 515.747,123.62 L538.207,65.583 C538.325755,65.2914498 538.288078,64.9595169 538.107,64.702 C537.935521,64.4443879 537.646465,64.2897242 537.337,64.29 L523.857,64.29 C523.447,64.29 523.087,64.547 522.957,64.926 L509.147,104.36 L494.027,64.9 C493.888507,64.5338836 493.538433,64.2912191 493.147,64.29 L471.027,64.29 L471.027,64.287 Z M442.247,64.23 L429.297,64.23 C428.777,64.23 428.347,64.656 428.347,65.179 L428.347,121.66 C428.347,122.19 428.777,122.61 429.297,122.61 L442.247,122.61 C442.767,122.61 443.197002,122.19 443.197002,121.66 L443.197002,65.183 C443.197534,64.9309729 443.097584,64.6891292 442.91928,64.5110126 C442.740975,64.332896 442.499026,64.233201 442.247,64.234 L442.247,64.23 Z M435.847,38.511 C430.717,38.511 426.557,42.663 426.557,47.792 C426.557,52.924 430.717,57.081 435.847,57.081 C440.977,57.081 445.127,52.924 445.127,47.792 C445.127,42.664 440.967,38.511 435.847,38.511 Z M549.267,82.391 C544.147,82.391 540.157,78.276 540.157,73.279 C540.157,68.282 544.197,64.12 549.317,64.12 C554.437,64.12 558.427,68.234 558.427,73.227 C558.427,78.224 554.387,82.391 549.267,82.391 Z M549.317,65.026 C544.647,65.026 541.117,68.736 541.117,73.279 C541.117,77.82 544.627,81.48 549.267,81.48 C553.937,81.48 557.467,77.773 557.467,73.227 C557.467,68.686 553.957,65.026 549.317,65.026 L549.317,65.026 Z M551.337,74.164 L553.917,77.772 L551.737,77.772 L549.417,74.462 L547.427,74.462 L547.427,77.772 L545.607,77.772 L545.607,68.208 L549.867,68.208 C552.097,68.208 553.557,69.345 553.557,71.259 C553.567,72.827 552.657,73.785 551.347,74.164 L551.337,74.164 Z M549.797,69.849 L547.427,69.849 L547.427,72.874 L549.797,72.874 C550.977,72.874 551.687,72.295 551.687,71.36 C551.687,70.376 550.977,69.849 549.797,69.849 L549.797,69.849 Z" id="Shape"></path>
        </g>
    </g>
</svg>