<?xml version="1.0" encoding="UTF-8"?>
<svg width="600px" height="230px" viewBox="0 0 600 230" version="1.1" xmlns="http://www.w3.org/2000/svg" xmlns:xlink="http://www.w3.org/1999/xlink">
    <title>logo-shopify</title>
    <g id="logo-shopify" stroke="none" stroke-width="1" fill="none" fill-rule="evenodd">
        <g id="shopify-logo-2018" transform="translate(30.000000, 38.000000)" fill-rule="nonzero">
            <path d="M118.239093,29.0745165 C118.132345,28.408489 117.578732,27.9004596 116.898017,27.8438612 C116.34221,27.798561 105.450425,27.6349769 105.450425,27.6349769 C105.450425,27.6349769 96.3433428,18.9021054 95.4433428,18.0162348 C94.5433428,17.1278476 92.7866856,17.3946154 92.1033994,17.5959497 C92.0957507,17.600983 90.3951841,18.1194186 87.5294618,18.9952224 C86.9628046,17.163338 86.2289174,15.3859875 85.3368272,13.6850326 C82.0988669,7.57705583 77.3464589,4.34815837 71.609915,4.33809166 L71.5869688,4.33809166 C71.1892351,4.33809166 70.7966006,4.37584182 70.3963173,4.40855863 C70.2282956,4.20844827 70.0557306,4.01209765 69.8787535,3.81965605 C67.38017,1.17714449 64.1728045,-0.106361124 60.3331445,0.00688937181 C52.9240793,0.215773619 45.5430595,5.49828006 39.5592068,14.8804544 C35.3473088,21.4842167 32.1450425,29.7791863 31.2348442,36.2017477 L16.6487252,40.6638173 C12.3526912,41.9951397 12.2175637,42.1234903 11.6566572,46.1224911 C11.2385269,49.1425044 0,134.91843 0,134.91843 L94.1813031,151 L135,140.983623 C135,140.983623 118.343626,29.8370699 118.239093,29.0745165 Z M82.8101983,20.4372788 L75.5031161,22.6695719 C75.4470255,18.967539 75.0033994,13.8133831 73.2543909,9.3613803 C78.876204,10.4133516 81.6424929,16.6924624 82.8101983,20.4372788 Z M70.5747875,24.1770618 L54.8515581,28.9839162 C56.3711048,23.2408577 59.2521246,17.5204493 62.7934844,13.7731163 C64.1090652,12.3763602 65.9498584,10.82357 68.1322946,9.93518281 C70.182153,14.158168 70.625779,20.1352774 70.5747875,24.1795785 L70.5747875,24.1770618 Z M60.4784703,4.874144 C62.21983,4.83639384 63.6832861,5.21389549 64.9351275,6.02678238 C62.9311615,7.05358687 60.996034,8.52835999 59.1807365,10.4511017 C54.474221,15.4341235 50.8665722,23.1729074 49.4286119,30.6373734 C44.9413598,32.0089627 40.5535411,33.3528686 36.5124646,34.583524 C39.0620397,22.8331559 49.0410765,5.2013121 60.4784703,4.874144 Z" id="Shape" fill="#95BF47"></path>
            <path d="M116.817614,26.5145576 C116.259338,26.4662207 105.321736,26.3008574 105.321736,26.3008574 C105.321736,26.3008574 96.1742036,17.4755489 95.2702061,16.5800433 C94.920106,16.2567782 94.4749318,16.0534881 94,16 L94.0025609,151 L135,140.87977 C135,140.87977 118.272205,28.529445 118.164647,27.7585979 C118.057627,27.0847835 117.501765,26.5703717 116.817614,26.5120136 L116.817614,26.5145576 Z" id="Path" fill="#5E8E3E"></path>
            <path d="M72,47.5875401 L67.3056074,65.1234768 C67.3056074,65.1234768 62.0711072,62.7461926 55.8674421,63.1344236 C46.7663777,63.711728 46.6704708,69.4419154 46.7638538,70.881395 C47.2585318,78.7241637 67.9138593,80.435909 69.0748381,98.808811 C69.9859541,113.261589 61.3997586,123.148873 49.0277625,123.930376 C34.1748052,124.863139 26,116.115338 26,116.115338 L29.1472622,102.746582 C29.1472622,102.746582 37.3750686,108.948192 43.9623615,108.532231 C48.2655547,108.259965 49.8051136,104.763366 49.6486338,102.292805 C49.0025239,92.0626686 32.1809503,92.6651828 31.1184023,75.8552885 C30.2224295,61.7100699 39.5228794,47.3732568 60.0469659,46.0825151 C67.9542412,45.5732771 72,47.5875401 72,47.5875401 Z" id="Path" fill="#FFFFFF"></path>
            <path d="M187.195961,85.7139378 C182.549284,83.1974998 180.15776,81.0811754 180.15776,78.1671402 C180.15776,74.4629434 183.476094,72.0823931 188.660674,72.0823931 C194.693778,72.0823931 200.080388,74.5963146 200.080388,74.5963146 L204.328056,61.6240766 C204.328056,61.6240766 200.421312,58.5791866 188.923312,58.5791866 C172.920056,58.5791866 161.82864,67.7113402 161.82864,80.5476906 C161.82864,87.8277458 167.005645,93.3865574 173.917576,97.3549801 C179.496114,100.528208 181.488629,102.78042 181.488629,106.08702 C181.488629,109.526991 178.698098,112.307655 173.521094,112.307655 C165.803569,112.307655 158.515358,108.336716 158.515358,108.336716 L154,121.306437 C154,121.306437 160.732631,125.805828 172.061431,125.805828 C188.529355,125.805828 200.350602,117.733095 200.350602,103.175501 C200.345551,95.3745434 194.373056,89.8132154 187.195961,85.7114214 L187.195961,85.7139378 Z M252.807543,58.4508483 C244.706163,58.4508483 238.329609,62.2884163 233.417769,68.1089374 L233.152605,67.9755662 L240.190806,31.3186135 L221.861686,31.3186135 L204.065418,124.61807 L222.394538,124.61807 L228.505928,92.7247342 C230.894926,80.6785453 237.137636,73.2726682 242.981337,73.2726682 C247.097687,73.2726682 248.693719,76.0508158 248.693719,80.021755 C248.693719,82.538193 248.428556,85.583083 247.898228,88.0944882 L240.993873,124.620586 L259.322993,124.620586 L266.492512,86.904213 C267.290528,82.9307574 267.823381,78.1721731 267.823381,74.9913954 C267.815805,64.6664502 262.371112,58.4483318 252.810069,58.4483318 L252.807543,58.4508483 Z M309.249515,58.4508483 C287.200529,58.4508483 272.596326,78.3005114 272.596326,100.39987 C272.596326,114.559867 281.359353,125.9392 297.829802,125.9392 C319.477255,125.9392 334.086509,106.620505 334.086509,83.9901778 C334.086509,70.8896014 326.381611,58.4483318 309.249515,58.4483318 L309.249515,58.4508483 Z M300.2188,111.917607 C293.976091,111.917607 291.319404,106.623021 291.319404,100.004789 C291.319404,89.5515058 296.766622,72.4799903 306.726673,72.4799903 C313.234546,72.4799903 315.355855,78.0413183 315.355855,83.4642422 C315.355855,94.7127202 309.916213,111.917607 300.2188,111.917607 Z M380.967438,58.4508483 C368.595661,58.4508483 361.575138,69.301729 361.575138,69.301729 L361.3125,69.301729 L362.375679,59.5102687 L346.172919,59.5102687 C345.377428,66.1285007 343.912715,76.1816706 342.455578,83.7259518 L329.704995,150.554996 L348.034115,150.554996 L353.077275,123.558649 L353.478808,123.558649 C353.478808,123.558649 357.239081,125.9392 364.236876,125.9392 C385.750485,125.9392 399.826885,103.973212 399.826885,81.7379657 C399.826885,69.4351003 394.379667,58.4508483 380.967438,58.4508483 L380.967438,58.4508483 Z M363.436334,112.1768 C358.678541,112.1768 355.862756,109.532024 355.862756,109.532024 L358.918451,92.4605082 C361.044811,81.0811754 367.019831,73.5368942 373.396385,73.5368942 C378.974923,73.5368942 380.699749,78.6955922 380.699749,83.595097 C380.699749,95.372027 373.661549,112.179317 363.436334,112.179317 L363.436334,112.1768 Z M425.989696,32.2471792 C420.14852,32.2471792 415.499318,36.8774251 415.499318,42.8313175 C415.499318,48.2592743 418.951496,51.9659875 424.131025,51.9659875 L424.396189,51.9659875 C430.108571,51.9659875 435.020412,48.1259031 435.154256,41.3793327 C435.154256,36.0847471 431.568234,32.2446627 425.989696,32.2446627 L425.989696,32.2471792 Z M400.359738,124.61807 L418.683807,124.61807 L431.171751,59.9078659 L412.708787,59.9078659 L400.359738,124.61807 Z M477.787517,59.7744947 L465.036934,59.7744947 L465.698581,56.7296047 C466.761761,50.5089699 470.481627,44.9526747 476.590492,44.9526747 C478.574005,44.9571255 480.544707,45.269557 482.431668,45.8787239 L486.017691,31.585356 C486.017691,31.585356 482.830676,30 476.055114,30 C469.547241,30 463.044419,31.8520984 458.127528,36.0847471 C451.884818,41.3793327 448.962968,49.0519523 447.503305,56.7296047 L446.975503,59.7744947 L438.47259,59.7744947 L435.815903,73.5394107 L444.318816,73.5394107 L434.623929,124.623103 L452.953049,124.623103 L462.647936,73.5394107 L475.264674,73.5394107 L477.787517,59.7744947 Z M521.877914,59.9103823 C521.877914,59.9103823 510.42032,88.6732689 505.276146,104.373326 L505.008457,104.373326 C504.659956,99.3152853 500.493099,59.9078659 500.493099,59.9078659 L481.234644,59.9078659 L492.262925,119.323484 C492.530614,120.64713 492.39677,121.444841 491.863917,122.368374 C489.735032,126.470168 486.151535,130.443624 481.901341,133.355142 C478.449163,135.869064 474.597977,137.456936 471.544807,138.51384 L476.590492,154 C480.310359,153.207322 488.010206,150.159916 494.518079,144.075168 C502.887148,136.266661 510.586995,124.222989 518.55453,107.813297 L541,59.902833 L521.877914,59.902833 L521.877914,59.9103823 Z" id="Shape" fill="#000000"></path>
        </g>
    </g>
</svg>