<?xml version="1.0" encoding="UTF-8"?>
<svg width="600px" height="230px" viewBox="0 0 600 230" version="1.1" xmlns="http://www.w3.org/2000/svg" xmlns:xlink="http://www.w3.org/1999/xlink">
    <title>logo-github</title>
    <g id="logo-github" stroke="none" stroke-width="1" fill="none" fill-rule="evenodd">
        <g id="github-2" transform="translate(60.000000, 50.000000)" fill="#121110" fill-rule="nonzero">
            <path d="M92.497,55.588 L52.141,55.588 C51.0996196,55.5885517 50.2555517,56.4326196 50.255,57.474 L50.255,77.205 C50.2555489,78.2468677 51.0991345,79.0917951 52.141,79.094 L67.884,79.094 L67.884,103.607 C67.884,103.607 64.349,104.813 54.576,104.813 C43.046,104.813 26.939,100.599 26.939,65.181 C26.939,29.756 43.711,25.094 59.457,25.094 C73.087,25.094 78.959,27.495 82.695,28.65 C83.869,29.01 84.955,27.842 84.955,26.799 L89.457,7.736 C89.457,7.249 89.292,6.661 88.736,6.262 C87.219,5.18 77.962,2.84217094e-14 54.576,2.84217094e-14 C27.635,2.84217094e-14 0,11.463 0,66.562 C0,121.665 31.64,129.875 58.302,129.875 C80.378,129.875 93.77,120.441 93.77,120.441 C94.322,120.135 94.382,119.364 94.382,119.01 L94.382,57.473 C94.382,56.433 93.538,55.588 92.497,55.588 M300.476068,6.602 C300.48026,6.10183754 300.285033,5.62059616 299.933516,5.26476338 C299.582,4.90893061 299.103177,4.70784423 298.603,4.706 L275.879,4.706 C275.378005,4.70785308 274.898266,4.90865153 274.545322,5.26422125 C274.192378,5.61979098 273.99514,6.10100501 273.997,6.602 L274.003,50.515 L238.584,50.515 L238.584,6.602 C238.587726,6.10165221 238.392051,5.62041747 238.040217,5.26464357 C237.688384,4.90886967 237.209358,4.7078472 236.709,4.706 L213.987,4.706 C212.945225,4.71150896 212.105017,5.56022237 212.109978,6.602 L212.109978,125.506 C212.109978,126.554 212.953,127.407 213.987,127.407 L236.709,127.407 C237.748,127.407 238.584,126.553 238.584,125.506 L238.584,74.646 L274.003,74.646 L273.941,125.506 C273.941,126.554 274.785,127.407 275.824,127.407 L298.601,127.407 C299.642,127.407 300.474,126.553 300.476068,125.506 L300.476068,6.602 M135.376,22.206 C135.376,14.023 128.816,7.411 120.723,7.411 C112.638,7.411 106.073,14.023 106.073,22.206 C106.073,30.379 112.638,37.008 120.723,37.008 C128.816,37.008 135.376,30.379 135.376,22.206 M133.751,100.424 L133.751,45.538 C133.753771,44.4961247 132.912864,43.6485089 131.871,43.643 L109.22,43.643 C108.181,43.643 107.251,44.715 107.251,45.758 L107.251,124.392 C107.251,126.704 108.691,127.39 110.555,127.39 L130.963,127.39 C133.202,127.39 133.751,126.29 133.751,124.356 L133.751,100.424 M386.832,43.822 L364.283,43.822 C363.249,43.822 362.407,44.674 362.407,45.723 L362.407,104.025 C362.407,104.025 356.678,108.217 348.548,108.217 C340.418,108.217 338.261,104.528 338.261,96.567 L338.261,45.723 C338.261,44.674 337.42,43.822 336.386,43.822 L313.5,43.822 C312.468,43.822 311.621,44.674 311.621,45.723 L311.621,100.416 C311.621,124.062 324.8,129.847 342.931,129.847 C357.804,129.847 369.795,121.631 369.795,121.631 C369.795,121.631 370.366,125.96 370.624,126.474 C370.883,126.986 371.556,127.503 372.283,127.503 L386.843,127.439 C387.875,127.439 388.722,126.585 388.722,125.541 L388.714,45.724 C388.714,44.674 387.871,43.822 386.832,43.822 M439.567,108.145 C431.746,107.907 426.441,104.357 426.441,104.357 L426.441,66.704 C426.441,66.704 431.674,63.496 438.095,62.922 C446.215,62.195 454.039,64.648 454.039,84.017 C454.04,104.443 450.509,108.474 439.567,108.145 L439.567,108.145 Z M448.461,41.152 C435.654,41.152 426.943,46.866 426.943,46.866 L426.943,6.603 C426.943,5.553 426.104,4.706 425.068,4.706 L402.281,4.706 C401.780361,4.70838075 401.301187,4.90961392 400.948964,5.26540072 C400.596741,5.62118752 400.400341,6.10236197 400.402973,6.603 L400.402973,125.506 C400.402973,126.554 401.245,127.407 402.284,127.407 L418.095,127.407 C418.806,127.407 419.345,127.04 419.743,126.398 C420.136,125.759 420.703,120.916 420.703,120.916 C420.703,120.916 430.021,129.746 447.66,129.746 C468.368,129.746 480.244,119.242 480.244,82.592 C480.244,45.941 461.277,41.152 448.461,41.152 M199.058,43.633 L182.013,43.633 L181.987,21.114 C181.987,20.262 181.548,19.836 180.563,19.836 L157.335,19.836 C156.432,19.836 155.947,20.234 155.947,21.101 L155.947,44.372 C155.947,44.372 144.307,47.181 143.52,47.409 C142.713574,47.6427202 142.159,48.3813879 142.159,49.221 L142.159,63.844 C142.159,64.896 142.999,65.742 144.038,65.742 L155.947,65.742 L155.947,100.92 C155.947,127.05 174.275,129.617 186.643,129.617 C192.294,129.617 199.054,127.803 200.17,127.389 C200.845,127.141 201.237,126.442 201.237,125.684 L201.256,109.598 C201.256,108.548 200.37,107.701 199.372,107.701 C198.379,107.701 195.838,108.105 193.222,108.105 C184.85,108.105 182.013,104.212 182.013,99.173 L182.012,65.741 L199.058,65.741 C200.097,65.741 200.938,64.894 200.938,63.843 L200.938,45.526 C200.940392,45.025467 200.743506,44.5445563 200.390793,44.1894046 C200.03808,43.8342529 199.558538,43.634057 199.058,43.633" id="Shape"></path>
        </g>
    </g>
</svg>