<?xml version="1.0" encoding="UTF-8"?>
<svg width="600px" height="230px" viewBox="0 0 600 230" version="1.1" xmlns="http://www.w3.org/2000/svg" xmlns:xlink="http://www.w3.org/1999/xlink">
    <title>logo-amazon</title>
    <g id="logo-amazon" stroke="none" stroke-width="1" fill="none" fill-rule="evenodd">
        <g transform="translate(26.000000, 43.000000)" fill-rule="nonzero">
            <path d="M116.622583,39.1911085 L116.622583,91.9953509 C116.622583,93.7777599 115.171942,95.2226879 113.382485,95.2226879 L96.6476895,95.2226879 C94.8585591,95.2219026 93.4075909,93.7774345 93.4075909,91.9953509 L93.4075909,6.10663522 C93.4075909,4.32422621 94.8582324,2.87929822 96.6476895,2.87929822 L112.133875,2.87929822 C113.923332,2.87929822 115.373974,4.32422621 115.373974,6.10663522 L115.373974,18.2020341 C115.373974,18.2020341 120.909857,0.948303366 137.338928,0.948303366 C137.338928,0.948303366 153.589423,-1.00830527 160.196767,16.9569195 C160.196767,16.9569195 165.73265,0.948303366 182.518875,0.948303366 C182.518875,0.948303366 207.482492,-0.530181268 207.482492,25.1988665 L207.672498,39.368982 L207.672498,92.1732244 C207.672498,93.9556334 206.221856,95.4005614 204.432399,95.4005614 L187.696175,95.4005614 C185.907045,95.4005614 184.456865,93.955308 184.456077,92.1732244 L184.303215,34.5663972 C184.778944,21.5218653 174.184335,22.4709984 174.184335,22.4709984 C160.851072,22.7086374 162.133969,39.368982 162.133969,39.368982 L162.133969,92.1732244 C162.133969,93.9556334 160.683327,95.4005614 158.89387,95.4005614 L142.159075,95.4005614 C140.369944,95.4005614 138.919765,93.955308 138.918976,92.1732244 L138.918976,35.8698543 C138.918976,35.8698543 139.897577,22.3514674 127.991501,22.3514674 C127.992929,22.3514674 116.206856,20.8103712 116.622583,39.1911085 Z M548,39.0331568 L548,91.8359762 C547.999212,93.6180598 546.549032,95.062528 544.759901,95.0633132 L527.355086,95.3991384 C525.565955,95.3991384 524.115776,93.953885 524.114987,92.1718014 L524.114987,35.8698543 C524.114987,35.8698543 525.093588,22.3514674 513.18894,22.3514674 C513.18894,22.3514674 501.818594,21.793656 501.818594,42.9890637 L501.818594,91.9939279 C501.817806,93.7760115 500.367626,95.2204796 498.578496,95.2212649 L481.842272,95.2212649 C480.053141,95.2204796 478.602962,93.7760115 478.602173,91.9939279 L478.602173,6.10663522 C478.602962,4.32455157 480.053141,2.88008345 481.842272,2.87929822 L497.328458,2.87929822 C499.117915,2.87929822 500.568556,4.32422621 500.568556,6.10663522 L500.568556,18.2020341 C500.568556,18.2020341 506.104439,0.948303366 522.533511,0.948303366 C522.533511,0.948303366 540.132618,-1.71126139 546.059941,16.6225173 C546.06137,16.6210943 548,20.4033966 548,39.0331568 Z M427.16775,0.592556341 C405.767099,0.592556341 388.416571,18.5577811 388.416571,48.7962782 C388.416571,75.4189625 401.809836,97 427.16775,97 C451.09705,97 465.91893,75.4189625 465.91893,48.7962782 C465.91893,19.0914016 448.569831,0.592556341 427.16775,0.592556341 Z M440.675304,49.8635192 C440.675304,61.247424 439.24669,67.2951234 439.24669,67.2951234 C437.213771,79.3293338 428.443504,79.3464097 427.150607,79.2823752 C425.75485,79.3378717 416.910295,79.2126488 415.08024,67.2951234 C415.08024,67.2951234 413.651625,61.247424 413.651625,49.8635192 L413.651625,47.9666761 C413.651625,36.5827713 415.08024,30.5350719 415.08024,30.5350719 C416.910295,18.6175466 425.756279,18.4923236 427.150607,18.5463972 C428.443504,18.4823627 437.213771,18.4980156 439.24669,30.5350719 C439.24669,30.5350719 440.675304,36.5827713 440.675304,47.9666761 L440.675304,49.8635192 Z M378.703418,18.0825031 L378.703418,5.75942613 C378.70263,3.97734247 377.25245,2.53208912 375.463319,2.53208912 L320.14735,2.53208912 C318.357893,2.53208912 316.907251,3.97701711 316.907251,5.75942613 L316.907251,17.9871629 C316.90804,19.7692465 318.358219,21.2137146 320.14735,21.2144999 L349.001085,21.2144999 L314.848617,70.5637271 C314.848617,70.5637271 313.502862,72.5644484 313.547149,74.7743489 L313.547149,89.7854503 C313.547149,89.7854503 313.324285,94.9323983 319.184463,91.9455463 C319.184463,91.9455463 329.593352,85.6815527 347.04674,85.6815527 C347.04674,85.6815527 364.282979,85.4681045 375.774757,92.4848588 C375.774757,92.4848588 380.544903,94.6449547 380.544903,89.8950204 L380.544903,76.8291437 C380.544903,76.8291437 380.977773,73.3712826 376.424777,71.2126097 C376.424777,71.2126097 363.19866,63.9781382 345.853847,65.1649103 L378.703418,18.0825031 Z M80.4914834,79.8629543 L75.2527525,71.9198348 C73.5855589,68.9543276 73.7055626,65.6330733 73.7055626,65.6330733 L73.7055626,28.9925528 C74.41987,-2.66893238 39.1802259,0.0589358043 39.1802259,0.0589358043 C7.85355803,0.0589358043 3.22627432,24.3422277 3.22627432,24.3422277 C1.92052029,29.2244999 5.71777874,29.3426079 5.71777874,29.3426079 L21.0253876,30.8893959 C21.0253876,30.8893959 23.635467,31.484205 24.5854959,28.3892059 C24.5854959,28.3892059 26.6012716,17.7950595 37.8744719,17.7950595 C50.1405595,17.7950595 50.0134128,28.2810588 50.0134128,28.2810588 L50.0134128,37.0594723 C25.5269532,37.8748445 14.1794649,44.6454219 14.1794649,44.6454219 C-0.939566769,53.1833505 0.0118907642,70.1410996 0.0118907642,70.1410996 C0.0118907642,97.7698366 26.4412667,96.5830645 26.4412667,96.5830645 C43.346067,96.5830645 53.3463714,84.2514496 53.3463714,84.2514496 C56.3221763,89.47097 61.7994859,94.4485823 61.7994859,94.4485823 C64.5395693,97.4083976 67.3953705,94.9238604 67.3953705,94.9238604 L79.7771759,84.3709806 C82.5144021,82.3531835 80.4914834,79.8629543 80.4914834,79.8629543 Z M34.6915178,79.5214372 C26.7398472,79.5214372 23.784043,71.65089 25.1040831,63.9155267 C26.4255519,56.1801634 33.288618,50.1011583 50.0148414,50.2790318 L50.0148414,54.9820074 C50.6077166,75.5271096 41.3102907,79.5214372 34.6915178,79.5214372 Z M302.878253,79.8629543 L297.640951,71.9198348 C295.973757,68.9543276 296.092332,65.6330733 296.092332,65.6330733 L296.092332,28.9925528 C296.806639,-2.66893238 261.566995,0.0589358043 261.566995,0.0589358043 C230.240327,0.0589358043 225.613044,24.3422277 225.613044,24.3422277 C224.30729,29.2244999 228.104548,29.3426079 228.104548,29.3426079 L243.412157,30.8893959 C243.412157,30.8893959 246.022236,31.484205 246.972265,28.3892059 C246.972265,28.3892059 248.988041,17.7950595 260.261241,17.7950595 C272.527329,17.7950595 272.400182,28.2810588 272.400182,28.2810588 L272.400182,37.0594723 C247.915151,37.8748445 236.566234,44.6454219 236.566234,44.6454219 C221.447203,53.1833505 222.39866,70.1410996 222.39866,70.1410996 C222.39866,97.7698366 248.828036,96.5830645 248.828036,96.5830645 C265.732836,96.5830645 275.733141,84.2514496 275.733141,84.2514496 C278.710374,89.47097 284.184827,94.4485823 284.184827,94.4485823 C286.92491,97.4083976 289.78214,94.9238604 289.78214,94.9238604 L302.162517,84.3709806 C304.901172,82.3531835 302.878253,79.8629543 302.878253,79.8629543 L302.878253,79.8629543 Z M257.078287,79.5214372 C249.126617,79.5214372 246.170812,71.65089 247.490853,63.9155267 C248.812321,56.1801634 255.675387,50.1011583 272.400182,50.2790318 L272.400182,54.9820074 C272.994486,75.5271096 263.698489,79.5214372 257.078287,79.5214372 Z" id="Shape" fill="#000000"></path>
            <g id="Group" transform="translate(77.000000, 100.000000)" fill="#F3971B">
                <path d="M268.178056,50.7629398 C268.178056,50.7629398 266.775761,53.2255834 268.498581,53.7758868 C268.498581,53.7758868 270.444624,54.542845 272.871454,52.2694133 C272.871454,52.2694133 290.570426,36.6630409 290.996838,8.24947697 C290.996838,8.24947697 291.127052,4.70067021 289.716171,3.7300564 C289.716171,3.7300564 284.17138,-1.22122955 264.233027,0.285243978 C264.233027,0.285243978 246.853148,1.46962393 237.364759,9.97260536 C237.364759,9.97260536 236.511935,10.7251199 236.511935,11.692845 C236.511935,11.692845 236.307314,13.7828423 241.522995,12.877225 C241.522995,12.877225 258.901442,10.4001376 269.244087,11.692845 C269.244087,11.692845 274.577103,12.3384765 276.069546,14.1699324 C276.069546,14.1699324 278.522132,16.2151543 277.241464,22.993563 C277.241464,22.9964517 273.721416,40.2161807 268.178056,50.7629398 L268.178056,50.7629398 Z" id="Path"></path>
                <path d="M264.673749,23.5034241 C264.673749,23.5034241 267.269426,26.8976837 263.081142,29.8254132 C263.081142,29.8254132 218.34076,65.9490017 143.217787,65.9490017 C143.217787,65.9490017 65.888345,69.7996809 1.31836085,10.5806834 C1.31836085,10.5806834 -0.945344742,8.57445927 0.459812585,6.70978303 C0.459812585,6.70978303 1.71615488,4.99387647 4.96862189,6.85999707 C4.96862189,6.85999707 65.7094808,45.0649167 145.482924,45.0649167 C145.482924,45.0649167 200.930833,47.2314654 257.809655,22.6772469 C257.809655,22.6772469 262.341359,20.3070426 264.673749,23.5034241 Z" id="Path"></path>
            </g>
        </g>
    </g>
</svg>