<?xml version="1.0" encoding="UTF-8"?>
<svg width="200px" height="200px" viewBox="0 0 200 200" version="1.1" xmlns="http://www.w3.org/2000/svg" xmlns:xlink="http://www.w3.org/1999/xlink">
    <title>square-logo-discord</title>
    <g id="square-logo-discord" stroke="none" stroke-width="1" fill="none" fill-rule="evenodd">
        <g id="discord-brands" transform="translate(15.000000, 34.000000)" fill="#5865F2" fill-rule="nonzero">
            <path d="M144.970021,10.9769787 C144.919922,10.8832053 144.837174,10.8109589 144.737376,10.7738604 C133.658723,5.70116372 121.967884,2.08259848 109.956996,0.00858672467 C109.735713,-0.0318808641 109.513264,0.0732590691 109.404465,0.269738915 C107.811391,3.15486711 106.365216,6.1183591 105.071458,9.14891339 C92.1175419,7.18699761 78.9410672,7.18699761 65.9871514,9.14891339 C64.6881819,6.11086707 63.2222317,3.14663831 61.595983,0.269738915 C61.4812492,0.0796816929 61.2635145,-0.0232299354 61.0434519,0.00858672467 C49.0116143,2.07325532 37.3003537,5.69209013 26.2049109,10.7738604 C26.1075962,10.8150113 26.0260603,10.8861989 25.9722662,10.9769787 C3.81286036,44.0272393 -2.26498193,76.2360094 0.701237751,108.06756 C0.718220307,108.229547 0.802640002,108.376958 0.933882432,108.473797 C13.8417192,118.000349 28.2769703,125.270853 43.6241814,129.975327 C43.8503344,130.045151 44.0959377,129.963463 44.2348737,129.772208 C47.5277693,125.299226 50.4456995,120.563119 52.9590492,115.611956 C53.0266941,115.474222 53.0337763,115.314594 52.9785938,115.171434 C52.9234113,115.028274 52.810953,114.914523 52.6682434,114.857517 C48.0575809,113.094633 43.5942646,110.96974 39.3202548,108.502813 C39.1669893,108.409191 39.0689289,108.247043 39.057359,108.068103 C39.0457892,107.889163 39.1221555,107.715787 39.2620936,107.603289 C40.1635918,106.9359 41.0650899,106.239494 41.9084269,105.543089 C42.0603208,105.410078 42.275382,105.376196 42.460958,105.456038 C70.4364809,118.194461 100.738451,118.194461 128.394087,105.456038 C128.574206,105.368212 128.788774,105.390749 128.946618,105.514072 C129.789955,106.210478 130.691453,106.9359 131.592951,107.603289 C131.73289,107.715787 131.809256,107.889163 131.797686,108.068103 C131.786116,108.247043 131.688056,108.409191 131.53479,108.502813 C127.271845,110.982525 122.806651,113.098605 118.186802,114.8285 C118.044092,114.885506 117.931634,114.999257 117.876451,115.142417 C117.821269,115.285578 117.828351,115.445205 117.895996,115.582939 C120.453248,120.509467 123.369126,125.242242 126.620171,129.743192 C126.759107,129.934446 127.004711,130.016134 127.230864,129.94631 C142.622407,125.26293 157.099368,117.991232 170.037485,108.44478 C170.171629,108.350544 170.256868,108.201702 170.27013,108.038543 C173.817961,71.2741178 164.279529,39.3264998 144.970021,10.9769787 Z M57.1466535,88.6842638 C48.7132838,88.6842638 41.7921045,80.9657658 41.7921045,71.5062531 C41.7921045,62.0467404 48.5969615,54.2992254 57.1466535,54.2992254 C65.7835873,54.2992254 72.6466053,62.0757573 72.5012024,71.4772362 C72.5012024,80.9657658 65.6963455,88.6842638 57.1466535,88.6842638 Z M113.970117,88.6842638 C105.536747,88.6842638 98.6155679,80.9657658 98.6155679,71.5062531 C98.6155679,62.0467404 105.391344,54.2992254 113.970117,54.2992254 C122.607051,54.2992254 129.470069,62.0757573 129.324666,71.4772362 C129.324666,80.9657658 122.57797,88.6842638 113.970117,88.6842638 Z" id="Shape"></path>
        </g>
    </g>
</svg>