<?xml version="1.0" encoding="UTF-8"?>
<svg width="200px" height="200px" viewBox="0 0 200 200" version="1.1" xmlns="http://www.w3.org/2000/svg" xmlns:xlink="http://www.w3.org/1999/xlink">
    <title>square-logo-spotify</title>
    <g id="square-logo-spotify" stroke="none" stroke-width="1" fill="none" fill-rule="evenodd">
        <g id="spotify-brands" transform="translate(18.000000, 17.000000)" fill="#1ED760" fill-rule="nonzero">
            <path d="M82.5,0 C36.9586694,0 0,36.9586694 0,82.5 C0,128.041331 36.9586694,165 82.5,165 C128.041331,165 165,128.041331 165,82.5 C165,36.9586694 128.041331,0 82.5,0 Z M115.998992,121.388105 C114.601815,121.388105 113.736895,120.955645 112.439516,120.190524 C91.6814516,107.68246 67.5302419,107.150202 43.6784274,112.040323 C42.3810484,112.372984 40.6844758,112.905242 39.7197581,112.905242 C36.4929435,112.905242 34.4637097,110.34375 34.4637097,107.649194 C34.4637097,104.222782 36.4929435,102.592742 38.9879032,102.060484 C66.2328629,96.0393145 94.0766129,96.5715726 117.828629,110.77621 C119.857863,112.073589 121.055444,113.237903 121.055444,116.265121 C121.055444,119.292339 118.693548,121.388105 115.998992,121.388105 L115.998992,121.388105 Z M124.947581,99.5655242 C123.217742,99.5655242 122.053427,98.8004032 120.855847,98.1683468 C100.064516,85.859879 69.0604839,80.9032258 41.4828629,88.3881048 C39.8860887,88.8205645 39.0211694,89.2530242 37.5241935,89.2530242 C33.9647177,89.2530242 31.0705645,86.358871 31.0705645,82.7993952 C31.0705645,79.2399194 32.8004032,76.8780242 36.2268145,75.9133065 C45.4747984,73.3185484 54.922379,71.3891129 68.7610887,71.3891129 C90.3508065,71.3891129 111.208669,76.7449597 127.642137,86.5252016 C130.336694,88.1219758 131.40121,90.1844758 131.40121,93.078629 C131.367944,96.671371 128.573589,99.5655242 124.947581,99.5655242 L124.947581,99.5655242 Z M135.260081,74.2167339 C133.530242,74.2167339 132.465726,73.7842742 130.96875,72.9193548 C107.283266,58.78125 64.9354839,55.3881048 37.5241935,63.0393145 C36.3266129,63.3719758 34.8296371,63.9042339 33.2328629,63.9042339 C28.8417339,63.9042339 25.4818548,60.4778226 25.4818548,56.0534274 C25.4818548,51.5292339 28.2762097,48.9677419 31.2701613,48.1028226 C42.9798387,44.6764113 56.0866935,43.046371 70.3578629,43.046371 C94.6421371,43.046371 120.090726,48.1028226 138.686492,58.9475806 C141.28125,60.4445565 142.977823,62.5070565 142.977823,66.4657258 C142.977823,70.9899194 139.318548,74.2167339 135.260081,74.2167339 L135.260081,74.2167339 Z" id="Shape"></path>
        </g>
    </g>
</svg>