<?xml version="1.0" encoding="UTF-8"?>
<svg width="200px" height="200px" viewBox="0 0 200 200" version="1.1" xmlns="http://www.w3.org/2000/svg" xmlns:xlink="http://www.w3.org/1999/xlink">
    <title>square-logo-github</title>
    <g id="square-logo-github" stroke="none" stroke-width="1" fill="none" fill-rule="evenodd">
        <g id="github-brands" transform="translate(16.000000, 17.000000)" fill="#000000" fill-rule="nonzero">
            <path d="M56.5264113,132.857759 C56.5264113,133.54013 55.7427419,134.086028 54.7546371,134.086028 C53.6302419,134.188383 52.8465726,133.642486 52.8465726,132.857759 C52.8465726,132.175387 53.6302419,131.62949 54.6183468,131.62949 C55.6405242,131.527134 56.5264113,132.073031 56.5264113,132.857759 Z M45.9298387,131.322423 C45.6913306,132.004794 46.3727823,132.789522 47.3949597,132.994233 C48.2808468,133.335419 49.3030242,132.994233 49.5074597,132.311861 C49.7118952,131.62949 49.0645161,130.844762 48.0423387,130.537695 C47.1564516,130.298865 46.1683468,130.640051 45.9298387,131.322423 Z M60.9899194,130.742407 C60.0018145,130.981237 59.3203629,131.62949 59.4225806,132.414217 C59.5247984,133.096589 60.4106855,133.54013 61.4328629,133.3013 C62.4209677,133.06247 63.1024194,132.414217 63.0002016,131.731845 C62.8979839,131.083592 61.9780242,130.640051 60.9899194,130.742407 Z M83.4096774,0 C36.1510081,0 0,35.926867 0,83.2493403 C0,121.086848 23.7826613,153.465382 57.7530242,164.860989 C62.1143145,165.645716 63.6475806,162.950348 63.6475806,160.73264 C63.6475806,158.617288 63.5453629,146.948733 63.5453629,139.783831 C63.5453629,139.783831 39.6945565,144.901618 34.6858871,129.616493 C34.6858871,129.616493 30.8016129,119.687986 25.2137097,117.129092 C25.2137097,117.129092 17.4110887,111.772475 25.758871,111.874831 C25.758871,111.874831 34.2429435,112.557202 38.9108871,120.677425 C46.3727823,133.847198 58.8774194,130.060035 63.7497984,127.808209 C64.5334677,122.349235 66.7481855,118.562073 69.2014113,116.310246 C50.1548387,114.194894 30.9379032,111.431289 30.9379032,78.6092132 C30.9379032,69.2266031 33.5274194,64.5182388 38.9790323,58.5133683 C38.0931452,56.2956605 35.1969758,47.1518805 39.8649194,35.3468511 C46.9860887,33.1291432 63.375,44.5588682 63.375,44.5588682 C70.1895161,42.6482276 77.515121,41.6587887 84.7725806,41.6587887 C92.0300403,41.6587887 99.3556452,42.6482276 106.170161,44.5588682 C106.170161,44.5588682 122.559073,33.0950246 129.680242,35.3468511 C134.348185,47.185999 131.452016,56.2956605 130.566129,58.5133683 C136.017742,64.5523573 139.356855,69.2607217 139.356855,78.6092132 C139.356855,111.533645 119.288105,114.160776 100.241532,116.310246 C103.37621,119.005614 106.033871,124.123402 106.033871,132.141268 C106.033871,143.639231 105.931653,157.866679 105.931653,160.664403 C105.931653,162.882111 107.498992,165.577479 111.82621,164.792752 C145.89879,153.465382 169,121.086848 169,83.2493403 C169,35.926867 130.668347,0 83.4096774,0 Z M33.1185484,117.67499 C32.6756048,118.016175 32.7778226,118.800903 33.3570565,119.449156 C33.9022177,119.995053 34.6858871,120.233883 35.1288306,119.790342 C35.5717742,119.449156 35.4695565,118.664429 34.8903226,118.016175 C34.3451613,117.470278 33.5614919,117.231448 33.1185484,117.67499 Z M29.4387097,114.911385 C29.2002016,115.354926 29.5409274,115.900823 30.222379,116.242009 C30.7675403,116.583195 31.4489919,116.480839 31.6875,116.003179 C31.9260081,115.559638 31.5852823,115.01374 30.9038306,114.672554 C30.222379,114.467843 29.6772177,114.570199 29.4387097,114.911385 Z M40.4782258,127.0576 C39.9330645,127.501141 40.1375,128.524699 40.9211694,129.172952 C41.7048387,129.957679 42.6929435,130.060035 43.1358871,129.514138 C43.5788306,129.070596 43.3743952,128.047039 42.6929435,127.398786 C41.9433468,126.614058 40.9211694,126.511702 40.4782258,127.0576 Z M36.5939516,122.042168 C36.0487903,122.383354 36.0487903,123.270437 36.5939516,124.055165 C37.1391129,124.839892 38.0590726,125.181078 38.5020161,124.839892 C39.0471774,124.39635 39.0471774,123.509267 38.5020161,122.72454 C38.025,121.939812 37.1391129,121.598627 36.5939516,122.042168 Z" id="Shape"></path>
        </g>
    </g>
</svg>