<svg xmlns="http://www.w3.org/2000/svg" width="48" height="48" fill="none" viewBox="0 0 48 48" id="coinbase"><path fill="#0052FF" d="M0 11.0769C0 4.95931 4.95931 0 11.0769 0H36.9231C43.0407 0 48 4.95931 48 11.0769V36.9231C48 43.0407 43.0407 48 36.9231 48H11.0769C4.95931 48 0 43.0407 0 36.9231V11.0769Z"></path><path fill="#fff" d="M23.9548 33C22.2558 32.9657 20.601 32.4534 19.181 31.5223C17.761 30.5911 16.6335 29.2788 15.9283 27.7365C15.2232 26.1943 14.969 24.4847 15.195 22.8047C15.4211 21.1246 16.1182 19.5424 17.2061 18.2402C18.294 16.938 19.7285 15.9687 21.3444 15.444C22.9602 14.9192 24.6918 14.8603 26.3398 15.2741C27.9878 15.6879 29.4851 16.5574 30.6594 17.7827C31.8337 19.008 32.6372 20.5392 32.9774 22.2H42C41.5371 17.6053 39.3215 13.3637 35.8114 10.3527C32.3014 7.34165 27.7655 5.79141 23.1418 6.02259C18.5181 6.25377 14.1604 8.2487 10.9698 11.5948C7.77927 14.9409 6 19.3821 6 24C6 28.6179 7.77927 33.0591 10.9698 36.4052C14.1604 39.7513 18.5181 41.7462 23.1418 41.9774C27.7655 42.2086 32.3014 40.6584 35.8114 37.6473C39.3215 34.6363 41.5371 30.3947 42 25.8H32.9774C32.9774 29.4 27.5638 33 23.9548 33Z"></path></svg>