<svg xmlns="http://www.w3.org/2000/svg"  viewBox="0 0 64 64" width="64px" height="64px" baseProfile="basic"><linearGradient id="2xyP8ITvw2AyN9J62dUAba" x1="32" x2="32" y1="17.936" y2="43.068" gradientUnits="userSpaceOnUse"><stop offset="0" stop-color="#6dc7ff"/><stop offset="1" stop-color="#e6abff"/></linearGradient><path fill="url(#2xyP8ITvw2AyN9J62dUAba)" d="M41.806,25H17.032l5.161-6h24.774L41.806,25z M17.032,45h24.774l5.161-6H22.194L17.032,45z M17.032,29l5.161,6h24.774l-5.161-6H17.032z"/><linearGradient id="2xyP8ITvw2AyN9J62dUAbb" x1="32" x2="32" y1="8.553" y2="55.331" gradientUnits="userSpaceOnUse"><stop offset="0" stop-color="#1a6dff"/><stop offset="1" stop-color="#c822ff"/></linearGradient><path fill="url(#2xyP8ITvw2AyN9J62dUAbb)" d="M32,58C17.663,58,6,46.337,6,32	C6,17.664,17.663,6,32,6s26,11.664,26,26C58,46.337,46.337,58,32,58z M32,8C18.767,8,8,18.767,8,32s10.767,24,24,24s24-10.767,24-24	S45.233,8,32,8z"/></svg>