<svg xmlns="http://www.w3.org/2000/svg" xmlns:xlink="http://www.w3.org/1999/xlink" x="0px" y="0px" viewBox="0 0 48 48" width="48" height="48"><g class="nc-icon-wrapper" fill="#444444"><path data-color="color-2" d="M46,11.006H39.352A6.243,6.243,0,0,0,41,6.97,6.172,6.172,0,0,0,34.666,1C28.7,1,25.456,6.017,24,9.2,22.547,6.017,19.312,1,13.365,1A6.165,6.165,0,0,0,7,6.97v.066a6.159,6.159,0,0,0,1.634,3.97H2a1,1,0,0,0-1,1v5a1,1,0,0,0,1,1H46a1,1,0,0,0,1-1v-5A1,1,0,0,0,46,11.006ZM34.7,3A4.183,4.183,0,0,1,39,6.97,4.144,4.144,0,0,1,34.7,11H25.411C26.423,8.465,29.236,3,34.7,3ZM13.334,3c5.419,0,8.236,5.462,9.253,8H13.3A4.15,4.15,0,0,1,9,7,4.2,4.2,0,0,1,13.334,3Z" fill="#444444"/><path d="M21,20H5V41a5,5,0,0,0,5,5H21Z" fill="#444444"/><path d="M27,20V46H38a5,5,0,0,0,5-5V20Z" fill="#444444"/></g></svg>